<svg width="116" height="160" viewBox="0 0 116 160" fill="none" xmlns="http://www.w3.org/2000/svg">
<g clip-path="url(#clip0_5825_49666)">
<path d="M85.1684 22.0112C86.2652 21.9664 87.362 22.7888 88.4587 22.9234C89.122 23.0056 89.7149 22.815 90.2114 22.3851C90.8006 21.8729 91.4564 21.1178 91.8973 20.4785C92.5532 19.5252 92.8867 18.415 93.4277 17.4056C93.965 16.4075 94.7653 15.5851 95.6398 14.8598C96.0992 14.4785 96.4661 13.8991 96.1326 13.3196C95.788 12.7252 95.0766 12.7589 94.4541 13.0505C94.9951 12.6505 96.0659 12.1383 95.9325 11.3234C95.8213 10.658 95.0469 10.3365 94.4578 10.7028C95.0655 10.2953 95.8547 9.73833 95.7065 9.02057C95.5694 8.33646 94.9876 7.79441 94.3837 8.28039C94.0798 8.51964 93.7945 8.63553 93.524 8.86357" fill="white"/>
<path d="M88.7515 23.185C88.644 23.185 88.5366 23.1775 88.4291 23.1663C87.9141 23.1028 87.4027 22.9009 86.9136 22.7028C86.3096 22.4598 85.7316 22.2317 85.1795 22.2542C85.035 22.2579 84.9349 22.1532 84.9312 22.0224C84.9275 21.8878 85.0313 21.7757 85.161 21.7719C85.8279 21.7495 86.4689 22.0037 87.0915 22.2542C87.5769 22.4486 88.0326 22.6317 88.4884 22.6878C89.0738 22.7588 89.6037 22.5981 90.0521 22.2056C90.6005 21.7271 91.2489 20.9981 91.6973 20.3439C92.0826 19.7869 92.3457 19.1775 92.6273 18.5345C92.8089 18.1233 92.9941 17.6972 93.2128 17.2897C93.6982 16.3887 94.4207 15.5551 95.4842 14.6729C95.7176 14.4785 96.2252 13.9738 95.9214 13.443C95.5805 12.8486 94.7875 13.1626 94.5504 13.271C94.4392 13.3233 94.3058 13.2822 94.2429 13.1738C94.1799 13.0654 94.2095 12.9271 94.3058 12.8523C94.4059 12.7775 94.5245 12.699 94.6467 12.6168C95.147 12.2841 95.7732 11.8729 95.688 11.3607C95.6509 11.1401 95.5101 10.957 95.2989 10.8598C95.0655 10.7514 94.795 10.7701 94.5726 10.9084C94.4615 10.9794 94.3133 10.942 94.2429 10.8336C94.1725 10.7215 94.2021 10.5757 94.3133 10.5009C94.9543 10.0673 95.5694 9.59996 95.4619 9.06912C95.3915 8.72893 95.1989 8.44482 94.9765 8.36258C94.832 8.31024 94.6801 8.34762 94.5245 8.47099C94.3651 8.59809 94.2132 8.69155 94.065 8.78127C93.9242 8.86725 93.7908 8.94575 93.6685 9.05043C93.5648 9.13641 93.4166 9.12146 93.3276 9.01678C93.2424 8.91211 93.2572 8.75884 93.361 8.67286C93.5129 8.54576 93.6685 8.4523 93.8167 8.36258C93.9575 8.2766 94.0909 8.19809 94.228 8.08594C94.5171 7.8579 94.8431 7.79061 95.1433 7.90276C95.5286 8.04482 95.8325 8.4523 95.9362 8.96819C96.0511 9.52519 95.7213 9.98875 95.3174 10.3514C95.3804 10.3701 95.4397 10.3925 95.499 10.4187C95.8547 10.5831 96.0993 10.8972 96.1622 11.2822C96.2549 11.8504 95.9066 12.2766 95.4879 12.613C95.851 12.6691 96.1474 12.8635 96.3364 13.1925C96.6773 13.7831 96.4735 14.4747 95.788 15.043C94.7727 15.8841 94.0909 16.6691 93.6352 17.514C93.424 17.9028 93.2424 18.3215 93.0645 18.7215C92.7866 19.357 92.4976 20.0149 92.09 20.6093C91.6194 21.2934 90.9414 22.0598 90.3633 22.5644C89.8964 22.9682 89.3443 23.1775 88.7478 23.1775L88.7515 23.185Z" fill="#484FA1"/>
<path d="M93.7945 7.03185C93.6833 5.7982 93.4832 2.92718 93.2757 1.68232C93.046 0.302876 92.2123 0.186988 90.8932 0.261754C85.7501 0.56082 83.7825 0.0935302 83.9641 2.41876C84.079 3.89914 84.1679 5.50288 84.2494 6.97577C84.3235 8.29914 84.6199 11.5963 84.7496 12.8898C84.8645 14.0487 84.946 17.4879 85.4462 17.8954C86.4022 18.673 90.7783 18.6244 92.3197 18.2879C94.5689 17.7982 94.7468 17.701 94.4207 14.187C94.2095 11.8842 94.0502 9.98886 93.7871 7.03185H93.7945Z" fill="#E7E7F0"/>
<path d="M89.3295 18.7589C87.6695 18.7589 85.9131 18.5832 85.3018 18.086C84.9016 17.7608 84.7571 16.5047 84.594 13.9888C84.5681 13.5552 84.5421 13.1776 84.5162 12.9159C84.3865 11.6 84.0901 8.31777 84.016 6.99067L83.99 6.51964C83.9122 5.16263 83.8344 3.76077 83.7307 2.44114C83.6788 1.77198 83.7937 1.30095 84.0938 0.960765C84.7163 0.257961 86.0021 0.213101 88.3402 0.134597C89.0849 0.108428 89.9261 0.0785219 90.8821 0.0261855C92.1604 -0.0448426 93.2461 0.0261854 93.5129 1.64862C93.6722 2.6131 93.8278 4.52712 93.9427 5.92525C93.9761 6.35142 94.0094 6.72899 94.0353 7.01684C94.1465 8.27665 94.2429 9.34207 94.3281 10.3327C94.4429 11.6636 94.5467 12.8486 94.669 14.172C94.9913 17.6785 94.8209 18.0038 92.3753 18.5346C91.7528 18.6692 90.5671 18.7664 89.3258 18.7664L89.3295 18.7589ZM91.4268 0.485999C91.2674 0.485999 91.097 0.493475 90.9117 0.50469C89.952 0.560765 89.1072 0.590671 88.3587 0.613101C86.2244 0.687868 84.9386 0.728989 84.4532 1.27852C84.2457 1.51404 84.1679 1.86918 84.2087 2.40002C84.3124 3.72712 84.3939 5.12899 84.468 6.48974L84.494 6.96077C84.5681 8.28413 84.8645 11.5552 84.9942 12.8673C85.0201 13.1327 85.0461 13.5178 85.072 13.9589C85.1387 15.0056 85.298 17.458 85.6019 17.7084C86.4689 18.415 90.7227 18.3888 92.2753 18.0524C94.4133 17.5888 94.4985 17.5701 94.1873 14.2094C94.065 12.886 93.9612 11.701 93.8464 10.3701C93.7611 9.38319 93.6648 8.31404 93.5536 7.05422C93.5277 6.76637 93.4981 6.38506 93.461 5.9589C93.3498 4.56824 93.1942 2.66544 93.0349 1.72338C92.8719 0.736466 92.4087 0.489737 91.4193 0.489737L91.4268 0.485999Z" fill="#484FA1"/>
<path d="M88.7806 1.88743L90.2064 1.84021L90.202 1.7057L88.7762 1.75292L88.7806 1.88743Z" fill="white"/>
<path d="M88.7811 2.13827C88.7181 2.13827 88.6625 2.11585 88.6181 2.07099C88.5699 2.02613 88.544 1.96631 88.5403 1.90276V1.76818C88.5328 1.6336 88.6366 1.52145 88.77 1.51771L90.1929 1.46912C90.2559 1.46912 90.3188 1.49155 90.367 1.53267C90.4152 1.57753 90.4411 1.63734 90.4448 1.70089V1.83547C90.4522 1.97005 90.3485 2.0822 90.2151 2.08594L88.7922 2.13454C88.7922 2.13454 88.7885 2.13454 88.7848 2.13454L88.7811 2.13827Z" fill="#484FA1"/>
<path d="M87.4434 1.96643C87.5007 1.96643 87.5472 1.91956 87.5472 1.86175C87.5472 1.80394 87.5007 1.75708 87.4434 1.75708C87.3861 1.75708 87.3397 1.80394 87.3397 1.86175C87.3397 1.91956 87.3861 1.96643 87.4434 1.96643Z" fill="white"/>
<path d="M87.4434 2.20936C87.4064 2.20936 87.3693 2.20189 87.3323 2.19067C87.2471 2.16077 87.1767 2.09721 87.1359 2.01497C87.0951 1.93273 87.0914 1.83927 87.1211 1.74955C87.1507 1.66357 87.2137 1.59254 87.2952 1.55142C87.3767 1.5103 87.4694 1.50656 87.5546 1.53647C87.6435 1.56637 87.7102 1.62992 87.751 1.71217C87.7918 1.79441 87.7955 1.88787 87.7658 1.97759C87.7362 2.06357 87.6732 2.1346 87.5917 2.17572C87.5435 2.19815 87.4953 2.20936 87.4434 2.20936ZM87.3212 1.92525C87.336 1.9589 87.3656 1.98506 87.399 1.99628C87.4323 2.00749 87.4731 2.00749 87.5064 1.9888C87.5361 1.97385 87.562 1.94394 87.5768 1.9103C87.588 1.87665 87.588 1.83553 87.5694 1.80189C87.5546 1.76824 87.525 1.74207 87.4916 1.73086C87.4583 1.71964 87.4175 1.71964 87.3879 1.73834C87.3545 1.75329 87.3286 1.7832 87.3175 1.81684C87.3063 1.85049 87.3063 1.89161 87.3249 1.92525H87.3212Z" fill="#484FA1"/>
<path d="M91.8629 7.18545L86.3566 7.64023C85.9915 7.67038 85.7198 7.99342 85.7496 8.36175L86.0302 11.8193C86.0601 12.1877 86.3803 12.4618 86.7454 12.4317L92.2517 11.9769C92.6168 11.9468 92.8885 11.6237 92.8586 11.2554L92.5781 7.79779C92.5482 7.42945 92.228 7.1553 91.8629 7.18545Z" fill="#EE235E"/>
<path d="M88.4031 8.89712L88.5551 10.7775C88.5736 10.9831 88.8107 11.084 88.9701 10.9532L90.304 9.8317C90.4448 9.71208 90.4189 9.49152 90.2558 9.40554L88.77 8.64666C88.5921 8.55694 88.3883 8.69526 88.4031 8.89712Z" fill="white"/>
<path d="M87.851 18.7851C87.9918 17.6487 87.7399 16.7141 86.5097 15.7571C85.6315 15.073 85.5722 14.7216 85.5129 13.6449C85.4796 13.0692 85.3758 12.2281 84.8015 11.929C84.3383 11.686 83.7084 11.843 83.4676 12.3066C83.0822 13.043 83.3231 14.83 83.2638 15.7122C83.123 17.9589 84.0641 18.9234 85.4203 20.6057" fill="white"/>
<path d="M85.424 20.8486C85.3536 20.8486 85.2832 20.8187 85.2387 20.7589L84.9423 20.3925C83.7529 18.9271 82.8895 17.8692 83.0266 15.6972C83.0415 15.4355 83.0303 15.0729 83.0192 14.6953C82.9896 13.7869 82.9599 12.7589 83.2564 12.1944C83.5565 11.6187 84.3161 11.4019 84.9127 11.7122C85.5908 12.0673 85.7167 12.9757 85.7538 13.6299C85.8131 14.6692 85.8575 14.9383 86.6579 15.5626C87.8325 16.4748 88.2586 17.4467 88.0919 18.8112C88.0771 18.9458 87.9511 19.0393 87.8251 19.0206C87.6917 19.0056 87.5991 18.8823 87.6176 18.7514C87.7399 17.7458 87.5768 16.886 86.3689 15.9477C85.4129 15.2038 85.3425 14.7776 85.2795 13.6598C85.2499 13.1252 85.1572 12.3851 84.6978 12.1458C84.342 11.9589 83.8603 12.0935 83.6862 12.4224C83.449 12.8748 83.4824 13.8767 83.5046 14.6804C83.5157 15.0729 83.5269 15.443 83.5083 15.7309C83.3823 17.7122 84.1086 18.6056 85.3129 20.086L85.613 20.4561C85.6982 20.5608 85.6797 20.714 85.5796 20.7963C85.5352 20.8337 85.4796 20.8524 85.4277 20.8524L85.424 20.8486Z" fill="#484FA1"/>
<path d="M42.7491 135.065C45.58 137.114 43.9756 139.832 42.7713 142.52C42.0451 144.135 39.6884 147.069 40.4962 148.789C43.605 155.402 50.8972 141.693 51.894 139.245C53.2798 135.847 50.145 134.658 49.2335 131.413" fill="#484FA1"/>
<path d="M42.6638 150.837C41.6745 150.837 40.8667 150.187 40.2628 148.901C39.6069 147.503 40.7889 145.484 41.7375 143.862C42.0525 143.323 42.3526 142.815 42.5342 142.408C42.6379 142.176 42.7417 141.948 42.8491 141.716C43.9607 139.301 45.0131 137.024 42.5972 135.275C42.4823 135.193 42.4526 135.028 42.5379 134.908C42.6194 134.793 42.7824 134.763 42.901 134.849C45.6652 136.849 44.4721 139.436 43.3197 141.936C43.216 142.165 43.1085 142.393 43.0047 142.621C42.8121 143.051 42.5045 143.574 42.1821 144.123C41.2929 145.637 40.1886 147.522 40.7296 148.669C41.2558 149.791 41.9079 150.318 42.7083 150.303C45.9913 150.217 50.8602 141.088 51.6531 139.136C52.4609 137.155 51.6568 136.019 50.6378 134.579C50.0302 133.72 49.3373 132.744 48.9815 131.477C48.9445 131.338 49.0223 131.193 49.1594 131.155C49.3002 131.118 49.441 131.196 49.4781 131.335C49.8078 132.516 50.4415 133.409 51.0566 134.277C52.0792 135.723 53.0463 137.088 52.1274 139.335C51.5494 140.751 46.5434 150.725 42.7157 150.826C42.6972 150.826 42.675 150.826 42.6564 150.826L42.6638 150.837Z" fill="#484FA1"/>
<path d="M8.02958 48.5533C6.18801 47.8916 2.92726 46.8038 1.59332 45.1739C0.93006 44.3626 0.226036 43.3795 0.26309 42.2617C0.300144 41.144 0.959703 40.5271 1.94904 41.1402C2.69382 41.6 3.17923 42.7776 4.11299 42.8711C4.46871 41.5926 4.59469 39.1589 3.987 37.8916C3.24963 36.3514 2.37146 36.0636 1.19314 34.8374C-0.0889216 33.4991 1.79342 32.5795 3.45343 33.9589C3.21999 32.9533 4.20192 32.7253 5.30983 33.1963C6.02497 33.5028 6.20283 33.7533 6.71417 34.3477C8.02217 33.4954 9.35982 34.5795 10.0787 36.1047C10.6048 37.2262 10.5604 38.5683 10.4974 39.5739C10.401 41.0505 11.1421 41.6711 12.1463 42.8412" fill="white"/>
<path d="M8.02959 48.815C7.99995 48.815 7.9703 48.8112 7.94437 48.8L7.60347 48.6767C5.65073 47.9813 2.69754 46.9309 1.39695 45.3421C0.648458 44.4337 -0.0333335 43.4318 1.50179e-05 42.2542C0.0222473 41.5253 0.274214 40.9944 0.707744 40.7589C0.978237 40.6094 1.43771 40.5197 2.08244 40.9159C2.40481 41.114 2.6716 41.4243 2.93098 41.7197C3.24964 42.086 3.55348 42.4337 3.92032 42.5608C4.20563 41.3234 4.30197 39.1589 3.74987 38.0038C3.28299 37.0281 2.76423 36.5869 2.10468 36.0299C1.7749 35.7496 1.40436 35.4355 1.00047 35.0169C0.340911 34.329 0.42984 33.7309 0.737387 33.3982C1.18203 32.9159 2.18249 32.8374 3.17924 33.443C3.23482 33.1963 3.36821 33.0393 3.46826 32.957C3.87215 32.6131 4.5984 32.6131 5.40618 32.957C6.1102 33.2561 6.34734 33.5253 6.76605 34.015C7.22182 33.7795 7.70722 33.7234 8.18892 33.8617C9.01152 34.0972 9.78224 34.8748 10.3084 35.9926C10.8309 37.1028 10.8309 38.3776 10.7493 39.5926C10.6715 40.7813 11.1643 41.3421 11.9832 42.2692C12.0944 42.3963 12.213 42.5309 12.3353 42.6729C12.4279 42.7813 12.4168 42.9458 12.3093 43.043C12.2019 43.1365 12.0388 43.1253 11.9425 43.0169C11.8202 42.8785 11.7053 42.744 11.5942 42.6169C10.7493 41.6598 10.138 40.9683 10.2306 39.5589C10.3047 38.415 10.3084 37.2187 9.83782 36.2169C9.38206 35.2486 8.71138 34.557 8.04441 34.3664C7.63682 34.2505 7.23664 34.3178 6.85128 34.5683C6.74382 34.6393 6.59931 34.6169 6.51409 34.5197L6.3881 34.3701C5.97681 33.8916 5.80636 33.6935 5.20609 33.4355C4.51688 33.144 4.00554 33.1851 3.80174 33.3533C3.67576 33.4617 3.64241 33.6412 3.7017 33.8954C3.72764 34.0038 3.67947 34.1197 3.58683 34.1757C3.4942 34.2355 3.37192 34.2281 3.28669 34.157C2.36035 33.3869 1.41918 33.4281 1.12275 33.7496C0.937478 33.9514 1.03382 34.2879 1.37842 34.6505C1.76007 35.0505 2.10838 35.3421 2.44187 35.6262C3.11995 36.2019 3.7017 36.6954 4.21675 37.772C4.8689 39.1365 4.72068 41.6486 4.35755 42.9383C4.3242 43.0617 4.20934 43.1402 4.07965 43.129C3.40527 43.058 2.94209 42.5309 2.53821 42.0636C2.29365 41.7832 2.06021 41.5178 1.80824 41.3608C1.56739 41.215 1.2265 41.0692 0.9523 41.2187C0.692923 41.3608 0.533591 41.7458 0.515064 42.2692C0.485421 43.2711 1.10793 44.1757 1.78601 45.0056C2.99767 46.4823 5.98422 47.5477 7.76651 48.1832L8.1074 48.3066C8.2408 48.3552 8.3112 48.5047 8.26303 48.6393C8.22598 48.7477 8.12593 48.815 8.01847 48.815H8.02959Z" fill="#484FA1"/>
<path d="M6.51037 39.8916C6.36956 39.8916 6.2547 39.7757 6.25099 39.6337C6.23246 38.5683 6.00273 37.0617 5.40246 36.0262C5.0208 35.3683 4.4724 34.9832 3.88695 34.5757C3.63499 34.4 3.37561 34.2169 3.11623 34.0075C3.00507 33.9178 2.98654 33.7533 3.07918 33.6412C3.16811 33.529 3.33485 33.5103 3.44231 33.6038C3.68316 33.8019 3.93883 33.9776 4.18338 34.1496C4.78736 34.572 5.41357 35.0094 5.85081 35.7645C6.50296 36.8898 6.75492 38.4972 6.77345 39.63C6.77345 39.7757 6.66229 39.8954 6.51778 39.8954H6.51407L6.51037 39.8916Z" fill="#484FA1"/>
<path d="M8.30378 38.9122C8.30378 38.9122 8.27784 38.9122 8.26672 38.9122C8.12592 38.8897 8.02587 38.7589 8.04811 38.6168C8.11851 38.1383 7.89248 37.3832 7.72944 36.8299L7.66275 36.6056C7.46636 35.9252 6.8772 34.9533 6.42144 34.4037C6.32881 34.2916 6.34363 34.1271 6.45479 34.0336C6.56595 33.9402 6.72899 33.9551 6.82162 34.0673C7.30332 34.6505 7.93694 35.686 8.16297 36.4598L8.22597 36.6804C8.41494 37.3122 8.64838 38.0972 8.55945 38.6916C8.54092 38.8224 8.42976 38.9159 8.30378 38.9159V38.9122Z" fill="#484FA1"/>
<path d="M30.9178 88.0935C28.4908 92.1832 27.2754 96.4487 26.1934 100.834C25.3078 104.422 24.5779 108.703 25.13 112.385C26.2897 120.097 40.159 135.806 41.0038 135.948C42.6083 136.217 43.7125 135.219 46.0321 134.228C48.1108 133.338 49.856 131.809 50.0116 131.088C50.3933 129.331 47.9181 126.942 47.1363 125.166C46.3026 123.264 45.291 121.492 44.3498 119.667C42.9492 116.953 41.6004 114.471 41.6078 111.585C41.6189 108.789 41.0446 104.505 42.6009 102.03" fill="#6CC6E5"/>
<path d="M41.5337 136.25C41.3484 136.25 41.1595 136.236 40.9594 136.202C40.3295 136.097 36.2276 131.45 32.978 127.163C29.6246 122.736 25.4968 116.587 24.8706 112.422C24.4111 109.361 24.7594 105.551 25.9377 100.77C26.9604 96.6168 28.1721 92.2056 30.6917 87.9589C30.7659 87.8355 30.9252 87.7944 31.0475 87.8692C31.1697 87.9439 31.2105 88.1047 31.1364 88.2281C28.6538 92.4112 27.4569 96.7813 26.4417 100.897C25.2782 105.611 24.9336 109.353 25.3856 112.344C26.5232 119.907 39.9737 135.215 41.0705 135.693C42.1006 135.862 42.9232 135.45 44.1645 134.822C44.6759 134.564 45.2502 134.273 45.932 133.985C48.0441 133.08 49.6337 131.607 49.7597 131.028C49.9857 129.989 49.0519 128.632 48.1515 127.32C47.6513 126.591 47.1807 125.907 46.9028 125.271C46.31 123.918 45.6096 122.602 44.9353 121.335C44.6611 120.819 44.3906 120.307 44.1238 119.791L43.9459 119.45C42.6083 116.864 41.341 114.415 41.3521 111.589C41.3521 111.024 41.3336 110.396 41.3077 109.731C41.215 107.148 41.1039 103.933 42.386 101.895C42.4638 101.776 42.6231 101.738 42.7454 101.817C42.8677 101.895 42.901 102.056 42.8232 102.179C41.6263 104.079 41.7375 107.204 41.8264 109.716C41.8487 110.385 41.8709 111.021 41.8709 111.596C41.8598 114.295 43.0974 116.684 44.4054 119.215L44.5832 119.559C44.85 120.075 45.1205 120.587 45.3947 121.099C46.0728 122.378 46.7768 123.701 47.3771 125.073C47.6365 125.664 48.096 126.329 48.5777 127.036C49.5411 128.441 50.5415 129.895 50.2673 131.155C50.0672 132.071 48.1367 133.626 46.1358 134.482C45.4725 134.766 44.9019 135.054 44.398 135.308C43.3197 135.854 42.4934 136.269 41.5337 136.269V136.25Z" fill="#484FA1"/>
<path d="M92.7755 22.2617C92.6755 21.899 92.2864 21.7084 91.9752 21.5701C90.8191 21.0504 89.4036 20.9944 88.1586 20.9233C87.3509 20.8785 86.5431 20.8635 85.7316 20.871C85.1461 20.8747 84.142 20.7177 83.6047 20.957C82.8414 21.2972 82.7265 22.6841 82.6117 23.3869C82.3597 24.9084 81.8891 27.5103 81.7298 29.043C81.5482 30.8336 79.4547 40.1981 78.3208 40.6168C76.7683 41.1888 69.439 43.0131 65.8448 43.5888C57.7448 44.8934 56.3923 45.5215 53.9875 45.2486C48.259 44.5944 44.4091 47.4841 38.8473 49.1439C36.0535 49.9775 33.0447 51.1514 30.0878 50.9345C26.6232 50.6766 23.5033 49.271 20.5761 47.4579C19.0161 46.4934 12.4279 42.0224 12.0018 42.228C10.6271 42.8934 7.99255 47.342 7.51456 49.0467C6.7216 51.8916 7.05879 51.7458 9.34502 53.4579C13.0949 56.2654 18.5492 59.9962 22.7845 61.6374C28.4352 63.8243 34.4416 61.5663 40.0997 61.1215C40.763 61.0691 41.341 61.585 41.3707 62.2579C41.5893 66.9196 41.8116 72.9794 42.5379 73.3458C48.3998 76.3028 59.0046 77.1439 65.3334 75.7271C66.4191 75.4841 66.8008 71.8168 67.2825 68.7626C67.7012 66.0897 67.7642 61.742 68.4682 58.7925C68.9981 56.5831 69.8095 55.8953 71.6289 55.3682C74.0744 54.6579 76.9239 53.8766 79.2472 52.8261C82.6524 51.2897 86.1874 50.6617 88.4439 47.6112C91.4268 43.5813 94.5764 28.7065 92.7718 22.2691L92.7755 22.2617Z" fill="#EE235E"/>
<path d="M58.2524 76.6579C52.7907 76.6579 46.5953 75.6785 42.4267 73.5776C41.7301 73.2262 41.4855 70.2729 41.1669 63.3383L41.1187 62.2692C41.1076 62.015 40.9964 61.7794 40.8038 61.6112C40.6148 61.443 40.3739 61.357 40.1257 61.3832C38.5212 61.5103 36.8501 61.7907 35.2309 62.0598C31.0845 62.7551 26.8011 63.4729 22.6955 61.8841C18.1342 60.1196 12.2797 55.9813 9.19309 53.671C8.95965 53.4953 8.74474 53.3421 8.55206 53.2C6.73642 51.8766 6.53262 51.6075 7.26629 48.9794C7.73317 47.3009 10.3825 42.7252 11.8906 41.9963C12.2278 41.8355 13.2727 42.385 18.7752 45.985C19.6089 46.5308 20.3241 46.9981 20.7131 47.2374C24.1443 49.3645 27.1309 50.4561 30.11 50.6766C32.5333 50.8561 34.9937 50.0822 37.3726 49.3308C37.8469 49.1813 38.3137 49.0355 38.7769 48.8972C40.4814 48.3888 42.0265 47.7607 43.5235 47.1551C46.8509 45.8056 49.9968 44.5308 54.0209 44.9907C55.5586 45.1664 56.6332 44.9682 59.5086 44.4336C60.987 44.1607 63.0102 43.7832 65.8077 43.3346C69.3797 42.7589 76.6534 40.9533 78.2356 40.3738C79.0841 40.0636 81.2258 31.4841 81.4778 29.0206C81.6001 27.8206 81.915 25.9776 82.167 24.4935C82.2374 24.0748 82.3041 23.6822 82.3597 23.3458C82.3745 23.2673 82.3856 23.1813 82.4004 23.0841C82.519 22.2841 82.6969 21.0766 83.5046 20.7178C83.953 20.5196 84.6126 20.5533 85.198 20.5869C85.3981 20.5981 85.5834 20.6056 85.739 20.6056C86.6172 20.5944 87.4138 20.6131 88.1808 20.6579L88.3402 20.6654C89.5555 20.7327 90.934 20.8075 92.0863 21.3234C92.3679 21.4505 92.8904 21.686 93.0312 22.1832C94.9135 28.8935 91.5713 43.8243 88.6626 47.7533C86.9173 50.1084 84.4718 51.043 81.8817 52.0299C81.0554 52.3439 80.1994 52.6729 79.362 53.0505C77.2314 54.0112 74.6562 54.7551 72.3811 55.4093L71.7067 55.6037C70.0356 56.0897 69.25 56.6467 68.7276 58.8411C68.3051 60.6093 68.1162 62.8486 67.9383 65.0168C67.8234 66.4112 67.7123 67.7271 67.5455 68.7925C67.4825 69.2 67.4196 69.6187 67.3566 70.0374C66.8304 73.5738 66.4376 75.7383 65.3964 75.9701C63.4029 76.4187 60.9166 76.6505 58.2561 76.6505L58.2524 76.6579ZM40.1961 60.8561C40.5444 60.8561 40.8779 60.9832 41.1446 61.2187C41.4411 61.4841 41.6152 61.8467 41.6338 62.2467L41.6819 63.3196C41.8413 66.8224 42.1118 72.6879 42.6639 73.1178C48.7555 76.1907 59.2788 76.8187 65.2815 75.4729C66.0486 75.3009 66.4858 72.3477 66.8415 69.9738C66.9045 69.5514 66.9675 69.1327 67.0305 68.7215C67.1935 67.6785 67.3047 66.3701 67.4196 64.9832C67.6011 62.7963 67.7901 60.5346 68.2236 58.729C68.8017 56.3103 69.7614 55.6374 71.5659 55.114L72.2403 54.9196C74.4969 54.2692 77.0536 53.5327 79.1508 52.5869C79.9994 52.2019 80.8627 51.8729 81.6964 51.5551C84.2124 50.5944 86.5912 49.686 88.2476 47.4542C91.1044 43.5963 94.38 28.9308 92.531 22.3402C92.4643 22.0972 92.1567 21.9402 91.8751 21.8168C90.8117 21.3383 89.4814 21.2673 88.3105 21.2L88.1512 21.1925C87.3953 21.1514 86.6061 21.1327 85.7427 21.1402C85.5723 21.1402 85.3796 21.129 85.1684 21.1178C84.6681 21.0916 84.0493 21.0542 83.7159 21.2037C83.1712 21.4467 83.0118 22.5234 82.9155 23.1701C82.9007 23.2673 82.8858 23.357 82.8747 23.4393C82.8192 23.7757 82.7525 24.1682 82.6821 24.5907C82.4301 26.0636 82.1188 27.8991 81.9966 29.0804C81.8669 30.3439 79.8178 40.3589 78.4172 40.8748C76.8201 41.4617 69.4872 43.2822 65.8929 43.8579C63.1028 44.3065 61.0796 44.6804 59.6049 44.957C56.7592 45.4841 55.5808 45.7047 53.9653 45.5178C50.0709 45.0729 46.988 46.3215 43.7199 47.6449C42.2155 48.2542 40.6592 48.886 38.9288 49.4019C38.4694 49.5402 38.0025 49.686 37.5319 49.8355C35.1049 50.5981 32.5926 51.3907 30.0767 51.2037C27.0123 50.9757 23.9554 49.8617 20.4464 47.6897C20.0536 47.4467 19.331 46.9757 18.4973 46.4299C16.4594 45.0953 12.6984 42.6393 12.0722 42.4972C10.7901 43.1925 8.2371 47.4542 7.77022 49.1252C7.10696 51.5028 7.207 51.5738 8.85961 52.7813C9.05599 52.9234 9.2709 53.0804 9.50434 53.2561C12.5687 55.5514 18.3787 59.6598 22.8808 61.4019C26.853 62.9383 31.0697 62.2355 35.1456 61.5514C36.7723 61.2785 38.4582 60.9981 40.0849 60.8673C40.122 60.8673 40.1627 60.8636 40.1998 60.8636L40.1961 60.8561Z" fill="#484FA1"/>
<path d="M55.0806 48.8822C55.0547 48.9495 55.0287 49.0131 54.9991 49.0766C54.5285 50.1234 53.6614 51.1439 52.5721 51.4206C50.9046 51.8467 50.0042 51.443 49.0816 50.7103C48.3405 50.1234 48.5184 50.142 47.7143 49.6299C47.0807 49.2262 46.3174 48.9458 45.6615 48.5832C42.8343 47.0131 41.8005 43.3906 41.8153 40.3028C41.8412 35.428 50.0005 34.6953 52.2571 36.8972C53.1797 37.7981 53.1093 39.4243 53.717 40.5308C53.9616 39.4841 54.9287 38.5458 56.0662 38.9944C57.2001 39.443 57.1964 41.3458 56.9259 42.2878C56.7147 43.0243 56.2256 43.5065 55.7328 44.1047C55.3289 44.5944 54.6397 44.8374 54.6619 45.5589C54.6804 46.2056 55.1769 46.714 55.2622 47.3495C55.3326 47.8692 55.2622 48.3925 55.0769 48.8822H55.0806Z" fill="white"/>
<path d="M51.327 51.8617C50.3451 51.8617 49.6448 51.4916 48.9222 50.9196C48.6258 50.6841 48.4739 50.5458 48.3479 50.4299C48.1626 50.2579 48.0478 50.1533 47.5772 49.8542C47.2252 49.6299 46.8176 49.4392 46.4211 49.2523C46.1247 49.114 45.8208 48.9719 45.5355 48.8149C44.5944 48.2916 41.5263 46.1308 41.5559 40.3028C41.5671 38.4785 42.6676 37.0093 44.6573 36.1645C47.3326 35.0243 50.9713 35.2822 52.4387 36.7103C53.0389 37.2972 53.2501 38.1346 53.4539 38.942C53.5318 39.2523 53.6096 39.5551 53.7022 39.8355C53.9319 39.3981 54.2691 39.0355 54.6656 38.8261C55.1362 38.5757 55.6549 38.5495 56.1626 38.7514C57.541 39.2972 57.4372 41.4579 57.1742 42.3626C56.9815 43.0355 56.5813 43.5065 56.1589 44.0037C56.0848 44.0934 56.007 44.1832 55.9291 44.2729C55.7883 44.4448 55.6253 44.5794 55.466 44.714C55.1177 45.0056 54.9065 45.2 54.9176 45.5514C54.925 45.843 55.0584 46.1159 55.1955 46.4075C55.3289 46.6878 55.4697 46.9794 55.5141 47.3159C55.5882 47.8579 55.5178 48.4336 55.314 48.9757C55.2881 49.0467 55.2585 49.1177 55.2288 49.1888C54.6508 50.4785 53.68 51.4093 52.6313 51.6785C52.1385 51.8056 51.7087 51.8617 51.3196 51.8617H51.327ZM48.3405 35.9738C47.1659 35.9738 45.9246 36.1906 44.8611 36.643C43.5976 37.1813 42.0858 38.2504 42.0784 40.3028C42.0636 43.1888 43.0307 46.8224 45.7875 48.3551C46.0543 48.5047 46.3396 48.6355 46.6397 48.7775C47.051 48.9682 47.4734 49.1663 47.8551 49.4093C48.3627 49.7346 48.4961 49.8579 48.6962 50.0411C48.8148 50.1495 48.9593 50.2841 49.2409 50.5084C50.145 51.2261 50.9676 51.5663 52.5091 51.1701C53.5651 50.9009 54.3655 49.8579 54.7619 48.9719C54.7879 48.9121 54.8138 48.8523 54.8361 48.7925C55.0102 48.3327 55.0695 47.8467 55.0065 47.3906C54.9731 47.1364 54.8546 46.8934 54.7323 46.6392C54.5767 46.3103 54.4136 45.9738 54.4025 45.5701C54.384 44.9458 54.7842 44.6093 55.1362 44.314C55.2844 44.1906 55.4215 44.0747 55.5327 43.9402C55.6105 43.8467 55.6883 43.7533 55.7661 43.6635C56.1663 43.1925 56.5146 42.785 56.6776 42.2168C56.9148 41.3981 56.9518 39.6261 55.9736 39.2411C55.6031 39.0953 55.2436 39.1103 54.9064 39.2897C54.4618 39.5252 54.1024 40.0224 53.9727 40.5906C53.9468 40.6953 53.8615 40.7738 53.7541 40.7888C53.6466 40.8037 53.5429 40.7514 53.491 40.6579C53.2279 40.1757 53.0871 39.6149 52.95 39.0691C52.7573 38.2953 52.5721 37.5663 52.0792 37.0841C51.3308 36.3551 49.8931 35.9738 48.3368 35.9738H48.3405Z" fill="#484FA1"/>
<path d="M45.1983 44.5944C45.0464 44.5944 44.8982 44.5757 44.7611 44.5346C44.3683 44.4187 44.1089 44.1533 44.0237 43.7869C43.9385 43.4056 43.9644 43.114 44.1052 42.8972C44.2979 42.6019 44.6499 42.5346 44.9315 42.4822C45.2428 42.4224 45.3836 42.385 45.4206 42.2542C45.4392 42.0262 45.0279 40.5383 44.8315 40.1794C44.4832 39.5327 43.7792 39.5776 42.7528 39.8579C41.9005 40.0897 41.5115 40.3402 40.8334 40.9271C40.7259 41.0205 40.5592 41.0093 40.4665 40.8972C40.3739 40.7888 40.385 40.6205 40.4962 40.5271C41.2039 39.914 41.656 39.6149 42.6157 39.3495C43.3345 39.1514 44.6759 38.785 45.2873 39.9252C45.4836 40.2916 46.0246 42.0336 45.9172 42.4C45.7838 42.8523 45.3465 42.9346 45.0242 42.9944C44.8093 43.0355 44.6092 43.0729 44.5388 43.1813C44.4832 43.271 44.4795 43.4392 44.5314 43.6673C44.5721 43.8467 44.6981 43.9701 44.9056 44.0299C45.2798 44.1383 45.8023 44.0112 46.0691 43.7458C46.1691 43.6448 46.3359 43.6448 46.4359 43.7458C46.536 43.8467 46.536 44.0149 46.4359 44.1159C46.1358 44.4149 45.6578 44.5906 45.202 44.5906L45.1983 44.5944Z" fill="#484FA1"/>
<path d="M46.8324 39.1664C46.7509 39.1664 46.6694 39.129 46.6175 39.0543C46.536 38.9346 46.5656 38.7739 46.6805 38.6916C47.3845 38.1982 47.9033 38.2505 48.5109 38.3702C48.6518 38.3963 48.7444 38.5346 48.7147 38.6767C48.6888 38.8188 48.548 38.9122 48.4109 38.8823C47.8773 38.7776 47.5179 38.7402 46.9769 39.1178C46.9325 39.1477 46.8806 39.1664 46.8287 39.1664H46.8324Z" fill="#484FA1"/>
<path d="M47.8106 41.7347C48.0521 41.7347 48.2479 41.5372 48.2479 41.2935C48.2479 41.0499 48.0521 40.8524 47.8106 40.8524C47.5691 40.8524 47.3734 41.0499 47.3734 41.2935C47.3734 41.5372 47.5691 41.7347 47.8106 41.7347Z" fill="#484FA1"/>
<path d="M47.8106 41.9963C47.692 41.9963 47.5772 41.9664 47.4734 41.9066C47.3104 41.8169 47.1918 41.6673 47.1437 41.4842C47.0918 41.3047 47.114 41.1141 47.2029 40.9496C47.2919 40.7851 47.4401 40.6655 47.6216 40.6131C47.9885 40.5085 48.3775 40.7253 48.485 41.0954C48.5369 41.2748 48.5146 41.4655 48.4257 41.63C48.3368 41.7944 48.1886 41.9141 48.007 41.9627C47.944 41.9814 47.8773 41.9888 47.8143 41.9888L47.8106 41.9963ZM47.8106 41.1141C47.8106 41.1141 47.7773 41.1141 47.7624 41.1215C47.718 41.1365 47.6809 41.1664 47.655 41.2075C47.6291 41.2486 47.6254 41.2972 47.6402 41.3458C47.655 41.3907 47.6846 41.4318 47.7254 41.4543C47.7662 41.4767 47.8143 41.4842 47.8625 41.4692C47.907 41.4543 47.9477 41.4243 47.97 41.3832C47.9922 41.3421 47.9996 41.2935 47.9848 41.2449C47.9625 41.1664 47.8921 41.1141 47.8143 41.1141H47.8106Z" fill="#484FA1"/>
<path d="M43.5494 42.8709C43.8114 42.8709 44.0237 42.6567 44.0237 42.3924C44.0237 42.1282 43.8114 41.9139 43.5494 41.9139C43.2875 41.9139 43.0751 42.1282 43.0751 42.3924C43.0751 42.6567 43.2875 42.8709 43.5494 42.8709Z" fill="#484FA1"/>
<path d="M43.5494 43.1327C43.2308 43.1327 42.9343 42.9196 42.8417 42.5944C42.7305 42.2018 42.9566 41.7906 43.3456 41.6785C43.7347 41.5663 44.1423 41.7944 44.2535 42.1869C44.3646 42.5794 44.1386 42.9906 43.7495 43.1028C43.6828 43.1215 43.6161 43.1327 43.5494 43.1327ZM43.3419 42.4523C43.3753 42.5682 43.4939 42.6317 43.6087 42.6018C43.7236 42.5682 43.7903 42.4486 43.7569 42.3327C43.7236 42.2168 43.6013 42.1532 43.4901 42.1831C43.3753 42.2168 43.3086 42.3364 43.3419 42.4523Z" fill="#484FA1"/>
<path d="M45.9431 46.7926C45.806 46.7926 45.6911 46.6842 45.6837 46.5458C45.6763 46.4 45.7875 46.2767 45.9283 46.2692C47.0177 46.2094 47.8958 45.4169 47.97 44.4262C47.9811 44.2842 48.1071 44.1757 48.2479 44.1832C48.3924 44.1944 48.4961 44.3215 48.4887 44.4636C48.3961 45.7159 47.3067 46.7141 45.9579 46.7888C45.9542 46.7888 45.9468 46.7888 45.9431 46.7888V46.7926Z" fill="#484FA1"/>
<path d="M51.3085 36.785C49.5818 35.8691 48.3664 36.1121 46.1617 36.7402C44.7759 37.1327 43.7051 37.7906 42.4119 38.3775C41.5633 38.7626 40.1998 38.7289 39.7922 37.6897C39.6254 37.2673 39.6254 36.7327 39.844 36.3065C40.1331 35.742 40.3776 35.4318 40.9038 35.2224C40.7074 34.5682 40.863 34.1308 41.1595 33.5028C41.5411 32.699 42.1896 32.6205 42.6601 32.4523C42.8454 32.385 43.0122 31.4766 43.3864 30.9607C43.7681 30.4374 44.4573 29.828 45.0205 29.5103C46.184 28.8523 47.6958 28.314 49.0149 28.3551C50.2784 28.3925 51.3974 28.5084 52.6202 28.9084C53.68 29.2561 54.7027 29.9514 55.5401 30.6878C56.6999 31.7121 57.4224 33.3383 57.9819 34.7476C58.4562 35.9402 58.5859 37.5177 58.2635 38.7701C58.1672 39.1476 57.7114 40.3888 57.1519 40.3327C56.7962 40.2953 56.7666 39.7159 56.5405 39.4729C56.1959 39.1065 55.5994 38.8673 55.1028 38.957C54.7805 39.0168 53.4613 39.9701 53.6985 40.3962C53.0612 39.256 51.931 37.0504 51.3011 36.7813L51.3085 36.785Z" fill="#484FA1"/>
<path d="M53.7133 40.6654C53.6207 40.6654 53.528 40.6131 53.4799 40.5271C53.3946 40.3776 53.3057 40.2094 53.2057 40.0299C52.6684 39.0505 51.6716 37.2262 51.2085 37.028C51.2011 37.028 51.1936 37.0206 51.1899 37.0168C49.5929 36.1682 48.5072 36.3439 46.2358 36.9907C45.2947 37.2561 44.5017 37.6523 43.6606 38.0673C43.2901 38.2505 42.9195 38.4374 42.523 38.6131C41.8709 38.9084 41.0631 38.9421 40.4702 38.6991C40.0367 38.5196 39.7218 38.2056 39.555 37.7832C39.3549 37.2673 39.3772 36.6542 39.618 36.1869C39.8848 35.6636 40.1331 35.3159 40.6036 35.0729C40.474 34.4337 40.6592 33.9626 40.9334 33.3907C41.3077 32.6094 41.9191 32.4187 42.3637 32.2766C42.423 32.258 42.4786 32.2393 42.5342 32.2206C42.5786 32.1458 42.649 31.9589 42.7009 31.8131C42.8195 31.4953 42.964 31.1028 43.1826 30.8037C43.5791 30.2617 44.2979 29.6187 44.8982 29.2823C46.2729 28.5009 47.8069 28.0598 49.026 28.0935C50.1413 28.1271 51.3604 28.2168 52.7054 28.6617C53.9393 29.0692 55.0213 29.8841 55.7142 30.4935C56.8814 31.5252 57.6114 33.1028 58.2265 34.6505C58.7304 35.9215 58.8453 37.5626 58.5192 38.8374C58.5155 38.8561 58.0227 40.6804 57.1297 40.5944C56.7554 40.557 56.6109 40.2056 56.5072 39.9477C56.459 39.8318 56.4108 39.7122 56.359 39.6523C56.0625 39.3346 55.5438 39.1477 55.1547 39.215C54.8879 39.2673 53.9208 40.0337 53.9356 40.2804C54.006 40.4075 53.9579 40.5608 53.8356 40.628C53.7985 40.6505 53.7541 40.658 53.7133 40.658V40.6654ZM55.3289 38.6804C55.8328 38.6804 56.3812 38.9122 56.7369 39.2972C56.8555 39.4243 56.9222 39.5888 56.9889 39.7495C57.0445 39.8841 57.1186 40.0673 57.1853 40.0748C57.4483 40.0935 57.8745 39.2636 58.019 38.7066C58.3191 37.5365 58.2154 36.0224 57.7485 34.8486C57.1556 33.3608 56.459 31.8467 55.377 30.8897C54.7212 30.3103 53.6985 29.5402 52.5498 29.1626C51.2678 28.7402 50.0931 28.6542 49.0149 28.6206C47.9033 28.5907 46.4507 29.0056 45.1539 29.7421C44.6203 30.0449 43.9533 30.6355 43.6013 31.1178C43.4271 31.357 43.2938 31.7122 43.1863 32C43.0418 32.3925 42.9529 32.628 42.7491 32.6991C42.675 32.7252 42.5971 32.7514 42.5156 32.7776C42.1006 32.9084 41.6745 33.0393 41.3966 33.615C41.0928 34.2542 40.9927 34.6094 41.152 35.1439C41.1928 35.2748 41.1261 35.4131 41.0001 35.4654C40.5369 35.6486 40.3332 35.9215 40.0738 36.4262C39.9033 36.7626 39.8885 37.2187 40.033 37.5925C40.1479 37.8841 40.3591 38.0935 40.6592 38.2168C41.1928 38.4374 41.8672 38.3365 42.3044 38.1383C42.6935 37.9626 43.0603 37.7795 43.4271 37.6C44.2905 37.1738 45.102 36.7701 46.0913 36.4897C48.259 35.8766 49.5744 35.5738 51.4197 36.5533C51.9977 36.815 52.7684 38.1533 53.6429 39.7495C54.0172 39.2636 54.7768 38.7589 55.0621 38.7066C55.1473 38.6916 55.2362 38.6841 55.3252 38.6841L55.3289 38.6804Z" fill="#484FA1"/>
<path d="M48.7222 44.5197C48.6295 44.5197 48.5406 44.4673 48.4924 44.3814C48.3479 44.1047 47.9588 44.2804 47.8847 44.3215C47.755 44.3888 47.5994 44.3328 47.5364 44.2057C47.4734 44.0748 47.5253 43.9178 47.6513 43.8543C48.1034 43.6262 48.6814 43.6262 48.9519 44.1384C49.0186 44.2655 48.9704 44.4262 48.8444 44.4935C48.8074 44.5122 48.7629 44.5234 48.7222 44.5234V44.5197Z" fill="#484FA1"/>
<path d="M41.5597 114.751C42.0747 115.866 42.3637 117.623 42.1599 118.789C41.9117 120.224 38.5694 122.351 37.9173 123.623C36.0127 127.338 39.6662 127.701 42.2933 126.015C44.1349 124.83 47.2697 122.18 48.8333 120.662C49.3076 120.202 50.623 119.406 50.623 118.725C50.623 117.133 49.2595 113.163 48.0774 111.619" fill="#484FA1"/>
<path d="M39.3105 127.234C38.6287 127.234 38.0395 127.062 37.6542 126.703C37.1577 126.243 36.7575 125.316 37.6875 123.503C37.9877 122.916 38.7769 122.198 39.6106 121.439C40.6259 120.516 41.7783 119.473 41.9043 118.74C42.0895 117.671 41.8339 115.966 41.3225 114.86C41.2632 114.729 41.3188 114.572 41.4485 114.512C41.5782 114.452 41.7338 114.508 41.7931 114.639C42.3526 115.851 42.6194 117.652 42.4156 118.834C42.2563 119.742 41.0891 120.804 39.9589 121.832C39.1956 122.523 38.4064 123.241 38.1507 123.746C37.7209 124.587 37.3466 125.712 38.0062 126.322C38.7621 127.017 40.6222 126.785 42.1562 125.798C43.92 124.666 46.9992 122.086 48.6555 120.479C48.7889 120.348 48.9704 120.206 49.1816 120.037C49.6522 119.667 50.3637 119.103 50.3637 118.729C50.3637 117.241 49.0557 113.327 47.8736 111.783C47.7847 111.667 47.8069 111.503 47.9218 111.417C48.0367 111.331 48.1997 111.35 48.2849 111.466C49.5411 113.11 50.8861 117.14 50.8824 118.733C50.8824 119.365 50.1487 119.944 49.5003 120.452C49.3076 120.602 49.1298 120.748 49.0149 120.856C47.3401 122.482 44.2238 125.092 42.4341 126.243C41.4114 126.897 40.2702 127.241 39.3142 127.241L39.3105 127.234Z" fill="#484FA1"/>
<path d="M43.5606 84.6431C45.5652 86.7216 48.0589 95.544 48.7963 98.1309C49.7375 101.439 51.3419 112.135 50.8528 112.688C48.7741 115.047 44.3869 115.78 41.3262 115.6C40.7667 115.574 39.6922 112.998 39.1067 111.611C37.48 107.753 30.073 91.3235 29.1874 84.9795C28.45 79.6973 30.0767 73.8057 36.613 72.1571C41.8635 70.8337 48.1182 72.3814 55.0918 73.6225C58.6749 74.2618 62.169 74.8449 65.5854 75.9328C66.4265 79.7758 64.8369 87.387 61.5577 89.7758C55.9366 93.8767 49.9598 92.8449 46.6138 90.7964" fill="#6CC6E5"/>
<path d="M42.2489 115.888C41.9302 115.888 41.6152 115.88 41.3077 115.862C40.7074 115.832 40.0256 114.464 38.8955 111.783L38.8658 111.712C38.6472 111.193 38.3249 110.445 37.9247 109.529C35.2531 103.365 29.6987 90.5421 28.928 85.0169C28.198 79.7907 29.8136 73.6038 36.55 71.9066C41.1224 70.7515 46.5286 71.7646 52.2571 72.8375C53.202 73.0132 54.1654 73.1963 55.1399 73.3683L55.8995 73.5029C59.2825 74.1047 62.4766 74.6692 65.6669 75.6861C65.7559 75.716 65.8225 75.787 65.8411 75.8804C66.6674 79.6599 65.1482 87.4879 61.7133 89.9926C56.2738 93.9589 50.5008 93.2262 46.9732 91.3085C47.8848 93.9589 48.6407 96.6281 49.026 97.9776L49.0483 98.0636C49.5596 99.8543 50.2043 103.548 50.6193 106.408C51.4827 112.37 51.1566 112.744 51.0492 112.867C49.1705 114.994 45.4392 115.895 42.2526 115.895L42.2489 115.888ZM41.115 71.9066C39.5662 71.9066 38.0877 72.0524 36.676 72.4113C34.638 72.9234 28.1017 75.3459 29.443 84.9421C30.2064 90.3963 35.9497 103.656 38.4027 109.32C38.8029 110.239 39.1252 110.991 39.3438 111.51L39.3735 111.581C39.7514 112.479 40.9001 115.211 41.3448 115.342C44.5721 115.529 48.7037 114.725 50.6564 112.516C50.9899 111.753 49.504 101.57 48.5443 98.2057L48.5221 98.1197C46.3952 90.6318 44.6611 86.1571 43.3753 84.8262C43.2753 84.7216 43.279 84.5571 43.379 84.4561C43.4828 84.3552 43.6458 84.3589 43.7458 84.4599C44.7129 85.4617 45.7727 87.9328 46.7064 90.5533C46.7213 90.5571 46.7324 90.5646 46.7472 90.572C50.0746 92.6094 55.9143 93.5664 61.4057 89.5627C62.8397 88.516 64.1032 86.2468 64.8629 83.3309C65.5409 80.7403 65.7299 78.0038 65.3594 76.1347C62.2506 75.159 59.1158 74.6019 55.8032 74.015L55.0436 73.8804C54.0691 73.7047 53.1057 73.5253 52.1571 73.3496C48.1145 72.5945 44.4499 71.9066 41.1113 71.9066H41.115Z" fill="#484FA1"/>
<path d="M42.3785 159.989C50.4169 159.989 56.9333 159.341 56.9333 158.542C56.9333 157.743 50.4169 157.095 42.3785 157.095C34.3402 157.095 27.8238 157.743 27.8238 158.542C27.8238 159.341 34.3402 159.989 42.3785 159.989Z" fill="#E7E7F0"/>
<path d="M66.5117 66.3813C61.2575 66.3813 54.4321 63.7906 52.472 57.914C52.4275 57.7757 52.4979 57.6299 52.635 57.5813C52.7684 57.5327 52.9166 57.6074 52.9648 57.7458C55.1139 64.1906 63.4103 66.5084 68.5682 65.7084C74.5709 64.7738 82.808 60.8299 86.9432 55.0915C88.8033 52.5084 91.008 48.2616 91.1007 44.7925C91.1525 42.8448 90.3373 40.2467 89.5518 37.7345C88.8997 35.656 88.2846 33.6897 88.1363 32.0822C87.8251 28.7626 88.4143 26.6168 89.7667 23.3345C90.1817 22.3289 90.4337 19.8355 90.3188 18.7102C90.304 18.5682 90.4078 18.4373 90.5486 18.4224C90.6857 18.4037 90.819 18.5121 90.8339 18.6542C90.9562 19.8616 90.6931 22.4411 90.2447 23.5289C88.8997 26.7962 88.3476 28.7962 88.6514 32.0261C88.7959 33.5775 89.4036 35.5177 90.0446 37.5701C90.845 40.1233 91.6713 42.7626 91.6157 44.7962C91.5194 48.385 89.2628 52.7439 87.3582 55.3869C83.1415 61.2411 74.7525 65.2635 68.6423 66.213C67.9753 66.3177 67.2565 66.3701 66.5043 66.3701L66.5117 66.3813Z" fill="#484FA1"/>
<path d="M52.661 57.9177C52.4794 57.9177 52.2978 57.8766 52.12 57.7944C51.6828 57.5962 51.2974 57.1476 50.9231 56.714C50.7156 56.4747 50.5193 56.2467 50.3377 56.0897C49.6189 55.4691 48.8704 55.1626 47.9996 54.8037L47.7402 54.6953C45.9505 53.9514 44.5462 52.9121 43.5717 51.6112C43.0344 50.8934 42.4749 49.8878 42.1117 48.9832C41.7301 48.0374 41.8301 47.099 41.9265 46.1944C41.9672 45.7981 42.0117 45.3906 42.0117 44.9869C42.0117 44.8411 42.1266 44.7252 42.2711 44.7252C42.4156 44.7252 42.5304 44.8448 42.5304 44.9869C42.5304 45.4168 42.486 45.8392 42.4415 46.2467C42.3489 47.1252 42.2599 47.9551 42.5934 48.7813C42.938 49.6336 43.4827 50.6168 43.9867 51.2897C44.9056 52.5159 46.2358 53.499 47.9403 54.2056L48.196 54.3103C49.0667 54.6691 49.8893 55.0093 50.6749 55.6822C50.8861 55.8654 51.0936 56.1046 51.3159 56.3589C51.6531 56.7476 52.0014 57.1514 52.3349 57.3046C52.5832 57.4168 52.8351 57.4018 53.1093 57.2561C54.4877 56.5121 55.755 52.8112 55.9439 51.6673C56.2367 49.8878 55.9328 48.2205 55.6105 46.4561C55.5326 46.0411 55.4585 45.6224 55.3918 45.2037C55.3474 44.9383 55.2955 44.6691 55.2436 44.3962C55.0917 43.6075 54.9398 42.7962 54.962 42.0037C54.9657 41.8579 55.0769 41.7607 55.2288 41.7495C55.3733 41.7533 55.4845 41.8729 55.4808 42.0187C55.4585 42.7514 55.6105 43.5402 55.755 44.299C55.8068 44.5757 55.8587 44.8523 55.9032 45.1215C55.9699 45.5364 56.0477 45.9514 56.1218 46.3626C56.4405 48.0934 56.7665 49.8841 56.459 51.7533C56.2737 52.8897 54.9805 56.8411 53.3539 57.7196C53.1241 57.843 52.8907 57.9065 52.6647 57.9065L52.661 57.9177Z" fill="#484FA1"/>
<path d="M55.8402 41.5513C55.8476 41.7644 55.7105 41.9588 55.6809 42.1382C55.629 42.4186 55.5882 43.2074 55.1177 42.9644C54.9139 42.8597 54.9361 42.4111 54.8731 42.213C54.8175 42.041 54.7101 41.9812 54.6285 41.8205C54.4247 41.428 54.7471 40.8784 55.1806 40.8784C55.6142 40.8784 55.8291 41.2111 55.8402 41.5476V41.5513Z" fill="#484FA1"/>
<path d="M55.2807 43.271C55.1992 43.271 55.1028 43.2523 54.9991 43.1962C54.736 43.0617 54.6915 42.7252 54.6582 42.4822C54.6471 42.4112 54.6396 42.3439 54.6248 42.2953C54.61 42.243 54.5841 42.2131 54.5359 42.1532C54.4877 42.0934 54.4396 42.0299 54.3951 41.9476C54.2543 41.6785 54.2728 41.3495 54.4433 41.0691C54.61 40.7925 54.8842 40.6243 55.1769 40.6243C55.7624 40.6243 56.081 41.0878 56.0959 41.5476C56.1033 41.7308 56.0403 41.8916 55.9884 42.0224C55.9662 42.0822 55.9402 42.1345 55.9328 42.1906C55.9254 42.2243 55.9217 42.2617 55.9143 42.3065C55.8698 42.6093 55.8031 43.0617 55.4956 43.2224C55.44 43.2523 55.3659 43.2747 55.277 43.2747L55.2807 43.271ZM55.1806 41.1439C55.0509 41.1439 54.9435 41.2411 54.8879 41.3345C54.8286 41.4317 54.7916 41.5775 54.8546 41.7009C54.8805 41.7495 54.9101 41.7869 54.9398 41.8243C54.9991 41.899 55.0732 41.9888 55.1176 42.1345C55.1399 42.2056 55.1547 42.3028 55.1695 42.4112C55.1806 42.5046 55.2103 42.699 55.2473 42.7402C55.2659 42.7476 55.2807 42.7476 55.2807 42.7476C55.3363 42.6916 55.3881 42.3402 55.403 42.2243C55.4104 42.1719 55.4178 42.1271 55.4252 42.0897C55.4437 41.9962 55.4771 41.9065 55.5104 41.8243C55.5475 41.7271 55.5845 41.6336 55.5808 41.5588C55.5808 41.4878 55.5475 41.1402 55.1806 41.1402V41.1439Z" fill="#484FA1"/>
<path d="M111.265 8.29164C111.236 8.29164 111.202 8.28417 111.169 8.27295C111.036 8.22062 110.969 8.06734 111.021 7.93277C111.176 7.53277 111.332 7.13277 111.491 6.73277C112.151 5.05426 112.833 3.32342 113.377 1.58884C112.888 1.59258 112.392 1.60753 111.869 1.62622C110.732 1.66361 109.557 1.70099 108.438 1.61127C107.667 2.9608 107.078 4.53837 106.504 6.05987C106.356 6.45613 106.208 6.84865 106.059 7.2337C106.007 7.36828 105.856 7.43557 105.722 7.38323C105.589 7.3309 105.522 7.17763 105.574 7.04305C105.722 6.66174 105.87 6.27295 106.019 5.87669C106.619 4.27669 107.241 2.62435 108.075 1.20379C108.127 1.11781 108.223 1.06548 108.323 1.07669C109.461 1.18136 110.68 1.14398 111.858 1.1066C112.481 1.08791 113.125 1.06921 113.737 1.06921C113.818 1.06921 113.896 1.11034 113.944 1.17763C113.993 1.24491 114.007 1.3309 113.985 1.4094C113.418 3.27856 112.685 5.1365 111.981 6.9309C111.825 7.3309 111.666 7.7309 111.51 8.1309C111.469 8.23557 111.373 8.29538 111.269 8.29538L111.265 8.29164Z" fill="#484FA1"/>
<path d="M105.667 6.93086C105.089 6.70282 104.173 6.20936 103.592 6.69161C103.054 7.13273 103.421 7.51404 103.877 7.76451C104.318 8.0075 104.929 8.16077 105.366 7.86544C105.652 7.67479 105.944 7.25236 105.667 6.93086Z" fill="#484FA1"/>
<path d="M104.792 8.28787C104.466 8.28787 104.11 8.19067 103.755 7.99254C103.328 7.75703 103.099 7.48787 103.069 7.19254C103.047 6.94207 103.165 6.70282 103.428 6.486C104.058 5.96637 104.907 6.32525 105.526 6.58694C105.607 6.62058 105.689 6.65422 105.763 6.68413C105.804 6.69908 105.837 6.72525 105.863 6.75516C106.004 6.91591 106.059 7.1103 106.033 7.31965C105.989 7.65236 105.733 7.93273 105.511 8.08226C105.307 8.21684 105.063 8.28413 104.792 8.28413V8.28787ZM104.203 6.74768C104.032 6.74768 103.877 6.7888 103.751 6.89348C103.684 6.94955 103.573 7.05422 103.58 7.14394C103.588 7.22619 103.703 7.37198 103.995 7.53273C104.366 7.7346 104.881 7.87292 105.218 7.64862C105.374 7.54768 105.496 7.37946 105.511 7.25236C105.515 7.21123 105.511 7.17759 105.492 7.14394C105.437 7.12151 105.378 7.09535 105.315 7.06918C104.959 6.91965 104.548 6.74394 104.196 6.74394L104.203 6.74768Z" fill="#484FA1"/>
<path d="M111.191 7.61873C110.613 7.39069 109.698 6.89723 109.116 7.37947C108.579 7.8206 108.946 8.2019 109.402 8.45237C109.843 8.69536 110.454 8.84863 110.891 8.55331C111.176 8.36265 111.469 7.94022 111.191 7.61873Z" fill="#484FA1"/>
<path d="M110.317 8.97578C109.991 8.97578 109.635 8.87859 109.279 8.68045C108.853 8.44494 108.623 8.17578 108.594 7.88045C108.572 7.62999 108.69 7.39074 108.953 7.17765C109.583 6.65802 110.432 7.0169 111.05 7.27859C111.132 7.31223 111.214 7.34587 111.288 7.37578C111.328 7.39073 111.362 7.4169 111.388 7.44681C111.528 7.60756 111.584 7.80569 111.558 8.0113C111.514 8.34401 111.258 8.62438 111.036 8.77391C110.832 8.90849 110.587 8.97578 110.317 8.97578ZM109.731 7.43559C109.561 7.43559 109.405 7.47672 109.279 7.58139C109.213 7.63746 109.101 7.74214 109.109 7.83186C109.116 7.9141 109.231 8.05989 109.524 8.22064C109.894 8.42251 110.409 8.56083 110.747 8.33279C110.899 8.23186 111.025 8.06363 111.039 7.93653C111.043 7.89541 111.039 7.86176 111.021 7.82812C110.965 7.80569 110.906 7.77952 110.843 7.75335C110.487 7.60382 110.076 7.42812 109.724 7.42812L109.731 7.43559Z" fill="#484FA1"/>
<path d="M107.686 3.11411C107.553 3.11411 107.441 3.01317 107.427 2.87859C107.412 2.73654 107.519 2.6057 107.66 2.59448C108.294 2.53467 108.935 2.51224 109.557 2.49355C110.072 2.47859 110.61 2.4599 111.128 2.41878L111.265 2.40756C111.858 2.35897 112.529 2.30663 113.103 2.4599C113.24 2.49728 113.326 2.63934 113.289 2.77766C113.251 2.91598 113.111 2.99822 112.974 2.96457C112.484 2.83373 111.858 2.88607 111.306 2.92719L111.169 2.93841C110.635 2.97953 110.098 2.99822 109.576 3.01317C108.964 3.03186 108.331 3.05429 107.712 3.11411C107.705 3.11411 107.697 3.11411 107.686 3.11411Z" fill="#484FA1"/>
<path d="M111.751 25.6598C111.636 25.6598 111.528 25.5813 111.499 25.4617C111.388 25.0206 111.265 24.5757 111.147 24.1234C110.658 22.2991 110.154 20.415 110.006 18.5982C109.998 18.4935 110.05 18.3963 110.139 18.3477C110.228 18.2991 110.339 18.3066 110.421 18.3664C110.995 18.8038 111.58 19.0131 112.144 19.215C113.114 19.5626 114.03 19.8879 114.567 21.2972C114.619 21.4318 114.552 21.5851 114.419 21.6337C114.282 21.686 114.133 21.6187 114.085 21.4841C113.633 20.2991 112.903 20.0374 111.973 19.7084C111.54 19.5552 111.065 19.3832 110.584 19.0991C110.776 20.7028 111.221 22.3701 111.654 23.9851C111.777 24.4412 111.895 24.8898 112.01 25.3309C112.047 25.4692 111.962 25.615 111.825 25.6486C111.803 25.6561 111.78 25.6561 111.758 25.6561L111.751 25.6598Z" fill="#484FA1"/>
<path d="M111.469 25.3234C110.769 25.5065 109.572 25.6748 109.335 26.4972C109.12 27.2486 109.72 27.3421 110.321 27.2636C110.899 27.185 111.584 26.9122 111.806 26.3589C111.951 26 111.951 25.428 111.469 25.3271V25.3234Z" fill="#484FA1"/>
<path d="M109.994 27.5477C109.628 27.5477 109.361 27.4505 109.198 27.2599C109.024 27.058 108.987 26.7739 109.09 26.4225C109.339 25.5627 110.365 25.3197 111.117 25.1402C111.221 25.1141 111.317 25.0916 111.41 25.0692C111.447 25.058 111.488 25.058 111.528 25.0692C111.762 25.1178 111.94 25.2524 112.047 25.4542C112.218 25.7757 112.158 26.1832 112.047 26.4561C111.717 27.2748 110.669 27.4767 110.354 27.5215C110.224 27.5402 110.106 27.5477 109.994 27.5477ZM111.465 25.5926C111.391 25.6113 111.314 25.63 111.232 25.6486C110.606 25.7982 109.746 26 109.583 26.5683C109.557 26.6655 109.52 26.8374 109.587 26.9159C109.654 26.9944 109.872 27.058 110.283 26.9982C110.784 26.9309 111.384 26.6991 111.566 26.2543C111.643 26.0599 111.654 25.8243 111.584 25.6935C111.558 25.6412 111.521 25.6075 111.465 25.5888V25.5926Z" fill="#484FA1"/>
<path d="M69.8243 15.2598C69.7169 15.2598 69.6168 15.1925 69.5798 15.0841C69.313 14.3065 69.0907 13.5027 68.8757 12.7252C68.6608 11.9364 68.4348 11.1214 68.1643 10.3401C68.1421 10.2728 68.1458 10.1981 68.1791 10.1345C68.2125 10.071 68.2681 10.0224 68.3348 10.0037C69.0758 9.77938 69.8169 9.46163 70.5321 9.15134C71.1212 8.89714 71.7363 8.63172 72.3551 8.41864C72.6997 8.29901 73.0554 8.20181 73.4 8.10835C73.7706 8.00742 74.1559 7.89901 74.5116 7.77191C74.645 7.72331 74.7932 7.79434 74.8414 7.92891C74.9044 8.10835 75.0823 8.78499 75.3639 9.87658C75.7159 11.2261 76.3013 13.4878 76.4384 13.7233C76.5088 13.8467 76.4718 14.0074 76.3532 14.0822C76.2346 14.157 76.0827 14.1308 76.0049 14.0149C75.8604 13.8018 75.5343 12.6056 74.8599 10.0074C74.6858 9.342 74.5191 8.70275 74.4227 8.35135C74.1263 8.44854 73.8224 8.53078 73.5297 8.61303C73.1925 8.70649 72.8442 8.79994 72.5181 8.91583C71.9179 9.12518 71.3139 9.38312 70.7321 9.63733C70.0837 9.9177 69.4204 10.2056 68.7386 10.4298C68.9758 11.1476 69.1796 11.8803 69.376 12.5906C69.5872 13.3607 69.8058 14.1532 70.0689 14.9196C70.1171 15.0579 70.0429 15.2037 69.9095 15.2523C69.8799 15.2635 69.854 15.2672 69.8243 15.2672V15.2598Z" fill="#484FA1"/>
<path d="M73.3852 16.6952C73.2666 16.6952 73.1592 16.6093 73.1332 16.4896C72.9665 15.7083 72.5404 14.2728 72.1291 12.8859C71.6807 11.3756 71.2546 9.95131 71.1434 9.30084C71.1175 9.15878 71.2139 9.0242 71.3547 8.99804C71.4918 8.97187 71.6289 9.06906 71.6548 9.21112C71.7622 9.82794 72.1995 11.3046 72.6256 12.7326C73.0406 14.1307 73.4704 15.5737 73.6409 16.3775C73.6705 16.5195 73.5816 16.6578 73.4408 16.6878C73.4223 16.6915 73.4037 16.6952 73.3852 16.6952Z" fill="#484FA1"/>
<path d="M69.5353 14.8784C68.9499 15.0392 67.9383 15.1999 67.7752 15.8691C67.6233 16.4822 68.1384 16.5494 68.646 16.4709C69.1536 16.3924 69.702 16.1644 69.8688 15.7121C69.9762 15.4167 69.9503 14.9532 69.539 14.8822L69.5353 14.8784Z" fill="#484FA1"/>
<path d="M68.3348 16.7588C68.0235 16.7588 67.7938 16.6765 67.6493 16.5158C67.5418 16.3961 67.4306 16.1756 67.5233 15.8055C67.7048 15.0728 68.583 14.8522 69.2241 14.6877C69.3093 14.6653 69.3908 14.6466 69.4686 14.6242C69.5057 14.613 69.5464 14.613 69.5835 14.6204C69.7984 14.6578 69.9688 14.7775 70.0726 14.9606C70.2282 15.2335 70.1949 15.5737 70.1097 15.8018C69.854 16.5008 68.9536 16.6877 68.6831 16.7289C68.5571 16.7475 68.4422 16.7588 68.3348 16.7588ZM69.539 15.1513C69.4797 15.1662 69.4167 15.1812 69.35 15.1999C68.835 15.3307 68.131 15.5064 68.0272 15.9326C68.0013 16.0447 68.0013 16.127 68.0346 16.1644C68.0828 16.2204 68.2644 16.2653 68.6053 16.213C68.998 16.1532 69.4983 15.9625 69.6205 15.6223C69.6724 15.4803 69.6724 15.3158 69.6205 15.2223C69.6057 15.1961 69.5835 15.17 69.5353 15.1513H69.539Z" fill="#484FA1"/>
<path d="M73.0443 16.2168C72.4589 16.3775 71.4473 16.5383 71.2842 17.2075C71.1323 17.8205 71.6474 17.8878 72.155 17.8093C72.6441 17.7346 73.211 17.5028 73.3778 17.0504C73.4852 16.7551 73.4593 16.2916 73.048 16.2205L73.0443 16.2168Z" fill="#484FA1"/>
<path d="M71.8438 18.0971C71.5325 18.0971 71.3028 18.0149 71.1583 17.8542C71.0508 17.7345 70.9397 17.514 71.0323 17.1439C71.2139 16.4112 72.092 16.1906 72.7331 16.0261C72.8183 16.0037 72.9035 15.985 72.9776 15.9626C73.0147 15.9513 73.0554 15.9513 73.0925 15.9588C73.3074 15.9962 73.4778 16.1158 73.5853 16.299C73.7409 16.5719 73.7076 16.9121 73.6224 17.1401C73.3667 17.8392 72.4663 18.0261 72.1958 18.0672C72.0698 18.0859 71.9549 18.0971 71.8475 18.0971H71.8438ZM73.0443 16.4897C72.985 16.5046 72.922 16.5196 72.8553 16.5383C72.3403 16.6691 71.64 16.8448 71.5325 17.271C71.5066 17.3831 71.5066 17.4691 71.5399 17.5027C71.5881 17.5588 71.7697 17.6037 72.1106 17.5513C72.5219 17.4878 73.0036 17.3009 73.1295 16.9607C73.1814 16.8224 73.1814 16.6542 73.1295 16.5607C73.1147 16.5345 73.0925 16.5084 73.0443 16.4897Z" fill="#484FA1"/>
<path d="M75.9382 13.5701C75.4084 13.7159 74.4894 13.8617 74.3375 14.471C74.2004 15.028 74.6673 15.0878 75.1267 15.0168C75.5862 14.9458 76.0864 14.7364 76.2384 14.3252C76.3347 14.056 76.3125 13.6374 75.9382 13.5701Z" fill="#484FA1"/>
<path d="M74.8488 15.3009C74.5598 15.3009 74.3449 15.2262 74.2078 15.0729C74.1041 14.9607 74.004 14.7514 74.0892 14.4075C74.256 13.7271 75.0637 13.5252 75.6529 13.3757C75.7307 13.357 75.8048 13.3383 75.8715 13.3196C75.9086 13.3084 75.9493 13.3084 75.9864 13.3159C76.1902 13.3533 76.3495 13.4617 76.4496 13.6336C76.5941 13.8878 76.5644 14.2056 76.4866 14.4187C76.3273 14.8561 75.8345 15.1776 75.1712 15.2785C75.0563 15.2972 74.9489 15.3047 74.8525 15.3047L74.8488 15.3009ZM75.9382 13.8392C75.8863 13.8542 75.8308 13.8654 75.7752 13.8804C75.312 13.9963 74.6821 14.1533 74.5895 14.5308C74.5635 14.6392 74.5709 14.6991 74.5895 14.7177C74.6228 14.7551 74.7673 14.8037 75.0897 14.7551C75.438 14.7028 75.8863 14.5346 75.9938 14.2318C76.0383 14.1121 76.0383 13.9663 75.9938 13.8878C75.9827 13.8692 75.9679 13.8505 75.9345 13.8355L75.9382 13.8392Z" fill="#484FA1"/>
<path d="M106.867 109.211C107.56 109.305 108.253 109.488 108.953 109.604C109.513 109.697 110.043 109.824 110.595 109.88C110.913 109.914 111.788 110.082 112.036 109.851C112.425 109.488 112.17 108.183 112.036 107.761C111.814 107.036 111.299 106.486 110.513 106.449C109.994 106.423 109.642 106.419 109.153 106.58C108.924 106.654 108.62 106.744 108.423 106.879C108.186 107.039 108.042 107.335 107.838 107.529C107.371 107.981 106.926 108.561 106.863 109.211H106.867Z" fill="#E7E7F0"/>
<path d="M111.528 110.228C111.295 110.228 111.028 110.198 110.758 110.161C110.684 110.15 110.621 110.142 110.572 110.138C110.202 110.101 109.839 110.03 109.487 109.963C109.298 109.925 109.109 109.892 108.916 109.858C108.609 109.806 108.301 109.742 107.994 109.679C107.612 109.6 107.219 109.518 106.837 109.466C106.7 109.447 106.6 109.32 106.615 109.181C106.674 108.58 107.03 107.959 107.667 107.338C107.734 107.271 107.801 107.185 107.871 107.095C107.982 106.946 108.112 106.778 108.286 106.658C108.494 106.516 108.779 106.426 109.005 106.351L109.079 106.325C109.609 106.15 109.998 106.153 110.532 106.18C111.365 106.221 112.006 106.766 112.288 107.675C112.295 107.694 112.822 109.473 112.214 110.037C112.062 110.18 111.817 110.224 111.528 110.224V110.228ZM107.171 108.994C107.482 109.047 107.79 109.11 108.094 109.17C108.394 109.234 108.694 109.294 108.998 109.346C109.194 109.38 109.39 109.417 109.579 109.451C109.935 109.518 110.276 109.581 110.624 109.619C110.676 109.623 110.747 109.634 110.824 109.645C111.425 109.723 111.777 109.731 111.866 109.656C112.088 109.451 111.977 108.426 111.795 107.836C111.669 107.432 111.336 106.748 110.509 106.707C110.02 106.68 109.698 106.677 109.242 106.826L109.164 106.852C108.968 106.916 108.72 106.998 108.575 107.095C108.472 107.166 108.379 107.286 108.283 107.417C108.205 107.518 108.123 107.626 108.027 107.72C107.571 108.161 107.286 108.591 107.175 108.994H107.171Z" fill="#484FA1"/>
<path d="M72.3069 134.071L75.9864 155.667C76.1087 156.393 76.5904 157.024 77.2907 157.376C79.7103 158.594 85.6649 160.793 91.5083 156.669C92.0641 156.277 92.4272 155.705 92.5235 155.073L95.7139 133.682" fill="#FFD008"/>
<path d="M84.1123 159.32C81.0628 159.32 78.5135 158.284 77.1758 157.611C76.3977 157.219 75.8715 156.527 75.7307 155.712L72.0513 134.116C72.0253 133.974 72.1217 133.839 72.2625 133.813C72.407 133.787 72.5367 133.884 72.5626 134.026L76.2421 155.622C76.3532 156.269 76.7757 156.826 77.4056 157.144C79.6807 158.292 85.5982 160.523 91.3601 156.456C91.8529 156.108 92.1827 155.589 92.2679 155.036L95.4582 133.645C95.4804 133.503 95.6101 133.406 95.7547 133.424C95.8955 133.447 95.9955 133.578 95.9733 133.723L92.7829 155.114C92.6792 155.809 92.2679 156.456 91.6602 156.886C89.0664 158.718 86.443 159.323 84.1123 159.323V159.32Z" fill="#484FA1"/>
<path d="M72.4403 134.957C70.5024 128.654 92.3753 126.135 95.4249 132.662C98.1113 138.411 81.6408 137.989 78.7506 137.458C76.9239 137.122 73.2296 136.68 72.4403 134.957Z" fill="#FFD008"/>
<path d="M83.6306 138.008C81.4333 138.008 79.5473 137.873 78.7024 137.716C78.506 137.679 78.2911 137.645 78.0614 137.604C76.0308 137.256 72.9665 136.733 72.2032 135.065C72.1995 135.054 72.1958 135.043 72.1921 135.032C71.5918 133.084 73.0072 131.323 76.1791 130.082C79.236 128.882 83.5157 128.337 87.3434 128.662C89.8705 128.875 94.3095 129.664 95.6583 132.55C96.1363 133.574 96.0807 134.486 95.4915 135.26C94.1391 137.039 90.1447 137.671 87.0322 137.892C85.8835 137.974 84.72 138.008 83.6306 138.008ZM72.6812 134.864C73.3444 136.265 76.3495 136.781 78.1466 137.088C78.3801 137.129 78.5987 137.166 78.7951 137.2C81.5296 137.701 92.8496 137.869 95.0803 134.942C95.5471 134.329 95.5842 133.619 95.1877 132.774C93.1349 128.381 82.167 128.295 76.3643 130.572C74.7006 131.222 72.0142 132.647 72.6812 134.864Z" fill="#484FA1"/>
<path d="M77.0165 125.66C78.7654 122.131 82.4412 121.708 85.613 120.202C87.1581 119.469 88.9849 118.46 90.0595 117.073C91.8973 114.699 90.8376 112.695 91.2637 109.989C91.6861 107.308 95.0766 104.923 96.6328 104.755C98.1446 104.594 107.79 105.806 110.698 106.437C108.401 106.542 107.334 107.622 106.997 108.71C106.548 110.164 107.115 111.966 107.297 113.417C107.853 117.802 104.959 121.551 101.261 123.836C97.3146 126.273 90.53 127.219 90.8265 133.058C90.8635 133.817 91.008 135.14 91.2081 135.865C91.6009 137.286 91.1007 137.166 89.4851 137.421C87.2471 137.768 85.5204 137.757 83.2564 137.746C82.0151 137.738 80.2624 137.72 78.8284 137.465C77.5834 137.245 76.6237 137.305 76.3718 136.206C76.1902 135.421 75.953 133.806 75.9197 132.598C75.8567 130.34 75.9938 127.72 77.0128 125.664L77.0165 125.66Z" fill="#E7E7F0"/>
<path d="M84.4717 138.008C84.0827 138.008 83.6862 138.008 83.2712 138.004C82.1485 137.996 80.2884 137.985 78.7877 137.72C78.5913 137.686 78.4023 137.656 78.2207 137.63C77.2314 137.484 76.3755 137.361 76.1235 136.258C75.9271 135.406 75.6974 133.765 75.664 132.602C75.6122 130.651 75.6677 127.794 76.7868 125.54C78.1466 122.8 80.6626 121.854 83.097 120.942C83.8974 120.643 84.7237 120.333 85.5055 119.963C86.8543 119.323 88.77 118.31 89.8557 116.908C91.008 115.421 90.9673 114.097 90.9154 112.565C90.8895 111.742 90.8598 110.894 91.008 109.948C91.4564 107.095 94.9543 104.673 96.6069 104.497C98.1187 104.333 107.801 105.544 110.754 106.183C110.88 106.209 110.969 106.329 110.958 106.46C110.947 106.591 110.843 106.692 110.71 106.699C108.894 106.781 107.63 107.544 107.245 108.789C106.926 109.813 107.149 111.036 107.364 112.221C107.438 112.628 107.508 113.013 107.556 113.387C108.06 117.379 105.759 121.372 101.398 124.064C100.379 124.695 99.2044 125.211 97.9631 125.757C94.48 127.29 90.8784 128.879 91.0896 133.051C91.1266 133.768 91.2637 135.092 91.4601 135.798C91.612 136.344 91.6713 136.77 91.4675 137.08C91.2378 137.436 90.782 137.499 90.0261 137.608C89.8742 137.63 89.7037 137.652 89.5222 137.682C87.688 137.966 86.1725 138.015 84.468 138.015L84.4717 138.008ZM77.2499 125.776C76.1865 127.922 76.1309 130.692 76.1828 132.587C76.2124 133.716 76.4385 135.312 76.6274 136.142C76.7905 136.86 77.2833 136.965 78.2949 137.114C78.4801 137.14 78.6765 137.17 78.8766 137.208C80.3328 137.465 82.167 137.477 83.2601 137.484C85.487 137.499 87.236 137.507 89.4481 137.163C89.6333 137.133 89.8038 137.11 89.9594 137.088C90.5263 137.009 90.9376 136.95 91.0377 136.793C91.1155 136.673 91.0896 136.393 90.9636 135.937C90.745 135.151 90.6079 133.765 90.5745 133.073C90.3448 128.542 94.2836 126.804 97.7593 125.275C98.9857 124.736 100.142 124.224 101.131 123.615C105.315 121.032 107.523 117.234 107.045 113.451C107 113.092 106.93 112.714 106.86 112.314C106.645 111.129 106.4 109.783 106.756 108.632C106.926 108.075 107.482 106.923 109.179 106.415C105.337 105.765 97.9482 104.875 96.6625 105.013C95.1655 105.174 91.9122 107.54 91.5231 110.026C91.3823 110.927 91.4082 111.75 91.4342 112.546C91.486 114.112 91.5342 115.593 90.267 117.23C89.1109 118.722 87.1248 119.772 85.7279 120.437C84.9275 120.819 84.0901 121.133 83.2786 121.436C80.833 122.351 78.5209 123.219 77.2536 125.776H77.2499Z" fill="#484FA1"/>
<path d="M75.3713 151.828C75.3713 151.828 77.7872 157.163 80.3143 158.415L75.3713 151.828Z" fill="#FFD008"/>
<path d="M80.3143 158.677C80.2772 158.677 80.2365 158.669 80.1994 158.65C77.6205 157.368 75.2379 152.157 75.1379 151.936C75.0786 151.806 75.1379 151.649 75.2675 151.589C75.3972 151.529 75.5529 151.589 75.6121 151.72C75.6344 151.772 78.0207 156.983 80.4329 158.183C80.5625 158.247 80.6144 158.404 80.5514 158.535C80.507 158.628 80.4143 158.68 80.318 158.68L80.3143 158.677Z" fill="#484FA1"/>
<path d="M74.0707 144.475C74.0707 144.475 81.4519 158.467 86.2429 158.908L74.0707 144.475Z" fill="#FFD008"/>
<path d="M86.2429 159.17C86.2429 159.17 86.2281 159.17 86.2207 159.17C81.3444 158.722 74.1448 145.174 73.841 144.598C73.7743 144.471 73.8225 144.31 73.9485 144.243C74.0744 144.176 74.2338 144.224 74.3005 144.351C74.3746 144.49 81.6668 158.224 86.2689 158.647C86.4097 158.662 86.5171 158.789 86.5023 158.931C86.4912 159.065 86.3763 159.17 86.2429 159.17Z" fill="#484FA1"/>
<path d="M73.0851 138.082C73.0851 138.082 84.7089 157.742 89.6074 157.615L73.0851 138.082Z" fill="#FFD008"/>
<path d="M89.5629 157.877C84.5458 157.877 73.3407 139.021 72.8627 138.213C72.7886 138.09 72.8294 137.929 72.9517 137.854C73.074 137.783 73.2333 137.821 73.3074 137.944C73.337 137.993 76.2495 142.908 79.7214 147.742C85.4129 155.664 88.2105 157.353 89.5592 157.353C89.574 157.353 89.5926 157.353 89.6074 157.353C89.7482 157.353 89.8631 157.465 89.8668 157.607C89.8668 157.753 89.7556 157.873 89.6148 157.877C89.6 157.877 89.5815 157.877 89.5629 157.877Z" fill="#484FA1"/>
<path d="M75.8604 136.987C75.8604 136.987 87.0247 156.415 91.7158 156.299L75.8604 136.987Z" fill="#FFD008"/>
<path d="M91.675 156.561C86.8617 156.561 76.0939 137.914 75.6344 137.118C75.564 136.994 75.6047 136.834 75.727 136.759C75.853 136.684 76.0086 136.729 76.0827 136.852C76.1124 136.901 78.9063 141.757 82.2411 146.535C87.7028 154.366 90.3818 156.034 91.6713 156.034C91.6861 156.034 91.701 156.034 91.7158 156.034C91.8566 156.034 91.9715 156.146 91.9752 156.288C91.9752 156.434 91.864 156.553 91.7232 156.557C91.7084 156.557 91.6935 156.557 91.6787 156.557L91.675 156.561Z" fill="#484FA1"/>
<path d="M80.3402 137.753C80.3402 137.753 88.9775 153.316 92.5977 153.226L80.3402 137.753Z" fill="#FFD008"/>
<path d="M92.5717 153.488C88.8219 153.488 80.4699 138.52 80.1142 137.88C80.0438 137.753 80.0883 137.596 80.2142 137.525C80.3402 137.454 80.4959 137.499 80.5663 137.626C82.9414 141.903 89.7075 152.965 92.5643 152.965C92.5754 152.965 92.5865 152.965 92.5977 152.965C92.7385 152.965 92.8533 153.077 92.857 153.219C92.857 153.365 92.7459 153.484 92.6051 153.488C92.594 153.488 92.5828 153.488 92.5717 153.488Z" fill="#484FA1"/>
<path d="M84.6718 137.858C84.6718 137.858 90.6746 149.858 93.1683 149.806L84.6718 137.858Z" fill="#FFD008"/>
<path d="M93.1535 150.067C90.5634 150.067 85.0609 139.219 84.4421 137.978C84.3791 137.85 84.4273 137.69 84.557 137.626C84.6867 137.559 84.8423 137.611 84.9053 137.742C87.2841 142.493 91.4342 149.544 93.1498 149.544C93.1572 149.544 93.1646 149.544 93.1683 149.544C93.3091 149.544 93.424 149.656 93.4277 149.798C93.4277 149.944 93.3165 150.064 93.1757 150.067H93.1572H93.1535Z" fill="#484FA1"/>
<path d="M88.5958 137.858C88.5958 137.858 92.2012 145.447 93.687 145.417L88.5958 137.858Z" fill="#FFD008"/>
<path d="M93.6796 145.679C92.1011 145.679 88.9738 139.26 88.3624 137.97C88.2994 137.839 88.355 137.682 88.4847 137.623C88.6144 137.559 88.77 137.615 88.8293 137.746C90.2929 140.826 92.7607 145.159 93.6759 145.159C93.6759 145.159 93.6833 145.159 93.687 145.159C93.8278 145.159 93.9427 145.271 93.9464 145.417C93.9464 145.563 93.8353 145.682 93.6907 145.682H93.6796V145.679Z" fill="#484FA1"/>
<path d="M92.4346 137.084C92.4346 137.084 93.902 140.568 94.4985 140.561L92.4346 137.084Z" fill="#FFD008"/>
<path d="M94.4985 140.823C93.8612 140.823 92.8941 138.849 92.1975 137.189C92.1419 137.054 92.2049 136.901 92.3346 136.845C92.4643 136.789 92.6199 136.849 92.6755 136.983C93.3128 138.497 94.2058 140.191 94.517 140.303C94.6616 140.314 94.7653 140.415 94.769 140.561C94.769 140.707 94.6467 140.823 94.5022 140.826H94.4985V140.823Z" fill="#484FA1"/>
<path d="M73.8558 142.864C73.778 142.864 73.7039 142.83 73.652 142.766C73.5631 142.654 73.5816 142.49 73.6928 142.4C73.7113 142.385 75.6344 140.808 77.5352 137.353C77.6056 137.226 77.7613 137.181 77.8873 137.252C78.0132 137.323 78.0577 137.48 77.9873 137.608C76.0309 141.159 74.0966 142.744 74.0151 142.808C73.967 142.845 73.9114 142.864 73.8521 142.864H73.8558Z" fill="#484FA1"/>
<path d="M74.6487 147.282C74.5709 147.282 74.4931 147.249 74.4449 147.181C74.356 147.069 74.3783 146.905 74.4894 146.815C74.5228 146.789 78.0429 143.981 81.5222 137.836C81.5926 137.712 81.7483 137.667 81.878 137.738C82.0002 137.809 82.0447 137.97 81.9743 138.097C78.4394 144.34 74.8451 147.2 74.8081 147.23C74.7599 147.267 74.7043 147.286 74.6487 147.286V147.282Z" fill="#484FA1"/>
<path d="M75.1304 151.122C75.0489 151.122 74.9711 151.084 74.9192 151.013C74.834 150.897 74.86 150.733 74.9785 150.647C75.0341 150.606 80.4884 146.58 85.8761 137.768C85.9502 137.645 86.1095 137.608 86.2318 137.682C86.3541 137.757 86.3911 137.918 86.317 138.041C80.8701 146.95 75.3379 151.032 75.2824 151.069C75.2379 151.103 75.1823 151.118 75.1304 151.118V151.122Z" fill="#484FA1"/>
<path d="M75.8567 154.961C75.7789 154.961 75.7011 154.923 75.6492 154.856C75.564 154.74 75.5862 154.576 75.7011 154.49C75.7715 154.437 82.8747 149.032 89.889 137.2C89.9631 137.077 90.1224 137.036 90.2447 137.11C90.367 137.185 90.4078 137.346 90.3336 137.469C83.2638 149.398 76.0827 154.856 76.0123 154.912C75.9641 154.946 75.9123 154.964 75.8567 154.964V154.961Z" fill="#484FA1"/>
<path d="M77.4871 157.765C77.4093 157.765 77.3315 157.731 77.2796 157.664C77.1907 157.548 77.2129 157.383 77.3278 157.297C77.413 157.23 85.8909 150.557 94.2688 135.948C94.3392 135.824 94.4985 135.78 94.6245 135.854C94.7468 135.925 94.7912 136.086 94.7171 136.213C86.2874 150.92 77.7316 157.649 77.6464 157.712C77.5982 157.75 77.5427 157.768 77.4871 157.768V157.765Z" fill="#484FA1"/>
<path d="M80.2439 158.628C80.1624 158.628 80.0809 158.591 80.0327 158.516C79.9512 158.396 79.9771 158.236 80.0957 158.15C80.1661 158.101 87.236 152.983 94.2169 141.783C94.291 141.66 94.4541 141.626 94.5763 141.701C94.6986 141.779 94.7357 141.94 94.6579 142.064C87.6176 153.357 80.4699 158.527 80.3958 158.576C80.3514 158.609 80.2995 158.624 80.2476 158.624L80.2439 158.628Z" fill="#484FA1"/>
<path d="M83.1489 159.245C83.0637 159.245 82.9785 159.2 82.9303 159.121C82.8525 158.998 82.8932 158.837 83.0118 158.763C83.0637 158.729 88.166 155.473 93.209 148.344C93.2906 148.228 93.4536 148.198 93.5722 148.284C93.6907 148.366 93.7167 148.531 93.6314 148.65C88.5254 155.869 83.3379 159.174 83.286 159.207C83.2415 159.234 83.1971 159.249 83.1489 159.249V159.245Z" fill="#484FA1"/>
<path d="M87.1952 158.864C87.1063 158.864 87.0248 158.819 86.9729 158.74C86.8988 158.617 86.9358 158.456 87.0581 158.381C87.0878 158.363 89.8816 156.602 92.6421 152.748C92.7274 152.632 92.8867 152.606 93.0053 152.688C93.1201 152.774 93.1461 152.935 93.0645 153.054C90.2373 156.998 87.4509 158.755 87.3323 158.826C87.2878 158.852 87.2434 158.864 87.1952 158.864Z" fill="#484FA1"/>
<path d="M104.259 108.37C104.259 108.37 104.24 108.37 104.229 108.37L96.3623 107.503C96.2215 107.488 96.1178 107.357 96.1326 107.215C96.1474 107.073 96.2697 106.968 96.4179 106.983L104.284 107.851C104.425 107.865 104.529 107.996 104.514 108.138C104.499 108.273 104.388 108.37 104.255 108.37H104.259Z" fill="#484FA1"/>
<path d="M101.702 110.617C101.702 110.617 101.683 110.617 101.672 110.617L93.8056 109.75C93.6648 109.735 93.5611 109.604 93.5759 109.462C93.5907 109.32 93.7167 109.219 93.8612 109.23L101.728 110.097C101.869 110.112 101.972 110.243 101.957 110.385C101.943 110.52 101.831 110.617 101.698 110.617H101.702Z" fill="#484FA1"/>
<path d="M104.588 113.26C104.588 113.26 104.57 113.26 104.559 113.26L94.8765 112.168C94.7357 112.153 94.6319 112.023 94.6467 111.88C94.6616 111.738 94.795 111.637 94.9321 111.649L104.614 112.74C104.755 112.755 104.859 112.886 104.844 113.028C104.829 113.163 104.718 113.26 104.588 113.26Z" fill="#484FA1"/>
<path d="M104.259 115.839C104.259 115.839 104.24 115.839 104.229 115.839L94.5467 114.748C94.4059 114.733 94.3021 114.602 94.317 114.46C94.3318 114.318 94.4615 114.217 94.6023 114.228L104.284 115.32C104.425 115.335 104.529 115.466 104.514 115.608C104.499 115.742 104.388 115.839 104.259 115.839Z" fill="#484FA1"/>
<path d="M103.021 118.086C103.021 118.086 103.002 118.086 102.991 118.086L93.3091 116.994C93.1683 116.979 93.0645 116.849 93.0794 116.707C93.0942 116.565 93.2276 116.46 93.3647 116.475L103.047 117.566C103.188 117.581 103.291 117.712 103.277 117.854C103.262 117.989 103.151 118.086 103.021 118.086Z" fill="#484FA1"/>
<path d="M100.794 120.333C100.794 120.333 100.775 120.333 100.764 120.333L91.0822 119.241C90.9414 119.226 90.8376 119.095 90.8524 118.953C90.8672 118.811 91.0043 118.71 91.1377 118.722L100.82 119.813C100.961 119.828 101.064 119.959 101.05 120.101C101.035 120.236 100.924 120.333 100.794 120.333Z" fill="#484FA1"/>
<path d="M97.7407 122.497C97.7407 122.497 97.7222 122.497 97.7111 122.497L88.0289 121.406C87.8881 121.391 87.7843 121.26 87.7992 121.118C87.814 120.976 87.9474 120.871 88.0845 120.886L97.7667 121.978C97.9075 121.993 98.0112 122.123 97.9964 122.266C97.9816 122.4 97.8704 122.497 97.7407 122.497Z" fill="#484FA1"/>
<path d="M93.9464 124.494C93.9464 124.494 93.9279 124.494 93.9168 124.494L84.2346 123.402C84.0938 123.387 83.99 123.256 84.0049 123.114C84.0197 122.972 84.1568 122.871 84.2902 122.882L93.9723 123.974C94.1132 123.989 94.2169 124.12 94.2021 124.262C94.1873 124.396 94.0761 124.494 93.9464 124.494Z" fill="#484FA1"/>
<path d="M88.0919 131.731C88.0919 131.731 88.0734 131.731 88.0622 131.731L78.3801 130.639C78.2393 130.624 78.1355 130.494 78.1503 130.351C78.1652 130.209 78.2948 130.105 78.4356 130.12L88.1178 131.211C88.2586 131.226 88.3624 131.357 88.3476 131.499C88.3327 131.634 88.2216 131.731 88.0919 131.731Z" fill="#484FA1"/>
<path d="M88.2549 134.31C88.2549 134.31 88.2364 134.31 88.2253 134.31L78.5431 133.219C78.4023 133.204 78.2986 133.073 78.3134 132.931C78.3282 132.789 78.4616 132.684 78.5987 132.699L88.2809 133.791C88.4217 133.806 88.5254 133.937 88.5106 134.079C88.4958 134.213 88.3846 134.31 88.2549 134.31Z" fill="#484FA1"/>
<path d="M86.1577 136.553C86.1577 136.553 86.1392 136.553 86.1281 136.553L78.784 135.727C78.6432 135.712 78.5394 135.581 78.5542 135.439C78.5691 135.297 78.7025 135.193 78.8396 135.207L86.1836 136.034C86.3244 136.049 86.4282 136.179 86.4134 136.321C86.3985 136.456 86.2874 136.553 86.1577 136.553Z" fill="#484FA1"/>
<path d="M87.2656 126.037C87.2656 126.037 87.2471 126.037 87.236 126.037L80.029 125.23C79.8882 125.215 79.7844 125.084 79.7993 124.942C79.8141 124.8 79.9438 124.699 80.0846 124.71L87.2916 125.518C87.4324 125.533 87.5361 125.664 87.5213 125.806C87.5065 125.94 87.3953 126.037 87.2656 126.037Z" fill="#484FA1"/>
</g>
<defs>
<clipPath id="clip0_5825_49666">
<rect width="115.608" height="160" fill="white"/>
</clipPath>
</defs>
</svg>
