<svg width="133" height="160" viewBox="0 0 133 160" fill="none" xmlns="http://www.w3.org/2000/svg">
<g clip-path="url(#clip0_5825_49676)">
<path d="M53.635 84.656C48.7897 86.3735 45.1549 90.6503 42.2827 92.7735C35.4721 97.8124 32.4936 106.165 30.9646 114.013C28.4756 126.791 32.5012 144.792 45.485 151.033C56.3478 156.254 65.7688 156.762 77.7775 156.072C86.3334 155.579 95.2081 154.711 103.24 151.727C109.421 149.433 113.796 146.521 119.115 142.392C128.825 134.855 133.628 121.82 131.344 109.915C129.546 100.546 123.126 88.1896 115.154 82.7185C105.293 75.9508 99.3552 77.2967 87.9763 77.3498C79.8681 77.3839 60.7984 81.8617 53.6387 84.6522L53.635 84.656Z" fill="#6CC6E5"/>
<path d="M70.2081 156.584C61.3638 156.584 53.8285 155.34 45.3674 151.276C37.7372 147.61 33.9772 140.436 32.1673 135.064C29.9211 128.398 29.3862 120.709 30.7027 113.964C32.6871 103.78 36.4244 96.7773 42.1233 92.5612C42.9429 91.9546 43.8421 91.1584 44.7944 90.3129C47.1355 88.2351 50.0494 85.6494 53.5439 84.4057C60.5442 81.6797 79.8112 77.1223 87.9763 77.0844C89.6534 77.0768 91.1976 77.0427 92.6887 77.0086C101.207 76.8152 106.83 76.6863 115.306 82.5024C123.574 88.1745 129.876 100.834 131.61 109.865C133.924 121.926 128.973 135.083 119.282 142.601C113.883 146.791 109.543 149.668 103.339 151.974C95.246 154.98 86.2803 155.845 77.7965 156.334C75.1405 156.485 72.6288 156.58 70.2156 156.58L70.2081 156.584ZM96.7979 77.4749C95.4965 77.4749 94.1381 77.5053 92.6963 77.5394C91.2014 77.5735 89.6572 77.6077 87.9763 77.6152C79.8605 77.6494 60.696 82.1877 53.7336 84.8986C53.7336 84.8986 53.7298 84.8986 53.726 84.8986C50.3264 86.1043 47.5756 88.546 45.1473 90.7034C44.1874 91.5565 43.2806 92.3603 42.442 92.9821C36.8532 97.1185 33.1842 104.011 31.2264 114.059C28.6121 127.462 33.2752 144.868 45.5988 150.791C56.2643 155.917 65.4653 156.508 77.7585 155.803C86.2006 155.318 95.117 154.457 103.146 151.473C109.288 149.194 113.591 146.339 118.948 142.18C128.483 134.779 133.355 121.831 131.079 109.964C129.364 101.035 123.145 88.5309 114.999 82.9385C108.093 78.1991 103.092 77.4749 96.7979 77.4749Z" fill="#484FA1"/>
<path d="M10.6769 144.648C10.8476 148.409 9.75112 147.81 6.70058 148.345C4.86797 148.667 1.9009 148.743 0.705727 150.574C-2.60282 155.628 13.8944 153.85 16.6414 154.218C19.4491 154.597 19.3732 149.983 19.9689 147.041" fill="#484FA1"/>
<path d="M16.9677 154.506C16.8501 154.506 16.7287 154.499 16.6035 154.48C16.004 154.4 14.6456 154.427 13.0673 154.457C6.91685 154.578 1.29762 154.521 0.185918 152.516C-0.140384 151.924 -0.0417348 151.223 0.478072 150.427C1.54045 148.804 3.82077 148.485 5.65337 148.231C6.01003 148.182 6.34392 148.136 6.65125 148.08C7.15588 147.992 7.60739 147.932 8.00958 147.882C10.0053 147.628 10.5403 147.556 10.4113 144.656C10.4037 144.508 10.5175 144.387 10.6655 144.379C10.8097 144.372 10.9349 144.485 10.9425 144.633C11.0867 147.86 10.3203 148.121 8.07787 148.409C7.68328 148.459 7.23935 148.516 6.74611 148.603C6.43498 148.656 6.0935 148.705 5.72926 148.755C4.00289 148.993 1.85537 149.293 0.925789 150.715C0.516014 151.34 0.428747 151.845 0.6564 152.258C1.7036 154.15 8.81395 154.009 13.0597 153.926C14.7215 153.896 16.0343 153.869 16.6756 153.953C18.6485 154.218 19.0318 151.534 19.396 148.933C19.4946 148.243 19.5857 147.587 19.7071 146.988C19.7375 146.844 19.8779 146.753 20.022 146.779C20.1662 146.809 20.2573 146.95 20.2307 147.094C20.1131 147.682 20.022 148.326 19.9234 149.009C19.5592 151.594 19.1532 154.506 16.9715 154.506H16.9677Z" fill="#484FA1"/>
<path d="M47.7767 105.774C40.6094 106.199 33.3739 104.72 26.1611 105.35C18.5423 106.013 17.3395 112.777 15.6853 119.208C14.1752 125.081 12.8017 130.999 11.3978 136.887C10.9008 138.98 9.53105 145.122 9.81182 145.49C11.246 147.352 16.5655 148.303 19.6957 148.444C20.447 148.478 21.0503 147.958 21.2931 147.249C22.7615 142.965 24.909 137.285 26.4456 132.258C28.0847 126.897 29.0978 122.696 30.9645 122.264C32.2128 121.975 35.233 122.396 40.5146 123.022C45.4774 123.609 59.1935 125.865 60.9236 119.617C63.5644 110.085 52.7547 105.073 47.7767 105.774Z" fill="#EE235E"/>
<path d="M19.764 148.705C19.7375 148.705 19.7109 148.705 19.6844 148.705C16.5921 148.569 11.1208 147.617 9.60314 145.649C9.20095 145.126 10.6769 138.764 11.1398 136.823C11.4282 135.606 11.7203 134.389 12.0087 133.168C13.1014 128.561 14.2283 123.799 15.431 119.135C15.5373 118.73 15.6359 118.324 15.7422 117.918C17.2561 111.924 18.8193 105.721 26.1421 105.084C29.9553 104.751 33.8254 105.008 37.5665 105.255C40.913 105.479 44.3771 105.706 47.7539 105.509C50.8196 105.081 56.0177 106.772 59.0758 110.252C60.7111 112.114 62.4071 115.264 61.1816 119.685C59.516 125.695 47.4883 124.167 41.7097 123.435C41.2582 123.378 40.8484 123.325 40.4842 123.283L38.7654 123.079C34.6032 122.578 32.0876 122.275 31.0252 122.521C29.5417 122.863 28.5438 126.195 27.2804 130.411C27.0944 131.033 26.9009 131.674 26.6998 132.334C25.6602 135.731 24.3285 139.473 23.1485 142.779C22.568 144.406 22.0216 145.941 21.5435 147.333C21.2552 148.174 20.5608 148.709 19.764 148.709V148.705ZM10.0471 145.354C11.4092 147.063 16.5048 148.034 19.7071 148.174C20.2914 148.201 20.8226 147.803 21.0427 147.158C21.5208 145.763 22.0671 144.224 22.6476 142.597C23.8238 139.299 25.1556 135.56 26.1914 132.174C26.3925 131.515 26.586 130.874 26.7719 130.256C28.1341 125.702 29.1206 122.415 30.9076 122.002C32.0611 121.733 34.4666 122.025 38.8299 122.548L40.5487 122.753C40.913 122.794 41.3265 122.847 41.778 122.904C47.4086 123.617 59.1289 125.107 60.6694 119.541C61.8304 115.348 60.2255 112.364 58.6774 110.601C55.7331 107.249 50.7475 105.619 47.8184 106.032H47.7957C44.3809 106.237 40.8978 106.006 37.5285 105.782C33.8064 105.535 29.9591 105.278 26.1876 105.608C19.2404 106.214 17.791 111.962 16.2544 118.044C16.1519 118.449 16.0495 118.859 15.9433 119.264C14.7443 123.92 13.6174 128.682 12.5247 133.285C12.2363 134.502 11.948 135.723 11.6558 136.94C10.9197 140.023 9.93324 144.743 10.0433 145.346L10.0471 145.354Z" fill="#484FA1"/>
<path d="M57.7137 67.8825C56.7007 68.292 56.0367 69.4787 55.0919 70.0475C54.5228 70.3925 53.9081 70.4645 53.2821 70.2787C52.5384 70.0588 51.6354 69.6456 50.979 69.2512C49.9963 68.6598 49.245 67.7953 48.342 67.1091C47.4466 66.4304 46.388 66.0171 45.3029 65.7214C44.7299 65.5659 44.1646 65.1944 44.2329 64.5384C44.3012 63.8825 44.9652 63.602 45.6519 63.6095C44.9955 63.4693 43.8155 63.4465 43.6106 62.6617C43.4399 62.0171 44.0166 61.4143 44.6996 61.4977C43.9825 61.3764 43.0415 61.202 42.8822 60.493C42.7304 59.8219 43.0377 59.0977 43.7852 59.2835C44.157 59.3783 44.4643 59.3631 44.802 59.4579" fill="white"/>
<path d="M53.9423 70.6427C53.6994 70.6427 53.4528 70.6048 53.21 70.5327C52.4815 70.3166 51.5519 69.9033 50.8424 69.4787C50.2277 69.1071 49.6966 68.6332 49.1843 68.1744C48.8618 67.8863 48.5279 67.583 48.1789 67.3213C47.4238 66.7488 46.4867 66.3204 45.2308 65.9792C44.3657 65.7441 43.8952 65.1943 43.9673 64.5119C44.0052 64.1517 44.1798 63.8597 44.4643 63.6588C43.9597 63.5223 43.493 63.2721 43.3488 62.7299C43.2502 62.3507 43.3413 61.9602 43.6068 61.6569C43.641 61.619 43.6751 61.5849 43.7131 61.5507C43.2085 61.3839 42.7418 61.0995 42.6166 60.5536C42.4989 60.0379 42.6166 59.5375 42.9125 59.2455C43.1477 59.0142 43.4778 58.9384 43.8421 59.0294C44.009 59.0711 44.1608 59.0901 44.324 59.109C44.4985 59.128 44.6768 59.1507 44.8665 59.2038C45.0069 59.2417 45.0904 59.3896 45.0524 59.5299C45.0145 59.6702 44.8703 59.7574 44.7261 59.7157C44.5744 59.674 44.4226 59.655 44.2595 59.636C44.0887 59.6171 43.9104 59.5943 43.7131 59.545C43.5272 59.4995 43.3868 59.5261 43.2805 59.6247C43.1174 59.7839 43.0605 60.11 43.1326 60.436C43.2464 60.9479 43.9863 61.1109 44.7375 61.236C44.8817 61.2588 44.9766 61.3953 44.9576 61.5356C44.9386 61.6758 44.8096 61.782 44.6616 61.7593C44.4112 61.7289 44.1684 61.8199 44.0052 62.0057C43.8611 62.1725 43.8079 62.3849 43.8611 62.5934C43.9863 63.0711 44.711 63.1886 45.2953 63.2796C45.4432 63.3024 45.5798 63.3251 45.7012 63.3517C45.834 63.382 45.9251 63.5071 45.9099 63.6398C45.8948 63.7763 45.7809 63.8787 45.6405 63.8749C45.3901 63.8673 44.5592 63.909 44.4909 64.5649C44.4302 65.1488 45.0828 65.3877 45.3674 65.4673C46.6953 65.8275 47.6894 66.2825 48.4976 66.8967C48.8618 67.1735 49.2033 67.4806 49.5372 67.7801C50.0532 68.2427 50.5389 68.6787 51.1118 69.0237C51.7834 69.4294 52.6636 69.8199 53.3542 70.0247C53.9157 70.1877 54.4507 70.1232 54.9515 69.8199C55.3385 69.5849 55.68 69.236 56.0405 68.8645C56.5072 68.383 56.9928 67.8863 57.6075 67.636C57.7441 67.583 57.8996 67.6474 57.9528 67.7839C58.0059 67.9204 57.9414 68.0758 57.8048 68.1289C57.2926 68.3375 56.8676 68.7735 56.4199 69.236C56.0518 69.6152 55.6724 70.0057 55.2247 70.2787C54.8187 70.5213 54.3824 70.6465 53.9347 70.6465L53.9423 70.6427Z" fill="#484FA1"/>
<path d="M43.8041 57.9222C43.4058 56.7658 42.4231 54.1004 42.1081 52.8948C41.7591 51.5602 42.4686 51.1128 43.6979 50.6426C48.4938 48.8113 50.0911 47.5867 50.8652 49.7516C51.3584 51.1317 51.9313 52.6104 52.4511 53.9677C52.9178 55.1886 53.984 58.2786 54.3938 59.4957C54.758 60.5876 56.0784 63.7156 55.79 64.2881C55.2361 65.3801 51.237 67.1203 49.7041 67.4502C47.4656 67.9279 47.2607 67.9128 46.13 64.618C45.3901 62.4568 44.7641 60.6862 43.8079 57.9185L43.8041 57.9222Z" fill="#E7E7F0"/>
<path d="M48.2661 67.9318C47.1013 67.9318 46.7257 67.1848 45.8758 64.709C45.4546 63.4844 45.0714 62.3848 44.6465 61.1602C44.3202 60.2237 43.9673 59.2114 43.5537 58.0133C43.4589 57.7441 43.3337 57.3877 43.1933 56.9896C42.7304 55.6853 42.0968 53.8995 41.8501 52.9668C41.4328 51.3744 42.4382 50.8436 43.5993 50.4C44.4871 50.0588 45.2649 49.7403 45.9517 49.4597C48.1144 48.5725 49.3058 48.0834 50.167 48.4664C50.5844 48.6521 50.8879 49.0351 51.1118 49.6645C51.5595 50.9157 52.0641 52.2313 52.5498 53.5014L52.694 53.8768C53.1645 55.0976 54.2268 58.1763 54.6404 59.4161C54.7239 59.6626 54.8529 60.0114 55.0047 60.4133C55.8811 62.7526 56.2567 63.9469 56.0215 64.4095C55.3992 65.6341 51.2067 67.401 49.7535 67.7119C49.135 67.8446 48.6569 67.928 48.2623 67.928L48.2661 67.9318ZM49.4993 48.8683C48.8011 48.8683 47.7274 49.3081 46.1566 49.9526C45.466 50.2332 44.6882 50.5555 43.7928 50.8967C42.5521 51.3706 42.0816 51.746 42.3661 52.8341C42.6052 53.7441 43.235 55.5185 43.6941 56.8152C43.8345 57.2133 43.9635 57.5697 44.0546 57.8427C44.4681 59.0408 44.821 60.0531 45.1473 60.9896C45.576 62.218 45.9593 63.3175 46.3766 64.5422C47.4504 67.6702 47.5301 67.6512 49.6434 67.2C51.1839 66.8702 55.0502 65.1602 55.551 64.1782C55.7104 63.8142 54.8681 61.5659 54.5114 60.6067C54.3596 60.1972 54.223 59.8408 54.1396 59.5905C53.726 58.3545 52.6674 55.2872 52.2007 54.0739L52.0566 53.6986C51.5671 52.4247 51.0625 51.1052 50.6148 49.8502C50.4402 49.3649 50.2315 49.0806 49.9546 48.9555C49.8256 48.8986 49.6738 48.872 49.4993 48.872V48.8683Z" fill="#484FA1"/>
<path d="M47.4626 50.5635L46.15 51.1025L46.2005 51.2253L47.513 50.6863L47.4626 50.5635Z" fill="white"/>
<path d="M46.2021 51.4881C46.1679 51.4881 46.1338 51.4806 46.0997 51.4692C46.0351 51.4426 45.982 51.3896 45.9555 51.3251L45.9061 51.2038C45.8492 51.0673 45.9137 50.9118 46.0503 50.8587L47.3631 50.3204C47.4997 50.2635 47.6515 50.3279 47.7084 50.4644L47.7577 50.5858C47.7843 50.6502 47.7843 50.7223 47.7577 50.7905C47.7312 50.8588 47.678 50.908 47.6135 50.9346L46.3007 51.473C46.2666 51.4881 46.2324 51.4919 46.1983 51.4919L46.2021 51.4881Z" fill="#484FA1"/>
<path d="M45.0221 51.727C45.0787 51.727 45.1245 51.6811 45.1245 51.6246C45.1245 51.5681 45.0787 51.5222 45.0221 51.5222C44.9655 51.5222 44.9196 51.5681 44.9196 51.6246C44.9196 51.6811 44.9655 51.727 45.0221 51.727Z" fill="white"/>
<path d="M45.0221 51.9924H45.0107C44.8058 51.9848 44.6465 51.8142 44.6541 51.6133C44.6541 51.5185 44.6958 51.4237 44.7679 51.3592C44.84 51.291 44.9272 51.2569 45.0335 51.2607C45.1283 51.2607 45.2232 51.3024 45.2877 51.3744C45.356 51.4464 45.3901 51.5374 45.3863 51.636C45.3863 51.7346 45.3446 51.8256 45.2725 51.8938C45.2042 51.9583 45.1132 51.9924 45.0183 51.9924H45.0221ZM44.8589 51.6171C44.8589 51.6588 44.8741 51.7043 44.9045 51.7346C44.9348 51.7649 44.9766 51.7839 45.0183 51.7877C45.0752 51.7877 45.1018 51.7725 45.1359 51.7422C45.1663 51.7118 45.1852 51.6701 45.1852 51.6284C45.1852 51.5412 45.1169 51.4654 45.0259 51.4616C44.9652 51.454 44.9386 51.4768 44.9083 51.5071C44.8779 51.5374 44.8589 51.5791 44.8589 51.6208V51.6171Z" fill="#484FA1"/>
<path d="M53.9688 66.0739C53.3807 65.1109 53.229 64.1668 53.9612 62.8018C54.4811 61.8274 54.3938 61.4862 54.0106 60.4966C53.8057 59.9658 53.5629 59.1658 53.9612 58.6616C54.2838 58.2521 54.9212 58.1383 55.3272 58.4568C55.976 58.9611 56.4844 60.6672 56.8904 61.4407C57.93 63.4047 57.4633 64.6559 56.9131 66.726" fill="white"/>
<path d="M56.9131 66.9876C56.8904 66.9876 56.8676 66.9876 56.8448 66.9801C56.7045 66.9421 56.6172 66.7981 56.6551 66.654L56.7765 66.199C57.2698 64.3829 57.5657 63.2834 56.6551 61.5583C56.5223 61.308 56.3819 60.9706 56.234 60.6104C55.9304 59.8786 55.5548 58.9649 55.164 58.6616C54.8832 58.4417 54.409 58.5175 54.1699 58.8208C53.8588 59.2151 54.0713 59.909 54.2572 60.3981C54.6556 61.4407 54.7656 61.854 54.1927 62.927C53.4832 64.254 53.6805 65.0919 54.1927 65.9374C54.2686 66.0625 54.2306 66.2256 54.1054 66.3014C53.9802 66.3772 53.8171 66.3355 53.7412 66.2142C53.0279 65.0464 53.0241 63.9886 53.726 62.6805C54.1965 61.8047 54.1282 61.5431 53.7639 60.5952C53.5325 59.9848 53.2745 59.1052 53.7564 58.4985C54.1813 57.9602 54.9781 57.8464 55.4941 58.2483C55.9987 58.6388 56.3857 59.5829 56.731 60.4132C56.8752 60.7583 57.008 61.0881 57.1294 61.3156C58.1387 63.2227 57.7858 64.5308 57.2926 66.3431L57.1711 66.7943C57.1408 66.9118 57.0308 66.9914 56.9131 66.9914V66.9876Z" fill="#484FA1"/>
<path d="M113.401 76.7431C110.787 72.9743 105.623 70.2938 101.233 68.4966C99.8446 67.9279 100.118 69.1146 99.1275 70.1914C98.824 70.5213 97.5226 75.344 97.7616 75.4691C100.144 76.6938 100.524 77.5089 102.751 79.1127C105.02 80.7506 103.423 82.5705 101.025 82.2748C98.1145 81.9184 96.2515 81.672 93.569 80.5914C89.2474 78.8511 87.2782 77.6037 82.6189 77.126C79.3369 76.7886 72.9513 77.581 69.6427 77.1108C65.7423 76.5573 61.5914 72.1023 59.387 68.2805C58.1045 66.0549 57.5354 66.0359 55.2171 67.2151C53.745 67.962 51.5178 68.8871 50.6527 70.3885C50.1025 71.3402 50.7855 72.9819 51.1801 74.0208C52.7395 78.1269 56.4009 83.8445 60.2293 86.2255C62.134 87.4122 63.9742 88.6066 66.1444 88.7734C67.2675 88.8606 68.8952 88.69 72.2304 88.3563C72.7881 88.2994 67.609 94.4075 66.6035 95.8445C65.9092 96.834 63.8793 99.0369 64.2398 99.5639C65.5867 101.528 70.1511 105.198 72.0862 106.347C74.9584 108.053 79.834 110.893 83.1159 111.837C83.8975 112.061 90.029 106.453 91.7667 103.917C93.8346 100.895 98.8581 94.453 99.8788 94.1611C103.908 93.0122 105.779 92.489 108.605 90.9004C111.444 89.308 114.471 87.6625 115.511 84.3829C116.543 81.1336 115.223 79.3592 113.409 76.7431H113.401Z" fill="#FFD008"/>
<path d="M83.1197 112.099C83.0894 112.099 83.059 112.099 83.0325 112.087C79.9326 111.196 75.4744 108.671 71.9382 106.571C69.8855 105.354 65.3325 101.642 64.0083 99.708C63.6554 99.1962 64.3877 98.2104 65.636 96.6483C65.9244 96.2843 66.2014 95.9431 66.3759 95.6891C66.7325 95.181 67.5749 94.1308 68.55 92.9175C69.6882 91.4995 71.3197 89.4635 71.8395 88.6597C68.7624 88.9668 67.2106 89.1222 66.1141 89.035C63.9666 88.8682 62.1909 87.7611 60.3089 86.5895L60.0813 86.4455C56.2795 84.0796 52.527 78.3241 50.9259 74.108L50.8614 73.9336C50.4288 72.8038 49.8369 71.2568 50.4174 70.2445C51.2066 68.8758 53.0089 67.9924 54.4583 67.2796C54.6783 67.1696 54.8908 67.0673 55.0919 66.9649C57.4633 65.7592 58.2183 65.7137 59.6146 68.1365C61.8115 71.9507 65.8978 76.2995 69.6768 76.8379C71.4108 77.0843 74.0402 76.9782 76.5861 76.8758C78.9006 76.781 81.086 76.6938 82.6455 76.853C86.3676 77.236 88.4013 78.1042 91.2166 79.3099C91.9792 79.636 92.7646 79.9734 93.6676 80.3374C96.2629 81.3839 98.0765 81.6417 101.055 82.0057C102.372 82.1687 103.286 81.6568 103.517 81.073C103.73 80.5346 103.392 79.8938 102.595 79.3213C101.749 78.7109 101.165 78.2104 100.645 77.7706C99.7801 77.035 99.1009 76.4512 97.6402 75.7004C97.5795 75.6701 97.4998 75.6019 97.477 75.4616C97.3746 74.8853 98.5698 70.4 98.934 70.0057C99.2489 69.6644 99.4234 69.3118 99.5828 69.0009C99.8825 68.4019 100.197 67.7801 101.34 68.2464C107.361 70.7071 111.497 73.5128 113.625 76.5876L113.769 76.7924C115.534 79.3327 116.809 81.1677 115.761 84.4549C114.707 87.7725 111.755 89.4294 108.901 91.0294L108.734 91.1241C105.931 92.6976 104.003 93.2512 100.163 94.3469L99.9508 94.4076C99.0971 94.6502 94.2937 100.69 91.9868 104.057C90.435 106.324 84.4136 112.095 83.1311 112.095L83.1197 112.099ZM72.2266 88.0872C72.3366 88.0872 72.439 88.144 72.4884 88.2426C72.6439 88.527 72.5301 88.8076 68.9635 93.2512C68.034 94.4076 67.1575 95.4995 66.8122 95.9962C66.6263 96.2616 66.3493 96.6104 66.0534 96.982C65.507 97.6682 64.365 99.0976 64.456 99.4237C65.7385 101.293 70.2005 104.921 72.2152 106.119C74.4689 107.458 79.7505 110.597 83.1842 111.579C83.9051 111.568 89.6761 106.491 91.5429 103.765C93.1858 101.369 98.5735 94.2559 99.7991 93.9071L100.012 93.8464C103.931 92.7279 105.718 92.2161 108.469 90.673L108.636 90.5782C111.402 89.0275 114.263 87.4199 115.253 84.3071C116.217 81.2663 115.067 79.6132 113.329 77.1071L113.185 76.8986C111.113 73.9109 107.057 71.1696 101.135 68.7469C100.448 68.4663 100.364 68.6331 100.053 69.2474C99.8901 69.5734 99.6852 69.9791 99.321 70.3734C99.0516 70.745 98.031 74.563 97.9968 75.2948C99.4348 76.0455 100.156 76.6635 100.99 77.3725C101.499 77.8085 102.079 78.3014 102.907 78.8967C104.341 79.9317 104.159 80.9023 104.011 81.2739C103.65 82.1914 102.406 82.7109 100.99 82.5403C97.9665 82.1725 96.1263 81.9109 93.4665 80.8379C92.5559 80.4701 91.7667 80.1327 91.0041 79.8066C88.2305 78.6199 86.2272 77.763 82.5885 77.3914C81.0709 77.236 78.9006 77.3232 76.6051 77.418C74.0364 77.5203 71.3842 77.6303 69.601 77.3763C65.6474 76.8113 61.4131 72.3374 59.1517 68.4132C57.9376 66.3052 57.5392 66.3279 55.3309 67.4502C55.1299 67.5526 54.9136 67.6587 54.6897 67.7687C53.3048 68.4474 51.5823 69.2929 50.8728 70.5213C50.4174 71.3137 50.979 72.781 51.3508 73.7554L51.4153 73.9298C52.9861 78.0625 56.6551 83.7004 60.3545 86.0019L60.5821 86.1459C62.4071 87.2834 64.1297 88.3564 66.1482 88.5118C67.2068 88.5952 68.7473 88.4398 71.8168 88.1327L72.1886 88.0948C72.1886 88.0948 72.2114 88.0948 72.2228 88.0948L72.2266 88.0872Z" fill="#484FA1"/>
<path d="M89.6951 81.346C89.6344 81.3725 89.5737 81.3952 89.513 81.418C88.5075 81.7706 87.263 81.8388 86.3714 81.2815C85.0055 80.4284 84.6943 79.5602 84.5881 78.4644C84.5046 77.5886 84.6033 77.7213 84.4288 76.8493C84.2922 76.163 83.981 75.4654 83.8027 74.7905C83.0287 71.8749 84.7854 68.8531 86.8684 66.8853C90.1542 63.7801 95.9214 68.8265 95.9062 71.7611C95.8986 72.963 94.7642 73.9564 94.4151 75.0787C95.2764 74.5744 96.5285 74.6237 96.9648 75.6853C97.3974 76.7393 96.1187 77.9564 95.3105 78.3772C94.6807 78.7071 94.0395 78.6843 93.3186 78.7336C92.7305 78.7753 92.1196 78.4644 91.6529 78.9384C91.2318 79.3668 91.209 80.0265 90.841 80.4929C90.5374 80.872 90.139 81.1602 89.6951 81.3497V81.346Z" fill="white"/>
<path d="M87.9725 81.9601C87.3161 81.9601 86.7129 81.8085 86.231 81.5051C84.8006 80.6104 84.4401 79.689 84.3263 78.4909C84.2922 78.1421 84.2884 77.9487 84.2846 77.7895C84.277 77.5544 84.2732 77.4142 84.1745 76.9023C84.0987 76.5232 83.9621 76.1251 83.8331 75.7421C83.7344 75.454 83.632 75.1544 83.5523 74.8587C82.5279 71.0066 85.696 67.6359 86.6939 66.6919C87.927 65.5241 89.6344 65.3269 91.5012 66.1307C94.0053 67.2151 96.1908 69.8464 96.1832 71.7611C96.1832 72.5497 95.7545 73.2322 95.3409 73.8881C95.1929 74.1232 95.0487 74.3544 94.9273 74.5819C95.3561 74.4682 95.8076 74.472 96.1908 74.6009C96.6689 74.7601 97.0255 75.1014 97.2228 75.5791C97.754 76.8758 96.2249 78.199 95.4471 78.6047C94.8628 78.908 94.2899 78.9383 93.679 78.9724C93.569 78.98 93.4628 78.9838 93.3489 78.9914C93.1403 79.0028 92.943 78.9838 92.7494 78.9611C92.3245 78.9118 92.0741 78.8966 91.8502 79.1203C91.6643 79.3099 91.5657 79.5715 91.4632 79.8483C91.3608 80.1213 91.2545 80.4018 91.0572 80.6521C90.7385 81.054 90.306 81.3762 89.8089 81.5848C89.7444 81.6113 89.6761 81.6378 89.6116 81.6606C89.0615 81.854 88.5037 81.9525 87.9839 81.9525L87.9725 81.9601ZM89.3195 66.1724C88.5568 66.1724 87.7601 66.4075 87.0505 67.0786C85.1117 68.9137 83.3057 71.8862 84.0569 74.7222C84.129 74.999 84.2239 75.2758 84.3263 75.5677C84.4629 75.9696 84.6033 76.3829 84.6868 76.7961C84.7968 77.3497 84.8006 77.5279 84.8082 77.7743C84.8082 77.9222 84.8158 78.108 84.8499 78.4378C84.9524 79.5033 85.2559 80.2691 86.508 81.054C87.3655 81.5923 88.5758 81.4634 89.4219 81.1677C89.4788 81.1487 89.5358 81.126 89.5889 81.1033C90.0062 80.9288 90.3667 80.6596 90.6323 80.326C90.7765 80.144 90.8637 79.9127 90.9548 79.6663C91.0724 79.3478 91.1976 79.0217 91.4632 78.7525C91.8768 78.3317 92.3662 78.3886 92.7988 78.4378C92.9733 78.4568 93.144 78.4796 93.2996 78.4682C93.4134 78.4606 93.5273 78.453 93.6373 78.4492C94.2102 78.4189 94.7073 78.3924 95.1853 78.1421C95.9252 77.7592 97.0673 76.6407 96.7144 75.7876C96.574 75.4502 96.335 75.2227 96.0011 75.1089C95.561 74.9611 95.0032 75.0369 94.5441 75.3099C94.4493 75.3668 94.3316 75.3554 94.2444 75.2871C94.1571 75.2189 94.123 75.1051 94.1571 74.999C94.3089 74.5099 94.5972 74.0511 94.8742 73.6075C95.265 72.9857 95.633 72.3942 95.6368 71.7573C95.6444 70.0587 93.5652 67.6056 91.2773 66.616C90.712 66.3696 90.029 66.1687 89.3157 66.1687L89.3195 66.1724Z" fill="#484FA1"/>
<path d="M87.2934 72.4738C86.7622 72.4625 86.1665 72.0833 85.9123 71.598C85.7302 71.253 85.7416 70.8966 85.9389 70.5971C86.1437 70.2862 86.36 70.1155 86.6028 70.07C86.9367 70.0094 87.2099 70.2065 87.43 70.3658C87.6766 70.544 87.7828 70.5971 87.8777 70.5478C88.0408 70.4151 88.7617 69.1866 88.8794 68.834C89.0843 68.2009 88.6024 67.7572 87.7601 67.2492C87.0581 66.8245 86.637 66.7222 85.8098 66.6388C85.6657 66.6236 85.5556 66.4947 85.5708 66.3506C85.586 66.2065 85.7188 66.0966 85.8592 66.1118C86.7167 66.1952 87.2327 66.3165 88.0295 66.7942C88.6327 67.1582 89.7558 67.8331 89.3802 68.9971C89.2778 69.3193 88.4506 70.8511 88.1167 71.0217C87.7145 71.2302 87.3693 70.98 87.1151 70.798C86.9633 70.6881 86.8039 70.5667 86.6939 70.5933C86.6066 70.6084 86.4928 70.7146 86.379 70.889C86.2879 71.0255 86.2917 71.181 86.379 71.3516C86.5459 71.6701 86.9595 71.9355 87.301 71.943C87.4489 71.943 87.5628 72.0682 87.559 72.216C87.559 72.3601 87.4376 72.4738 87.2934 72.4738Z" fill="#484FA1"/>
<path d="M92.2904 70.5668C92.2031 70.5668 92.1158 70.5251 92.0665 70.4455C91.7705 69.9829 91.5695 69.7555 90.9965 69.6379C90.8523 69.6076 90.7613 69.4673 90.7878 69.3232C90.8144 69.1792 90.9548 69.0882 91.1028 69.1147C91.8958 69.2739 92.2031 69.6645 92.518 70.1574C92.5977 70.2825 92.5597 70.4455 92.4383 70.5251C92.3928 70.5517 92.3435 70.5668 92.2941 70.5668H92.2904Z" fill="#484FA1"/>
<path d="M90.0821 71.9809C90.3084 71.9809 90.4919 71.7976 90.4919 71.5715C90.4919 71.3453 90.3084 71.162 90.0821 71.162C89.8558 71.162 89.6723 71.3453 89.6723 71.5715C89.6723 71.7976 89.8558 71.9809 90.0821 71.9809Z" fill="#484FA1"/>
<path d="M90.0783 72.2464C89.9645 72.2464 89.8469 72.2161 89.7368 72.1554C89.5813 72.0644 89.4713 71.9203 89.4257 71.7459C89.3802 71.5715 89.4068 71.3895 89.4978 71.2341C89.6875 70.9118 90.1011 70.8056 90.4198 70.9914C90.7423 71.181 90.8485 71.5943 90.6626 71.9127C90.5374 72.1251 90.3098 72.2464 90.0783 72.2464ZM89.9569 71.4995C89.9379 71.5336 89.9341 71.5715 89.9417 71.6094C89.9531 71.6473 89.9759 71.6777 90.01 71.6966C90.0783 71.7345 90.1656 71.7118 90.2073 71.6473C90.2263 71.6132 90.2339 71.5753 90.2225 71.5374C90.2111 71.4995 90.1884 71.4691 90.1542 71.4502C90.0859 71.4085 89.9986 71.4312 89.9569 71.5033V71.4995Z" fill="#484FA1"/>
<path d="M86.5877 69.8389C86.8328 69.8389 87.0316 69.6403 87.0316 69.3953C87.0316 69.1503 86.8328 68.9517 86.5877 68.9517C86.3425 68.9517 86.1437 69.1503 86.1437 69.3953C86.1437 69.6403 86.3425 69.8389 86.5877 69.8389Z" fill="#484FA1"/>
<path d="M86.5877 70.1042C86.4624 70.1042 86.341 70.0701 86.231 70.0057C86.0678 69.9109 85.9502 69.7554 85.9047 69.5734C85.8592 69.3914 85.8819 69.1981 85.9806 69.035C86.0754 68.872 86.231 68.7545 86.4131 68.7052C86.5952 68.6559 86.7887 68.6824 86.9519 68.781C87.115 68.8796 87.2327 69.0313 87.2782 69.2132C87.3275 69.3952 87.301 69.5886 87.2061 69.7516C87.1112 69.9147 86.9557 70.0322 86.7736 70.0815C86.7129 70.0967 86.6522 70.1042 86.5914 70.1042H86.5877ZM86.5877 69.217C86.5877 69.217 86.5573 69.217 86.5421 69.2246C86.4966 69.236 86.4586 69.2663 86.4321 69.308C86.4093 69.3497 86.4017 69.399 86.4131 69.4445C86.4245 69.49 86.4549 69.5279 86.4966 69.5545C86.5383 69.5772 86.5839 69.5848 86.6332 69.5734C86.6787 69.5621 86.7166 69.5317 86.7432 69.49C86.7698 69.4483 86.7736 69.399 86.7622 69.3535C86.7508 69.308 86.7204 69.2701 86.6787 69.2436C86.6521 69.2284 86.6218 69.217 86.5877 69.217Z" fill="#484FA1"/>
<path d="M86.9671 74.5819C86.3372 74.5819 85.6884 74.3392 85.1762 73.8577C85.07 73.7591 85.0624 73.5885 85.1648 73.4824C85.2635 73.3762 85.4342 73.3686 85.5405 73.471C86.2765 74.161 87.3617 74.2482 88.0674 73.6681C88.1812 73.5772 88.3482 73.5923 88.443 73.7061C88.5379 73.8198 88.5189 73.9866 88.4051 74.0814C87.9953 74.4189 87.4869 74.5819 86.9709 74.5819H86.9671Z" fill="#484FA1"/>
<path d="M95.3675 71.0445C94.8666 69.2891 93.9143 68.6256 92.0703 67.5374C90.9168 66.8587 89.5585 66.3431 88.2647 66.0663C87.263 65.854 86.7318 64.7279 86.986 63.7194C87.1302 63.1431 87.6424 62.3166 88.2761 62.1839C88.7541 62.0853 89.107 62.4531 89.5471 62.4606C89.494 61.8957 89.881 61.3649 90.4691 61.2891C91.061 61.2132 91.2963 61.7895 91.8237 61.9374C92.5028 62.127 93.2617 61.9109 93.956 61.9185C94.7262 61.9298 95.4737 62.2559 96.1946 62.4948C97.4694 62.9194 98.7329 63.7004 99.6625 64.6786C101.385 66.4948 102.44 68.436 102.334 70.9801C102.277 72.3905 101.977 73.7782 101.544 75.1166C101.192 76.2123 100.459 77.581 100.683 78.7715C100.759 79.1696 101.085 79.3858 101.211 79.7422C101.537 80.6597 100.899 81.6493 99.8826 81.4294C100.197 82.1232 100.869 82.6009 100.763 83.4995C100.657 84.4057 99.7422 84.6369 99.1389 85.1071C99.8408 85.9905 100.535 87.1128 99.837 88.2047C99.302 89.0388 98.4825 88.9782 97.6554 88.9554C97.6743 89.926 98.031 90.6768 96.9458 91.2644C95.6103 91.9924 94.4075 91.4009 93.6525 90.2331C93.8498 90.5365 92.8139 91.5715 92.5939 91.727C92.1651 92.0341 91.5315 92.1516 91.0041 92.1554C89.7293 92.163 88.8111 90.8019 88.8452 89.7251C87.7639 89.964 86.5687 89.1905 86.2576 88.144C86.0868 87.5715 86.747 85.164 87.7069 85.5052C85.2862 84.6407 87.5096 80.8872 89.6723 81.5317C88.9552 81.1185 89.1146 79.9507 89.4978 79.3365C90.2035 78.1952 92.4725 78.4796 93.6373 78.4151C94.9956 78.3355 96.1073 78.2104 96.741 76.8379C97.4694 75.2682 94.9311 73.5431 94.491 74.9839C94.8439 73.8237 95.5913 71.6436 95.3637 71.0483L95.3675 71.0445Z" fill="#484FA1"/>
<path d="M90.9965 92.4208C90.4198 92.4208 89.8545 92.1668 89.403 91.708C88.9552 91.2493 88.6593 90.6274 88.5948 90.0284C87.4907 90.1004 86.3296 89.3194 86.0033 88.2199C85.844 87.6891 86.2234 86.1118 86.876 85.4938C86.914 85.4597 86.9481 85.4293 86.9823 85.4028C86.4169 84.9327 86.2348 84.1895 86.5156 83.3365C86.8684 82.2597 87.9118 81.2739 89.0425 81.2019C89.0084 81.126 88.9818 81.0464 88.9628 80.963C88.8073 80.3412 89.0046 79.6284 89.2702 79.2C89.9152 78.1573 91.6036 78.1649 92.8367 78.1649C93.1289 78.1649 93.3945 78.1649 93.6221 78.1535C94.9994 78.0739 95.9442 77.9336 96.5019 76.7279C96.7827 76.1251 96.4336 75.5753 96.2705 75.3668C95.9366 74.9346 95.4206 74.654 95.0791 74.7222C94.9159 74.7526 94.8059 74.8663 94.7452 75.0673C94.7035 75.2075 94.5555 75.2872 94.4151 75.2455C94.2747 75.2038 94.195 75.0559 94.2368 74.9156C94.2823 74.7639 94.3354 74.5971 94.3923 74.4151C94.7035 73.4256 95.2802 71.5867 95.1132 71.1507C95.1132 71.1431 95.1095 71.1355 95.1057 71.1279C94.6428 69.5128 93.8232 68.8947 91.9261 67.7763C90.822 67.1241 89.4978 66.6123 88.2002 66.3355C87.7032 66.2293 87.2744 65.9222 86.9936 65.4673C86.6635 64.9402 86.5649 64.2805 86.7205 63.6625C86.8798 63.0407 87.4451 62.0928 88.2154 61.9298C88.5644 61.8578 88.849 61.9715 89.0994 62.0739C89.1639 62.1004 89.2246 62.1232 89.2853 62.1459C89.3764 61.5696 89.8279 61.1071 90.4274 61.0312C90.8865 60.9744 91.1862 61.2132 91.4291 61.4066C91.577 61.5241 91.7212 61.6379 91.8882 61.6834C92.2752 61.7895 92.7077 61.7478 93.163 61.7023C93.421 61.6758 93.6866 61.653 93.9522 61.653C94.62 61.6606 95.2498 61.8843 95.8607 62.1004C95.9973 62.1497 96.1377 62.199 96.2705 62.2445C97.606 62.6881 98.9075 63.5071 99.8484 64.5004C101.844 66.6047 102.69 68.6066 102.592 70.9952C102.539 72.3184 102.277 73.6947 101.791 75.2038C101.708 75.4654 101.601 75.7459 101.491 76.0341C101.157 76.9061 100.782 77.8957 100.941 78.7298C100.972 78.8929 101.066 79.0256 101.176 79.1772C101.275 79.3137 101.389 79.4692 101.457 79.6625C101.662 80.235 101.552 80.853 101.18 81.2777C100.96 81.5279 100.672 81.6796 100.349 81.7213C100.391 81.7819 100.433 81.8464 100.474 81.9071C100.77 82.3393 101.108 82.8284 101.025 83.5374C100.934 84.3298 100.334 84.6862 99.8067 84.9971C99.708 85.0578 99.6094 85.1147 99.5183 85.1715C100.201 86.0777 100.789 87.2189 100.061 88.3564C99.5145 89.2094 98.695 89.2549 97.9361 89.236C97.9437 89.3232 97.9513 89.4104 97.9589 89.4938C98.0272 90.2104 98.0955 90.9497 97.0749 91.5071C95.8949 92.1516 94.6655 91.8862 93.7663 90.836C93.4362 91.3857 92.7646 91.9469 92.7532 91.9545C92.1614 92.3791 91.338 92.4284 91.0117 92.4322H90.9965V92.4208ZM88.849 89.4597C88.9097 89.4597 88.9704 89.4824 89.0197 89.5203C89.0842 89.5734 89.1184 89.653 89.1146 89.7327C89.0994 90.2711 89.3612 90.9042 89.7862 91.3365C90.0328 91.5905 90.4426 91.89 90.9965 91.89H91.0079C91.5808 91.8862 92.1196 91.7459 92.4459 91.5109C92.6963 91.3327 93.3793 90.5782 93.4172 90.3393C93.3641 90.2218 93.4021 90.0815 93.5159 90.0094C93.6373 89.9298 93.8042 89.9639 93.8839 90.0891C94.2482 90.654 95.2688 91.8786 96.8244 91.0293C97.5377 90.6388 97.4998 90.2218 97.4353 89.5317C97.4201 89.3497 97.4012 89.1564 97.3974 88.9554C97.3974 88.8834 97.4239 88.8113 97.477 88.762C97.5302 88.7128 97.5947 88.6673 97.6705 88.6862H97.7578C98.5242 88.7166 99.1882 88.7355 99.6208 88.0606C100.224 87.1165 99.6132 86.1232 98.9378 85.2701C98.8923 85.2132 98.8733 85.145 98.8809 85.073C98.8885 85.0009 98.9264 84.9402 98.9795 84.8948C99.1541 84.7583 99.3514 84.6407 99.5411 84.527C100.023 84.2426 100.44 83.9962 100.501 83.4616C100.562 82.9497 100.319 82.6009 100.042 82.1952C99.9015 81.9905 99.7536 81.7782 99.6435 81.5355C99.6018 81.4445 99.617 81.3384 99.6777 81.2587C99.7422 81.1791 99.8446 81.145 99.9395 81.1677C100.277 81.2398 100.577 81.1526 100.782 80.9137C101.025 80.6369 101.093 80.2123 100.956 79.8256C100.915 79.7042 100.831 79.5943 100.748 79.4767C100.619 79.2985 100.474 79.0976 100.421 78.817C100.235 77.835 100.641 76.7734 100.998 75.8369C101.104 75.5564 101.207 75.2872 101.29 75.0331C101.761 73.5734 102.015 72.2426 102.068 70.9649C102.159 68.7317 101.359 66.8474 99.469 64.8568C98.5887 63.9279 97.3632 63.1583 96.1111 62.7412C95.9707 62.6957 95.8303 62.6464 95.69 62.5971C95.1208 62.3962 94.5327 62.1876 93.9522 62.1801C93.7208 62.1801 93.4779 62.199 93.2237 62.2256C92.7381 62.2748 92.241 62.3241 91.7554 62.1876C91.486 62.1118 91.2849 61.9526 91.1104 61.8123C90.8751 61.6227 90.7271 61.5203 90.5071 61.5469C90.0783 61.6 89.7748 61.9867 89.8165 62.4303C89.8241 62.5061 89.7976 62.5819 89.7482 62.635C89.6951 62.6919 89.6192 62.7184 89.5471 62.7184C89.3081 62.7147 89.0956 62.6274 88.9135 62.5516C88.7086 62.4682 88.5303 62.3962 88.3368 62.4341C87.8208 62.5402 87.3731 63.2834 87.2478 63.7763C87.1264 64.2502 87.2061 64.7696 87.4565 65.1715C87.6007 65.4066 87.8701 65.7023 88.3254 65.8009C89.6761 66.0891 91.0572 66.6237 92.2107 67.3023C94.0281 68.3753 95.0867 69.0767 95.6255 70.9573C95.8152 71.4843 95.4927 72.6711 95.026 74.1838C95.561 74.1042 96.2477 74.4455 96.6992 75.0331C97.1697 75.636 97.2759 76.3336 96.9914 76.944C96.2591 78.5251 94.878 78.6047 93.6601 78.6767C93.4248 78.6881 93.144 78.6881 92.8443 78.6881C91.744 78.6881 90.2225 78.6843 89.7331 79.4729C89.5282 79.8066 89.3764 80.3791 89.4902 80.8265C89.5433 81.0426 89.6534 81.2019 89.8203 81.2966C89.9379 81.3649 89.9835 81.509 89.9304 81.6303C89.8772 81.7554 89.7406 81.8161 89.6116 81.7782C88.5303 81.4559 87.3882 82.4227 87.0392 83.4919C86.9102 83.89 86.7242 84.8568 87.8132 85.2474C87.9498 85.2966 88.0219 85.4483 87.9725 85.5848C87.9232 85.7213 87.7677 85.7933 87.6349 85.744C87.5855 85.7251 87.4565 85.6796 87.2554 85.8692C86.7242 86.3696 86.4359 87.7573 86.5269 88.0568C86.8039 88.9895 87.8853 89.6568 88.8035 89.4521C88.8224 89.4483 88.8414 89.4445 88.8604 89.4445L88.849 89.4597Z" fill="#484FA1"/>
<path d="M88.6859 74.3506C88.6593 74.3506 88.6289 74.3468 88.6024 74.3354C88.462 74.29 88.3899 74.1383 88.4354 73.998C88.5189 73.744 88.166 73.6037 88.0978 73.5772C87.9612 73.5279 87.8891 73.3762 87.9384 73.2359C87.9877 73.0994 88.1395 73.0274 88.2799 73.0767C88.7352 73.2397 89.1184 73.6416 88.9439 74.1648C88.9059 74.2748 88.8035 74.3468 88.6934 74.3468L88.6859 74.3506Z" fill="#484FA1"/>
<path d="M15.6283 100.356C14.2738 100.849 12.1908 101.012 10.8439 100.652C9.19337 100.212 7.04964 96.0569 5.62681 95.1583C1.47974 92.5346 0.679163 96.8038 2.37897 100.072C3.57415 102.366 6.35151 106.328 7.96405 108.33C8.4535 108.937 9.24649 110.567 10.0471 110.639C11.91 110.806 16.6907 109.6 18.6182 108.364" fill="#484FA1"/>
<path d="M10.4151 110.919C10.2747 110.919 10.1457 110.916 10.0243 110.904C9.3072 110.84 8.68495 109.884 8.18411 109.119C8.02855 108.876 7.87678 108.648 7.75916 108.501C6.03279 106.358 3.30476 102.427 2.14752 100.201C1.02444 98.0437 0.997878 95.5678 2.08302 94.5707C2.65974 94.0399 3.76765 93.6759 5.77099 94.9422C6.4198 95.3517 7.17485 96.3527 7.97163 97.4105C8.95054 98.7072 10.0584 100.178 10.9121 100.406C12.1491 100.736 14.179 100.61 15.5373 100.118C15.6739 100.068 15.8256 100.137 15.8788 100.277C15.9281 100.413 15.8598 100.565 15.7194 100.618C14.2511 101.153 12.1263 101.282 10.7756 100.921C9.74353 100.645 8.62803 99.1659 7.54668 97.7328C6.78025 96.7166 6.05556 95.7536 5.48643 95.3934C4.12431 94.5328 3.07331 94.3849 2.43968 94.965C1.53666 95.7953 1.61254 98.0361 2.61421 99.9584C3.75627 102.154 6.46154 106.051 8.16893 108.171C8.30553 108.341 8.4535 108.569 8.62424 108.834C9.01504 109.433 9.60314 110.339 10.066 110.381C11.8076 110.537 16.5352 109.388 18.4702 108.148C18.5954 108.068 18.7586 108.106 18.8383 108.228C18.9179 108.353 18.88 108.516 18.7586 108.595C16.8425 109.824 12.483 110.923 10.4113 110.923L10.4151 110.919Z" fill="#484FA1"/>
<path d="M93.7094 77.2702C93.5614 77.2702 93.4438 77.1526 93.4438 77.0048C93.4438 76.8569 93.5614 76.7394 93.7094 76.7394C94.6693 76.7394 94.8894 76.364 94.9729 76.0872C95.0146 75.9469 95.1626 75.8673 95.3029 75.909C95.4433 75.9507 95.523 76.0986 95.4813 76.2389C95.2802 76.9213 94.6845 77.2664 93.7094 77.2702Z" fill="#484FA1"/>
<path d="M82.5468 111.655C77.9824 118.203 73.3231 123.962 64.5319 125.107C57.5012 126.025 53.3504 123.632 49.0933 117.953C46.6308 114.662 45.6595 112 44.1646 108.277C43.3147 106.154 42.8746 103.227 40.6967 102.916C39.1562 102.696 30.7976 105.335 28.1454 106.544C24.1577 108.368 20.2383 110.108 15.9736 111.041C14.7064 108.595 11.9631 102.089 12.6233 99.5033C12.8017 98.8019 22.0519 93.6265 24.6358 92.3564C29.7428 89.8502 37.0884 85.5204 43.0529 86.5213C49.4461 87.5943 53.3883 93.6151 58.2146 97.255C60.5404 99.0066 63.4923 99.6891 65.9737 101.24C71.6802 104.804 78.0393 108.618 82.543 111.659L82.5468 111.655Z" fill="#EE235E"/>
<path d="M61.7621 125.562C56.5603 125.562 52.785 123.318 48.8846 118.108C46.5815 115.033 45.5495 112.447 44.2443 109.175L43.9218 108.368C43.7434 107.924 43.5803 107.435 43.4247 106.965C42.8366 105.209 42.2295 103.393 40.6625 103.17C39.2245 102.954 31.0025 105.524 28.2593 106.779C24.0401 108.709 20.208 110.381 16.0343 111.295C15.9167 111.318 15.7953 111.264 15.7422 111.158C14.8429 109.418 11.6293 102.332 12.3729 99.4351C12.612 98.4948 23.0043 92.8607 24.5258 92.1137C25.1784 91.7915 25.8727 91.4389 26.5936 91.0749C31.5944 88.5308 37.8169 85.3649 43.106 86.2559C47.6173 87.0142 50.9221 90.1839 54.1206 93.2512C55.4941 94.5706 56.9169 95.9355 58.3853 97.0427C59.6526 97.9981 61.1513 98.6465 62.6045 99.2758C63.7844 99.7877 65.0062 100.315 66.1255 101.012C67.7835 102.047 69.4985 103.105 71.2059 104.159C75.2847 106.677 79.5039 109.278 82.7024 111.435C82.7631 111.473 82.801 111.537 82.8162 111.606C82.8276 111.674 82.8162 111.746 82.7745 111.807C78.2518 118.294 73.4559 124.212 64.5774 125.369C63.5947 125.498 62.6614 125.562 61.7697 125.562H61.7621ZM40.5032 102.635C40.5942 102.635 40.6701 102.639 40.7384 102.65C42.6279 102.919 43.2881 104.895 43.9294 106.806C44.0925 107.291 44.2443 107.746 44.4188 108.178L44.7413 108.986C46.0807 112.349 47.052 114.775 49.3133 117.797C53.8057 123.795 57.9224 125.706 64.5053 124.849C73.0878 123.731 77.6143 118.264 82.1826 111.731C79.022 109.608 74.9091 107.071 70.9251 104.618C69.2178 103.564 67.5028 102.506 65.8409 101.471C64.7558 100.792 63.553 100.273 62.392 99.7687C60.9122 99.128 59.3832 98.4682 58.0628 97.4711C56.5679 96.345 55.1374 94.9687 53.7488 93.6379C50.611 90.6275 47.3669 87.5147 43.0149 86.7829C37.9042 85.9261 31.7651 89.0465 26.8326 91.5526C26.108 91.9204 25.4174 92.273 24.761 92.5953C21.8281 94.036 13.2835 98.8929 12.8813 99.5981C12.2743 101.983 14.7898 108.106 16.1254 110.741C20.17 109.827 23.9225 108.193 28.0468 106.305C30.513 105.179 38.424 102.639 40.5108 102.639L40.5032 102.635Z" fill="#484FA1"/>
<path d="M101.563 91.6778C97.7654 92.1176 94.0584 93.5469 91.319 96.2844C87.6045 99.9962 88.4582 104.61 86.5725 105.949C85.9426 106.396 84.2125 106.772 82.8655 107.549C81.2644 108.474 78.4339 110.169 77.3601 111.644C75.4668 114.245 75.0039 117.342 74.6738 120.444C74.6017 121.13 73.915 121.581 73.2548 121.376C66.7515 119.39 63.9666 118.847 58.6812 119.086C53.1455 119.337 50.0039 121.683 47.014 123.773C46.3539 140.671 72.0786 139.958 82.5316 136.118C96.1073 131.124 108.294 120.391 110.074 105.577C110.559 101.536 111.667 95.9432 107.957 93.164C105.923 91.6436 104.022 91.3972 101.567 91.6815L101.563 91.6778Z" fill="#6CC6E5"/>
<path d="M41.6642 133.255C41.6642 133.255 41.649 133.255 41.6414 133.255C41.4973 133.244 41.3872 133.115 41.3986 132.967C41.6263 130.229 42.2409 127.333 45.1776 124.69C48.1333 122.028 53.4376 118.836 58.666 118.601C63.1736 118.4 67.9657 119.204 73.3079 121.069C73.5242 121.145 73.7594 121.118 73.9491 120.997C74.1426 120.876 74.2716 120.671 74.2982 120.444C74.6359 117.433 75.1595 113.994 77.1476 111.268C78.2062 109.816 80.8432 108.193 82.7365 107.101C83.4764 106.673 84.3073 106.373 85.0434 106.108C85.6429 105.892 86.1589 105.702 86.4207 105.517C87.1492 105.001 87.4413 103.886 87.8056 102.476C88.3178 100.508 88.959 98.0549 91.1331 95.8824C93.7094 93.308 97.3063 91.6891 101.537 91.2C103.138 91.0142 106.906 91.5905 108.302 92.3791C110.609 93.6758 111.66 94.8398 113.117 96.4511L113.481 96.853C113.58 96.963 113.572 97.1298 113.462 97.2284C113.352 97.327 113.185 97.3194 113.086 97.2094L112.722 96.8075C111.299 95.2341 110.271 94.0966 108.04 92.8455C106.742 92.1137 103.092 91.5564 101.598 91.7308C97.4884 92.2085 93.9977 93.7744 91.5087 96.2616C89.4371 98.3317 88.8186 100.705 88.3216 102.612C87.927 104.129 87.6159 105.323 86.728 105.953C86.4055 106.18 85.8592 106.381 85.2217 106.608C84.5084 106.866 83.7002 107.158 83.0021 107.564C81.1505 108.633 78.5743 110.214 77.5764 111.587C75.6641 114.21 75.1557 117.566 74.8256 120.508C74.7801 120.899 74.5676 121.244 74.2337 121.452C73.9036 121.661 73.5014 121.706 73.1334 121.577C67.7835 119.708 63.1925 118.931 58.6926 119.136C53.6084 119.367 48.4293 122.487 45.5381 125.088C42.738 127.606 42.1499 130.385 41.9336 133.016C41.9222 133.156 41.8046 133.259 41.668 133.259L41.6642 133.255Z" fill="#484FA1"/>
<path d="M105.138 147.261C102.527 147.147 99.6549 148.417 98.4104 150.772C97.5946 152.315 97.458 154.764 99.3589 155.503C101.04 156.155 103.681 155.719 105.475 155.594C106.382 155.53 107.277 155.325 108.177 155.242C110.423 155.037 112.753 155.534 114.972 155.788C117.916 156.121 121.05 156.497 124.002 155.901C125.664 155.568 126.654 154.282 127.098 152.701C127.74 150.404 127.098 149.156 125.133 148.015C121.703 146.021 116.949 145.558 113.098 146.082C111.557 146.29 110.051 147.086 108.499 147.162C106.519 147.257 105.031 145.869 102.952 146.601C103.13 146.665 103.316 146.703 103.506 146.718" fill="#E7E7F0"/>
<path d="M120.546 156.481C118.732 156.481 116.907 156.273 115.116 156.072L114.942 156.053C114.388 155.989 113.822 155.913 113.257 155.833C111.584 155.602 109.858 155.359 108.203 155.511C107.793 155.549 107.372 155.613 106.966 155.678C106.488 155.754 105.991 155.829 105.494 155.863C105.16 155.886 104.8 155.92 104.42 155.958C102.759 156.118 100.691 156.311 99.2641 155.757C98.5622 155.484 98.0499 154.969 97.7881 154.263C97.4087 153.244 97.5605 151.826 98.179 150.658C99.3817 148.379 102.239 146.882 105.153 147.003C105.301 147.01 105.415 147.132 105.407 147.28C105.399 147.427 105.27 147.545 105.13 147.534C102.417 147.412 99.7573 148.804 98.6494 150.904C98.1979 151.757 97.9096 153.073 98.2852 154.078C98.4977 154.646 98.8923 155.045 99.4576 155.264C100.767 155.772 102.766 155.583 104.371 155.431C104.754 155.393 105.122 155.359 105.456 155.336C105.931 155.302 106.416 155.227 106.887 155.154C107.3 155.09 107.729 155.026 108.154 154.984C109.869 154.828 111.629 155.075 113.329 155.31C113.891 155.39 114.449 155.465 115.002 155.53L115.177 155.549C118.087 155.879 121.096 156.224 123.949 155.647C125.744 155.287 126.51 153.809 126.84 152.637C127.429 150.533 126.947 149.388 124.996 148.254C121.384 146.154 116.497 145.896 113.132 146.354C112.464 146.445 111.777 146.658 111.117 146.863C110.271 147.124 109.398 147.393 108.511 147.435C107.642 147.477 106.875 147.253 106.132 147.033C105.346 146.802 104.595 146.582 103.768 146.684C103.768 146.703 103.768 146.722 103.768 146.741C103.756 146.889 103.631 146.995 103.483 146.988C103.271 146.972 103.062 146.927 102.861 146.859C102.755 146.821 102.683 146.722 102.683 146.609C102.683 146.495 102.755 146.396 102.861 146.358C104.159 145.903 105.236 146.218 106.28 146.525C107.012 146.741 107.702 146.942 108.484 146.904C109.307 146.866 110.146 146.605 110.962 146.354C111.645 146.142 112.35 145.926 113.064 145.827C116.52 145.357 121.54 145.627 125.266 147.791C127.421 149.046 128.005 150.442 127.353 152.777C126.833 154.639 125.66 155.841 124.055 156.167C122.898 156.398 121.726 156.489 120.546 156.489V156.481Z" fill="#484FA1"/>
<path d="M88.8566 152.049C84.4211 154.692 83.484 158.271 86.4624 158.449C88.7807 158.586 90.416 155.155 92.1462 154.131" fill="#E7E7F0"/>
<path d="M86.599 158.715C86.5497 158.715 86.5004 158.715 86.451 158.711C85.0396 158.628 84.6412 157.858 84.5312 157.403C84.1442 155.818 85.8667 153.52 88.7238 151.818C88.849 151.742 89.0121 151.784 89.088 151.909C89.1639 152.034 89.1222 152.197 88.997 152.273C86.064 154.021 84.774 156.156 85.0472 157.274C85.2141 157.96 85.9198 158.142 86.4814 158.176C87.8132 158.256 88.9514 156.982 90.0442 155.75C90.7119 154.999 91.3418 154.29 92.0134 153.892C92.1386 153.816 92.3017 153.858 92.3776 153.987C92.4535 154.112 92.4117 154.275 92.2827 154.351C91.6833 154.703 91.08 155.386 90.4425 156.102C89.3536 157.327 88.1243 158.711 86.599 158.711V158.715Z" fill="#484FA1"/>
<path d="M92.1006 154.176C87.4072 157.85 89.7406 159.534 92.2979 159.064C93.292 158.882 94.1343 158.082 94.9653 157.558C96.0087 156.899 97.1811 156.167 98.437 156.046C99.9812 155.898 101.332 153.63 100.144 152.246" fill="#E7E7F0"/>
<path d="M91.467 159.405C90.4084 159.405 89.5699 159.014 89.2626 158.339C88.9173 157.57 89.0994 156.186 91.9375 153.964C92.0513 153.873 92.2183 153.892 92.3093 154.009C92.4004 154.123 92.3814 154.29 92.2638 154.381C89.4599 156.576 89.5699 157.725 89.7482 158.119C90.029 158.737 91.0572 159.018 92.2486 158.798C92.9202 158.673 93.5386 158.229 94.1381 157.801C94.3696 157.634 94.5934 157.475 94.8211 157.331C95.8228 156.698 97.0711 155.909 98.4104 155.776C99.1199 155.708 99.8408 155.098 100.167 154.29C100.448 153.592 100.364 152.91 99.9433 152.417C99.8484 152.307 99.8598 152.137 99.9736 152.042C100.084 151.947 100.251 151.958 100.349 152.072C100.907 152.72 101.021 153.6 100.664 154.487C100.262 155.488 99.3779 156.216 98.4673 156.303C97.2532 156.421 96.1149 157.141 95.1094 157.778C94.8932 157.915 94.6731 158.074 94.453 158.233C93.8042 158.696 93.1365 159.177 92.3473 159.321C92.0437 159.378 91.7478 159.405 91.467 159.405Z" fill="#484FA1"/>
<path d="M84.5046 158.499C84.5046 158.499 84.4819 158.499 84.4743 158.499C84.3301 158.48 84.2239 158.351 84.2428 158.203C84.2997 157.718 84.793 156.993 85.3659 156.751C85.4987 156.694 85.6581 156.755 85.715 156.891C85.7719 157.028 85.7074 157.183 85.5746 157.24C85.1952 157.403 84.8082 157.949 84.7702 158.264C84.755 158.4 84.6412 158.499 84.5084 158.499H84.5046Z" fill="#484FA1"/>
<path d="M86.0147 158.942C86.0147 158.942 85.992 158.942 85.9844 158.942C85.8402 158.923 85.734 158.794 85.7529 158.646C85.8098 158.161 86.3031 157.437 86.876 157.194C87.0088 157.137 87.1682 157.198 87.2251 157.335C87.282 157.471 87.2175 157.627 87.0847 157.683C86.7053 157.847 86.3183 158.392 86.2803 158.707C86.2651 158.844 86.1513 158.942 86.0185 158.942H86.0147Z" fill="#484FA1"/>
<path d="M89.7255 159.469C89.7255 159.469 89.7027 159.469 89.6951 159.469C89.5509 159.45 89.4447 159.321 89.4637 159.173C89.5206 158.688 90.0138 157.968 90.5867 157.721C90.7195 157.664 90.8789 157.725 90.9358 157.862C90.9927 157.998 90.9282 158.154 90.7954 158.21C90.4084 158.373 90.029 158.912 89.991 159.234C89.9759 159.371 89.862 159.469 89.7293 159.469H89.7255Z" fill="#484FA1"/>
<path d="M91.2773 159.761C91.2773 159.761 91.2545 159.761 91.2469 159.761C91.1028 159.742 90.9965 159.613 91.0155 159.465C91.0724 158.98 91.5657 158.26 92.1386 158.013C92.2714 157.956 92.4307 158.017 92.4876 158.154C92.5446 158.29 92.4801 158.446 92.3473 158.502C91.9603 158.665 91.5808 159.204 91.5429 159.526C91.5277 159.663 91.4139 159.761 91.2811 159.761H91.2773Z" fill="#484FA1"/>
<path d="M124.59 153.077C119.874 157.039 112.897 153.376 107.847 152.273C105.881 151.845 102.812 152.398 100.994 153.327C100.091 153.79 99.6132 154.214 99.5866 155.192C99.5676 155.776 99.7459 156.629 100.399 156.773C100.645 156.827 101.055 156.876 101.298 156.808C102.155 156.573 103.13 156.023 104.014 155.894C105.346 155.704 106.443 155.731 107.748 155.989C111.633 156.762 114.623 159.367 118.804 159.162C121.714 159.022 125.501 158.684 127.588 156.337C128.673 155.117 129.508 154.078 130.627 152.967C131.511 152.091 132.008 150.832 132.247 149.638C133.044 145.664 131.105 140.633 128.146 137.941C119.916 130.449 104.155 134.506 96.1984 140.531C97.0179 143.465 100.759 145.509 100.702 148.652C100.672 150.396 100.091 152.019 99.9129 153.695" fill="#E7E7F0"/>
<path d="M118.345 159.446C115.985 159.446 113.97 158.586 112.016 157.752C110.643 157.168 109.228 156.561 107.699 156.258C106.428 156.004 105.373 155.977 104.056 156.167C103.563 156.235 103.017 156.455 102.489 156.667C102.117 156.815 101.734 156.971 101.374 157.069C100.994 157.175 100.41 157.05 100.345 157.039C99.5563 156.864 99.302 155.936 99.3248 155.189C99.34 154.635 99.4918 154.233 99.7574 153.911C99.6891 153.858 99.6473 153.767 99.6549 153.672C99.7308 152.959 99.8788 152.246 100.023 151.56C100.22 150.616 100.425 149.646 100.444 148.652C100.474 146.984 99.3665 145.638 98.1903 144.212C97.2721 143.098 96.3236 141.945 95.9518 140.61C95.9214 140.504 95.9593 140.394 96.0466 140.326C103.882 134.392 119.886 130.066 128.332 137.752C131.5 140.637 133.298 145.774 132.513 149.699C132.308 150.715 131.849 152.14 130.817 153.164C130.028 153.945 129.375 154.7 128.684 155.5C128.4 155.829 128.104 156.171 127.789 156.523C125.77 158.798 122.284 159.268 118.819 159.439C118.66 159.446 118.505 159.45 118.349 159.45L118.345 159.446ZM105.654 155.511C106.355 155.511 107.042 155.587 107.801 155.735C109.383 156.049 110.829 156.667 112.225 157.263C114.346 158.169 116.361 159.022 118.793 158.904C122.143 158.741 125.501 158.298 127.391 156.167C127.705 155.814 127.998 155.477 128.282 155.147C128.98 154.339 129.641 153.581 130.445 152.785C131.382 151.856 131.803 150.537 131.993 149.592C132.744 145.835 131.018 140.914 127.975 138.142C119.791 130.692 104.257 134.87 96.5133 140.637C96.8889 141.797 97.7578 142.851 98.6001 143.875C99.7839 145.312 101.009 146.798 100.975 148.664C100.956 149.702 100.748 150.703 100.543 151.67C100.418 152.265 100.289 152.883 100.209 153.49C100.402 153.35 100.626 153.221 100.877 153.092C102.846 152.083 105.999 151.598 107.907 152.015C109.038 152.262 110.248 152.629 111.527 153.02C115.902 154.355 120.861 155.864 124.424 152.872C124.534 152.777 124.704 152.792 124.799 152.906C124.894 153.02 124.879 153.187 124.765 153.282C120.982 156.459 115.879 154.9 111.371 153.528C110.1 153.141 108.901 152.777 107.793 152.535C105.991 152.144 102.994 152.607 101.119 153.566C100.285 153.994 99.8788 154.347 99.856 155.204C99.8446 155.64 99.9546 156.406 100.459 156.519C100.706 156.573 101.059 156.607 101.229 156.557C101.563 156.466 101.916 156.322 102.288 156.174C102.846 155.951 103.423 155.719 103.98 155.64C104.576 155.556 105.122 155.511 105.657 155.511H105.654Z" fill="#484FA1"/>
<path d="M103.423 146.097C105.669 141.247 113.462 137.376 118.698 138.791L103.423 146.097Z" fill="#E7E7F0"/>
<path d="M103.423 146.362C103.385 146.362 103.347 146.355 103.313 146.336C103.18 146.275 103.123 146.116 103.184 145.983C105.517 140.948 113.527 137.115 118.77 138.529C118.911 138.567 118.994 138.715 118.956 138.855C118.918 138.995 118.774 139.082 118.63 139.041C113.599 137.687 105.904 141.365 103.665 146.203C103.62 146.301 103.525 146.358 103.426 146.358L103.423 146.362Z" fill="#484FA1"/>
<path d="M97.5415 154.802C94.0243 155.572 89.752 153.039 87.4907 150.392C85.2179 147.735 85.1383 144.864 86.9974 141.884C88.4278 139.594 90.3857 139.219 92.5521 137.991C94.3013 137.001 96.9496 132.667 97.0407 136.876C97.0748 138.423 96.5019 139.321 97.5453 140.455C98.3345 141.312 99.0402 141.881 100.156 142.101C100.846 141.809 103.066 141.062 104.151 140.538C104.58 140.33 105.073 140.675 105.043 141.149C104.88 143.621 104.003 146.173 103.43 148.569C103.009 150.332 102.212 152.057 100.888 153.251C99.8408 154.195 98.8429 154.514 97.5453 154.798L97.5415 154.802Z" fill="#E7E7F0"/>
<path d="M96.1946 155.211C92.9505 155.211 89.3954 153.031 87.2896 150.567C84.9789 147.867 84.8044 144.899 86.7736 141.748C87.8777 139.981 89.3005 139.302 90.8106 138.582C91.3342 138.332 91.873 138.074 92.4231 137.763C92.9012 137.494 93.4741 136.933 94.0319 136.391C95.0298 135.416 95.8948 134.574 96.5892 134.863C97.0559 135.052 97.2835 135.693 97.3063 136.872C97.3177 137.338 97.2721 137.752 97.2342 138.116C97.1431 138.988 97.0824 139.564 97.7388 140.277C98.4901 141.088 99.1237 141.608 100.129 141.827C100.383 141.725 100.782 141.577 101.233 141.41C102.17 141.065 103.339 140.637 104.033 140.3C104.318 140.163 104.644 140.186 104.91 140.364C105.179 140.546 105.327 140.845 105.308 141.168C105.191 142.995 104.686 144.853 104.204 146.654C104.018 147.336 103.848 147.985 103.692 148.633C103.199 150.684 102.292 152.349 101.066 153.452C100.019 154.396 99.0402 154.745 97.6022 155.06C97.1431 155.158 96.6726 155.208 96.1984 155.208L96.1946 155.211ZM96.2932 135.336C95.8721 135.336 95.0298 136.159 94.3999 136.77C93.8194 137.335 93.2199 137.918 92.6849 138.222C92.1158 138.544 91.5694 138.806 91.0382 139.06C89.5395 139.776 88.2457 140.391 87.2251 142.028C85.3925 144.959 85.5518 147.716 87.6956 150.222C89.9531 152.861 94.1533 155.272 97.4884 154.544C98.8391 154.248 99.7498 153.926 100.71 153.062C101.856 152.03 102.705 150.457 103.172 148.512C103.328 147.856 103.514 147.177 103.688 146.518C104.166 144.743 104.659 142.908 104.777 141.134C104.785 141.005 104.724 140.88 104.614 140.804C104.565 140.77 104.424 140.698 104.265 140.777C103.548 141.126 102.368 141.558 101.419 141.907C100.922 142.089 100.493 142.248 100.258 142.347C100.209 142.366 100.156 142.373 100.103 142.362C98.915 142.127 98.1676 141.528 97.348 140.637C96.5285 139.746 96.6082 138.965 96.7068 138.059C96.7447 137.695 96.7865 137.316 96.7751 136.883C96.7485 135.636 96.4943 135.397 96.3881 135.352C96.3615 135.34 96.3274 135.336 96.2932 135.336Z" fill="#484FA1"/>
<path d="M91.2393 147.977C91.6339 147.894 93.1592 148.068 93.0795 147.321C93.0454 147.011 92.0285 145.85 91.6339 145.975C91.1521 146.127 90.822 147.776 91.2393 147.977Z" fill="#EE235E"/>
<path d="M91.2393 148.243C91.2014 148.243 91.1597 148.235 91.1255 148.216C90.8713 148.095 90.7537 147.765 90.7878 147.272C90.8258 146.756 91.0648 145.881 91.5543 145.725C91.7326 145.668 91.9337 145.718 92.1803 145.877C92.6432 146.176 93.3034 146.935 93.3451 147.295C93.3679 147.492 93.3148 147.67 93.1934 147.81C92.8822 148.171 92.2145 148.193 91.6795 148.212C91.5201 148.216 91.3683 148.224 91.3 148.239C91.2811 148.243 91.2621 148.247 91.2469 148.247L91.2393 148.243ZM91.6984 146.233C91.6681 146.245 91.5125 146.419 91.3987 146.844C91.2925 147.249 91.3038 147.568 91.3456 147.697C91.4366 147.689 91.5391 147.685 91.6605 147.682C92.002 147.67 92.6318 147.647 92.7912 147.462C92.8101 147.443 92.8253 147.412 92.8177 147.352C92.757 147.094 91.9451 146.237 91.7022 146.233H91.6984Z" fill="#484FA1"/>
<path d="M93.3375 151.807C92.8481 151.807 92.3662 151.682 91.9565 151.42C91.0193 150.813 90.2756 149.721 90.5336 148.565C89.8355 148.755 89.0083 148.603 88.3254 148.125C87.115 147.28 87.0126 145.858 87.5286 144.952C87.6614 144.72 87.8625 144.44 88.0826 144.182C88.1774 144.068 88.3482 144.057 88.4582 144.152C88.5682 144.246 88.5834 144.413 88.4885 144.527C88.2875 144.762 88.1053 145.012 87.9915 145.217C87.5893 145.922 87.6766 147.029 88.6289 147.693C89.3536 148.201 90.2718 148.262 90.8637 147.837C90.9662 147.765 91.1028 147.773 91.1976 147.856C91.2887 147.939 91.3114 148.076 91.2507 148.186C90.6361 149.266 91.338 150.392 92.2448 150.98C93.1554 151.568 94.5441 151.287 95.2157 150.381C95.3029 150.264 95.4699 150.237 95.5875 150.324C95.7051 150.411 95.7317 150.578 95.6444 150.696C95.1132 151.416 94.214 151.814 93.3375 151.814V151.807Z" fill="#484FA1"/>
<path d="M95.4206 148.008C95.7998 148.008 96.1073 147.7 96.1073 147.321C96.1073 146.942 95.7998 146.635 95.4206 146.635C95.0413 146.635 94.7338 146.942 94.7338 147.321C94.7338 147.7 95.0413 148.008 95.4206 148.008Z" fill="#484FA1"/>
<path d="M95.4206 148.269C95.3485 148.269 95.2726 148.262 95.2005 148.243C94.9539 148.182 94.7452 148.03 94.6124 147.814C94.4796 147.598 94.4379 147.344 94.4986 147.094C94.62 146.586 95.136 146.271 95.6444 146.392C96.1528 146.514 96.4716 147.029 96.3463 147.538C96.2401 147.974 95.8531 148.265 95.4206 148.265V148.269ZM95.4206 146.901C95.3447 146.901 95.2688 146.923 95.2005 146.961C95.1056 147.018 95.0373 147.113 95.0108 147.219C94.9842 147.329 95.0032 147.439 95.0601 147.538C95.117 147.632 95.2119 147.701 95.3181 147.727C95.4282 147.754 95.5382 147.735 95.6368 147.678C95.7317 147.621 95.8 147.526 95.8265 147.42C95.8797 147.196 95.7431 146.969 95.5154 146.916C95.4813 146.908 95.4509 146.904 95.4168 146.904L95.4206 146.901Z" fill="#484FA1"/>
<path d="M91.2545 144.512C91.6338 144.512 91.9413 144.205 91.9413 143.826C91.9413 143.447 91.6338 143.139 91.2545 143.139C90.8752 143.139 90.5678 143.447 90.5678 143.826C90.5678 144.205 90.8752 144.512 91.2545 144.512Z" fill="#484FA1"/>
<path d="M91.2545 144.773C91.1824 144.773 91.1065 144.766 91.0344 144.747C90.526 144.626 90.2111 144.11 90.3325 143.602C90.4539 143.094 90.9662 142.775 91.4784 142.901C91.9868 143.022 92.3017 143.537 92.1803 144.046C92.0741 144.482 91.6871 144.773 91.2545 144.773ZM91.2545 143.405C91.1786 143.405 91.1027 143.428 91.0344 143.465C90.9396 143.522 90.8713 143.617 90.8447 143.723C90.7916 143.947 90.9282 144.174 91.1559 144.228C91.3797 144.281 91.6074 144.144 91.6605 143.917C91.6871 143.807 91.6681 143.697 91.6112 143.598C91.5543 143.503 91.4594 143.435 91.3532 143.409C91.319 143.401 91.2887 143.397 91.2545 143.397V143.405Z" fill="#484FA1"/>
<path d="M101.04 143.378C101.548 143.234 101.996 143.007 102.444 142.783C102.554 142.726 103.07 142.396 103.229 142.476C103.574 142.65 102.812 144.406 102.637 144.58C102.485 144.732 102.201 144.868 101.912 144.705C101.654 144.557 101.772 144.307 101.582 144.114C101.461 143.989 100.292 143.481 101.044 143.378H101.04Z" fill="#EE235E"/>
<path d="M102.182 145.046C102.053 145.046 101.912 145.016 101.776 144.936C101.533 144.8 101.484 144.591 101.45 144.455C101.431 144.375 101.419 144.334 101.389 144.303C101.366 144.284 101.298 144.25 101.218 144.205C100.831 143.981 100.467 143.769 100.528 143.45C100.577 143.192 100.861 143.139 100.979 143.12C101.442 142.988 101.844 142.783 102.273 142.571L102.318 142.548C102.318 142.548 102.364 142.521 102.398 142.502C102.774 142.29 103.1 142.119 103.343 142.241C103.426 142.282 103.536 142.377 103.567 142.578C103.654 143.132 103.036 144.55 102.815 144.766C102.668 144.914 102.436 145.043 102.178 145.043L102.182 145.046ZM101.241 143.594C101.332 143.651 101.427 143.708 101.484 143.742C101.635 143.829 101.711 143.875 101.764 143.928C101.901 144.068 101.939 144.22 101.966 144.33C101.992 144.44 102 144.451 102.038 144.474C102.231 144.584 102.398 144.44 102.444 144.394C102.592 144.216 103.02 143.166 103.051 142.764C102.963 142.802 102.834 142.866 102.668 142.961C102.622 142.988 102.584 143.01 102.561 143.022L102.516 143.045C102.117 143.245 101.704 143.45 101.241 143.594Z" fill="#EE235E"/>
<path d="M95.561 139.644C95.561 139.466 95.4737 139.249 95.4851 139.083C95.5078 138.802 95.5382 138.521 95.5685 138.245C95.6065 137.941 95.7772 137.543 95.5685 137.255C95.5572 137.24 94.453 138.135 94.3772 138.211C94.0471 138.54 93.4324 139.23 94.1154 139.613C94.3468 139.746 94.5745 139.674 94.8135 139.742C95.0677 139.814 95.4244 140.08 95.5382 139.776C95.5534 139.735 95.5572 139.693 95.5572 139.644H95.561Z" fill="#EE235E"/>
<path d="M95.3523 140.182C95.1967 140.182 95.0449 140.118 94.9121 140.061C94.8552 140.034 94.7983 140.011 94.7452 139.996C94.6769 139.977 94.601 139.974 94.5175 139.97C94.3658 139.962 94.1799 139.955 93.9864 139.845C93.6676 139.666 93.5728 139.428 93.55 139.261C93.4855 138.791 93.8839 138.328 94.1912 138.025C94.2026 138.013 95.3409 136.993 95.5837 136.993C95.5837 136.993 95.5875 136.993 95.5913 136.993C95.671 137.001 95.7431 137.039 95.7886 137.103C96.0125 137.414 95.9328 137.79 95.8759 138.066C95.8607 138.142 95.8455 138.214 95.8379 138.279C95.8038 138.555 95.7772 138.832 95.7545 139.109C95.7507 139.158 95.7696 139.246 95.7848 139.333C95.8076 139.435 95.8265 139.537 95.8303 139.647C95.8303 139.731 95.819 139.807 95.7924 139.875C95.7317 140.042 95.6217 140.118 95.5382 140.152C95.4775 140.178 95.413 140.19 95.3523 140.19V140.182ZM95.3978 137.721C95.0753 137.975 94.62 138.347 94.5669 138.4C94.1078 138.855 94.0622 139.09 94.0774 139.189C94.0774 139.215 94.0926 139.295 94.2482 139.382C94.3278 139.428 94.4075 139.431 94.5441 139.439C94.6465 139.443 94.7642 139.45 94.8894 139.484C94.9615 139.503 95.0411 139.537 95.1208 139.572C95.1701 139.594 95.2422 139.625 95.2954 139.64C95.2954 139.587 95.2764 139.511 95.2612 139.435C95.2347 139.314 95.2081 139.189 95.2195 139.06C95.2422 138.775 95.2726 138.495 95.3067 138.21C95.3181 138.131 95.3333 138.04 95.3523 137.949C95.3674 137.869 95.3864 137.793 95.394 137.718L95.3978 137.721Z" fill="#EE235E"/>
<path d="M43.4551 46.9195C43.4095 46.7792 43.4854 46.6275 43.6258 46.5858C43.7662 46.5365 43.9142 46.6161 43.9597 46.7526C44.0052 46.8929 43.9294 47.0446 43.789 47.0901C43.7624 47.0977 43.7358 47.1015 43.7093 47.1015C43.5955 47.1015 43.493 47.0294 43.4551 46.9195ZM42.6014 44.8569C42.5331 44.7242 42.5862 44.565 42.7152 44.4967C42.848 44.4323 43.0074 44.4816 43.0719 44.6143C43.1364 44.7432 43.087 44.9024 42.9542 44.9707C42.9163 44.9896 42.8746 44.9972 42.8328 44.9972C42.738 44.9972 42.6431 44.9479 42.5976 44.8569H42.6014ZM41.4138 42.9763H41.41C41.3227 42.8588 41.3455 42.692 41.4631 42.6048C41.5769 42.5138 41.7439 42.5365 41.8349 42.6541C41.9222 42.7678 41.8994 42.9346 41.7856 43.0256C41.7363 43.0598 41.6794 43.0787 41.6225 43.0787C41.5428 43.0787 41.4631 43.0446 41.4138 42.9763ZM39.8999 41.346C39.7937 41.2474 39.7823 41.0806 39.8809 40.9707C39.9796 40.8607 40.1465 40.8531 40.2566 40.9517C40.3666 41.0465 40.3742 41.2171 40.2755 41.3271C40.2224 41.3839 40.1503 41.4143 40.0782 41.4143C40.0137 41.4143 39.953 41.3915 39.8999 41.346ZM38.1242 40C38.0028 39.9204 37.9649 39.7574 38.0445 39.6361C38.1242 39.5109 38.2874 39.4768 38.4126 39.5564C38.534 39.6361 38.5719 39.7991 38.4922 39.9204C38.4429 40 38.3557 40.0417 38.2684 40.0417C38.2191 40.0417 38.1697 40.0304 38.1242 40ZM36.1626 38.9195C36.0298 38.8588 35.9729 38.6996 36.0374 38.5669C36.0981 38.4342 36.2575 38.3773 36.3903 38.4379C36.5193 38.4986 36.5762 38.6579 36.5155 38.7943C36.4699 38.8891 36.3751 38.946 36.2764 38.946C36.2385 38.946 36.2005 38.9346 36.1626 38.9195Z" fill="#484FA1"/>
<path d="M50.9638 45.6569C50.8917 45.5318 50.9335 45.3687 51.0587 45.2967C51.1877 45.2209 51.347 45.2664 51.4229 45.3915C51.495 45.5204 51.4533 45.6796 51.3281 45.7555C51.2901 45.7782 51.2446 45.7896 51.1991 45.7896C51.108 45.7896 51.0169 45.7441 50.9676 45.6569H50.9638ZM52.8419 44.3791C52.7509 44.2654 52.7661 44.0986 52.8799 44.0076C52.9937 43.9128 53.1607 43.9318 53.2555 44.0455C53.3466 44.1592 53.3314 44.3261 53.2176 44.4171C53.1682 44.4588 53.1075 44.4777 53.0506 44.4777C52.971 44.4777 52.8951 44.4436 52.8419 44.3791ZM54.5418 42.8626C54.4393 42.7602 54.4355 42.5934 54.5418 42.4872C54.6442 42.381 54.8111 42.381 54.9174 42.4872C55.0236 42.5896 55.0236 42.7564 54.9174 42.8626C54.8681 42.9156 54.796 42.9422 54.7277 42.9422C54.6632 42.9422 54.5949 42.9156 54.5418 42.8664V42.8626ZM56.0329 41.145C55.9115 41.0616 55.8811 40.8948 55.9684 40.7773C56.0518 40.6559 56.215 40.6256 56.3364 40.709C56.4578 40.7924 56.4844 40.9592 56.4009 41.0806C56.3516 41.1526 56.2681 41.1943 56.1846 41.1943C56.1315 41.1943 56.0784 41.1791 56.0329 41.145ZM57.1711 39.181C57.0345 39.128 56.9663 38.9725 57.0232 38.8398C57.0763 38.6995 57.2281 38.6351 57.3646 38.6882C57.505 38.7412 57.5695 38.8967 57.5164 39.0332C57.4747 39.1355 57.376 39.2 57.2698 39.2C57.2356 39.2 57.2053 39.1924 57.1711 39.181ZM57.7972 37.0009C57.653 36.982 57.5506 36.8455 57.5695 36.7014C57.5923 36.5573 57.7251 36.455 57.8693 36.4739C58.0173 36.4967 58.1159 36.6294 58.0969 36.7735C58.078 36.91 57.9641 37.0047 57.8351 37.0047C57.8351 37.0047 57.8086 37.0047 57.7972 37.0047V37.0009ZM57.9755 34.7374C57.8275 34.7374 57.7099 34.6161 57.7099 34.472C57.7137 34.3242 57.8351 34.2066 57.9793 34.2066C58.1273 34.2066 58.2449 34.328 58.2449 34.4758C58.2449 34.6237 58.1235 34.7412 57.9755 34.7412V34.7374ZM57.7061 32.1972C57.7061 32.0531 57.8237 31.9355 57.9717 31.9355C58.1197 31.9355 58.2373 32.0531 58.2373 32.1972C58.2373 32.345 58.1197 32.4626 57.9717 32.4626C57.8237 32.4626 57.7061 32.345 57.7061 32.1972Z" fill="#484FA1"/>
<path d="M5.52436 31.4957C5.80893 23.7308 12.335 17.7782 20.1093 17.9526C28.7335 18.1497 33.9468 24.7621 33.6622 32.527C33.3777 40.2919 26.8516 46.237 19.0773 46.0701C10.6997 45.8881 5.2398 39.2606 5.52436 31.4957Z" fill="#E7E7F0"/>
<path d="M19.4074 46.3394C19.2936 46.3394 19.1835 46.3394 19.0697 46.3394C15.1579 46.256 11.6103 44.7356 9.08713 42.0588C6.46913 39.2872 5.1108 35.5299 5.25877 31.4882C5.55093 23.5678 12.0732 17.5204 20.1169 17.691C24.1539 17.782 27.6256 19.2493 30.1526 21.9261C32.7402 24.6673 34.0796 28.4398 33.9316 32.5422C33.6433 40.3413 27.2955 46.3432 19.415 46.3432L19.4074 46.3394ZM19.764 18.2142C12.1756 18.2142 6.06694 23.9887 5.78996 31.5033C5.64578 35.4048 6.95478 39.0218 9.47414 41.691C11.8986 44.2616 15.3134 45.7214 19.0811 45.8048C19.1911 45.8048 19.2973 45.8048 19.4074 45.8048C27.0034 45.8048 33.1197 40.0266 33.3966 32.5157C33.5408 28.5574 32.2508 24.9251 29.7618 22.2863C27.3335 19.7119 23.9946 18.3052 20.1017 18.218C19.9879 18.218 19.8741 18.2142 19.7602 18.2142H19.764Z" fill="#484FA1"/>
<path d="M15.192 30.3393L14.1865 31.545C13.9475 31.8332 13.8982 32.2351 14.0689 32.5725C14.695 33.8123 16.4745 36.7166 19.7716 37.5355C20.0941 37.6152 20.4394 37.5128 20.6709 37.2739L21.8395 36.072C22.1164 35.7877 22.5414 35.708 22.9018 35.8711L26.051 37.2853C26.3925 37.437 26.6088 37.7782 26.6088 38.1498L26.6012 39.5488C26.6012 39.7308 26.5481 39.9052 26.4456 40.0607C25.96 40.8076 24.2298 42.7715 20.1738 41.2701C15.2603 39.454 11.4357 35.7763 9.62211 30.8815C9.60694 30.8398 9.59556 30.7981 9.58417 30.7526C9.47414 30.2635 8.93157 27.2569 11.3295 25.327C11.5268 25.1678 11.7848 25.0957 12.0352 25.1261L13.4467 25.3005C13.8109 25.346 14.1145 25.5962 14.2283 25.945L15.359 29.4483C15.4576 29.7554 15.3931 30.0929 15.1844 30.3431L15.192 30.3393Z" fill="#EE235E"/>
<path d="M22.9056 42.0777C22.1126 42.0777 21.1793 41.9184 20.0865 41.5165C15.0061 39.636 11.2005 35.8938 9.37929 30.9725C9.36031 30.9194 9.34134 30.8663 9.32996 30.8094C9.19716 30.2142 8.66597 27.1355 11.1702 25.1184C11.4206 24.9175 11.7507 24.8227 12.077 24.8606L13.4884 25.035C13.9551 25.0919 14.3459 25.418 14.4901 25.8616L15.6208 29.3649C15.7498 29.763 15.6663 30.1876 15.3969 30.5099L14.3914 31.7156C14.2169 31.9241 14.1865 32.2123 14.3042 32.4511C14.8999 33.6379 16.6338 36.4815 19.8361 37.2739C20.0676 37.3308 20.3142 37.2587 20.4811 37.0843L21.6498 35.8824C22.0026 35.5184 22.5528 35.4161 23.0119 35.6246L26.1611 37.0388C26.5974 37.236 26.8782 37.672 26.8744 38.1459L26.8668 39.545C26.8668 39.7763 26.7985 40.0038 26.6695 40.1971C26.3242 40.7241 25.2163 42.0739 22.9056 42.0739V42.0777ZM11.9252 25.3838C11.7696 25.3838 11.6179 25.4369 11.5002 25.5317C9.24269 27.3478 9.72835 30.1497 9.84597 30.6957C9.85356 30.726 9.86115 30.7601 9.87253 30.7867C11.6406 35.5601 15.3324 39.1962 20.2687 41.0199C24.0743 42.4265 25.702 40.7165 26.2256 39.9128C26.2977 39.8028 26.3356 39.6777 26.3356 39.545L26.3432 38.1459C26.3432 37.8767 26.1876 37.6341 25.9448 37.5241L22.7956 36.1099C22.5376 35.9924 22.2303 36.053 22.033 36.254L20.8644 37.4559C20.5646 37.763 20.1245 37.8919 19.7109 37.7895C16.2961 36.9402 14.4635 33.9412 13.8337 32.69C13.6174 32.2616 13.6781 31.7459 13.9855 31.3744L14.9909 30.1687C15.1389 29.9905 15.1882 29.7516 15.1161 29.5279L13.9855 26.0246C13.9058 25.7744 13.6857 25.5924 13.4239 25.562L12.0125 25.3876C11.9859 25.3876 11.9556 25.3838 11.929 25.3838H11.9252Z" fill="#484FA1"/>
<path d="M46.1262 13.8122C46.4146 6.04732 52.9406 0.0947092 60.7149 0.269117C69.3392 0.466273 74.5524 7.0786 74.2679 14.8435C73.9833 22.6085 67.4572 28.5535 59.6829 28.3867C51.3053 28.2047 45.8454 21.5772 46.13 13.8122H46.1262Z" fill="#E7E7F0"/>
<path d="M60.013 28.6559C59.8992 28.6559 59.7892 28.6559 59.6753 28.6559C55.7635 28.5725 52.2159 27.0521 49.6928 24.3753C47.0748 21.6038 45.7164 17.8502 45.8644 13.8047C46.1528 5.88055 52.6788 -0.170636 60.7187 -1.97331e-05C64.7558 0.0909755 68.2275 1.55827 70.7544 4.23505C73.3421 6.97628 74.6814 10.7488 74.5334 14.8512C74.2489 22.6502 67.8974 28.6521 60.0168 28.6521L60.013 28.6559ZM46.3918 13.8237C46.2476 17.7251 47.5566 21.3422 50.076 24.0114C52.5005 26.582 55.9153 28.0417 59.6867 28.1251C59.7967 28.1251 59.9068 28.1251 60.013 28.1251C67.609 28.1251 73.7253 22.3469 74.0023 14.836C74.1464 10.8777 72.8564 7.24548 70.3674 4.60662C67.9391 2.03221 64.6002 0.625573 60.7073 0.538369C60.5935 0.538369 60.4797 0.534577 60.3659 0.534577C52.7775 0.534577 46.6688 6.30899 46.3918 13.8237Z" fill="#484FA1"/>
<path d="M64.843 12.8076L65.8485 14.0133C66.0875 14.3014 66.1369 14.7033 65.9661 15.0408C65.3401 16.2806 63.5606 19.1848 60.2634 20.0038C59.9409 20.0834 59.5957 19.981 59.3642 19.7422L58.1956 18.5403C57.9186 18.2559 57.4937 18.1763 57.1332 18.3393L53.984 19.7536C53.6425 19.9052 53.4263 20.2464 53.4263 20.618L53.4339 22.0171C53.4339 22.1991 53.487 22.3735 53.5894 22.5289C54.0751 23.2758 55.8052 25.2398 59.8612 23.7384C64.7747 21.9223 68.5993 18.2446 70.4129 13.3498C70.4281 13.3081 70.4395 13.2664 70.4509 13.2209C70.5609 12.7318 71.1035 9.72512 68.7055 7.79526C68.5082 7.63602 68.2502 7.56398 67.9998 7.59431L66.5884 7.76872C66.2241 7.81422 65.9206 8.06446 65.8068 8.41327L64.6761 11.9166C64.5775 12.2237 64.6419 12.5611 64.8506 12.8114L64.843 12.8076Z" fill="#EE235E"/>
<path d="M57.1294 24.5459C54.8149 24.5459 53.707 23.1962 53.3618 22.6692C53.2328 22.472 53.1645 22.2483 53.1645 22.017L53.1569 20.618C53.1569 20.1402 53.4338 19.7042 53.8702 19.5071L57.0194 18.0928C57.4823 17.8843 58.0286 17.9905 58.3815 18.3507L59.5501 19.5526C59.7171 19.727 59.9675 19.799 60.1951 19.7421C63.3974 18.9459 65.1276 16.1023 65.7271 14.9194C65.8485 14.6805 65.8144 14.3886 65.6398 14.1838L64.6344 12.9782C64.3688 12.6597 64.2853 12.2312 64.4105 11.8331L65.5412 8.32982C65.6854 7.88242 66.08 7.56015 66.5428 7.50328L67.9543 7.32887C68.2768 7.28716 68.6069 7.38195 68.8611 7.58669C71.3615 9.59996 70.8303 12.6786 70.6975 13.2777C70.6861 13.3346 70.6672 13.3876 70.6482 13.4407C68.8232 18.362 65.0214 22.108 59.9409 23.9848C58.8482 24.3905 57.9148 24.5459 57.1218 24.5459H57.1294ZM57.5164 18.5175C57.4216 18.5175 57.3267 18.5365 57.2394 18.5782L54.0902 19.9924C53.8474 20.1023 53.6881 20.345 53.6919 20.6142L53.6994 22.0132C53.6994 22.1421 53.7374 22.271 53.8095 22.381C54.3331 23.181 55.9608 24.8947 59.7664 23.4881C64.6989 21.6644 68.3906 18.0284 70.1625 13.2549C70.1739 13.2246 70.1815 13.1943 70.1891 13.1601C70.3105 12.618 70.7924 9.81607 68.5348 7.99617C68.3944 7.88242 68.2085 7.82934 68.0264 7.85209L66.6149 8.0265C66.3531 8.05683 66.1331 8.24261 66.0534 8.48906L64.9227 11.9924C64.8506 12.2161 64.8962 12.4549 65.0479 12.6331L66.0534 13.8388C66.3607 14.2066 66.4214 14.726 66.2052 15.1545C65.5753 16.4056 63.7427 19.4085 60.3279 20.254C59.9144 20.3564 59.4742 20.2274 59.1745 19.9203L58.0059 18.7184C57.8769 18.5857 57.6985 18.5137 57.5202 18.5137L57.5164 18.5175Z" fill="#484FA1"/>
<path d="M22.124 27.5905L21.8964 28.7317H23.0308V29.4976H21.7484L21.4069 31.2568H20.595L20.9364 29.4976H19.9537L19.6236 31.2568H18.8231L19.1456 29.4976H18.0984V28.7317H19.2935L19.5212 27.5905H18.4133V26.8246H19.6578L19.9993 25.0502H20.8112L20.4811 26.8246H21.4752L21.8167 25.0502H22.6097L22.2796 26.8246H23.323V27.5905H22.1278H22.124ZM20.0941 28.7317H21.0882L21.3159 27.5905H20.3218L20.0941 28.7317Z" fill="#484FA1"/>
<path d="M26.9313 31.2568H25.8348V27.3819C25.8348 27.1962 25.8348 26.999 25.8424 26.7905C25.8462 26.5819 25.8575 26.3886 25.8689 26.2066C25.812 26.2635 25.7399 26.3355 25.6564 26.4151C25.573 26.4947 25.4819 26.5744 25.3833 26.6502L24.6851 27.2075L24.135 26.5289L26.0169 25.0388H26.9313V31.2568Z" fill="#484FA1"/>
<path d="M56.1922 10.3849L55.9646 11.5261H57.0991V12.292H55.8166L55.4751 14.0512H54.6632L55.0046 12.292H54.0219L53.6918 14.0512H52.8913L53.2138 12.292H52.1666V11.5261H53.3618L53.5894 10.3849H52.4815V9.61901H53.726L54.0675 7.8446H54.8794L54.5493 9.61901H55.5434L55.8849 7.8446H56.6779L56.3478 9.61901H57.3912V10.3849H56.196H56.1922ZM54.1623 11.5261H55.1564L55.3841 10.3849H54.39L54.1623 11.5261Z" fill="#484FA1"/>
<path d="M62.2288 14.0512H57.9679V13.2398L59.5539 11.636C59.8688 11.3175 60.123 11.0446 60.3241 10.8171C60.5252 10.5896 60.6732 10.3773 60.7681 10.1763C60.8629 9.97536 60.9122 9.75925 60.9122 9.52797C60.9122 9.24361 60.8326 9.03129 60.6732 8.88721C60.5138 8.74314 60.2976 8.67489 60.0244 8.67489C59.7512 8.67489 59.5198 8.72797 59.2921 8.83413C59.0645 8.94029 58.8292 9.09574 58.5864 9.2929L57.9869 8.56873C58.2411 8.34882 58.5333 8.15546 58.8558 7.98863C59.1783 7.82181 59.5881 7.74219 60.0889 7.74219C60.4911 7.74219 60.8326 7.81423 61.1209 7.95451C61.4093 8.09859 61.6293 8.29574 61.7887 8.54598C61.9443 8.80001 62.0239 9.08816 62.0239 9.41423C62.0239 9.74029 61.9556 10.0588 61.8228 10.3431C61.69 10.6237 61.4965 10.9081 61.2423 11.1886C60.9881 11.4692 60.6884 11.7725 60.3393 12.0986L59.3566 13.0465V13.0995H62.2326V14.0474L62.2288 14.0512Z" fill="#484FA1"/>
</g>
<defs>
<clipPath id="clip0_5825_49676">
<rect width="132.797" height="160" fill="white"/>
</clipPath>
</defs>
</svg>
