<svg width="569" height="340" viewBox="0 0 569 340" fill="none" xmlns="http://www.w3.org/2000/svg">
<g clip-path="url(#clip0_5825_49741)">
<path d="M219.58 182.17C219.81 179.69 220.68 175.66 223.58 173.72C226.8 171.57 231.11 169.63 235.17 168.46C243.38 166.09 254.38 171.41 250.85 181.46C249.61 184.99 246.03 189.52 243.75 192.56C241.82 195.12 238.7 196.93 235.69 197.84C230.73 199.34 224.88 200.4 221.56 195.83C218.88 192.15 219.18 186.66 219.59 182.18L219.58 182.17Z" fill="white"/>
<path d="M228.6 200.11C225.6 200.11 222.76 199.19 220.73 196.41C217.88 192.5 218.12 186.96 218.57 182.08C218.8 179.61 219.67 175.12 223.01 172.89C226.25 170.72 230.68 168.71 234.88 167.5C240.24 165.95 246.39 167.42 249.84 171.07C252.52 173.91 253.21 177.72 251.78 181.79C250.6 185.15 247.46 189.29 245.17 192.31L244.53 193.16C242.65 195.66 239.52 197.72 235.96 198.79C233.64 199.49 231.06 200.11 228.6 200.11ZM239.22 168.89C237.94 168.89 236.66 169.06 235.44 169.41C231.44 170.57 227.21 172.49 224.13 174.54C221.39 176.38 220.73 180.54 220.57 182.25C220.15 186.77 219.92 191.87 222.35 195.22C225.29 199.26 230.59 198.32 235.38 196.87C238.55 195.91 241.3 194.12 242.93 191.95L243.58 191.1C245.79 188.18 248.82 184.19 249.89 181.13C251.08 177.75 250.56 174.75 248.38 172.44C246.24 170.18 242.74 168.89 239.21 168.89H239.22Z" fill="#484FA1"/>
<path d="M131.3 308.09C133.11 313.51 133.3 314.02 131.38 316.13C127.69 320.2 121.07 326.36 116.21 328.52C92.47 339.07 64.01 341.85 43.41 331.91C13.42 317.43 -1.10999 295.7 1.25 260.91C3.79 223.37 33.54 187.04 72.58 186.51L99.54 188.3C130.13 185.87 154.17 208.1 165.31 235.11C169.24 244.63 172.9 259.77 185.45 251.35C191.09 247.57 194.03 242.11 197.02 236.14C199.66 230.87 204.29 218.48 206.91 215.18C208.71 212.91 230.73 218.23 241.19 221.31C243.12 221.88 244.45 223.65 244.46 225.67C244.53 242.16 234.82 267.02 225.91 280.5C213.4 299.44 196.72 310.44 175.56 312.38C163.56 313.48 155.47 308.34 151.11 305.18" fill="#EE235E"/>
<path d="M73.17 339.07C62.03 339.07 51.64 337 42.97 332.81C11.53 317.63 -2.04999 294.76 0.250011 260.84C2.68001 225.05 31.01 186.07 72.56 185.5L99.53 187.28C133.22 184.65 156.53 211.18 166.23 234.71C166.7 235.85 167.17 237.07 167.64 238.32C169.93 244.31 172.53 251.1 176.98 252.52C179.21 253.23 181.8 252.57 184.88 250.5C190.2 246.93 193.01 241.89 196.12 235.67C197.05 233.81 198.25 231.01 199.52 228.05C201.9 222.5 204.36 216.75 206.13 214.53C209.03 210.87 241.15 220.23 241.47 220.33C243.84 221.03 245.44 223.16 245.45 225.64C245.52 242.25 235.78 267.32 226.73 281.02C213.84 300.54 196.65 311.42 175.64 313.35C163.78 314.43 155.62 309.66 150.51 305.96C150.06 305.64 149.96 305.01 150.29 304.56C150.61 304.11 151.24 304.01 151.69 304.34C156.53 307.84 164.26 312.39 175.46 311.36C195.84 309.49 212.53 298.91 225.07 279.92C233.96 266.46 243.52 241.88 243.46 225.64C243.46 224.05 242.43 222.69 240.91 222.24C227.42 218.26 209.57 214.51 207.65 215.82C206.1 217.79 203.58 223.66 201.36 228.83C200.08 231.82 198.87 234.64 197.91 236.55C194.78 242.81 191.72 248.31 186 252.14C182.43 254.54 179.19 255.3 176.38 254.41C171 252.7 168.22 245.43 165.77 239.02C165.3 237.79 164.84 236.58 164.37 235.46C154.91 212.53 132.27 186.68 99.6 189.27C99.55 189.27 99.5 189.27 99.45 189.27L72.49 187.48C41.11 187.91 5.27001 216.12 2.23001 260.95C-0.00998878 293.95 13.21 316.2 43.83 330.98C62.83 340.16 90.41 338.85 115.79 327.58C120.17 325.63 126.56 319.92 130.63 315.43C131.637 314.317 131.55 311.997 130.37 308.47L131.29 308.07L132.27 307.84C134.09 313.27 134.41 314.25 132.11 316.78C128.86 320.36 121.94 327.04 116.6 329.41C102.21 335.8 87.1 339.04 73.16 339.04L73.17 339.07Z" fill="#484FA1"/>
<path d="M122.76 280.19C126.32 278.73 128.05 272.73 129.33 269.15C132 261.71 130.59 252.58 136.75 252.41C144.81 252.19 143.59 263.48 142.34 268.6C141.36 272.61 146.16 273.61 148.06 272.19C147.31 272.75 146.57 271.23 146.4 270.66C146.11 269.74 146.2 268.5 146.58 267.63C147.56 265.4 149.16 264.54 151.24 263.5C153.47 262.38 155.96 261.65 158.49 261.91C160.75 262.14 162.86 263.27 164 265.29C165.38 267.74 164.89 270.11 164.05 272.63C166.21 268.56 171.92 274.25 170.27 280.14C173.99 282.12 172.94 287.44 172.39 288.93C171.06 292.55 167.96 296.16 164.83 298.39C159.65 302.07 157.6 302.04 151.64 304.39C145.44 306.83 138.8 307.72 132.17 307.74" fill="white"/>
<path d="M132.17 308.75C131.62 308.75 131.17 308.3 131.17 307.75C131.17 307.2 131.62 306.75 132.17 306.75C139.48 306.73 145.73 305.66 151.27 303.47C152.96 302.8 154.34 302.33 155.56 301.9C158.62 300.84 160.64 300.14 164.25 297.58C167.45 295.31 170.28 291.78 171.46 288.59C171.9 287.41 172.89 282.67 169.81 281.03C169.4 280.81 169.19 280.33 169.32 279.88C170.29 276.41 168.32 273.07 166.59 272.38C166.11 272.19 165.48 272.09 164.94 273.11C164.7 273.57 164.14 273.77 163.66 273.56C163.18 273.36 162.94 272.82 163.11 272.32C163.98 269.7 164.27 267.79 163.14 265.78C162.23 264.17 160.5 263.12 158.4 262.9C156.35 262.68 154.1 263.19 151.7 264.39C149.64 265.42 148.33 266.15 147.51 268.03C147.22 268.69 147.16 269.69 147.37 270.36C147.47 270.66 147.66 271.03 147.82 271.23C148.21 271.13 148.63 271.26 148.88 271.6C149.21 272.04 149.12 272.67 148.68 273C147.23 274.08 144.69 274.06 143.03 272.96C141.52 271.96 140.93 270.29 141.4 268.36C142.48 263.95 142.93 257.81 140.65 254.99C139.76 253.88 138.49 253.36 136.81 253.41C133.62 253.5 132.96 256.54 132.06 261.9C131.66 264.28 131.2 266.98 130.31 269.48C130.18 269.85 130.04 270.24 129.9 270.66C128.59 274.44 126.79 279.62 123.18 281.1C122.67 281.31 122.08 281.07 121.88 280.56C121.67 280.05 121.91 279.47 122.42 279.26C125.19 278.12 126.82 273.43 128.01 270.01C128.16 269.59 128.3 269.19 128.43 268.81C129.26 266.48 129.68 263.99 130.09 261.57C130.96 256.41 131.78 251.55 136.76 251.41C139.12 251.37 140.92 252.13 142.21 253.73C145.74 258.1 143.78 267.08 143.35 268.83C143.08 269.93 143.35 270.76 144.14 271.29C144.64 271.62 145.25 271.78 145.83 271.8C145.62 271.39 145.5 271.04 145.47 270.96C145.12 269.83 145.21 268.33 145.69 267.23C146.85 264.6 148.87 263.59 150.82 262.61C153.56 261.24 156.18 260.67 158.62 260.92C161.38 261.21 163.67 262.62 164.9 264.8C165.97 266.7 166.04 268.55 165.74 270.27C166.25 270.22 166.79 270.3 167.35 270.52C170.02 271.59 172.2 275.62 171.44 279.68C174.95 282.19 174.02 287.52 173.36 289.29C172.04 292.88 169 296.69 165.44 299.22C161.6 301.95 159.35 302.73 156.25 303.8C155.05 304.22 153.69 304.68 152.04 305.34C146.26 307.62 139.78 308.74 132.21 308.76L132.17 308.75Z" fill="#484FA1"/>
<path d="M148.73 283.47C148.2 283.47 147.76 283.06 147.73 282.53C147.7 281.98 148.12 281.51 148.67 281.47C153.47 281.19 156.68 280.2 160.9 275.5C161.84 274.46 162.77 272.93 163.38 271.83C163.65 271.35 164.26 271.17 164.74 271.45C165.22 271.72 165.39 272.33 165.12 272.81C164.45 274 163.44 275.66 162.38 276.84C157.72 282.03 154.01 283.17 148.78 283.47C148.76 283.47 148.74 283.47 148.72 283.47H148.73Z" fill="#484FA1"/>
<path d="M155.91 292.86C155.69 292.86 155.48 292.84 155.28 292.8C154.74 292.69 154.38 292.17 154.49 291.63C154.6 291.09 155.11 290.73 155.66 290.84C157.04 291.13 161.07 289.11 162.85 287.71C164.91 286.09 167.14 283.36 169.5 279.58C169.79 279.11 170.41 278.97 170.88 279.26C171.35 279.55 171.49 280.17 171.2 280.64C168.72 284.61 166.33 287.52 164.09 289.28C162.64 290.42 158.48 292.86 155.9 292.86H155.91Z" fill="#484FA1"/>
<path d="M146.8 273.79C146.4 273.79 146.02 273.55 145.87 273.15C145.67 272.64 145.92 272.06 146.44 271.86C148.88 270.91 153.15 268.49 154.53 266.34C154.83 265.87 155.45 265.74 155.91 266.04C156.37 266.34 156.51 266.96 156.21 267.42C154.48 270.12 149.74 272.72 147.16 273.73C147.04 273.78 146.92 273.8 146.8 273.8V273.79Z" fill="#484FA1"/>
<path d="M73.17 339.07C62.03 339.07 51.64 337 42.97 332.81C11.53 317.63 -2.04999 294.76 0.250011 260.84C2.68001 225.05 31.01 186.07 72.56 185.5H72.57C73.12 185.5 73.56 185.94 73.57 186.49C73.57 187.04 73.14 187.5 72.58 187.5C41.12 187.93 5.28001 216.14 2.24001 260.97C1.12057e-05 293.97 13.22 316.22 43.84 331C62.84 340.18 90.42 338.87 115.8 327.6C120.59 325.47 128.46 319.23 131.68 315.01C132.77 313.57 130.76 308.18 129.28 304.25C128.77 302.89 128.29 301.6 127.88 300.4C127.14 298.2 126.49 296.02 125.85 293.92C125.09 291.39 124.3 288.77 123.36 286.09C120.23 277.12 118.84 277.58 115.82 278.58C115.49 278.69 115.15 278.8 114.79 278.91C110.05 280.34 105.37 282.17 100.41 284.11C93.18 286.94 85.7 289.87 78.07 291.41C71.56 292.72 65.46 291.57 60.42 288.08C54.6 284.05 50.53 277.12 49.24 269.08C48.4 263.83 46.21 245.88 53.38 235.53C53.69 235.08 54.32 234.96 54.77 235.28C55.22 235.59 55.34 236.22 55.02 236.67C48.1 246.66 50.63 265.16 51.21 268.77C52.41 276.28 56.18 282.72 61.55 286.45C66.13 289.63 71.7 290.67 77.66 289.46C85.11 287.96 92.51 285.06 99.66 282.26C104.43 280.39 109.37 278.46 114.19 277.01C114.53 276.91 114.86 276.8 115.17 276.7C119.54 275.26 121.81 275.65 125.23 285.45C126.18 288.17 126.97 290.81 127.74 293.36C128.37 295.45 129.02 297.61 129.75 299.78C130.14 300.95 130.62 302.22 131.12 303.57C133.12 308.9 135 313.93 133.24 316.25C129.86 320.68 121.61 327.22 116.58 329.46C102.19 335.85 87.08 339.09 73.14 339.09L73.17 339.07Z" fill="#484FA1"/>
<path d="M172.24 313.52C162.2 313.52 155.12 309.3 150.52 305.97C150.07 305.65 149.97 305.02 150.3 304.57C150.62 304.12 151.25 304.02 151.7 304.35C156.54 307.85 164.27 312.4 175.47 311.37C195.85 309.5 212.54 298.92 225.08 279.93C233.97 266.47 243.53 241.89 243.47 225.65C243.47 224.06 242.44 222.7 240.92 222.25C224.42 217.38 209.23 214.75 207.66 215.83C206.11 217.8 203.59 223.67 201.37 228.84C200.09 231.83 198.88 234.65 197.92 236.56C194.79 242.82 191.73 248.32 186.01 252.15C182.44 254.55 179.2 255.31 176.39 254.42C171.01 252.71 168.23 245.44 165.78 239.03C165.31 237.8 164.85 236.59 164.38 235.47C154.92 212.54 132.28 186.69 99.61 189.28C99.04 189.32 98.58 188.91 98.53 188.36C98.49 187.81 98.9 187.33 99.45 187.28C133.19 184.62 156.51 211.16 166.23 234.7C166.7 235.84 167.17 237.06 167.64 238.31C169.93 244.3 172.53 251.09 176.98 252.51C179.21 253.22 181.8 252.56 184.88 250.49C190.2 246.92 193.01 241.88 196.12 235.66C197.05 233.8 198.25 231 199.52 228.04C201.9 222.49 204.36 216.74 206.13 214.52C209.03 210.86 241.15 220.22 241.47 220.32C243.84 221.02 245.44 223.15 245.45 225.63C245.52 242.24 235.78 267.31 226.73 281.01C213.84 300.53 196.65 311.41 175.64 313.34C174.47 313.45 173.33 313.5 172.23 313.5L172.24 313.52Z" fill="#484FA1"/>
<path d="M134.37 253.38C133.9 253.38 133.48 253.04 133.39 252.56C131.97 244.81 129.48 236.42 125.3 225.35C125.1 224.83 125.37 224.26 125.88 224.06C126.4 223.87 126.97 224.13 127.17 224.64C131.4 235.83 133.92 244.33 135.36 252.2C135.46 252.74 135.1 253.26 134.56 253.36C134.5 253.37 134.44 253.38 134.38 253.38H134.37Z" fill="#484FA1"/>
<path d="M76.6 192.56C76.79 192.73 76.98 192.88 77.18 193.04C80.4 195.54 84.72 196.49 88.74 196.34C92.57 196.19 96.65 196.11 98.35 192.27C99.72 189.19 99.45 185.56 101.14 182.61C102.47 180.28 104.43 178.13 105.9 175.89C112.24 166.24 109.52 153.16 104.35 143.5C96.2 128.26 69.18 139.59 65.68 150.27C64.25 154.64 67.16 159.62 67.08 164.11C64.57 161.23 59.96 159.91 57.1 163.22C54.25 166.52 57.42 172.48 59.84 174.98C61.73 176.93 64.08 177.64 66.63 178.68C68.72 179.54 71.3 179.15 72.42 181.45C73.43 183.51 72.71 185.93 73.49 188.07C74.13 189.81 75.22 191.34 76.61 192.56H76.6Z" fill="white"/>
<path d="M87.87 197.35C83.49 197.35 79.51 196.11 76.56 193.82C76.35 193.65 76.14 193.48 75.93 193.3C74.38 191.93 73.2 190.24 72.53 188.4C72.11 187.26 72.07 186.11 72.03 185C71.99 183.86 71.95 182.79 71.5 181.88C70.97 180.79 69.99 180.54 68.43 180.21C67.71 180.06 66.96 179.9 66.22 179.6C65.82 179.44 65.43 179.28 65.05 179.13C62.88 178.27 60.84 177.47 59.09 175.66C56.76 173.25 52.82 166.6 56.31 162.55C57.6 161.05 59.3 160.26 61.23 160.25H61.25C62.8 160.25 64.43 160.79 65.85 161.73C65.69 160.74 65.44 159.73 65.19 158.68C64.49 155.79 63.77 152.8 64.71 149.94C66.99 142.98 78.1 136.08 88.48 135.18C96.21 134.5 102.15 137.29 105.21 143.02C114.97 161.29 108.83 173.21 106.71 176.43C106.07 177.4 105.34 178.36 104.63 179.29C103.69 180.53 102.71 181.8 101.98 183.09C101.14 184.55 100.83 186.23 100.5 188.01C100.21 189.55 99.91 191.15 99.24 192.66C97.31 197 92.88 197.17 88.97 197.31H88.76C88.46 197.33 88.16 197.34 87.86 197.34L87.87 197.35ZM61.27 162.26H61.26C59.91 162.26 58.76 162.8 57.85 163.86C55.43 166.67 58.47 172.12 60.55 174.27C61.99 175.76 63.76 176.46 65.8 177.26C66.19 177.42 66.59 177.57 67 177.74C67.57 177.97 68.19 178.1 68.86 178.24C70.48 178.58 72.32 178.97 73.31 180.99C73.95 182.28 73.99 183.62 74.04 184.92C74.08 185.92 74.11 186.87 74.42 187.71C74.98 189.23 75.96 190.65 77.26 191.79C77.43 191.94 77.61 192.09 77.79 192.23C80.52 194.35 84.49 195.48 88.69 195.32H88.9C92.55 195.17 96 195.04 97.42 191.84C97.99 190.55 98.26 189.13 98.54 187.63C98.89 185.77 99.25 183.84 100.25 182.08C101.05 180.67 102.07 179.34 103.05 178.06C103.77 177.12 104.45 176.23 105.05 175.32C111.22 165.93 108.27 152.96 103.46 143.95C100.05 137.57 93.54 136.74 88.66 137.16C79.15 137.99 68.64 144.37 66.61 150.55C65.85 152.87 66.47 155.45 67.14 158.19C67.61 160.13 68.1 162.14 68.06 164.09C68.06 164.5 67.79 164.87 67.4 165.01C67.01 165.15 66.58 165.04 66.3 164.73C64.96 163.19 63.02 162.23 61.26 162.23L61.27 162.26Z" fill="#484FA1"/>
<path d="M97.6 163.47C97.06 163.47 96.53 163.4 96.04 163.25C95.51 163.09 95.21 162.53 95.38 162C95.55 161.47 96.1 161.17 96.63 161.34C97.89 161.73 99.72 161.26 100.71 160.31C101.25 159.79 101.44 159.22 101.28 158.62C101.07 157.84 100.79 157.32 100.49 157.15C100.11 156.94 99.39 157.16 98.7 157.38C97.57 157.73 96.02 158.22 94.82 156.99C93.82 155.97 92.68 149.42 92.7 148.13C92.75 143.47 97.63 142.38 100.25 141.79C103.74 141.01 105.67 141.19 108.94 141.94C109.48 142.06 109.82 142.6 109.69 143.14C109.57 143.68 109.03 144.02 108.49 143.89C105.39 143.18 103.74 143.06 100.68 143.74C97 144.57 94.72 145.59 94.69 148.15C94.68 149.58 95.82 154.91 96.3 155.65C96.56 155.91 97.05 155.8 98.1 155.47C99.09 155.16 100.32 154.77 101.45 155.4C102.27 155.85 102.85 156.73 103.21 158.1C103.56 159.42 103.17 160.72 102.1 161.75C100.97 162.84 99.23 163.47 97.61 163.47H97.6Z" fill="#484FA1"/>
<path d="M80.55 150.34C80.26 150.34 79.97 150.21 79.77 149.97C79.42 149.54 79.49 148.91 79.92 148.56C81.66 147.16 83.23 146.12 86.29 146.49C86.84 146.56 87.23 147.06 87.16 147.6C87.09 148.15 86.61 148.54 86.05 148.47C83.83 148.2 82.81 148.79 81.18 150.11C80.99 150.26 80.77 150.33 80.55 150.33V150.34Z" fill="#484FA1"/>
<path d="M87.03 158.18C87.8916 158.18 88.59 157.482 88.59 156.62C88.59 155.758 87.8916 155.06 87.03 155.06C86.1685 155.06 85.47 155.758 85.47 156.62C85.47 157.482 86.1685 158.18 87.03 158.18Z" fill="#484FA1"/>
<path d="M87.03 159.19C85.84 159.19 84.77 158.36 84.52 157.15C84.23 155.76 85.12 154.4 86.5 154.11C87.89 153.82 89.25 154.71 89.54 156.09C89.83 157.47 88.94 158.84 87.56 159.13C87.38 159.17 87.21 159.19 87.03 159.19ZM87.03 156.06C87.03 156.06 86.95 156.06 86.91 156.07C86.76 156.1 86.64 156.19 86.55 156.31C86.47 156.44 86.44 156.59 86.47 156.73C86.53 157.03 86.83 157.23 87.14 157.17C87.29 157.14 87.41 157.05 87.5 156.93C87.58 156.8 87.61 156.65 87.58 156.51C87.55 156.37 87.46 156.24 87.34 156.15C87.25 156.09 87.14 156.06 87.03 156.06Z" fill="#484FA1"/>
<path d="M102.33 154.65C103.269 154.65 104.03 153.889 104.03 152.95C104.03 152.011 103.269 151.25 102.33 151.25C101.391 151.25 100.63 152.011 100.63 152.95C100.63 153.889 101.391 154.65 102.33 154.65Z" fill="#484FA1"/>
<path d="M102.33 155.65C101.08 155.65 99.96 154.78 99.69 153.51C99.38 152.05 100.32 150.62 101.77 150.31C103.22 150 104.66 150.94 104.97 152.39C105.28 153.85 104.34 155.28 102.89 155.59C102.7 155.63 102.52 155.65 102.34 155.65H102.33ZM102.33 152.25C102.33 152.25 102.23 152.25 102.19 152.26C102.01 152.3 101.85 152.41 101.75 152.56C101.65 152.72 101.61 152.9 101.65 153.08C101.73 153.46 102.1 153.69 102.48 153.62C102.86 153.54 103.1 153.17 103.02 152.79C102.95 152.46 102.66 152.24 102.34 152.24L102.33 152.25Z" fill="#484FA1"/>
<path d="M97.55 171.79C96.1 171.79 94.67 171.5 93.41 170.93C91.41 170.02 89.99 168.43 89.41 166.46C89.26 165.93 89.56 165.37 90.09 165.22C90.63 165.06 91.18 165.37 91.33 165.9C91.86 167.7 93.2 168.64 94.24 169.12C96.3 170.06 99.03 170.02 101.19 169.02C101.69 168.79 102.29 169.01 102.52 169.51C102.75 170.01 102.53 170.61 102.03 170.84C100.64 171.48 99.08 171.8 97.55 171.8V171.79Z" fill="#484FA1"/>
<path d="M68.15 174.3C68.05 174.3 67.95 174.29 67.85 174.25C66.13 173.71 64.97 173.07 63.94 172.11C62.86 171.11 62.57 170.12 62.28 169.16C62.22 168.96 62.16 168.76 62.09 168.55C61.92 168.03 62.2 167.46 62.72 167.29C63.24 167.12 63.81 167.4 63.98 167.92C64.06 168.15 64.12 168.37 64.19 168.59C64.45 169.45 64.62 170.02 65.29 170.65C66.1 171.4 67.01 171.89 68.44 172.35C68.97 172.52 69.26 173.08 69.09 173.61C68.96 174.04 68.56 174.31 68.14 174.31L68.15 174.3Z" fill="#484FA1"/>
<path d="M89.05 168.44C88.5 168.44 88.05 167.99 88.05 167.44C88.05 165.33 89.91 164.35 91.76 164.31H91.78C92.32 164.31 92.77 164.74 92.78 165.29C92.79 165.84 92.35 166.3 91.8 166.31C91.51 166.31 90.05 166.4 90.05 167.44C90.05 167.99 89.6 168.44 89.05 168.44Z" fill="#484FA1"/>
<path d="M94.75 138.73C99.51 138.98 110.69 140.69 109.16 132.53C108.71 130.13 107.15 128.67 105.27 127.25C103.92 126.23 103.45 126.88 102.63 125.07C102.11 123.94 102.39 122.42 101.87 121.28C100.55 118.34 97.21 116.02 94.09 115.73C93.13 115.64 83.87 117.33 84.8 119.15C82.8 115.24 73.51 114.6 69.73 114.65C63.11 114.74 57.4 118.09 52.93 122.79C37.56 138.94 44.83 158.28 32.7 175.31C30.19 178.83 24.35 185.89 26.44 190.45C28.69 195.35 35.43 199.11 42.56 193.11C42.09 199.77 47.35 203.21 53.32 201.52C57.98 200.2 58.39 196.69 59.52 196.6C61.26 196.47 61.83 198.25 63.25 199.13C65.76 200.68 69.35 200.08 71.14 199.25C78.13 196 77.96 185.16 71.79 180.44C69.26 178.5 66.34 178.22 63.51 177.15C59.98 175.82 57.08 171.99 56.1 168.38C54.93 164.07 58.62 160.33 63.12 161.43C64.74 161.83 67.9 166.53 67.71 162.73C67.5 158.6 66.06 154.38 67.1 150.28C67.66 148.07 68.99 146.23 70.69 144.79C72.78 143.01 77.23 141.37 79.77 140.53C80.68 140.23 90.87 138.54 94.76 138.74L94.75 138.73Z" fill="#484FA1"/>
<path d="M50.35 202.95C48.18 202.95 46.19 202.29 44.62 201.02C42.87 199.6 41.83 197.53 41.58 195.09C38.06 197.42 34.98 197.43 32.9 196.97C29.75 196.26 26.92 193.93 25.52 190.87C23.4 186.26 27.96 180.06 30.98 175.96C31.31 175.51 31.61 175.1 31.88 174.73C37.34 167.07 38.81 158.73 40.24 150.67C41.95 141.01 43.71 131.03 52.21 122.1C57.39 116.66 63.45 113.73 69.72 113.65C70.94 113.63 80.84 113.61 84.68 117.34C87.04 115.61 93.44 114.66 94.2 114.74C97.74 115.07 101.36 117.65 102.8 120.88C103.12 121.6 103.19 122.36 103.26 123.09C103.31 123.69 103.37 124.25 103.55 124.67C103.91 125.46 104.04 125.51 104.48 125.69C104.82 125.83 105.29 126.02 105.89 126.47C107.67 127.81 109.62 129.49 110.16 132.36C110.57 134.55 110.19 136.31 109.03 137.61C106.37 140.59 100.3 140.14 96.28 139.85C95.71 139.81 95.18 139.77 94.72 139.74C90.96 139.54 80.84 141.24 80.1 141.48C77.68 142.28 73.32 143.88 71.35 145.55C69.66 146.99 68.56 148.67 68.08 150.53C67.43 153.08 67.82 155.7 68.23 158.47C68.43 159.85 68.65 161.27 68.72 162.68C68.75 163.2 68.81 164.58 67.81 165.07C66.75 165.58 65.71 164.67 64.51 163.62C64 163.17 63.22 162.49 62.9 162.41C61.11 161.97 59.35 162.43 58.17 163.63C57.02 164.8 56.63 166.44 57.08 168.13C58.04 171.7 60.9 175.11 63.87 176.23C64.72 176.55 65.61 176.81 66.47 177.06C68.46 177.63 70.51 178.23 72.4 179.67C75.9 182.34 77.83 187.05 77.33 191.66C76.9 195.57 74.8 198.68 71.57 200.18C69.61 201.09 65.63 201.8 62.73 200C62.09 199.61 61.62 199.09 61.21 198.64C60.55 197.92 60.22 197.62 59.73 197.61C59.61 197.74 59.4 198.05 59.24 198.28C58.4 199.5 57 201.54 53.61 202.5C52.51 202.81 51.42 202.96 50.38 202.96L50.35 202.95ZM42.56 192.11C42.71 192.11 42.87 192.15 43.01 192.22C43.37 192.4 43.58 192.78 43.55 193.18C43.36 195.85 44.19 198.09 45.89 199.47C47.69 200.94 50.3 201.34 53.04 200.56C55.73 199.8 56.79 198.26 57.56 197.14C58.08 196.39 58.56 195.68 59.43 195.61C61.01 195.49 61.93 196.48 62.66 197.27C63.02 197.66 63.36 198.03 63.76 198.28C65.85 199.58 69.08 199.1 70.7 198.34C73.28 197.14 74.97 194.61 75.32 191.41C75.75 187.48 74.12 183.48 71.17 181.23C69.58 180.02 67.79 179.5 65.9 178.95C65 178.69 64.07 178.42 63.15 178.07C59.57 176.72 56.27 172.83 55.13 168.62C54.5 166.27 55.09 163.87 56.72 162.21C58.39 160.5 60.88 159.83 63.36 160.44C64.16 160.64 64.96 161.34 65.82 162.09C66.07 162.31 66.42 162.62 66.72 162.85C66.72 162.82 66.72 162.79 66.72 162.76C66.65 161.44 66.46 160.13 66.25 158.74C65.83 155.9 65.39 152.95 66.14 150.01C66.72 147.74 68.03 145.72 70.05 144C72.16 142.2 76.34 140.59 79.47 139.55C80.46 139.22 90.83 137.5 94.82 137.71C95.3 137.74 95.84 137.78 96.42 137.82C99.83 138.07 105.53 138.49 107.53 136.25C108.27 135.43 108.48 134.27 108.19 132.7C107.82 130.74 106.58 129.47 104.68 128.04C104.3 127.75 104.02 127.64 103.73 127.52C102.97 127.21 102.37 126.88 101.73 125.48C101.4 124.76 101.33 123.99 101.26 123.26C101.21 122.66 101.15 122.1 100.97 121.68C99.82 119.11 96.83 116.98 94.01 116.72C92.87 116.64 86.83 117.98 85.79 118.97C85.87 119.39 85.66 119.83 85.26 120.04C84.77 120.29 84.17 120.1 83.91 119.6C82.36 116.58 74.62 115.6 69.74 115.64C62.51 115.74 57 119.95 53.65 123.47C45.57 131.96 43.94 141.21 42.2 151.01C40.74 159.29 39.22 167.85 33.5 175.88C33.23 176.26 32.92 176.68 32.59 177.13C30.02 180.63 25.71 186.49 27.34 190.02C28.49 192.52 30.79 194.43 33.34 195C36.13 195.62 39.09 194.7 41.91 192.33C42.09 192.17 42.32 192.09 42.55 192.09L42.56 192.11Z" fill="#484FA1"/>
<path d="M229.37 271.9C229.37 271.9 245.47 277.83 252.84 279.94C263.32 282.94 271.86 285.2 280.31 287.01C286.04 287.55 292.38 282.98 293.43 277.31C293.43 277.31 301.65 236.53 304.04 221.48C306.43 206.43 314.22 166.45 314.22 166.45C315.27 160.78 310.54 153.56 303.81 150.39L255.56 139.3C249.86 138.95 244.14 141.94 243.09 147.62L218.99 257.45C217.94 263.12 221.89 269.33 229.37 271.9Z" fill="#484FA1"/>
<path d="M281.24 288.06C280.9 288.06 280.56 288.04 280.22 288.01C280.18 288.01 280.14 288.01 280.1 287.99C272.41 286.34 264.17 284.22 252.56 280.9C245.31 278.83 229.5 273.01 229.03 272.84C221.45 270.23 216.82 263.68 218 257.27L242.11 147.41C243.3 140.98 249.83 137.96 255.61 138.31C255.66 138.31 255.72 138.32 255.77 138.33L304.02 149.42C304.09 149.44 304.16 149.46 304.22 149.49C311.39 152.87 316.31 160.56 315.19 166.64C315.11 167.05 307.37 206.78 305.01 221.64C302.65 236.54 294.47 277.1 294.39 277.51C293.33 283.26 287.21 288.06 281.22 288.06H281.24ZM280.46 286.02C285.71 286.47 291.51 282.17 292.44 277.13C292.52 276.71 300.69 236.18 303.05 221.33C305.41 206.44 313.16 166.67 313.24 166.27C314.19 161.15 309.72 154.34 303.48 151.35L255.42 140.3C250.51 140.03 245.06 142.51 244.08 147.81L219.97 257.67C218.97 263.07 223.06 268.68 229.7 270.96C229.7 270.96 229.71 270.96 229.72 270.96C229.88 271.02 245.87 276.9 253.12 278.98C264.66 282.28 272.84 284.39 280.47 286.02H280.46Z" fill="#484FA1"/>
<path d="M227.3 266.28C227.3 266.28 243.22 271.86 250.13 274.01C260.97 277.39 276.1 281 276.1 281C281.7 281.51 287.27 278.29 288.33 272.59C288.33 272.59 298.05 223.67 300.11 210.39C302.18 197.1 309.2 161.26 309.2 161.26C310.25 155.56 306.49 150.09 300.79 149.03C300.79 149.03 288.75 145.28 273.09 140.75C264.42 138.24 256.97 136.86 253.75 135.83C252.41 135.4 251.17 135.38 249.77 135.56C245.12 136.13 240.67 140.54 239.77 145.38L218.9 254.05C217.85 259.75 221.15 263.7 227.31 266.28H227.3Z" fill="#FFD008"/>
<path d="M277.29 282.06C276.87 282.06 276.44 282.04 276.01 282C275.96 282 275.92 281.99 275.87 281.98C275.72 281.94 260.58 278.32 249.84 274.97C242.99 272.84 227.14 267.28 226.98 267.23C226.96 267.23 226.94 267.22 226.93 267.21C218.13 263.52 217.18 257.93 217.92 253.88L238.79 145.2C239.78 139.87 244.55 135.2 249.65 134.58C251.39 134.37 252.7 134.46 254.06 134.89C255.41 135.32 257.55 135.82 260.27 136.46C263.9 137.31 268.43 138.37 273.38 139.81C288.33 144.14 300.13 147.79 301.05 148.08C304.04 148.65 306.64 150.34 308.37 152.86C310.11 155.39 310.76 158.44 310.2 161.46C310.13 161.83 303.16 197.45 301.11 210.57C299.06 223.72 289.42 272.32 289.32 272.81C288.31 278.26 283.26 282.08 277.31 282.08L277.29 282.06ZM276.26 280.02C281.7 280.48 286.45 277.23 287.34 272.42C287.44 271.92 297.08 223.36 299.12 210.25C301.17 197.1 308.15 161.44 308.22 161.08C308.68 158.6 308.14 156.07 306.71 153.98C305.27 151.89 303.11 150.49 300.62 150.02C300.58 150.02 300.54 150 300.5 149.99C300.38 149.95 288.29 146.19 272.82 141.72C267.91 140.3 263.42 139.25 259.81 138.4C257.06 137.75 254.88 137.24 253.45 136.79C252.39 136.45 251.33 136.38 249.89 136.55C245.68 137.07 241.58 141.11 240.75 145.56L219.88 254.24C218.97 259.13 221.52 262.76 227.67 265.34C228.43 265.61 243.76 270.97 250.44 273.05C260.74 276.26 275.14 279.74 276.27 280.01L276.26 280.02Z" fill="#484FA1"/>
<path d="M288.28 154.31C288.6 153.01 287.91 152.43 287.13 152.29C286.35 152.15 285.42 152.74 285.28 153.51C285.14 154.28 285.23 155.36 286.42 155.59C287.19 155.74 288.08 155.07 288.27 154.31H288.28Z" fill="#484FA1"/>
<path d="M286.66 156.61C286.52 156.61 286.38 156.6 286.24 156.57C284.75 156.28 283.99 155.01 284.3 153.32C284.42 152.69 284.83 152.1 285.43 151.71C286.01 151.33 286.69 151.18 287.32 151.3C288.04 151.43 288.64 151.81 288.99 152.36C289.25 152.77 289.51 153.48 289.25 154.54C288.96 155.72 287.8 156.6 286.65 156.6L286.66 156.61ZM286.9 153.27C286.8 153.27 286.66 153.31 286.52 153.4C286.37 153.5 286.28 153.62 286.27 153.7C286.12 154.52 286.45 154.58 286.62 154.62C286.85 154.65 287.24 154.37 287.31 154.08C287.38 153.8 287.38 153.57 287.31 153.46C287.26 153.38 287.13 153.31 286.95 153.28C286.93 153.28 286.91 153.28 286.89 153.28L286.9 153.27Z" fill="#484FA1"/>
<path d="M266.75 149.1C266.75 149.1 271.39 150.67 273.7 151.28C276.02 151.9 279.4 152.87 279.4 152.87C280.11 153.22 280.96 152.93 281.31 152.22C281.66 151.51 281.37 150.66 280.66 150.31C280.66 150.31 275.73 148.73 273.87 148.05C272 147.38 268.01 146.53 268.01 146.53C267.3 146.18 266.45 146.47 266.1 147.18C265.75 147.89 266.04 148.74 266.75 149.09V149.1Z" fill="#484FA1"/>
<path d="M280.03 154.02C279.7 154.02 279.37 153.95 279.05 153.81C278.55 153.66 275.55 152.8 273.44 152.24C271.12 151.62 266.62 150.1 266.43 150.04C266.39 150.03 266.35 150.01 266.31 149.99C265.73 149.7 265.29 149.21 265.08 148.59C264.87 147.98 264.91 147.32 265.2 146.74C265.49 146.16 265.98 145.72 266.59 145.52C267.16 145.33 267.77 145.35 268.32 145.58C268.99 145.72 272.45 146.48 274.2 147.11C276.03 147.77 280.91 149.34 280.96 149.35C281.01 149.37 281.05 149.38 281.1 149.41C282.3 150 282.79 151.46 282.2 152.66C281.78 153.52 280.91 154.01 280.02 154.01L280.03 154.02ZM267.15 148.18C267.77 148.39 271.87 149.76 273.96 150.31C276.28 150.93 279.68 151.91 279.68 151.91C279.74 151.93 279.79 151.95 279.84 151.97C280.05 152.08 280.31 151.99 280.41 151.78C280.51 151.59 280.44 151.35 280.26 151.24C279.56 151.01 275.27 149.63 273.53 149C271.75 148.36 267.84 147.53 267.8 147.52C267.72 147.5 267.64 147.48 267.57 147.44C267.43 147.37 267.31 147.4 267.24 147.42C267.18 147.44 267.06 147.5 267 147.63C266.93 147.77 266.96 147.89 266.98 147.96C267 148.02 267.05 148.11 267.15 148.18Z" fill="#484FA1"/>
<path d="M311.976 184.02C312.225 182.673 311.335 181.379 309.988 181.13C308.641 180.881 307.348 181.771 307.098 183.118L304.283 198.339C304.034 199.686 304.924 200.98 306.27 201.229C307.617 201.478 308.911 200.588 309.16 199.242L311.976 184.02Z" fill="white"/>
<path d="M306.73 202.25C306.52 202.25 306.31 202.23 306.1 202.19C304.21 201.84 302.96 200.02 303.31 198.13L306.13 182.91C306.48 181.02 308.3 179.77 310.19 180.12C312.08 180.47 313.33 182.29 312.98 184.17L310.16 199.39C309.85 201.06 308.38 202.24 306.74 202.24L306.73 202.25ZM306.46 200.23C307.26 200.38 308.04 199.85 308.18 199.04L311 183.82C311.15 183.02 310.62 182.24 309.81 182.1C309 181.96 308.23 182.48 308.08 183.29L305.26 198.51C305.11 199.31 305.64 200.09 306.45 200.24L306.46 200.23Z" fill="#484FA1"/>
<path d="M276.52 230.87L258.31 225.64L239.93 219.8C238.6 219.56 237.71 218.29 237.94 216.95L243.45 186.09C243.69 184.76 244.96 183.87 246.3 184.1L266.69 189.83L290.22 196.48C291.55 196.72 292.44 197.99 292.21 199.33L288.05 222.64C287.94 223.27 287.59 223.83 287.07 224.2L278.4 230.44C277.86 230.83 277.19 230.98 276.54 230.86L276.52 230.87Z" fill="white"/>
<path d="M276.94 231.91C276.74 231.91 276.54 231.89 276.34 231.86C276.31 231.86 276.27 231.85 276.24 231.84L258.03 226.61L239.68 220.78C238.8 220.6 238.04 220.11 237.52 219.37C236.99 218.61 236.79 217.7 236.95 216.79L242.46 185.93C242.62 185.02 243.13 184.23 243.89 183.7C244.65 183.17 245.56 182.97 246.47 183.13L290.49 195.53C292.27 195.84 293.52 197.64 293.19 199.52L289.03 222.84C288.87 223.73 288.38 224.51 287.65 225.04L278.98 231.28C278.39 231.7 277.68 231.93 276.96 231.93L276.94 231.91ZM276.74 229.9C277.11 229.95 277.49 229.86 277.8 229.64L286.47 223.4C286.78 223.18 286.99 222.85 287.05 222.47L291.21 199.15C291.28 198.77 291.19 198.38 290.97 198.06C290.75 197.74 290.41 197.53 290.03 197.46L246.02 185.06C245.33 184.94 244.57 185.47 244.43 186.26L238.92 217.12C238.85 217.5 238.94 217.89 239.16 218.21C239.38 218.53 239.71 218.74 240.1 218.81C240.14 218.81 240.18 218.83 240.23 218.84L258.61 224.68L276.74 229.89V229.9Z" fill="#484FA1"/>
<path d="M262.32 200.5C261.87 200.39 261.32 200.05 261.71 198.5C261.85 197.95 262.15 197.58 262.63 197.37C263.12 197.15 263.58 197.09 264 197.2C264.33 197.28 264.58 197.43 264.75 197.64C264.9 197.83 264.94 198.1 264.85 198.43C264.66 199.18 264.29 199.74 263.76 200.11C263.23 200.47 262.75 200.6 262.32 200.49V200.5Z" fill="#ED135D"/>
<path d="M273.25 215.61C272.31 215.37 271.73 214.88 271.49 214.09L271.38 213.76C271.38 213.76 271.03 214.07 271.01 214.09C270.42 214.58 269.74 214.72 268.91 214.51C268.11 214.31 267.57 213.9 267.27 213.28C266.96 212.65 266.93 211.86 267.17 210.92C267.26 210.55 267.47 209.95 267.79 209.14C268.12 208.3 268.33 207.73 268.41 207.39C268.66 206.41 268.32 206.1 267.99 206.02C267.43 205.88 266.83 206.39 266.13 207.64C265.49 208.77 264.94 210.24 264.5 211.99C264.42 212.32 264.19 212.58 263.81 212.77C263.42 212.97 262.79 212.96 261.93 212.74C261.88 212.73 261.74 212.69 261.78 212.26L261.82 211.85L261.4 212.06C260.9 212.3 260.39 212.35 259.82 212.21C258.11 211.78 257.56 210.45 258.15 208.15C258.4 207.18 258.72 206.12 259.13 204.98C259.62 203.59 259.9 203.08 260.05 202.9C260.28 202.61 260.64 202.36 261.13 202.17C261.61 201.98 262 201.92 262.28 201.99C262.43 202.03 262.54 202.12 262.63 202.26C262.72 202.4 262.73 202.57 262.68 202.79C262.67 202.84 262.58 203.09 262 204.44C261.56 205.46 261.23 206.42 261 207.3C260.71 208.43 260.58 209.21 260.58 209.7C260.58 210.42 260.9 210.65 261.15 210.72C261.48 210.8 261.83 210.63 262.22 210.19C262.3 210.11 262.37 210.03 262.44 209.97L262.48 209.93L262.5 209.87C262.71 209.25 262.88 208.73 262.99 208.35C263.63 205.88 264.08 204.41 264.33 203.96C264.51 203.56 264.9 203.28 265.49 203.1C266.1 202.91 266.61 202.87 266.99 202.97C267.25 203.04 267.47 203.17 267.35 203.66C267.33 203.76 267.24 203.97 266.96 204.45C266.72 204.86 266.37 205.73 266.25 206.02C266.66 205.49 267.79 204.74 268.49 204.36C269.17 203.99 269.76 203.87 270.25 204C270.89 204.16 271.68 204.6 271.21 206.48C271.1 206.92 270.86 207.6 270.51 208.5C270.15 209.41 269.91 210.14 269.77 210.66C269.64 211.18 269.24 212.76 270.25 213.02C270.47 213.08 270.69 213.04 270.91 212.9C271.09 212.79 271.24 212.64 271.37 212.48L271.41 212.42V212.36C271.46 212.1 271.51 211.82 271.58 211.54C271.82 210.57 272.15 209.51 272.56 208.37C273.06 206.98 273.33 206.47 273.48 206.29C273.71 206 274.07 205.75 274.56 205.56C275.04 205.37 275.43 205.31 275.71 205.38C275.86 205.42 275.97 205.51 276.06 205.65C276.15 205.79 276.16 205.96 276.11 206.18C276.1 206.24 275.99 206.53 275.43 207.83C274.99 208.84 274.66 209.81 274.43 210.69C274.14 211.82 274.01 212.6 274.02 213.09C274.02 213.81 274.34 214.04 274.59 214.11C274.92 214.19 275.27 214.02 275.66 213.58C276.04 213.15 276.2 213.17 276.23 213.18C276.28 213.19 276.34 213.22 276.39 213.35C276.44 213.48 276.44 213.62 276.4 213.78C276.34 214 276.2 214.27 275.96 214.59C275.72 214.91 275.35 215.19 274.84 215.44C274.34 215.68 273.83 215.73 273.26 215.59L273.25 215.61Z" fill="#ED135D"/>
<path d="M275.75 203.91C275.3 203.8 274.75 203.46 275.14 201.91C275.28 201.36 275.58 200.99 276.06 200.78C276.55 200.56 277.01 200.5 277.43 200.61C277.76 200.69 278.01 200.84 278.18 201.05C278.34 201.25 278.37 201.51 278.28 201.85C278.09 202.59 277.72 203.16 277.19 203.53C276.67 203.89 276.18 204.02 275.75 203.91Z" fill="#ED135D"/>
<path d="M273.79 217.45C272.74 216.22 270.68 216.47 270.44 216.51C270.1 216.56 269.86 216.88 269.91 217.22C269.96 217.56 270.28 217.8 270.62 217.75C270.8 217.72 271.13 217.71 271.48 217.73C269.01 219.4 265.98 219.93 263.07 219.2C257.49 217.78 254.09 212.09 255.51 206.51L256.07 203.56C256.44 203.45 256.89 203.35 257.43 203.26C257.97 203.17 258.37 203.17 258.59 203.09C258.76 203.03 258.87 202.87 258.93 202.61C258.96 202.49 258.95 202.19 258.57 201.46C258.28 200.91 257.98 200.6 257.67 200.52C257.36 200.44 256.76 200.54 255.57 201.44C255.44 201.54 255.29 201.65 255.15 201.78C254.76 202.1 254.31 202.5 253.88 202.92C253.24 203.53 252.63 204.2 252.2 204.76L252.42 204.02C252.65 203.11 253.07 201.86 253.65 200.31C254.23 198.76 254.79 197.36 255.3 196.15C255.91 194.68 256.07 194.31 256.08 194.25C256.13 194.03 256.12 193.86 256.03 193.72C255.94 193.58 255.84 193.49 255.72 193.46C255.43 193.39 255.01 193.44 254.48 193.62C253.95 193.8 253.56 194.03 253.34 194.31C252.93 194.81 252.17 196.77 251.06 200.12C249.95 203.5 249.2 205.95 248.83 207.41C248.65 208.12 248.55 208.66 248.54 209C248.53 209.36 248.65 209.39 248.7 209.4C249.56 209.62 250.19 209.63 250.58 209.43C250.96 209.24 251.19 208.98 251.27 208.65C251.39 208.17 251.54 207.73 251.72 207.34C251.9 206.95 252.05 206.66 252.19 206.46C252.19 206.46 252.2 206.44 252.21 206.43C252.57 205.9 253 205.42 253.49 205L253.3 205.99C251.6 212.78 255.73 219.7 262.52 221.42C266.18 222.35 270.01 221.62 273.07 219.42C273.04 219.62 272.99 219.83 272.92 220.07C272.82 220.4 273 220.75 273.33 220.85C273.34 220.85 273.35 220.85 273.36 220.85C273.68 220.93 274.01 220.75 274.11 220.43C274.51 219.16 274.4 218.16 273.8 217.44L273.79 217.45Z" fill="#ED135D"/>
<path d="M212.11 213.67C210.48 203.96 206.69 190.88 216.59 184.35C219.85 182.2 230.91 176.28 233.89 179.66C238.11 184.46 227.65 191.49 224.31 194.08C232.2 196.4 231.79 205.57 227.91 210.16C226.98 211.26 225.86 212.18 225.39 215.92" fill="white"/>
<path d="M225.38 216.93C225.38 216.93 225.3 216.93 225.25 216.93C224.7 216.86 224.31 216.36 224.38 215.81C224.84 212.14 225.96 210.87 226.86 209.84L227.13 209.52C229.28 206.98 230.14 203.07 229.23 200.01C228.71 198.29 227.39 196.03 224.02 195.04C223.66 194.93 223.39 194.64 223.32 194.27C223.25 193.9 223.39 193.52 223.69 193.29C224.01 193.04 224.39 192.76 224.81 192.44C227.63 190.32 233.5 185.92 233.86 182.48C233.94 181.68 233.71 180.97 233.14 180.32C231.04 177.93 221.75 182.15 217.14 185.18C208.88 190.63 210.8 201.01 212.5 210.17C212.71 211.31 212.92 212.42 213.1 213.5C213.19 214.04 212.82 214.56 212.28 214.65C211.73 214.75 211.22 214.37 211.13 213.83C210.95 212.77 210.75 211.67 210.54 210.54C208.82 201.25 206.68 189.69 216.05 183.51C216.19 183.42 230.52 174.31 234.65 179C235.59 180.07 236 181.31 235.86 182.68C235.43 186.86 229.89 191.14 226.35 193.79C228.73 194.96 230.41 196.91 231.16 199.43C232.28 203.15 231.28 207.72 228.68 210.8L228.38 211.14C227.59 212.04 226.77 212.97 226.38 216.04C226.32 216.54 225.89 216.92 225.39 216.92L225.38 216.93Z" fill="#484FA1"/>
<path d="M567.13 187.64C568.99 226.21 537.54 260.8 498.97 262.67C460.4 264.53 429.33 232.96 427.47 194.39C425.61 155.82 455.36 123.05 493.93 121.18C532.5 119.32 565.27 149.07 567.14 187.64H567.13Z" fill="#6CC6E5"/>
<path d="M495.8 263.74C459.13 263.74 428.34 233.32 426.46 194.44C425.55 175.52 432.05 157.38 444.79 143.35C457.53 129.32 474.95 121.1 493.87 120.18C512.79 119.27 530.93 125.77 544.96 138.51C558.98 151.24 567.21 168.67 568.13 187.59C569.03 206.23 562.04 225.18 548.95 239.59C535.87 253.99 517.66 262.76 499.02 263.67C497.95 263.72 496.87 263.75 495.81 263.75L495.8 263.74ZM497.38 122.1C496.25 122.1 495.11 122.13 493.97 122.18C475.58 123.07 458.65 131.06 446.27 144.69C433.9 158.32 427.57 175.95 428.46 194.34C430.29 232.15 460.19 261.74 495.8 261.74C496.84 261.74 497.87 261.72 498.92 261.66C517.04 260.78 534.74 252.25 547.47 238.24C560.2 224.23 567.01 205.8 566.13 187.68C565.24 169.29 557.25 152.36 543.62 139.98C530.83 128.37 514.53 122.09 497.38 122.09V122.1Z" fill="#484FA1"/>
<path d="M491.69 263.38C484.25 263.38 476.74 261.55 469.48 257.87C452.77 249.42 441.53 236.89 436.96 221.63C431.8 204.4 435.22 183.98 446.6 164.14C468.34 126.22 514.86 135.58 515.33 135.68C515.42 135.7 515.51 135.73 515.59 135.77C540.87 149.16 549.44 167.55 547.2 203.63C545.86 225.29 532.92 246.74 515.01 257C507.6 261.24 499.69 263.37 491.69 263.37V263.38ZM502.14 136.59C487.08 136.59 462.35 140.7 448.33 165.14C437.23 184.5 433.87 204.36 438.87 221.06C443.28 235.78 454.17 247.89 470.37 256.09C488.9 265.47 504.33 260.82 514 255.28C531.35 245.34 543.89 224.54 545.19 203.52C547.67 163.46 535.4 148.57 514.77 137.62C513.91 137.46 509.04 136.59 502.13 136.59H502.14Z" fill="#484FA1"/>
<path d="M478.59 259.77C475.52 259.77 472.5 259.15 469.54 257.9C462.89 255.09 458.06 250.08 455.18 243C448.9 227.52 453.38 206.12 459.68 191.25C459.69 191.22 459.71 191.19 459.72 191.16C461.1 188.62 493.86 129.1 515.14 136.08C519.16 137.4 522.33 140.77 524.57 146.1C532.84 165.83 526.43 208.3 517.86 225.56C516.13 229.04 509.74 241.08 499.95 250.03C492.88 256.49 485.63 259.76 478.59 259.76V259.77ZM461.5 192.09C452.16 214.18 453.07 232.49 457.04 242.26C459.71 248.83 464.17 253.48 470.32 256.07C473.09 257.24 475.83 257.77 478.52 257.77C494.97 257.77 509.43 238.07 516.07 224.69C527.82 201.02 528.5 160.68 522.73 146.89C520.73 142.12 517.97 139.13 514.52 138C506.49 135.36 494.81 143.81 480.74 162.41C470.22 176.32 462 191.19 461.5 192.1V192.09Z" fill="#484FA1"/>
<path d="M469.93 257.98C469.87 257.98 469.8 257.98 469.74 257.96C469.2 257.86 468.84 257.33 468.95 256.79C481.56 191.17 512.23 139.06 512.54 138.54C512.78 138.15 518.25 129.5 523.52 125.98C523.98 125.67 524.6 125.8 524.91 126.26C525.22 126.72 525.09 127.34 524.63 127.65C519.72 130.93 514.3 139.5 514.25 139.59C513.96 140.08 483.46 191.91 470.92 257.17C470.83 257.65 470.41 257.98 469.94 257.98H469.93Z" fill="#484FA1"/>
<path d="M546.33 241.86C546.13 241.86 545.93 241.8 545.75 241.68C545.3 241.36 545.19 240.74 545.51 240.29C559.66 220.24 563.9 197.04 557.16 176.63C550.99 157.96 536.32 143.97 515.86 137.23C466.94 121.12 437.12 157.69 436.83 158.06C436.49 158.49 435.86 158.56 435.43 158.22C435 157.88 434.93 157.25 435.27 156.82C435.57 156.44 466.24 118.79 516.49 135.34C537.57 142.28 552.69 156.73 559.07 176.01C566.01 197.02 561.67 220.87 547.16 241.45C546.96 241.73 546.66 241.87 546.34 241.87L546.33 241.86Z" fill="#484FA1"/>
<path d="M543.19 139.33C543.03 139.33 542.88 139.29 542.73 139.22C528.23 131.66 515.49 137.23 515.36 137.29C514.92 137.49 514.39 137.34 514.12 136.94C503.86 121.83 492.34 122.52 492.22 122.52C491.67 122.56 491.19 122.15 491.15 121.6C491.11 121.05 491.51 120.57 492.06 120.52C492.56 120.48 504.48 119.69 515.31 135.14C518.41 133.97 530.18 130.42 543.64 137.43C544.13 137.68 544.32 138.29 544.06 138.78C543.88 139.12 543.53 139.32 543.17 139.32L543.19 139.33Z" fill="#484FA1"/>
<path d="M521.56 171.24C515.8 171.24 509.19 170.12 501.63 167.36C489.69 162.99 481.59 156.34 477.55 147.59C472.02 135.61 476.16 124.16 476.34 123.68C476.53 123.16 477.11 122.9 477.63 123.09C478.15 123.28 478.41 123.86 478.22 124.38C478.18 124.49 474.2 135.57 479.38 146.78C483.19 155.02 490.91 161.31 502.32 165.48C539.87 179.21 552.72 151.54 553.25 150.36C553.47 149.86 554.07 149.63 554.57 149.85C555.07 150.07 555.3 150.66 555.08 151.17C554.97 151.42 545.83 171.24 521.56 171.24Z" fill="#484FA1"/>
<path d="M518.36 202.87C509.67 202.87 499.59 201.18 488.19 196.64C474.33 191.11 456.71 180.26 451.45 159.92C448.3 147.73 451.08 138.06 451.2 137.65C451.36 137.12 451.91 136.82 452.44 136.98C452.97 137.14 453.27 137.69 453.12 138.22C453.09 138.31 450.36 147.84 453.41 159.51C457.43 174.92 469.71 187.12 488.93 194.78C508.71 202.67 527.54 202.9 543.4 195.44C556.43 189.31 563.48 179.96 564.92 177.17C565.17 176.68 565.77 176.49 566.27 176.74C566.76 176.99 566.95 177.6 566.7 178.09C565.07 181.25 557.86 190.86 544.26 197.25C537.92 200.23 529.24 202.87 518.38 202.87H518.36Z" fill="#484FA1"/>
<path d="M513.68 235.56C502.93 235.56 490.43 233.4 475.98 228C460.85 222.35 441.24 211.09 433.71 189.53C429.2 176.6 431.18 166.24 431.27 165.8C431.38 165.26 431.91 164.91 432.44 165.01C432.98 165.12 433.33 165.64 433.23 166.18C433.21 166.28 431.27 176.52 435.63 188.96C439.66 200.42 450.05 216.18 476.67 226.12C526.7 244.8 552.68 223.96 563.72 209.88C564.06 209.45 564.69 209.37 565.12 209.71C565.55 210.05 565.63 210.68 565.29 211.11C557.12 221.53 541.04 235.55 513.67 235.55L513.68 235.56Z" fill="#484FA1"/>
<path d="M502.4 114.06L481.7 88.21L463.03 112.33L463.56 144.16L503.04 153.28L502.4 114.06Z" fill="white"/>
<path d="M503.04 154.28C502.96 154.28 502.89 154.28 502.82 154.25L463.33 145.14C462.88 145.04 462.56 144.64 462.55 144.18L462.03 112.35C462.03 112.12 462.1 111.9 462.24 111.72L480.91 87.6C481.1 87.36 481.39 87.22 481.69 87.21C482.03 87.22 482.29 87.34 482.48 87.59L503.18 113.44C503.32 113.61 503.4 113.83 503.4 114.05L504.04 153.27C504.04 153.58 503.91 153.87 503.67 154.06C503.49 154.21 503.27 154.28 503.04 154.28ZM464.54 143.36L502.02 152.01L501.4 114.41L481.71 89.82L464.04 112.66L464.54 143.36Z" fill="#484FA1"/>
<path d="M527.47 109.85L528.01 143.05L503.04 153.28L502.4 114.06L527.47 109.85Z" fill="#EE235E"/>
<path d="M503.04 154.28C502.85 154.28 502.66 154.22 502.49 154.11C502.21 153.93 502.05 153.62 502.04 153.29L501.4 114.07C501.4 113.57 501.75 113.15 502.23 113.07L527.3 108.86C527.59 108.81 527.88 108.89 528.11 109.08C528.33 109.27 528.47 109.54 528.47 109.83L529.01 143.03C529.01 143.44 528.77 143.82 528.39 143.97L503.42 154.2C503.3 154.25 503.17 154.27 503.04 154.27V154.28ZM503.41 114.9L504.01 151.8L526.99 142.39L526.48 111.04L503.41 114.91V114.9Z" fill="#484FA1"/>
<path d="M507.95 122.57L537.67 113.86L512.7 82.48L481.7 88.22L507.95 122.57Z" fill="#EE235E"/>
<path d="M507.95 123.57C507.64 123.57 507.35 123.43 507.16 123.18L480.91 88.8199C480.7 88.5399 480.65 88.1799 480.77 87.8499C480.89 87.5199 481.18 87.2899 481.52 87.2299L512.52 81.4999C512.89 81.4399 513.25 81.5699 513.48 81.8599L538.45 113.24C538.66 113.5 538.72 113.85 538.62 114.16C538.52 114.47 538.27 114.72 537.95 114.82L508.23 123.53C508.14 123.56 508.04 123.57 507.95 123.57ZM483.48 88.8999L508.33 121.42L535.96 113.32L512.29 83.5699L483.48 88.8999Z" fill="#484FA1"/>
<path d="M463.03 112.33L458.57 117.55L463.01 116.84L463.03 112.33Z" fill="#484FA1"/>
<path d="M458.57 118.55C458.21 118.55 457.88 118.36 457.7 118.04C457.49 117.67 457.54 117.22 457.81 116.9L462.27 111.68C462.54 111.36 462.99 111.25 463.38 111.39C463.77 111.54 464.03 111.91 464.03 112.33L464.01 116.84C464.01 117.33 463.65 117.75 463.17 117.82L458.73 118.53C458.68 118.53 458.62 118.54 458.57 118.54V118.55ZM462.02 115.05L461.1 116.13L462.02 115.98V115.05Z" fill="#484FA1"/>
<path d="M520.49 100.74L513.08 102.28L512.77 83.4501L520.18 81.9102L520.49 100.74Z" fill="#EE235E"/>
<path d="M513.08 103.28C512.85 103.28 512.63 103.2 512.46 103.06C512.23 102.87 512.09 102.59 512.08 102.3L511.77 83.4701C511.77 82.9901 512.1 82.5701 512.57 82.4701L519.98 80.9401C520.27 80.8801 520.58 80.9501 520.81 81.1401C521.04 81.3301 521.18 81.6101 521.19 81.9001L521.5 100.73C521.5 101.21 521.17 101.63 520.7 101.73L513.29 103.26C513.22 103.27 513.16 103.28 513.09 103.28H513.08ZM513.79 84.2601L514.07 101.05L519.49 99.9301L519.21 83.1401L513.79 84.2601Z" fill="#484FA1"/>
<path d="M512.77 83.4598L513.08 102.28L505.99 93.7798L505.77 80.5798L512.77 83.4598Z" fill="white"/>
<path d="M513.08 103.28C512.79 103.28 512.51 103.15 512.31 102.92L505.22 94.4099C505.07 94.2299 504.99 94.0099 504.99 93.7899L504.77 80.5899C504.77 80.2499 504.93 79.9399 505.21 79.7499C505.49 79.5599 505.84 79.5199 506.15 79.6499L513.15 82.5299C513.52 82.6799 513.76 83.0399 513.77 83.4399L514.08 102.26C514.08 102.68 513.83 103.07 513.43 103.21C513.32 103.25 513.2 103.27 513.08 103.27V103.28ZM506.98 93.4099L512.03 99.4699L511.78 84.1399L506.79 82.0899L506.98 93.4199V93.4099Z" fill="#484FA1"/>
<path d="M505.77 80.58L513.25 79.02L520.18 81.91L512.77 83.46L505.77 80.58Z" fill="#484FA1"/>
<path d="M512.77 84.46C512.64 84.46 512.51 84.43 512.39 84.38L505.39 81.5C504.98 81.33 504.73 80.92 504.77 80.48C504.81 80.04 505.13 79.68 505.56 79.59L513.03 78.03C513.23 77.99 513.43 78.01 513.62 78.09L520.56 80.98C520.97 81.15 521.21 81.56 521.17 82C521.13 82.44 520.81 82.79 520.38 82.88L512.97 84.43C512.9 84.44 512.83 84.45 512.77 84.45V84.46ZM509.16 80.89L512.87 82.42L516.82 81.6L513.15 80.07L509.17 80.9L509.16 80.89Z" fill="#484FA1"/>
<path d="M492.21 134.77L473.59 131.4L473.33 115.56L492.11 118.61L492.21 134.77Z" fill="#6CC6E5"/>
<path d="M492.21 135.77C492.15 135.77 492.09 135.77 492.03 135.75L473.41 132.37C472.94 132.28 472.6 131.88 472.59 131.4L472.33 115.56C472.33 115.26 472.45 114.98 472.68 114.79C472.9 114.6 473.21 114.51 473.49 114.56L492.27 117.62C492.75 117.7 493.11 118.11 493.11 118.6L493.21 134.76C493.21 135.06 493.08 135.34 492.85 135.53C492.67 135.68 492.44 135.76 492.21 135.76V135.77ZM474.58 130.56L491.21 133.57L491.13 119.46L474.36 116.73L474.59 130.55L474.58 130.56Z" fill="#484FA1"/>
<path d="M491.79 127.54C491.74 127.54 491.68 127.54 491.63 127.53L474.05 124.62C473.51 124.53 473.14 124.02 473.23 123.47C473.32 122.92 473.83 122.55 474.38 122.65L491.96 125.56C492.5 125.65 492.87 126.16 492.78 126.71C492.7 127.2 492.28 127.55 491.79 127.55V127.54Z" fill="#484FA1"/>
<path d="M482.89 133.49C482.35 133.49 481.9 133.05 481.89 132.51L481.65 117.57C481.65 117.02 482.08 116.56 482.63 116.55H482.65C483.19 116.55 483.64 116.99 483.65 117.53L483.89 132.47C483.89 133.02 483.46 133.48 482.91 133.49H482.89Z" fill="#484FA1"/>
<path d="M508.02 75.8201C507.67 75.8201 507.34 75.6401 507.15 75.3201C507.15 75.3201 507.07 75.1701 506.91 74.9201C506.62 74.4501 506.77 73.8301 507.24 73.5401C507.71 73.2501 508.32 73.4001 508.62 73.8701C508.8 74.1601 508.89 74.3201 508.89 74.3201C509.16 74.8001 509 75.4101 508.52 75.6801C508.36 75.7701 508.19 75.8101 508.02 75.8101V75.8201Z" fill="#484FA1"/>
<path d="M281.29 128.31C281.2 128.31 281.1 128.3 281.01 128.27C280.48 128.11 280.18 127.56 280.33 127.03L280.62 126.06C280.78 125.53 281.33 125.23 281.87 125.39C282.4 125.55 282.7 126.11 282.54 126.64L282.26 127.59C282.13 128.03 281.73 128.31 281.3 128.31H281.29ZM284.41 118.78C284.3 118.78 284.18 118.76 284.07 118.72C283.55 118.53 283.28 117.96 283.47 117.44L283.81 116.49C284 115.97 284.58 115.71 285.09 115.9C285.61 116.09 285.87 116.66 285.68 117.18L285.34 118.12C285.19 118.53 284.81 118.78 284.4 118.78H284.41ZM288.08 109.45C287.95 109.45 287.81 109.42 287.69 109.37C287.18 109.15 286.95 108.57 287.16 108.06L287.56 107.14C287.78 106.63 288.37 106.4 288.88 106.62C289.39 106.84 289.62 107.43 289.4 107.94L289.01 108.86C288.85 109.24 288.48 109.47 288.09 109.47L288.08 109.45ZM292.28 100.36C292.13 100.36 291.98 100.33 291.84 100.26C291.34 100.02 291.14 99.42 291.39 98.92C291.54 98.62 291.69 98.32 291.84 98.01C292.09 97.52 292.69 97.32 293.18 97.57C293.67 97.82 293.87 98.42 293.62 98.91C293.47 99.21 293.32 99.5 293.18 99.8C293.01 100.15 292.65 100.36 292.28 100.36ZM297.01 91.53C296.84 91.53 296.67 91.49 296.51 91.4C296.03 91.12 295.87 90.51 296.15 90.03L296.65 89.16C296.93 88.68 297.54 88.52 298.02 88.8C298.5 89.08 298.66 89.69 298.38 90.17L297.88 91.03C297.7 91.35 297.36 91.53 297.01 91.53ZM302.29 83.02C302.1 83.02 301.9 82.97 301.73 82.85C301.27 82.54 301.15 81.92 301.46 81.46L302.02 80.63C302.33 80.17 302.95 80.05 303.41 80.36C303.87 80.67 303.99 81.29 303.68 81.75L303.12 82.58C302.93 82.87 302.61 83.02 302.29 83.02ZM308.13 74.88C307.92 74.88 307.7 74.81 307.52 74.67C307.08 74.33 307 73.71 307.34 73.27L307.96 72.47C308.3 72.04 308.92 71.96 309.36 72.3C309.79 72.64 309.87 73.27 309.53 73.7L308.92 74.49C308.72 74.75 308.43 74.88 308.13 74.88ZM502.45 68.14C502.16 68.14 501.88 68.02 501.68 67.78C501.47 67.53 501.26 67.28 501.05 67.02C500.69 66.6 500.75 65.97 501.17 65.61C501.59 65.25 502.22 65.31 502.58 65.73C502.8 65.99 503.02 66.25 503.23 66.51C503.58 66.94 503.52 67.57 503.1 67.92C502.91 68.07 502.69 68.15 502.46 68.15L502.45 68.14ZM314.53 67.19C314.29 67.19 314.05 67.11 313.86 66.93C313.45 66.56 313.42 65.93 313.79 65.52L314.46 64.77C314.83 64.36 315.47 64.33 315.87 64.7C316.28 65.07 316.31 65.7 315.94 66.11L315.27 66.85C315.07 67.07 314.8 67.18 314.53 67.18V67.19ZM495.68 60.77C495.43 60.77 495.17 60.67 494.98 60.48L494.27 59.79C493.87 59.41 493.86 58.77 494.25 58.38C494.63 57.98 495.27 57.97 495.66 58.36L496.38 59.07C496.77 59.46 496.78 60.09 496.39 60.48C496.19 60.68 495.94 60.78 495.68 60.78V60.77ZM321.49 60C321.23 60 320.96 59.9 320.77 59.69C320.39 59.29 320.4 58.66 320.81 58.28L321.54 57.59C321.94 57.21 322.58 57.23 322.95 57.64C323.33 58.04 323.31 58.68 322.9 59.05L322.18 59.73C321.99 59.91 321.74 60.01 321.49 60.01V60ZM488.22 54.09C488 54.09 487.78 54.02 487.59 53.87L486.82 53.25C486.39 52.9 486.32 52.27 486.67 51.84C487.02 51.41 487.65 51.34 488.08 51.69L488.86 52.32C489.29 52.67 489.35 53.3 489 53.73C488.8 53.97 488.51 54.1 488.22 54.1V54.09ZM329.01 53.4C328.72 53.4 328.43 53.27 328.23 53.03C327.88 52.6 327.95 51.97 328.38 51.62L329.17 50.99C329.61 50.65 330.23 50.72 330.57 51.15C330.91 51.58 330.84 52.21 330.41 52.55L329.63 53.17C329.45 53.32 329.22 53.39 329 53.39L329.01 53.4ZM480.18 48.13C479.99 48.13 479.79 48.07 479.62 47.96C479.35 47.78 479.07 47.59 478.8 47.41C478.34 47.11 478.21 46.49 478.51 46.03C478.81 45.57 479.44 45.44 479.89 45.74C480.17 45.93 480.45 46.11 480.73 46.3C481.19 46.61 481.31 47.23 481 47.69C480.81 47.98 480.49 48.13 480.17 48.13H480.18ZM337.06 47.46C336.74 47.46 336.42 47.31 336.23 47.02C335.92 46.56 336.04 45.94 336.5 45.63L337.34 45.07C337.8 44.76 338.42 44.89 338.73 45.35C339.03 45.81 338.91 46.43 338.45 46.74L337.62 47.29C337.45 47.41 337.25 47.46 337.06 47.46ZM471.65 42.91C471.49 42.91 471.32 42.87 471.17 42.79L470.3 42.31C469.81 42.05 469.63 41.44 469.9 40.95C470.16 40.46 470.77 40.29 471.26 40.55L472.15 41.03C472.63 41.3 472.81 41.91 472.54 42.39C472.36 42.72 472.02 42.91 471.66 42.91H471.65ZM345.59 42.25C345.24 42.25 344.89 42.06 344.71 41.73C344.44 41.25 344.62 40.64 345.1 40.37L345.98 39.89C346.47 39.63 347.07 39.81 347.34 40.29C347.6 40.78 347.42 41.38 346.94 41.65L346.07 42.13C345.92 42.21 345.75 42.25 345.59 42.25ZM462.69 38.45C462.56 38.45 462.42 38.42 462.29 38.36L461.38 37.96C460.87 37.74 460.64 37.15 460.86 36.64C461.08 36.13 461.67 35.9 462.18 36.12L463.1 36.53C463.6 36.75 463.83 37.34 463.61 37.85C463.44 38.22 463.08 38.44 462.69 38.44V38.45ZM354.56 37.81C354.18 37.81 353.81 37.59 353.64 37.21C353.42 36.71 353.64 36.11 354.15 35.89C354.46 35.75 354.77 35.62 355.08 35.49C355.58 35.27 356.17 35.51 356.39 36.01C356.61 36.52 356.37 37.1 355.87 37.32C355.57 37.45 355.26 37.58 354.96 37.71C354.83 37.77 354.69 37.8 354.56 37.8V37.81ZM453.38 34.78C453.27 34.78 453.16 34.76 453.05 34.72L452.11 34.4C451.59 34.22 451.31 33.65 451.48 33.13C451.66 32.61 452.23 32.33 452.75 32.5L453.71 32.83C454.23 33.01 454.51 33.58 454.33 34.1C454.19 34.51 453.8 34.77 453.39 34.77L453.38 34.78ZM363.87 34.19C363.45 34.19 363.07 33.93 362.92 33.51C362.74 32.99 363.02 32.42 363.54 32.24L364.5 31.92C365.03 31.75 365.59 32.03 365.76 32.55C365.93 33.07 365.65 33.64 365.13 33.81L364.19 34.13C364.08 34.17 363.97 34.18 363.87 34.18V34.19ZM443.81 31.87C443.73 31.87 443.64 31.86 443.56 31.84L442.6 31.59C442.06 31.46 441.74 30.91 441.87 30.38C442 29.84 442.54 29.51 443.08 29.65C443.41 29.73 443.73 29.82 444.06 29.9C444.6 30.04 444.92 30.59 444.78 31.12C444.66 31.57 444.26 31.87 443.81 31.87ZM373.46 31.37C373.01 31.37 372.6 31.07 372.49 30.61C372.36 30.07 372.68 29.53 373.22 29.4C373.55 29.32 373.87 29.24 374.2 29.16C374.74 29.03 375.28 29.36 375.41 29.9C375.54 30.44 375.21 30.98 374.67 31.11L373.71 31.35C373.63 31.37 373.55 31.38 373.47 31.38L373.46 31.37ZM434.04 29.73C433.98 29.73 433.92 29.73 433.86 29.71L432.88 29.54C432.34 29.45 431.97 28.93 432.07 28.38C432.16 27.84 432.68 27.47 433.23 27.57L434.22 27.74C434.76 27.84 435.13 28.36 435.03 28.9C434.94 29.38 434.52 29.72 434.05 29.72L434.04 29.73ZM383.24 29.35C382.76 29.35 382.34 29.01 382.25 28.52C382.16 27.98 382.53 27.46 383.07 27.37C383.4 27.31 383.74 27.26 384.07 27.21C384.63 27.13 385.13 27.5 385.21 28.04C385.29 28.59 384.92 29.1 384.38 29.18C384.05 29.23 383.73 29.28 383.4 29.34C383.34 29.34 383.29 29.35 383.23 29.35H383.24ZM424.14 28.31C424.14 28.31 424.07 28.31 424.03 28.31L423.04 28.21C422.49 28.15 422.09 27.66 422.15 27.11C422.21 26.56 422.69 26.17 423.25 26.22L424.25 26.32C424.8 26.38 425.2 26.87 425.14 27.42C425.09 27.93 424.65 28.31 424.15 28.31H424.14ZM393.16 28.09C392.65 28.09 392.21 27.7 392.16 27.18C392.11 26.63 392.52 26.14 393.07 26.1L394.07 26.01C394.63 25.97 395.1 26.38 395.15 26.93C395.19 27.48 394.78 27.96 394.23 28.01L393.24 28.09C393.24 28.09 393.18 28.09 393.15 28.09H393.16ZM414.16 27.58C414.16 27.58 414.13 27.58 414.12 27.58L413.13 27.54C412.58 27.52 412.15 27.06 412.17 26.51C412.19 25.96 412.68 25.52 413.2 25.55L414.21 25.59C414.76 25.61 415.19 26.08 415.17 26.63C415.15 27.17 414.71 27.59 414.17 27.59L414.16 27.58ZM403.23 27.52L403.15 26.52L403.12 25.52L404.12 25.49C404.66 25.49 405.13 25.91 405.14 26.47C405.15 27.03 404.72 27.48 404.16 27.49L403.21 27.51L403.23 27.52Z" fill="#484FA1"/>
<path d="M278.94 137.57C278.88 137.57 278.82 137.57 278.76 137.55C278.22 137.45 277.86 136.93 277.96 136.38C277.96 136.38 277.99 136.21 278.06 135.87C278.17 135.33 278.7 134.98 279.24 135.09C279.78 135.2 280.13 135.73 280.02 136.27L279.93 136.74C279.84 137.22 279.42 137.56 278.95 137.56L278.94 137.57Z" fill="#484FA1"/>
<path d="M294.03 115.77L283.24 122.12L279.07 110.35L294.03 115.77Z" fill="#484FA1"/>
<path d="M283.23 122.49C283.23 122.49 283.14 122.49 283.1 122.47C283 122.43 282.91 122.35 282.88 122.24L278.72 110.47C278.67 110.33 278.71 110.18 278.81 110.08C278.91 109.98 279.06 109.95 279.2 109.99L294.16 115.41C294.3 115.46 294.39 115.58 294.41 115.73C294.42 115.87 294.35 116.01 294.23 116.09L283.43 122.44C283.37 122.47 283.31 122.49 283.24 122.49H283.23ZM279.69 110.97L283.44 121.56L293.16 115.85L279.7 110.97H279.69Z" fill="#484FA1"/>
<path d="M363.28 42.2299L351.38 38.3299L357.45 27.4299L363.28 42.2299Z" fill="#484FA1"/>
<path d="M363.28 42.6099C363.28 42.6099 363.2 42.6099 363.16 42.5899L351.26 38.6899C351.15 38.6499 351.07 38.5699 351.03 38.4699C350.99 38.3699 351 38.2499 351.05 38.1499L357.12 27.2399C357.19 27.1099 357.34 27.0299 357.47 27.0499C357.62 27.0499 357.74 27.1499 357.79 27.2899L363.62 42.0899C363.67 42.2299 363.64 42.3799 363.54 42.4799C363.47 42.5599 363.37 42.5999 363.27 42.5999L363.28 42.6099ZM351.93 38.1199L362.64 41.6299L357.39 28.2999L351.92 38.1199H351.93Z" fill="#484FA1"/>
<path d="M487.93 42.8499L475.54 44.3899L479.43 56.2999L487.93 42.8499Z" fill="#484FA1"/>
<path d="M479.43 56.6699C479.43 56.6699 479.4 56.6699 479.38 56.6699C479.24 56.6499 479.12 56.5499 479.07 56.4099L475.19 44.4999C475.15 44.3899 475.17 44.2799 475.23 44.1799C475.29 44.0899 475.39 44.0199 475.5 44.0099L487.89 42.4699C488.04 42.4499 488.17 42.5199 488.25 42.6399C488.33 42.7599 488.33 42.9199 488.25 43.0399L479.75 56.4899C479.68 56.5999 479.56 56.6599 479.43 56.6599V56.6699ZM476.04 44.7099L479.54 55.4299L487.19 43.3299L476.04 44.7199V44.7099Z" fill="#484FA1"/>
<path d="M218.38 39.7199C219.1 20.0999 235.58 5.05989 255.21 5.49989C276.99 5.98989 290.15 22.7099 289.43 42.3299C288.71 61.9499 272.23 76.9799 252.6 76.5499C231.45 76.0899 217.66 59.3399 218.38 39.7199Z" fill="white"/>
<path d="M253.44 77.5599C253.15 77.5599 252.87 77.5599 252.58 77.5599C242.61 77.3399 233.57 73.4699 227.14 66.6399C220.47 59.5699 217.01 49.9999 217.39 39.6899C218.13 19.4999 234.76 4.0299 255.24 4.5099C265.53 4.7399 274.37 8.4799 280.81 15.3199C287.4 22.3199 290.82 31.9199 290.44 42.3799C289.71 62.2699 273.54 77.5699 253.45 77.5699L253.44 77.5599ZM254.34 6.4899C235.35 6.4899 220.08 20.9499 219.38 39.7599C219.02 49.5299 222.29 58.5799 228.59 65.2599C234.65 71.6899 243.19 75.3399 252.62 75.5499C271.99 75.9399 287.73 61.3699 288.43 42.2899C288.79 32.3799 285.57 23.2799 279.35 16.6799C273.28 10.2399 264.93 6.7199 255.19 6.4999C254.91 6.4999 254.62 6.4999 254.34 6.4999V6.4899Z" fill="#484FA1"/>
<path d="M242.8 36.7999L240.26 39.8399C239.65 40.5699 239.53 41.5799 239.96 42.4299C241.54 45.5699 246.03 52.9 254.36 54.9699C255.18 55.17 256.05 54.92 256.63 54.3099L259.58 51.2699C260.28 50.5499 261.35 50.3499 262.26 50.7599L270.21 54.3399C271.07 54.7299 271.62 55.5799 271.61 56.5299L271.59 60.0699C271.59 60.5299 271.45 60.9699 271.2 61.3599C269.97 63.2399 265.61 68.2099 255.37 64.4199C242.97 59.8299 233.31 50.5399 228.73 38.1699C228.69 38.0599 228.66 37.9599 228.63 37.8499C228.36 36.6099 226.98 29.0199 233.04 24.1399C233.54 23.7399 234.19 23.5599 234.83 23.6399L238.4 24.0799C239.32 24.1899 240.09 24.8299 240.38 25.7099L243.24 34.5599C243.49 35.3399 243.33 36.1899 242.8 36.8199V36.7999Z" fill="#FFD008"/>
<path d="M262.28 66.7899C260.24 66.7899 257.84 66.3799 255.04 65.3499C242.12 60.5699 232.45 51.0399 227.81 38.5099C227.76 38.3699 227.71 38.2099 227.67 38.0499C227.33 36.5099 225.96 28.5599 232.43 23.3399C233.13 22.7699 234.05 22.5099 234.97 22.6199L238.54 23.0599C239.84 23.2199 240.94 24.1299 241.35 25.3799L244.21 34.2299C244.57 35.3399 244.33 36.5399 243.59 37.4299L241.05 40.4699C240.7 40.8899 240.63 41.4799 240.88 41.9699C242.37 44.9299 246.68 52.0099 254.63 53.9899C255.1 54.1099 255.6 53.9599 255.94 53.6099L258.9 50.5699C259.89 49.5599 261.42 49.2599 262.71 49.8399L270.66 53.4199C271.88 53.9699 272.66 55.1899 272.65 56.5199L272.63 60.0599C272.63 60.7099 272.43 61.3399 272.08 61.8899C271.18 63.2599 268.3 66.7799 262.3 66.7799L262.28 66.7899ZM234.55 24.5999C234.23 24.5999 233.93 24.7099 233.68 24.8999C228.13 29.3699 229.32 36.2799 229.62 37.6199C229.63 37.6799 229.65 37.7399 229.67 37.7999C234.11 49.7799 243.36 58.8899 255.72 63.4699C265.11 66.9399 269.09 62.7599 270.37 60.7999C270.52 60.5799 270.59 60.3199 270.6 60.0499L270.62 56.5099C270.62 55.9599 270.3 55.4699 269.81 55.2399L261.86 51.6599C261.34 51.4299 260.71 51.5399 260.3 51.9599L257.34 54.9999C256.51 55.8599 255.27 56.2199 254.11 55.9299C245.36 53.7599 240.67 46.0699 239.06 42.8699C238.46 41.6699 238.62 40.2199 239.49 39.1899L242.03 36.1499C242.34 35.7799 242.43 35.2899 242.28 34.8399L239.42 25.9799C239.26 25.4699 238.81 25.0999 238.27 25.0299L234.7 24.5899C234.64 24.5899 234.59 24.5899 234.53 24.5899L234.55 24.5999Z" fill="#484FA1"/>
<path d="M262.65 42.0399C262.11 42.0399 261.67 41.6099 261.65 41.0699C261.6 39.2699 260.4 37.0399 258.59 35.3899C256.92 33.8699 254.95 33.0699 253.23 33.1899C252.67 33.2299 252.2 32.8099 252.16 32.2599C252.12 31.7099 252.54 31.2299 253.09 31.1899C255.4 31.0299 257.83 31.9999 259.93 33.9099C262.16 35.9399 263.58 38.6599 263.65 41.0099C263.66 41.5599 263.23 42.0199 262.68 42.0399H262.65Z" fill="#484FA1"/>
<path d="M268.31 40.8601C267.77 40.8601 267.33 40.4301 267.31 39.8901C267.22 36.9401 265.23 33.2701 262.22 30.5301C259.22 27.8001 255.67 26.3501 252.47 26.5601C251.89 26.5801 251.44 26.1801 251.41 25.6301C251.37 25.0801 251.79 24.6001 252.34 24.5701C256.06 24.3201 260.17 25.9601 263.56 29.0501C267 32.1801 269.2 36.3101 269.3 39.8301C269.32 40.3801 268.88 40.8401 268.33 40.8601H268.3H268.31Z" fill="#484FA1"/>
<path d="M273.74 38.4799C273.2 38.4799 272.76 38.0499 272.74 37.5099C272.61 33.3899 270.87 27.5799 266.35 23.6599C262.77 20.5499 258.19 19.2799 252.76 19.8799C252.2 19.9399 251.72 19.5399 251.66 18.9999C251.6 18.4499 251.99 17.9599 252.54 17.8999C258.46 17.2499 263.7 18.7099 267.66 22.1499C272.66 26.4899 274.6 32.8999 274.74 37.4499C274.76 37.9999 274.32 38.4599 273.77 38.4799H273.74Z" fill="#484FA1"/>
<path d="M286.57 26.26C293.545 26.26 299.2 20.6054 299.2 13.63C299.2 6.65464 293.545 1 286.57 1C279.595 1 273.94 6.65464 273.94 13.63C273.94 20.6054 279.595 26.26 286.57 26.26Z" fill="#EE235E"/>
<path d="M286.57 27.2599C286.4 27.2599 286.23 27.2599 286.06 27.2599C282.42 27.1299 279.05 25.5799 276.58 22.9199C274.1 20.2499 272.81 16.7799 272.95 13.1399C273.23 5.62994 279.54 -0.300064 287.07 0.0199359C294.58 0.299936 300.46 6.62994 300.19 14.1399C299.92 21.4799 293.86 27.2699 286.58 27.2699L286.57 27.2599ZM286.56 1.99994C280.34 1.99994 275.18 6.93994 274.95 13.1999C274.84 16.2999 275.94 19.2699 278.05 21.5399C280.16 23.8199 283.04 25.1299 286.14 25.2499C292.57 25.4899 297.95 20.4599 298.19 14.0599C298.43 7.64994 293.4 2.24994 287 2.00994C286.86 2.00994 286.71 2.00994 286.57 2.00994L286.56 1.99994Z" fill="#484FA1"/>
<path d="M282.6 18.7999C282.49 18.7999 282.37 18.7799 282.26 18.7399C281.97 18.6299 281.74 18.3999 281.65 18.0999L279.68 11.9699C279.51 11.4399 279.8 10.8799 280.33 10.7099C280.86 10.5399 281.42 10.8299 281.59 11.3599L283.16 16.2499L293.56 9.58993C294.02 9.28993 294.64 9.42993 294.94 9.88993C295.24 10.3499 295.1 10.9699 294.64 11.2699L283.14 18.6399C282.98 18.7399 282.79 18.7999 282.6 18.7999Z" fill="white"/>
<path d="M355.3 88.4C355.61 68.64 371.87 53.15 391.63 53.18C413.56 53.21 427.15 69.75 426.85 89.51C426.54 109.27 410.28 124.74 390.52 124.73C369.23 124.72 355 108.16 355.3 88.4Z" fill="white"/>
<path d="M390.54 125.73H390.51C380.47 125.73 371.3 122.02 364.68 115.29C357.82 108.32 354.13 98.7599 354.29 88.3799C354.61 68.0699 370.97 52.1799 391.56 52.1799H391.62C401.97 52.1999 410.95 55.7699 417.57 62.5099C424.35 69.4099 427.99 78.9999 427.83 89.5299C427.51 109.83 411.13 125.73 390.52 125.73H390.54ZM356.3 88.4099C356.15 98.2499 359.63 107.29 366.11 113.88C372.35 120.22 381.02 123.72 390.51 123.72H390.53C410.03 123.72 425.54 108.69 425.84 89.4899C426 79.5099 422.56 70.4199 416.15 63.9099C409.91 57.5599 401.42 54.1899 391.62 54.1799H391.56C372.08 54.1799 356.59 69.2099 356.29 88.4099H356.3Z" fill="#484FA1"/>
<path d="M423.36 73.41C430.38 73.41 436.07 67.7195 436.07 60.7C436.07 53.6804 430.38 47.99 423.36 47.99C416.34 47.99 410.65 53.6804 410.65 60.7C410.65 67.7195 416.34 73.41 423.36 73.41Z" fill="#EE235E"/>
<path d="M423.36 74.4099C423.29 74.4099 423.22 74.4099 423.14 74.4099C415.58 74.2899 409.53 68.0499 409.65 60.4899C409.71 56.8299 411.19 53.4099 413.82 50.8599C416.45 48.3099 419.92 46.9099 423.57 46.9999C427.23 47.0599 430.65 48.5399 433.2 51.1699C435.75 53.7999 437.12 57.2599 437.06 60.9199C436.94 68.4099 430.82 74.4199 423.36 74.4199V74.4099ZM410.65 60.4999L411.65 60.5199C411.55 66.9799 416.72 72.3099 423.18 72.4099C423.24 72.4099 423.3 72.4099 423.37 72.4099C429.74 72.4099 434.97 67.2799 435.07 60.8799C435.17 54.4199 430 49.0899 423.54 48.9899C423.48 48.9899 423.41 48.9899 423.35 48.9899C420.29 48.9899 417.41 50.1599 415.21 52.2899C412.96 54.4699 411.7 57.3899 411.65 60.5099L410.65 60.4899V60.4999Z" fill="#484FA1"/>
<path d="M419.46 65.98C419.35 65.98 419.25 65.96 419.14 65.93C418.85 65.83 418.61 65.6 418.51 65.31L416.4 59.19C416.22 58.67 416.5 58.1 417.02 57.92C417.54 57.74 418.11 58.02 418.29 58.54L419.98 63.44L430.31 56.51C430.77 56.2 431.39 56.32 431.7 56.78C432.01 57.24 431.89 57.86 431.43 58.17L420.02 65.83C419.85 65.94 419.66 66 419.46 66V65.98Z" fill="white"/>
<path d="M413.69 88.2801C413.57 95.8701 407.38 101.56 400.61 103.91C398.67 104.58 396.66 105 394.62 105.22C392.16 105.48 391.92 105.31 390.94 106.27C389.4 107.76 386.42 109.55 384.36 110.12C380.46 111.2 378.51 110.66 378.48 110.72C379.24 109.46 384.15 105.97 382.21 104.16C380.93 102.97 377.22 101.15 375.66 99.8401C372.03 96.7901 369.53 92.4201 369.6 87.5901C369.75 77.9701 379.74 70.3301 391.92 70.5201C404.1 70.7101 413.85 78.6601 413.7 88.2801H413.69Z" fill="#FFD008"/>
<path d="M379.87 111.79C379.41 111.79 378.97 111.77 378.54 111.72C378.36 111.73 378.16 111.69 377.99 111.59C377.52 111.33 377.33 110.75 377.57 110.27C377.6 110.22 377.62 110.17 377.65 110.13C377.93 109.7 378.44 109.2 379.07 108.57C379.98 107.67 381.66 106 381.65 105.15C381.65 105.08 381.64 105 381.52 104.89C380.94 104.35 379.65 103.58 378.4 102.83C377.13 102.07 375.82 101.29 375 100.6C370.85 97.1101 368.51 92.3601 368.58 87.5701C368.74 77.4201 379.17 69.3201 391.91 69.5101C398.02 69.6101 403.75 71.5801 408.04 75.0801C412.4 78.6301 414.75 83.3201 414.67 88.2901C414.53 97.0301 407.18 102.67 400.92 104.85C398.98 105.52 396.89 105.98 394.7 106.21C394.26 106.26 393.89 106.29 393.57 106.32C392.637 106.4 391.983 106.623 391.61 106.99C389.89 108.65 386.75 110.49 384.6 111.08C382.88 111.56 381.29 111.79 379.85 111.79H379.87ZM391.47 71.5101C380.06 71.5101 370.73 78.6601 370.59 87.6001C370.52 91.7901 372.6 95.9701 376.29 99.0601C376.98 99.6401 378.23 100.39 379.42 101.1C380.82 101.94 382.14 102.72 382.88 103.41C383.37 103.87 383.64 104.45 383.65 105.1C383.67 106.71 382.09 108.37 380.71 109.74C381.75 109.67 382.87 109.46 384.08 109.13C385.89 108.63 388.77 106.95 390.23 105.53C391.3 104.5 391.87 104.45 393.41 104.31C393.72 104.28 394.08 104.25 394.51 104.21C396.55 104 398.49 103.57 400.28 102.95C405.93 100.99 412.57 95.9601 412.69 88.2501C412.76 83.9101 410.66 79.7801 406.79 76.6201C402.85 73.4101 397.56 71.5901 391.9 71.5001C391.76 71.5001 391.61 71.5001 391.47 71.5001V71.5101Z" fill="#484FA1"/>
<path d="M383.54 88.2002C384.026 88.2002 384.42 87.8062 384.42 87.3202C384.42 86.8342 384.026 86.4402 383.54 86.4402C383.054 86.4402 382.66 86.8342 382.66 87.3202C382.66 87.8062 383.054 88.2002 383.54 88.2002Z" fill="#484FA1"/>
<path d="M383.54 89.2002H383.51C382.47 89.1802 381.64 88.3202 381.66 87.2902C381.66 86.7902 381.87 86.3202 382.23 85.9702C382.59 85.6202 383.03 85.4402 383.57 85.4402C384.08 85.4402 384.55 85.6502 384.9 86.0102C385.25 86.3702 385.44 86.8502 385.43 87.3502C385.41 88.3802 384.57 89.2002 383.55 89.2002H383.54ZM383.43 87.3202C383.43 87.3702 383.49 87.4402 383.54 87.4402C383.55 87.4602 383.66 87.3802 383.66 87.3202C383.66 87.2602 383.61 87.2002 383.54 87.2002C383.51 87.1902 383.42 87.2602 383.42 87.3102L383.43 87.3202Z" fill="#484FA1"/>
<path d="M391.7 88.3301C392.186 88.3301 392.58 87.9361 392.58 87.4501C392.58 86.9641 392.186 86.5701 391.7 86.5701C391.214 86.5701 390.82 86.9641 390.82 87.4501C390.82 87.9361 391.214 88.3301 391.7 88.3301Z" fill="#484FA1"/>
<path d="M391.7 89.3301H391.67C390.63 89.3101 389.8 88.4501 389.82 87.4201C389.82 86.9201 390.03 86.4501 390.39 86.1001C390.75 85.7501 391.21 85.5701 391.73 85.5701C392.23 85.5701 392.7 85.7801 393.05 86.1401C393.4 86.5001 393.59 86.9801 393.58 87.4801C393.56 88.5101 392.72 89.3301 391.7 89.3301ZM391.58 87.4501C391.58 87.5001 391.64 87.5701 391.69 87.5701L391.81 87.4501C391.81 87.3901 391.76 87.3301 391.69 87.3301C391.64 87.3301 391.57 87.3901 391.57 87.4401L391.58 87.4501Z" fill="#484FA1"/>
<path d="M399.86 88.4502C400.346 88.4502 400.74 88.0562 400.74 87.5702C400.74 87.0842 400.346 86.6902 399.86 86.6902C399.374 86.6902 398.98 87.0842 398.98 87.5702C398.98 88.0562 399.374 88.4502 399.86 88.4502Z" fill="#484FA1"/>
<path d="M399.86 89.4601H399.83C398.79 89.4401 397.96 88.5801 397.98 87.5501C397.98 87.0501 398.19 86.5801 398.55 86.2301C398.91 85.8801 399.4 85.6801 399.89 85.7001C400.93 85.7201 401.76 86.5801 401.74 87.6101C401.72 88.6401 400.88 89.4601 399.86 89.4601ZM399.74 87.5701C399.74 87.6301 399.79 87.6901 399.85 87.6901C399.9 87.6901 399.97 87.6301 399.97 87.5701H399.74ZM399.86 87.4601C399.8 87.4601 399.74 87.5101 399.74 87.5801H399.97C399.97 87.5201 399.92 87.4701 399.85 87.4601H399.86Z" fill="#484FA1"/>
<path d="M179.21 112.51C186.39 109.71 186.93 104.84 189.6 99.96C189.89 99.43 190.67 99.47 190.91 100.03C192.7 104.36 193.41 109.63 200.65 110.47C201.1 110.52 201.18 111.19 200.91 111.55C197.11 116.67 193.83 118.17 191.22 132.99C191.09 133.71 190.09 133.79 189.83 133.12C188.58 129.96 187.54 123.08 185.53 120.05C183.56 117.08 181.29 115.33 179.11 113.75C178.67 113.43 178.7 112.71 179.21 112.51Z" fill="#FFD008"/>
<path d="M190.51 134.59C189.8 134.59 189.17 134.17 188.9 133.5C188.41 132.27 187.97 130.53 187.49 128.7C186.73 125.74 185.86 122.38 184.69 120.62C182.83 117.82 180.71 116.16 178.51 114.57C177.99 114.19 177.72 113.57 177.8 112.93C177.88 112.31 178.26 111.81 178.83 111.59C184.05 109.55 185.47 106.4 187.13 102.76C187.61 101.7 188.11 100.6 188.71 99.5001C189.03 98.9101 189.66 98.5701 190.32 98.6101C190.99 98.6501 191.56 99.0501 191.82 99.6701C192.09 100.33 192.34 101 192.59 101.69C193.99 105.54 195.21 108.86 200.76 109.51C201.27 109.57 201.71 109.9 201.92 110.39C202.17 110.96 202.08 111.68 201.71 112.18C201.03 113.09 200.38 113.89 199.74 114.65C196.83 118.17 194.31 121.22 192.2 133.19C192.07 133.95 191.45 134.52 190.68 134.6C190.62 134.6 190.56 134.6 190.5 134.6L190.51 134.59ZM180.09 113.23C182.22 114.79 184.43 116.6 186.36 119.5C187.71 121.54 188.63 125.07 189.43 128.19C189.77 129.51 190.1 130.78 190.42 131.8C192.59 120.15 195.19 116.99 198.2 113.36C198.72 112.73 199.26 112.08 199.8 111.37C193.64 110.35 192.09 106.11 190.72 102.36C190.55 101.89 190.38 101.43 190.2 100.97C189.75 101.84 189.35 102.72 188.96 103.58C187.33 107.18 185.65 110.89 180.09 113.24V113.23Z" fill="#484FA1"/>
<path d="M204.55 138.2C208.86 137.41 210.03 134.53 210.91 131.68C210.98 131.45 211.29 131.41 211.41 131.62C213.03 134.36 214.26 137.73 217.59 138.23C217.82 138.26 217.91 138.55 217.74 138.71C215.97 140.37 214.56 140.24 213.62 142.8C212.96 144.59 212.31 147.46 211.61 149.24C211.53 149.45 211.2 149.49 211.1 149.28C209.16 144.96 208.93 141.42 204.5 138.69C204.31 138.58 204.33 138.25 204.54 138.21L204.55 138.2Z" fill="#FFD008"/>
<path d="M211.33 150.42C210.83 150.42 210.39 150.13 210.19 149.69C209.71 148.63 209.35 147.63 208.99 146.67C207.91 143.75 207.06 141.44 203.98 139.54C203.53 139.27 203.3 138.73 203.4 138.2C203.49 137.7 203.88 137.31 204.37 137.22C208.08 136.54 209.09 134.18 209.95 131.39C210.1 130.91 210.52 130.56 211.02 130.5C211.52 130.44 212.01 130.68 212.27 131.12C212.55 131.59 212.81 132.08 213.08 132.56C214.3 134.79 215.46 136.9 217.74 137.24C218.23 137.31 218.63 137.65 218.77 138.13C218.92 138.6 218.79 139.1 218.43 139.44C217.75 140.07 217.14 140.47 216.59 140.81C215.64 141.42 215.06 141.78 214.56 143.14C214.26 143.94 213.97 144.97 213.66 146.07C213.3 147.32 212.93 148.61 212.54 149.6C212.35 150.08 211.89 150.4 211.36 150.41H211.33V150.42ZM206.35 138.75C208.97 140.84 209.9 143.34 210.87 145.96C211.01 146.33 211.14 146.7 211.29 147.07C211.44 146.56 211.59 146.03 211.74 145.51C212.05 144.43 212.37 143.31 212.69 142.44C213.43 140.44 214.49 139.77 215.52 139.11C215.68 139.01 215.84 138.91 216 138.8C213.71 137.83 212.46 135.56 211.34 133.51C210.51 135.66 209.19 137.72 206.35 138.74V138.75Z" fill="#484FA1"/>
</g>
<defs>
<clipPath id="clip0_5825_49741">
<rect width="568.2" height="339.07" fill="white"/>
</clipPath>
</defs>
</svg>
