<svg width="168" height="160" viewBox="0 0 168 160" fill="none" xmlns="http://www.w3.org/2000/svg">
<g clip-path="url(#clip0_5825_49681)">
<path d="M74.6894 119.309C82.1183 107.139 105.161 71.3253 114.746 67.4142C125.911 62.8566 153.645 105.479 161.491 117.725" fill="#6CC6E5"/>
<path d="M74.6894 119.572C74.6409 119.572 74.5964 119.56 74.5519 119.531C74.4265 119.455 74.3901 119.293 74.4629 119.172C75.6438 117.236 103.531 71.7051 114.645 67.1677C119.522 65.1799 127.905 71.5475 139.568 86.1011C146.115 94.2708 153.564 104.865 161.709 117.58C161.786 117.701 161.75 117.867 161.628 117.943C161.507 118.02 161.341 117.984 161.264 117.863C138.622 82.5051 122.134 64.6748 114.843 67.6526C110.815 69.297 103.649 77.1677 94.117 90.4162C84.7591 103.426 76.4728 116.881 74.9078 119.442C74.8592 119.523 74.7703 119.568 74.6813 119.568L74.6894 119.572Z" fill="#484FA1"/>
<path d="M6.28848 118.574C13.3251 104.816 20.8309 73.6364 37.6136 71.2445C53.8585 68.9293 66.294 105.192 73.7269 119.038" fill="#6CC6E5"/>
<path d="M73.7269 119.305C73.6339 119.305 73.5409 119.257 73.4964 119.168C72.0244 116.42 70.3906 112.877 68.502 108.776C60.9033 92.2748 50.506 69.6809 37.6541 71.5071C25.0164 73.3092 17.6684 91.7172 11.7601 106.509C9.93217 111.087 8.20536 115.41 6.52708 118.695C6.46238 118.824 6.30466 118.877 6.17121 118.808C6.0418 118.743 5.98923 118.582 6.05797 118.453C7.72816 115.188 9.45093 110.877 11.2707 106.311C17.2276 91.394 24.6403 72.8283 37.5772 70.9819C50.8053 69.095 61.3077 91.8991 68.9792 108.55C70.8637 112.642 72.4935 116.182 73.9615 118.913C74.0302 119.042 73.9817 119.2 73.8523 119.269C73.8118 119.289 73.7714 119.301 73.7269 119.301V119.305Z" fill="#484FA1"/>
<path d="M40.7195 118.647C45.5763 109.402 52.613 95.2364 60.2886 92.4809C69.6263 89.1314 74.0545 92.6667 80.6018 101.972C83.0322 105.43 87.9862 115.398 88.2855 119.135" fill="#E7E7F0"/>
<path d="M88.2855 119.402C88.152 119.402 88.0347 119.297 88.0226 119.16C87.7193 115.41 82.7128 105.434 80.3834 102.125C73.8199 92.7919 69.5899 89.4263 60.3735 92.7313C53.2236 95.2929 46.6157 107.931 41.7911 117.156L40.9459 118.772C40.8772 118.901 40.7194 118.95 40.59 118.881C40.4606 118.812 40.4121 118.655 40.4808 118.525L41.3261 116.909C46.191 107.608 52.8556 94.8687 60.1956 92.2344C69.6748 88.8364 74.2162 92.4445 80.8121 101.822C83.1698 105.172 88.2329 115.293 88.5443 119.119C88.5564 119.265 88.4472 119.39 88.3057 119.402C88.2976 119.402 88.2895 119.402 88.2855 119.402Z" fill="#484FA1"/>
<path d="M130.873 90.2222C125.964 88.0404 126.74 80.1172 133.955 82.3475C133.769 79.5758 135.674 76.9818 139.803 77.1758C143.495 77.3455 144.162 79.9515 144.105 82.3879C146.439 81.9313 149.714 81.6848 151.575 83.3495C152.934 84.5657 152.784 87.3737 150.831 88.4727C152.145 88.3071 153.451 88.5333 154.458 89.1677C156.715 90.598 156.969 93.2889 156.266 95.2404C155.886 96.295 155.166 97.3293 153.989 98.0445C152.586 98.901 151.199 98.8202 149.524 99.0061C149.601 99.7778 149.702 100.364 149.52 101.168C148.885 103.927 147.401 105.022 143.563 105.697C140.539 106.23 135.94 106.238 133.178 105.349C130.91 104.618 126.659 102.356 126.902 98.6828C126.995 97.3091 128.148 95.7899 129.664 94.9253C119.898 95.4505 124.912 87.301 130.873 90.2263V90.2222Z" fill="white"/>
<path d="M138.941 106.323C136.842 106.323 134.691 106.109 133.097 105.596C130.582 104.784 126.392 102.412 126.639 98.6627C126.72 97.4586 127.541 96.1536 128.758 95.2081C125.386 95.2081 124.358 94.0606 124.043 93.3374C123.671 92.4768 123.974 91.4263 124.84 90.6061C125.782 89.7091 127.363 89.1152 129.155 89.398C127.577 87.9112 127.145 85.7213 127.751 84.1091C128.374 82.4526 130.25 81.0627 133.676 81.992C133.672 80.6344 134.149 79.4021 135.043 78.493C136.151 77.3657 137.797 76.8203 139.815 76.9091C142.819 77.0465 144.352 78.7839 144.368 82.0647C146.783 81.6283 149.909 81.5031 151.749 83.1475C152.468 83.794 152.828 84.8445 152.707 85.9637C152.614 86.8243 152.25 87.5879 151.68 88.1536C152.772 88.1536 153.783 88.4283 154.596 88.9415C156.965 90.4445 157.265 93.2324 156.508 95.3253C156.197 96.194 155.53 97.4061 154.122 98.2667C152.958 98.9778 151.785 99.0748 150.548 99.1718C150.309 99.192 150.062 99.2122 149.812 99.2364V99.2566C149.884 99.9112 149.945 100.477 149.775 101.224C149.12 104.065 147.563 105.257 143.608 105.952C142.294 106.182 140.632 106.323 138.941 106.323ZM129.664 94.6586C129.781 94.6586 129.882 94.7354 129.915 94.8485C129.947 94.9657 129.899 95.091 129.794 95.1516C128.33 95.9879 127.25 97.4465 127.165 98.699C126.938 102.129 130.889 104.335 133.259 105.099C136.058 106 140.632 105.943 143.519 105.438C147.264 104.78 148.663 103.729 149.266 101.111C149.419 100.453 149.363 99.9516 149.294 99.3172L149.266 99.0344C149.249 98.893 149.355 98.7637 149.5 98.7475C149.848 98.7071 150.188 98.6829 150.515 98.6546C151.741 98.5576 152.8 98.4687 153.86 97.8223C155.138 97.0425 155.74 95.9394 156.023 95.1516C156.707 93.2526 156.448 90.7354 154.321 89.3859C153.395 88.8 152.169 88.5657 150.867 88.7273C150.742 88.7475 150.624 88.6667 150.584 88.5495C150.543 88.4324 150.596 88.299 150.705 88.2384C151.538 87.7697 152.08 86.9213 152.189 85.9071C152.291 84.9697 151.991 84.0647 151.405 83.5394C149.646 81.9677 146.495 82.1819 144.158 82.6425C144.081 82.6586 144 82.6384 143.94 82.5859C143.879 82.5334 143.843 82.4566 143.847 82.3798C143.923 79.1394 142.633 77.5677 139.794 77.4344C137.938 77.3495 136.422 77.8425 135.423 78.8606C134.557 79.7455 134.129 80.9778 134.218 82.3273C134.222 82.4122 134.185 82.497 134.117 82.5495C134.048 82.6021 133.959 82.6182 133.874 82.594C131.075 81.7293 128.969 82.3637 128.245 84.291C127.569 86.0849 128.354 88.6869 130.768 89.8788C130.841 89.9112 130.914 89.9475 130.987 89.9798C131.116 90.0445 131.168 90.198 131.108 90.3273C131.047 90.4566 130.893 90.5132 130.764 90.4566C130.691 90.4243 130.614 90.3879 130.546 90.3556C128.346 89.3738 126.291 89.9475 125.204 90.9819C124.504 91.6485 124.241 92.4728 124.524 93.1273C125.009 94.2506 126.878 94.8081 129.644 94.6546C129.648 94.6546 129.652 94.6546 129.66 94.6546L129.664 94.6586Z" fill="#484FA1"/>
<path d="M135.188 94.6303L139.046 97.7697L136.458 113.98H141.825L139.224 97.8667L144.061 93.2162" fill="white"/>
<path d="M141.825 114.242H136.458C136.381 114.242 136.308 114.21 136.26 114.15C136.211 114.093 136.187 114.012 136.199 113.939L138.763 97.8788L135.026 94.8364C134.913 94.7435 134.897 94.5778 134.99 94.4687C135.083 94.3556 135.249 94.3394 135.358 94.4324L139.184 97.5475L143.883 93.0303C143.988 92.9293 144.154 92.9334 144.255 93.0384C144.356 93.1435 144.352 93.3091 144.247 93.4101L139.507 97.9677L142.087 113.943C142.1 114.02 142.079 114.097 142.027 114.158C141.978 114.214 141.905 114.251 141.825 114.251V114.242ZM136.765 113.717H141.517L139.127 98.9253L136.765 113.717Z" fill="#484FA1"/>
<path d="M141.562 95.8626C141.477 95.8626 141.396 95.8222 141.343 95.7495L136.539 88.7838C136.458 88.6626 136.486 88.501 136.608 88.4202C136.729 88.3354 136.891 88.3677 136.972 88.4889L141.776 95.4545C141.857 95.5758 141.829 95.7374 141.707 95.8182C141.663 95.8505 141.61 95.8667 141.558 95.8667L141.562 95.8626Z" fill="#484FA1"/>
<path d="M160.31 95.3132C164.269 93.6162 163.646 87.4546 157.823 89.1879C157.972 87.0304 156.436 85.0182 153.103 85.1637C150.123 85.297 149.589 87.3253 149.634 89.2162C147.753 88.8607 145.108 88.6667 143.608 89.9637C142.512 90.9091 142.633 93.091 144.211 93.9475C137.906 93.1879 137.797 102.642 145.213 102.105C144.781 104.392 146.584 105.713 148.453 105.943C150.127 106.15 152.61 105.697 153.678 104.073C155.044 106.307 159.262 107.818 162.275 105.56C163.998 104.267 164.439 100.699 161.288 98.9697C169.166 99.3778 165.122 93.0384 160.314 95.3132H160.31Z" fill="#E7E7F0"/>
<path d="M158.85 106.941C158.433 106.941 158.009 106.901 157.58 106.82C155.962 106.509 154.499 105.649 153.665 104.529C152.464 105.972 150.159 106.416 148.416 106.206C147.171 106.053 146.099 105.479 145.476 104.626C145.011 103.992 144.817 103.224 144.902 102.388C142.658 102.465 140.854 101.612 139.916 100.024C139.062 98.5738 139.083 96.7677 139.964 95.4182C140.692 94.3071 141.913 93.6849 143.386 93.6485C142.973 93.2081 142.71 92.6384 142.641 91.996C142.544 91.1112 142.844 90.2788 143.434 89.7657C144.918 88.4889 147.417 88.5697 149.367 88.9051C149.403 86.3596 150.653 85.0142 153.091 84.9051C155.202 84.8122 156.399 85.5596 157.03 86.2021C157.71 86.897 158.082 87.8263 158.098 88.8404C160.9 88.1253 162.413 89.2606 162.898 90.6021C163.339 91.8142 163.007 93.4384 161.855 94.5899C163.282 94.4202 164.528 94.9091 165.268 95.6243C165.939 96.2748 166.166 97.0707 165.87 97.7495C165.624 98.3152 164.815 99.2081 162.186 99.2485C163.189 100.04 163.78 101.115 163.865 102.339C163.962 103.697 163.395 105.042 162.429 105.766C161.402 106.537 160.16 106.937 158.846 106.937L158.85 106.941ZM153.674 103.81H153.678C153.767 103.81 153.851 103.859 153.896 103.935C154.588 105.067 156.072 105.992 157.673 106.299C159.299 106.61 160.876 106.271 162.109 105.345C162.938 104.723 163.42 103.56 163.335 102.376C163.242 101.047 162.465 99.9152 161.155 99.196C161.046 99.1354 160.997 99.0101 161.03 98.893C161.062 98.7758 161.167 98.699 161.297 98.7031C164.451 98.8687 165.207 97.9435 165.385 97.5354C165.591 97.0667 165.409 96.4889 164.9 95.996C164.038 95.1637 162.388 94.695 160.589 95.4667C160.532 95.495 160.472 95.5192 160.411 95.5475C160.282 95.6041 160.128 95.5475 160.067 95.4142C160.007 95.2849 160.067 95.1314 160.193 95.0667C160.253 95.0384 160.31 95.0142 160.37 94.9859C162.247 94.0889 162.89 92.1253 162.401 90.7718C161.976 89.6 160.569 88.6344 157.896 89.4303C157.815 89.4546 157.726 89.4384 157.657 89.3819C157.588 89.3293 157.552 89.2445 157.56 89.1596C157.629 88.1536 157.309 87.2283 156.654 86.5576C155.857 85.7455 154.632 85.3495 153.115 85.4182C150.859 85.5192 149.836 86.7233 149.896 89.2041C149.896 89.2849 149.864 89.3576 149.803 89.4101C149.743 89.4627 149.662 89.4829 149.585 89.4667C147.713 89.1111 145.185 88.9455 143.778 90.1536C143.325 90.5455 143.086 91.2243 143.163 91.9273C143.248 92.7031 143.673 93.3495 144.332 93.7091C144.441 93.7697 144.494 93.899 144.457 94.0202C144.421 94.1415 144.304 94.2142 144.174 94.2021C142.508 94 141.165 94.5293 140.405 95.697C139.645 96.8606 139.629 98.4889 140.369 99.7455C141.246 101.232 142.997 101.996 145.189 101.834C145.266 101.83 145.351 101.863 145.403 101.923C145.456 101.984 145.48 102.069 145.464 102.145C145.306 102.974 145.452 103.697 145.897 104.303C146.427 105.026 147.393 105.539 148.477 105.673C150.232 105.891 152.505 105.354 153.451 103.919C153.5 103.847 153.581 103.802 153.67 103.802L153.674 103.81Z" fill="#484FA1"/>
<path d="M148.76 96.2344L152.614 100.077L150.341 118.683H155.324L153.043 100.028L155.817 98.3475" fill="#E7E7F0"/>
<path d="M155.324 118.946H150.345C150.268 118.946 150.2 118.913 150.147 118.857C150.099 118.8 150.074 118.727 150.082 118.651L152.339 100.174L148.574 96.4243C148.473 96.3233 148.473 96.1536 148.574 96.0526C148.675 95.9516 148.841 95.9476 148.946 96.0526L152.8 99.895C152.8 99.895 152.808 99.9031 152.812 99.9072C152.832 99.8668 152.865 99.8304 152.909 99.8062L155.683 98.1254C155.809 98.0486 155.971 98.089 156.043 98.2142C156.12 98.3395 156.08 98.5011 155.954 98.5738L153.326 100.166L155.582 118.651C155.59 118.727 155.566 118.8 155.518 118.857C155.469 118.913 155.396 118.946 155.319 118.946H155.324ZM150.641 118.42H155.024L152.832 100.473L150.641 118.42Z" fill="#484FA1"/>
<path d="M0.283089 119.467C8.50867 117.548 20.572 119.216 28.9594 118.8C36.5217 118.424 43.3279 119.224 50.781 118.295C55.6501 117.689 61.4896 118.642 66.3708 118.909C71.7655 119.204 78.9235 118.469 84.3061 118.909C91.82 119.523 95.6577 119.628 102.492 118.812C107.66 118.194 112.376 118.752 117.152 117.774C121.964 116.788 133.922 116.974 138.767 117.414C150.855 118.517 155.748 116.307 166.865 119.115" fill="white"/>
<path d="M0.283086 119.75C0.153676 119.75 0.0363992 119.661 0.00809092 119.531C-0.0283054 119.378 0.0687515 119.228 0.218381 119.192C5.50799 117.956 12.2575 118.194 18.7846 118.42C22.4566 118.55 25.9223 118.671 28.9432 118.521C32.0167 118.368 34.9931 118.412 37.8724 118.453C42.2198 118.513 46.3285 118.57 50.7446 118.02C54.2346 117.584 58.1614 117.939 61.9628 118.283C63.5117 118.424 64.9797 118.554 66.3829 118.63C68.8862 118.768 71.8343 118.679 74.6894 118.594C78.0055 118.497 81.4349 118.392 84.3263 118.63C92.0505 119.261 95.7548 119.333 102.456 118.533C104.7 118.263 106.872 118.214 108.967 118.17C111.761 118.109 114.406 118.049 117.091 117.499C122.001 116.493 133.931 116.691 138.792 117.135C143.648 117.58 147.417 117.483 150.746 117.398C155.849 117.265 160.257 117.156 166.934 118.84C167.084 118.877 167.177 119.034 167.14 119.184C167.104 119.337 166.946 119.426 166.796 119.39C160.197 117.721 155.825 117.834 150.762 117.964C147.417 118.049 143.628 118.146 138.743 117.701C134.04 117.273 121.993 117.079 117.208 118.057C114.471 118.618 111.802 118.679 108.983 118.739C106.9 118.788 104.745 118.836 102.525 119.099C95.7791 119.907 92.0505 119.834 84.2819 119.2C81.4187 118.966 78.0055 119.067 74.7056 119.168C71.8383 119.253 68.8781 119.341 66.3506 119.204C64.9352 119.127 63.4631 118.994 61.9102 118.853C58.1412 118.513 54.2427 118.162 50.8134 118.59C46.3568 119.148 42.2279 119.091 37.8603 119.026C34.989 118.986 32.0248 118.946 28.9675 119.095C25.9263 119.244 22.4444 119.123 18.7603 118.994C12.2696 118.768 5.55652 118.533 0.343746 119.75C0.323526 119.754 0.299262 119.758 0.279042 119.758L0.283086 119.75Z" fill="#484FA1"/>
<path d="M110.293 83.0344C112.732 82.8607 115.441 83.588 117.746 82.2102C120.055 80.8324 120.464 77.8344 120.698 75.4263C121.155 70.6869 120.82 67.1637 118.729 62.9577C117.386 60.2587 116.869 58.1738 116.574 55.1274C116.339 52.7071 115.292 51.2364 114.608 48.9698C113.989 46.9213 113.718 44.2667 111.858 42.9374C109.108 40.9779 105.477 42.5496 102.658 43.2809C94.2504 45.4546 92.7865 54.0364 92.3578 61.794C92.0828 66.7112 91.8199 70.5738 94.7195 74.6385C96.2441 76.7758 97.6231 78.7758 99.5198 80.5859C102.585 83.5071 105.396 83.4263 110.301 83.0344H110.293Z" fill="#FFD008"/>
<path d="M106.605 83.5111C103.738 83.5111 101.582 82.9455 99.3176 80.7879C97.5301 79.0829 96.1996 77.2162 94.7923 75.2364L94.4809 74.8C91.5692 70.7192 91.7835 66.8728 92.0545 62.0041L92.0666 61.7738C92.5155 53.7213 94.117 45.192 102.581 43.0021C103.018 42.8889 103.479 42.7556 103.948 42.6182C106.589 41.8465 109.581 40.9697 112.016 42.7031C113.577 43.8182 114.078 45.8101 114.519 47.5677C114.636 48.0324 114.746 48.4687 114.871 48.8849C115.118 49.697 115.413 50.4122 115.696 51.1031C116.21 52.3435 116.691 53.5152 116.844 55.095C117.152 58.2586 117.706 60.2788 118.972 62.8283C121.212 67.3415 121.398 71.0021 120.969 75.4505C120.715 78.097 120.246 81.0384 117.884 82.4526C116.197 83.4586 114.329 83.3899 112.521 83.3212C111.749 83.2889 111.021 83.2647 110.309 83.3172C108.934 83.4263 107.713 83.5111 106.597 83.5111H106.605ZM108.659 42.2707C107.159 42.2707 105.578 42.7314 104.114 43.1596C103.637 43.301 103.172 43.4344 102.727 43.5516C94.6144 45.6485 93.0736 53.9556 92.6368 61.8061L92.6247 62.0364C92.3578 66.796 92.1516 70.5536 94.946 74.4728L95.2574 74.9091C96.6485 76.8647 97.9628 78.7111 99.7099 80.3758C102.682 83.2122 105.376 83.1394 110.273 82.7475C111.017 82.695 111.798 82.7233 112.55 82.7515C114.277 82.8202 116.06 82.8849 117.601 81.9637C119.736 80.6869 120.173 77.9031 120.415 75.394C120.836 71.0465 120.654 67.4667 118.474 63.0788C117.176 60.4647 116.602 58.3879 116.29 55.1516C116.145 53.6566 115.676 52.5212 115.182 51.3212C114.891 50.6182 114.592 49.8869 114.337 49.0505C114.208 48.6223 114.095 48.1778 113.977 47.7091C113.54 45.9637 113.084 44.1617 111.692 43.1677C110.77 42.5091 109.735 42.2748 108.659 42.2748V42.2707Z" fill="#484FA1"/>
<path d="M82.7653 42.6465C81.5602 41.7454 81.5683 38.804 81.8433 37.4626C82.2234 35.604 84.3385 33.8384 86.2351 33.4343C92.7501 32.0404 100.45 33.4303 106.969 33.9273C109.056 34.0889 111.243 34.2384 112.384 36.101C114.078 38.8727 112.885 42.7879 110.512 44.8364C108.243 46.796 105.764 45.8141 102.99 45.6C100.713 45.4263 98.5654 45.4101 96.3574 45.1353C94.4203 44.8929 85.212 44.6788 82.7613 42.6424L82.7653 42.6465Z" fill="#FFD008"/>
<path d="M107.127 46.3232C106.342 46.3232 105.541 46.2101 104.72 46.0969C104.154 46.0161 103.564 45.9353 102.969 45.8909C102.12 45.8262 101.279 45.7818 100.462 45.7373C99.0507 45.6646 97.7162 45.5959 96.325 45.4222C95.9611 45.3778 95.3302 45.3333 94.5335 45.2767C91.0799 45.0303 84.6499 44.5737 82.5874 42.8727C81.2731 41.8828 81.2731 38.8283 81.5643 37.4101C81.9848 35.3697 84.2859 33.5636 86.1745 33.1596C91.27 32.0687 96.9599 32.6545 102.464 33.2202C104.041 33.3818 105.533 33.5353 106.989 33.6485H107.05C109.096 33.8101 111.417 33.9879 112.622 35.9596C114.463 38.9656 113.051 43.0222 110.689 45.0586C109.545 46.0485 108.352 46.3272 107.119 46.3272L107.127 46.3232ZM92.7016 33.107C90.4975 33.107 88.3421 33.2687 86.2958 33.7091C84.5852 34.0767 82.4984 35.6929 82.1223 37.5192C81.8473 38.8525 81.8837 41.6323 82.9352 42.4202C82.9352 42.4202 82.9433 42.4242 82.9473 42.4283C84.8602 44.0161 91.4236 44.4848 94.5739 44.707C95.3787 44.7636 96.0177 44.8081 96.3938 44.8565C97.7647 45.0262 99.0871 45.0949 100.49 45.1677C101.307 45.2121 102.157 45.2525 103.01 45.3212C103.62 45.3697 104.219 45.4505 104.793 45.5313C106.86 45.8222 108.643 46.0727 110.321 44.6222C112.505 42.7353 113.824 38.998 112.141 36.2464C111.086 34.5212 109.011 34.3636 107.005 34.2101H106.945C105.481 34.0929 103.984 33.9394 102.403 33.7778C99.1761 33.4464 95.8842 33.107 92.6975 33.107H92.7016Z" fill="#484FA1"/>
<path d="M108.004 45.1474C101.04 42.7191 109.8 29.5878 114.762 36.6868C116.525 39.2121 114.94 47.9151 109.925 45.7292C105.432 43.7737 109.298 33.806 112.202 38.3272C112.893 39.402 112.643 43.5272 110.645 43.7333C108.748 43.9312 108.736 40.4565 109.856 39.7211C110.435 39.4262 110.811 40.1413 110.714 40.7232" fill="#FFD008"/>
<path d="M111.462 46.3636C110.973 46.3636 110.423 46.2545 109.812 45.9878C108.251 45.3091 107.43 43.5919 107.616 41.3979C107.778 39.4747 108.789 37.2727 110.2 36.9212C110.766 36.7798 111.616 36.8808 112.441 38.1697C112.966 38.9858 113.007 41.2282 112.307 42.6788C111.923 43.4788 111.357 43.9394 110.677 44.008C109.913 44.0889 109.298 43.6606 109.003 42.8363C108.615 41.7495 108.837 40.0484 109.703 39.4788C110.018 39.3171 110.321 39.3333 110.564 39.5111C110.896 39.7535 111.074 40.2788 110.993 40.7636C110.964 40.9171 110.819 41.0222 110.665 40.9939C110.512 40.9656 110.406 40.8202 110.435 40.6666C110.479 40.3959 110.39 40.0848 110.228 39.9676C110.18 39.9313 110.111 39.903 109.986 39.9676C109.444 40.3232 109.201 41.7091 109.533 42.6464C109.739 43.2323 110.107 43.499 110.613 43.4464C111.098 43.3979 111.494 43.0545 111.793 42.4323C112.432 41.099 112.356 39.0828 111.963 38.4727C111.607 37.9192 111.037 37.2929 110.334 37.4707C109.306 37.7252 108.34 39.507 108.178 41.4424C108.101 42.3757 108.126 44.6303 110.038 45.4666C111.478 46.0929 112.695 45.8181 113.654 44.6505C115.348 42.5818 115.591 38.3676 114.531 36.8444C113.367 35.1798 111.903 34.5535 110.297 35.0424C107.948 35.7535 105.756 38.8 105.703 41.4343C105.679 42.6141 106.075 44.1697 108.101 44.8767C108.251 44.9293 108.328 45.0909 108.275 45.2363C108.223 45.3858 108.065 45.4626 107.915 45.4101C106.083 44.7717 105.101 43.3575 105.137 41.4222C105.198 38.5212 107.531 35.2889 110.131 34.501C111.967 33.9434 113.694 34.6626 114.992 36.5212C116.4 38.5373 115.668 43.0868 114.09 45.0101C113.532 45.6889 112.675 46.3636 111.462 46.3636Z" fill="#484FA1"/>
<path d="M106.273 59.1717C104.219 60.5657 102.735 61.8142 102.031 63.8182C101.489 65.3616 101.008 67.3293 102.112 68.8041C104.769 72.3556 112.877 73.2364 116.861 70.295C119.247 68.5334 119.619 65.0869 118.478 62.8768C117.366 60.7192 114.26 58.2667 111.207 57.3818C107.628 56.3435 106.091 58.0526 104.822 59.9556" fill="#EE235E"/>
<path d="M137.967 121.467C141.986 123.192 141.748 123.333 142.253 129.188C142.476 131.766 143.054 134.667 146.58 133.657C148.635 133.067 149.08 121.721 148.675 115.648C148.469 112.57 144.858 114.877 139.6 113.018" fill="white"/>
<path d="M145.27 134.141C144.651 134.141 144.122 133.988 143.681 133.685C142.443 132.836 142.124 130.945 141.974 129.208L141.889 128.206C141.485 123.37 141.477 123.277 137.857 121.721C137.712 121.661 137.647 121.495 137.708 121.349C137.768 121.204 137.938 121.139 138.08 121.2C142.011 122.889 142.043 123.285 142.451 128.158L142.536 129.16C142.674 130.764 142.957 132.501 144 133.216C144.607 133.632 145.428 133.689 146.503 133.378C146.791 133.297 147.761 132.57 148.271 126.679C148.566 123.273 148.614 118.949 148.392 115.661C148.299 114.246 147.539 114.166 145.359 114.141C143.871 114.125 141.829 114.101 139.507 113.281C139.362 113.228 139.281 113.067 139.333 112.921C139.386 112.776 139.548 112.699 139.693 112.747C141.926 113.535 143.83 113.56 145.363 113.576C147.373 113.6 148.821 113.616 148.954 115.624C149.294 120.719 149.116 133.216 146.657 133.923C146.156 134.069 145.691 134.137 145.266 134.137L145.27 134.141Z" fill="#484FA1"/>
<path d="M62.8767 143.644C62.6867 148.008 58.2949 145.168 55.739 144.21C51.1814 142.505 48.387 142.679 48.5892 145.826C48.8358 149.709 53.1063 150.715 56.2041 152.36C58.7437 153.709 63.0506 155.519 65.9947 155.41C68.0976 155.329 69.7314 149.923 70.7343 146.647" fill="white"/>
<path d="M65.7278 155.697C62.8929 155.697 58.9095 154.121 56.0666 152.61C55.4559 152.287 54.7806 151.976 54.1254 151.681C51.3634 150.42 48.5123 149.119 48.302 145.846C48.2292 144.703 48.5325 143.875 49.1998 143.378C50.3564 142.521 52.524 142.707 55.8361 143.947C56.2728 144.109 56.75 144.323 57.2596 144.549C58.8489 145.257 60.8305 146.133 61.8293 145.515C62.2985 145.224 62.5532 144.594 62.5977 143.636C62.6058 143.479 62.7271 143.354 62.8929 143.366C63.0506 143.374 63.172 143.503 63.1639 143.661C63.1153 144.816 62.7676 145.6 62.1286 145.996C60.875 146.772 58.8327 145.867 57.0331 145.067C56.5316 144.844 56.0625 144.634 55.642 144.477C52.5685 143.329 50.5182 143.111 49.5435 143.834C49.03 144.214 48.8116 144.861 48.8722 145.814C49.0583 148.752 51.7556 149.98 54.364 151.172C55.0232 151.475 55.7107 151.786 56.3375 152.117C59.0753 153.572 63.2367 155.24 65.9866 155.135C67.8711 155.063 69.5413 149.596 70.4391 146.659L70.4674 146.57C70.5119 146.42 70.6737 146.335 70.8192 146.38C70.9689 146.424 71.0538 146.582 71.0093 146.731L70.981 146.82C69.9093 150.319 68.2958 155.608 66.0109 155.693C65.9219 155.693 65.8289 155.697 65.7399 155.697H65.7278Z" fill="#484FA1"/>
<path d="M82.8624 70.3192C78.5717 83.6525 76.8974 89.4828 71.4663 104.788C68.8579 112.137 62.4521 138 61.5826 141.604C61.2672 142.917 62.5047 143.778 66.8237 146.097C71.2034 148.453 72.0648 149.18 72.9302 147.867C75.2434 144.335 82.0212 121.325 83.3558 117.131C86.8256 106.218 91.8442 100.408 95.0916 90.0525C96.6526 99.5636 100.337 112.756 108.862 117.996C115.215 121.903 136.272 125.127 138.472 124.158C139.98 123.495 141.08 117.168 140.069 113.309C139.9 112.659 139.527 112.158 138.872 112C132.657 110.509 126.688 109.03 120.727 105.915C116.011 103.451 114.863 100.537 113.735 93.1071C112.99 88.1939 110.584 76.8444 108.372 72.2626C107.802 71.0828 103.139 72.8121 97.0529 71.5475C93.842 70.8808 85.9237 69.0869 82.8745 70.3232L82.8624 70.3192Z" fill="#484FA1"/>
<path d="M71.9597 148.78C71.1953 148.78 70.1034 148.182 68.1987 147.143C67.7498 146.897 67.2524 146.626 66.6984 146.331C62.4198 144.032 60.9558 143.091 61.3279 141.547C62.4481 136.921 68.6638 111.903 71.2196 104.703C75.3688 93.0142 77.2816 86.9899 79.9305 78.6505C80.7352 76.1172 81.6007 73.3899 82.6117 70.2424C82.6359 70.1697 82.6925 70.1091 82.7653 70.0808C85.6973 68.897 92.6854 70.3636 96.4382 71.1556L97.0934 71.2929C100.341 71.9677 103.151 71.7818 105.206 71.6485C107.11 71.5232 108.255 71.4505 108.595 72.1535C110.851 76.8242 113.249 88.2667 113.977 93.0748C115.093 100.436 116.238 103.289 120.828 105.689C126.93 108.877 133.021 110.339 138.917 111.754C139.612 111.923 140.098 112.44 140.308 113.253C141.311 117.083 140.284 123.653 138.565 124.412C136.224 125.442 115.097 122.162 108.712 118.234C104.102 115.398 98.0235 108.396 95.0026 91.1636C93.4457 95.8303 91.5652 99.5273 89.5795 103.422C87.4969 107.515 85.3414 111.745 83.5984 117.22C83.3719 117.935 82.9878 119.196 82.4903 120.816C80.0882 128.687 75.0817 145.063 73.1446 148.02C72.8008 148.545 72.4449 148.792 71.9556 148.792L71.9597 148.78ZM83.0767 70.5172C82.0819 73.6121 81.2286 76.303 80.4319 78.804C77.7831 87.1475 75.8662 93.1758 71.717 104.873C69.1693 112.053 62.9576 137.042 61.8374 141.665C61.5665 142.784 62.7473 143.608 66.945 145.863C67.4991 146.162 67.9965 146.432 68.4454 146.679C71.6725 148.44 72.1174 148.614 72.7038 147.717C74.6045 144.82 79.5908 128.493 81.9889 120.646C82.4823 119.026 82.8705 117.762 83.0969 117.046C84.8521 111.531 87.0156 107.281 89.1104 103.168C91.2255 99.0141 93.2273 95.0869 94.8328 89.9717C94.8692 89.8545 94.9743 89.7818 95.1037 89.7899C95.225 89.798 95.3261 89.8909 95.3464 90.0081C98.2702 107.818 104.381 114.937 108.995 117.774C115.207 121.596 136.244 124.853 138.359 123.919C139.604 123.37 140.854 117.374 139.807 113.374C139.645 112.752 139.305 112.372 138.8 112.251C133.15 110.897 126.752 109.362 120.593 106.141C115.801 103.636 114.608 100.699 113.464 93.1394C112.74 88.3596 110.358 76.9899 108.126 72.3677C107.939 71.9838 106.69 72.0647 105.242 72.1616C103.159 72.299 100.304 72.4849 96.9882 71.7939L96.3331 71.6566C92.9442 70.9414 85.9359 69.4667 83.0767 70.5131V70.5172Z" fill="#484FA1"/>
<path d="M62.9738 47.8343C61.9871 48.2909 61.3845 49.4989 60.4786 50.109C59.9327 50.4767 59.3261 50.5777 58.6952 50.4282C57.9471 50.2464 57.0331 49.8828 56.3578 49.5191C55.3548 48.9818 54.5662 48.1616 53.6361 47.5232C52.7141 46.8929 51.6424 46.5373 50.5505 46.2949C49.9763 46.1697 49.3939 45.8262 49.4303 45.1717C49.4667 44.4969 50.1097 44.206 50.7932 44.1818C50.138 44.0767 48.9653 44.109 48.7186 43.3373C48.5204 42.707 49.0623 42.0767 49.7417 42.1292C49.0259 42.0444 48.0796 41.9151 47.8895 41.2202C47.7076 40.5616 47.9745 39.8303 48.7267 39.9757C49.1027 40.0484 49.4061 40.0202 49.7458 40.0969" fill="white"/>
<path d="M59.2492 50.7555C59.047 50.7555 58.8408 50.7313 58.6346 50.6788C57.8985 50.501 56.9563 50.1333 56.2364 49.7454C55.6056 49.4101 55.0596 48.9616 54.5298 48.5333C54.1942 48.2626 53.8505 47.9798 53.4905 47.7333C52.7141 47.2 51.7637 46.8242 50.4979 46.5454C49.6325 46.3555 49.1351 45.8343 49.1715 45.1515C49.1917 44.7919 49.3535 44.4929 49.6244 44.2788C49.1189 44.1656 48.6377 43.9434 48.4719 43.4141C48.3546 43.0424 48.4274 42.6505 48.6781 42.3394C48.7105 42.299 48.7428 42.2626 48.7792 42.2262C48.2697 42.0848 47.7925 41.8262 47.6428 41.2889C47.5013 40.7838 47.5903 40.2788 47.8734 39.9757C48.0958 39.7374 48.4193 39.6444 48.7873 39.7172C48.9531 39.7495 49.1068 39.7616 49.2686 39.7737C49.4424 39.7858 49.6204 39.798 49.8105 39.8424C49.952 39.8747 50.041 40.0121 50.0086 40.1576C49.9763 40.299 49.8347 40.3879 49.6932 40.3555C49.5395 40.3232 49.3858 40.3111 49.2241 40.299C49.0542 40.2869 48.8803 40.2747 48.6781 40.2343C48.4881 40.198 48.3506 40.2303 48.2535 40.3353C48.0998 40.501 48.0553 40.8283 48.1443 41.1475C48.2818 41.6485 49.0259 41.7778 49.7741 41.8667C49.9156 41.8828 50.0207 42.0121 50.0046 42.1535C49.9924 42.2949 49.859 42.3959 49.7215 42.3879C49.4708 42.3677 49.2322 42.4727 49.0825 42.6626C48.945 42.8363 48.9046 43.0505 48.9693 43.2525C49.1189 43.7212 49.8428 43.802 50.4251 43.8626C50.5707 43.8788 50.7123 43.8949 50.8336 43.9151C50.967 43.9353 51.0641 44.0566 51.052 44.1899C51.0439 44.3232 50.9347 44.4323 50.7972 44.4364C50.5465 44.4444 49.7255 44.5252 49.6891 45.1798C49.6568 45.7616 50.316 45.9677 50.6031 46.0323C51.9376 46.3232 52.9446 46.7273 53.7817 47.301C54.1578 47.5596 54.5137 47.8465 54.8534 48.1252C55.3872 48.5576 55.8927 48.9697 56.4791 49.2808C57.1666 49.6485 58.0603 49.9959 58.7518 50.1656C59.318 50.303 59.8478 50.2101 60.329 49.8869C60.7011 49.6363 61.0246 49.2687 61.3643 48.8848C61.8051 48.3838 62.2621 47.8667 62.8606 47.5879C62.99 47.5273 63.1477 47.5838 63.2084 47.7172C63.269 47.8505 63.2084 48.004 63.0789 48.0646C62.5815 48.2949 62.1812 48.7475 61.7566 49.2283C61.4088 49.6242 61.0488 50.0323 60.6202 50.3192C60.1955 50.606 59.7264 50.7475 59.2412 50.7475L59.2492 50.7555Z" fill="#484FA1"/>
<path d="M48.6862 38.6304C48.2333 37.5031 47.1292 34.9051 46.7572 33.7253C46.3447 32.4162 47.0281 31.9395 48.2252 31.4142C52.892 29.3617 54.4207 28.0728 55.2942 30.1819C55.8522 31.5273 56.4912 32.9698 57.0735 34.2869C57.5993 35.4789 58.8084 38.489 59.2695 39.6768C59.686 40.7435 61.1459 43.7819 60.8871 44.3637C60.3897 45.4748 56.5074 47.3981 54.999 47.7981C52.799 48.3799 52.5968 48.3758 51.3148 45.1597C50.4737 43.0546 49.766 41.3253 48.6822 38.6263L48.6862 38.6304Z" fill="#E7E7F0"/>
<path d="M53.4824 48.3434C52.4189 48.3434 52.0023 47.5879 51.0762 45.2606C50.6031 44.0768 50.1744 43.0101 49.6932 41.8263C49.3211 40.9051 48.9167 39.9111 48.4436 38.7273C48.3384 38.4606 48.1928 38.1172 48.0351 37.7253C47.5134 36.4566 46.7976 34.7152 46.5065 33.802C46.0131 32.2424 46.9877 31.6687 48.116 31.1717C48.9814 30.7919 49.7377 30.4364 50.4049 30.1253C52.5078 29.1394 53.6685 28.598 54.5379 28.9374C54.9626 29.103 55.278 29.4667 55.5328 30.0808C56.0423 31.3091 56.6125 32.598 57.1585 33.8465L57.3081 34.1818C57.8298 35.3697 59.0349 38.3717 59.5081 39.5839C59.6011 39.8222 59.7507 40.1657 59.9165 40.5535C60.8992 42.8323 61.3319 44 61.1216 44.4687C60.5636 45.7131 56.4872 47.6687 55.0637 48.0485C54.3924 48.2263 53.8868 48.3394 53.4744 48.3394L53.4824 48.3434ZM53.9718 29.3657C53.2802 29.3657 52.2167 29.8626 50.6273 30.6061C49.956 30.9212 49.1998 31.2727 48.3263 31.6566C47.1171 32.1859 46.6682 32.5818 47.0039 33.6485C47.287 34.5414 47.9947 36.2667 48.5164 37.5313C48.6781 37.9232 48.8197 38.2707 48.9289 38.5374C49.402 39.7172 49.8064 40.7111 50.1785 41.6323C50.6597 42.8202 51.0884 43.8828 51.5615 45.0707C52.7788 48.1212 52.8597 48.101 54.9343 47.5515C56.4467 47.1515 60.1996 45.2647 60.6485 44.2667C60.79 43.899 59.8437 41.7091 59.4393 40.7717C59.2695 40.3758 59.1198 40.0283 59.0228 39.7818C58.5496 38.5737 57.3485 35.5798 56.8309 34.4L56.6813 34.0647C56.1313 32.8162 55.5611 31.5232 55.0475 30.2909C54.8493 29.8182 54.6269 29.5434 54.3479 29.4344C54.2346 29.3899 54.1093 29.3697 53.9677 29.3697L53.9718 29.3657Z" fill="#484FA1"/>
<path d="M51.8947 31.1019L50.6172 31.7012L50.6739 31.8219L51.9515 31.2226L51.8947 31.1019Z" fill="white"/>
<path d="M50.6718 32.0808C50.5748 32.0808 50.4777 32.0243 50.4332 31.9313L50.3766 31.8142C50.3483 31.7495 50.3443 31.6808 50.3685 31.6121C50.3928 31.5435 50.4413 31.495 50.502 31.4627L51.7799 30.8647C51.9134 30.8041 52.067 30.8606 52.1277 30.9899L52.1843 31.1071C52.2126 31.1717 52.2167 31.2404 52.1924 31.3091C52.1681 31.3778 52.1196 31.4263 52.0589 31.4586L50.781 32.0566C50.7446 32.0728 50.7082 32.0808 50.6678 32.0808H50.6718Z" fill="#484FA1"/>
<path d="M49.5961 32.3596C49.652 32.3596 49.6972 32.3144 49.6972 32.2586C49.6972 32.2028 49.652 32.1576 49.5961 32.1576C49.5403 32.1576 49.495 32.2028 49.495 32.2586C49.495 32.3144 49.5403 32.3596 49.5961 32.3596Z" fill="white"/>
<path d="M49.5961 32.6223C49.398 32.6223 49.2362 32.4647 49.2322 32.2667C49.2322 32.1698 49.2645 32.0768 49.3333 32.0082C49.402 31.9395 49.491 31.8991 49.588 31.895C49.6689 31.895 49.7741 31.9273 49.8469 31.996C49.9156 32.0647 49.956 32.1536 49.9601 32.2506C49.9641 32.4526 49.8064 32.6183 49.6042 32.6223C49.6042 32.6223 49.6002 32.6223 49.5961 32.6223ZM49.5961 32.097C49.5072 32.097 49.4344 32.1738 49.4384 32.2627C49.4384 32.3516 49.5112 32.4203 49.6002 32.4203C49.6487 32.4284 49.6851 32.4041 49.7174 32.3718C49.7457 32.3395 49.7619 32.2991 49.7619 32.2546C49.7619 32.2142 49.7417 32.1698 49.7134 32.1415C49.6851 32.1132 49.6446 32.097 49.6002 32.097H49.5961Z" fill="#484FA1"/>
<path d="M59.1684 46.2222C58.5375 45.2929 58.3434 44.3636 58.9985 42.9777C59.4676 41.9838 59.3625 41.6525 58.9379 40.6868C58.7114 40.1696 58.4283 39.3898 58.8004 38.8686C59.0996 38.4484 59.7264 38.303 60.147 38.5979C60.8143 39.0666 61.4007 40.7353 61.8455 41.4828C62.9738 43.3818 62.5694 44.6464 62.1246 46.7272" fill="white"/>
<path d="M62.1246 46.9818C62.1246 46.9818 62.0882 46.9818 62.0679 46.9778C61.9264 46.9454 61.8334 46.8081 61.8657 46.6667L61.9668 46.2101C62.3672 44.3838 62.6098 43.2808 61.6191 41.6121C61.4735 41.3697 61.3198 41.0384 61.154 40.6909C60.8183 39.9798 60.4018 39.0949 59.9974 38.8081C59.7062 38.6061 59.2412 38.703 59.0147 39.0141C58.7235 39.4182 58.9702 40.101 59.1805 40.5737C59.6294 41.5879 59.7548 41.9919 59.2412 43.0828C58.6022 44.4364 58.8368 45.2566 59.3908 46.0687C59.4717 46.1899 59.4393 46.3515 59.322 46.4323C59.2007 46.5131 59.039 46.4808 58.9581 46.3636C58.1938 45.2404 58.1371 44.1899 58.768 42.8566C59.1926 41.9636 59.1118 41.7091 58.7033 40.7838C58.4404 40.1899 58.1452 39.3293 58.5901 38.7071C58.9864 38.1535 59.7709 38.004 60.3007 38.3758C60.8183 38.7394 61.251 39.6566 61.6312 40.4646C61.7889 40.8 61.9426 41.1192 62.072 41.3414C63.1679 43.1838 62.8808 44.501 62.4804 46.3192L62.3834 46.7717C62.3551 46.897 62.2499 46.9778 62.1286 46.9778L62.1246 46.9818Z" fill="#484FA1"/>
<path d="M116.747 64.5536C115.542 64.6788 113.69 64.6909 112.416 64.3515C111.211 64.0323 110.018 63.4303 109.112 62.5778C108.712 65.3172 106.904 67.6121 105.57 69.9596C105.404 70.2505 105.477 70.6142 105.723 70.8364C107.972 72.8728 109.739 75.2889 112.614 76.6101C115.004 77.7132 118.304 77.8303 120.707 76.6828C123.448 75.3738 125.357 70.5455 125.228 67.7455C125.078 64.4445 124.285 60.9616 122.882 57.9515C120.209 52.2142 114.612 47.6647 109.003 45.0424C106.556 43.899 105.913 43.2485 103.172 42.695C96.6485 41.3697 90.9666 41.2445 84.9046 43.6202C81.3135 45.0303 78.5029 46.994 75.8702 49.6889C74.467 51.1233 73.1607 52.6748 71.8302 54.2101C69.5413 52.7798 67.7134 49.9677 65.8491 47.9556C65.3072 47.3697 64.2194 45.5596 63.4348 45.5677C62.5492 45.5758 60.1066 48.1495 59.4231 48.7637C58.5294 49.5637 56.6894 50.3192 56.4993 51.5031C56.3658 52.3273 58.0441 55.0626 58.8003 56.1212C61.9628 60.5334 62.7271 62.4889 65.7804 65.1152C72.1052 70.5616 77.7507 66.1051 82.001 61.2566C82.3084 64.4323 81.7867 66.8202 82.1102 70.4202C82.1668 71.0667 82.6319 71.6041 83.2587 71.7738C89.6604 73.5071 104.822 73.2162 106.86 72.2142" fill="#EE235E"/>
<path d="M116.824 77.7859C115.332 77.7859 113.815 77.4828 112.493 76.8727C110.382 75.899 108.833 74.3313 107.341 72.8162C107.228 72.699 107.11 72.5818 106.997 72.4647C106.997 72.4647 106.989 72.4647 106.989 72.4687C105.776 73.0626 100.794 73.3131 96.6971 73.301C93.9916 73.2889 87.2583 73.1475 83.19 72.0445C82.4459 71.8424 81.8999 71.2 81.8312 70.4445C81.6654 68.598 81.722 67.0707 81.7745 65.596C81.819 64.3758 81.8595 63.2162 81.7745 61.9394C77.872 66.2667 72.0972 70.9212 65.5984 65.3293C63.4106 63.4424 62.3874 61.9111 60.8426 59.596C60.2117 58.6465 59.4959 57.5717 58.5739 56.2869C58.0684 55.5798 56.0544 52.497 56.2243 51.4586C56.3739 50.5131 57.3768 49.8505 58.2584 49.2647C58.6305 49.0182 58.9783 48.7879 59.2371 48.5576C59.3706 48.4404 59.5728 48.2424 59.8154 48.0081C61.2915 46.5818 62.6786 45.297 63.4389 45.2889H63.447C64.1668 45.2889 64.9068 46.2667 65.562 47.1313C65.7601 47.394 65.934 47.6243 66.0675 47.7657C66.6377 48.3798 67.1877 49.0505 67.77 49.7576C69.0196 51.2808 70.3137 52.8525 71.7858 53.8384L72.2508 53.301C73.3508 52.0243 74.4872 50.7071 75.6761 49.4909C78.4342 46.6707 81.3337 44.7192 84.8076 43.3576C90.3196 41.196 95.8316 40.9131 103.232 42.4162C105.27 42.8283 106.192 43.3051 107.47 43.9636C107.939 44.2061 108.469 44.4808 109.124 44.7838C115.478 47.7535 120.719 52.6303 123.141 57.8303C124.512 60.7758 125.357 64.2909 125.515 67.7293C125.64 70.4445 123.837 75.499 120.832 76.9374C119.659 77.499 118.256 77.7778 116.828 77.7778L116.824 77.7859ZM109.306 63.1232C108.898 65.0788 107.83 66.8041 106.795 68.4808C106.467 69.0142 106.124 69.5636 105.82 70.1051C105.723 70.2748 105.764 70.4929 105.917 70.6344C106.556 71.2121 107.163 71.8303 107.749 72.4243C109.274 73.9717 110.718 75.4344 112.736 76.3636C115.138 77.4707 118.365 77.499 120.585 76.4404C123.287 75.1475 125.066 70.3636 124.949 67.7697C124.795 64.4 123.97 60.9616 122.627 58.0808C120.258 52.998 115.122 48.2222 108.886 45.3051C108.219 44.994 107.685 44.7192 107.212 44.4727C105.93 43.8101 105.08 43.3738 103.119 42.9738C95.8316 41.495 90.4167 41.7657 85.0138 43.8869C81.6168 45.2202 78.7779 47.1273 76.0805 49.8909C74.9037 51.095 73.7754 52.4041 72.6795 53.6727L72.0527 54.396C71.9597 54.501 71.806 54.5253 71.6887 54.4525C70.0509 53.4303 68.6678 51.7455 67.3292 50.1212C66.7509 49.4182 66.205 48.7556 65.6469 48.1535C65.4932 47.9879 65.3153 47.7535 65.105 47.4748C64.648 46.8687 63.8797 45.8586 63.4429 45.8586C62.8444 45.8667 60.9963 47.6525 60.2077 48.4162C59.9569 48.6586 59.7507 48.8566 59.6132 48.9818C59.3261 49.2404 58.9581 49.4828 58.5698 49.7414C57.7853 50.2626 56.8916 50.8566 56.7824 51.5556C56.6813 52.1778 58.0724 54.6222 59.0349 55.9677C59.961 57.2606 60.6808 58.3394 61.3157 59.2929C62.8363 61.5717 63.8392 63.0788 65.9704 64.9131C72.267 70.3354 77.7345 65.7131 81.7907 61.0828C81.8635 60.998 81.9808 60.9657 82.09 60.998C82.1992 61.0303 82.276 61.1273 82.2841 61.2404C82.4378 62.8202 82.3892 64.1859 82.3367 65.6283C82.2841 67.0869 82.2315 68.5939 82.3933 70.4081C82.4418 70.9293 82.8179 71.3737 83.3355 71.5152C89.6038 73.2121 104.033 72.9495 106.569 72.0445C106.233 71.7091 105.889 71.3778 105.537 71.0586C105.185 70.7394 105.101 70.2344 105.327 69.8303C105.638 69.2808 105.982 68.7273 106.314 68.1899C107.406 66.4202 108.538 64.5939 108.837 62.5495C108.853 62.4445 108.922 62.3596 109.023 62.3232C109.124 62.2869 109.234 62.3111 109.31 62.3838C110.139 63.1596 111.272 63.7657 112.493 64.0889C113.682 64.4 115.474 64.4121 116.723 64.2828C116.873 64.2586 117.018 64.3798 117.035 64.5333C117.051 64.6869 116.937 64.8283 116.784 64.8445C115.579 64.9697 113.694 64.9899 112.352 64.6344C111.219 64.3354 110.156 63.8101 109.31 63.1273L109.306 63.1232Z" fill="#484FA1"/>
<path d="M86.5385 42.9051C81.6613 41.701 80.4319 51.2283 80.1529 55.1434C80.0073 57.1919 79.1662 64.4808 82.4661 64.1455C82.9959 62.8566 82.8503 61.7576 83.0201 60.3556C83.1981 58.8929 83.7359 54.9414 84.1686 53.5232C85.208 50.1172 85.301 49.3576 86.5708 46.1293C87.1936 44.5374 87.9013 43.1596 86.5385 42.9091V42.9051Z" fill="#FFD008"/>
<path d="M82.2477 64.4404C81.7179 64.4404 81.261 64.2546 80.8849 63.8869C79.2915 62.3273 79.6555 57.8061 79.8334 55.6324C79.8496 55.4384 79.8617 55.2687 79.8739 55.1233C80.0801 52.2344 80.8768 45.2808 83.7966 43.1596C84.6297 42.5536 85.576 42.3758 86.6031 42.6303C87.0237 42.7071 87.3149 42.893 87.4726 43.1798C87.8123 43.798 87.4403 44.7233 87.0116 45.7899C86.955 45.9354 86.8943 46.0808 86.8337 46.2303C85.9278 48.5374 85.6326 49.5515 85.1432 51.2364C84.9532 51.8909 84.7348 52.6425 84.4396 53.6041C84.0069 55.0142 83.469 58.9818 83.2992 60.3879C83.2466 60.8122 83.2264 61.2122 83.2021 61.6C83.1536 62.4849 83.105 63.3172 82.7249 64.2505C82.6845 64.3475 82.5955 64.4121 82.4904 64.4243C82.4054 64.4324 82.3246 64.4364 82.2477 64.4364V64.4404ZM85.7094 43.0829C85.1392 43.0829 84.6175 43.2606 84.1241 43.6162C81.3944 45.6 80.6341 52.3515 80.4319 55.1637C80.4198 55.3091 80.4077 55.4829 80.3915 55.6768C80.2378 57.6 79.8698 62.1051 81.2771 63.4829C81.5481 63.7495 81.8595 63.8667 82.2639 63.8748C82.551 63.095 82.5915 62.3839 82.6359 61.5717C82.6562 61.1758 82.6804 60.7677 82.733 60.3233C82.9069 58.901 83.4488 54.8889 83.8936 53.4425C84.1889 52.4849 84.4032 51.7334 84.5933 51.0829C85.0704 49.4425 85.3859 48.3556 86.2998 46.0283C86.3605 45.8788 86.4171 45.7293 86.4778 45.5839C86.8377 44.6869 87.1774 43.8424 86.9671 43.4586C86.9388 43.4101 86.8579 43.2566 86.4818 43.1879C86.4778 43.1879 86.4697 43.1879 86.4656 43.1879C86.2028 43.1233 85.9521 43.0909 85.7054 43.0909L85.7094 43.0829Z" fill="#484FA1"/>
<path d="M107.183 43.7616C105.181 42.5091 103.754 43.7131 103.434 44.5293C103.014 45.5959 103.155 47.7495 103.354 49.0101C103.669 50.9777 103.819 52.2747 104.34 54.2262C104.935 56.4525 106.039 58.8404 106.771 61.0222C107.038 61.8222 107.454 62.1616 108.182 62.4767C108.599 62.6585 108.635 62.8323 108.862 63.2202C109.416 62.5777 109.682 63.0949 110.245 63.3697C110.289 62.7353 110.22 62.0161 110.083 61.3899C109.917 60.6181 109.739 59.8505 109.565 59.0828C109.226 57.5959 108.882 56.1091 108.655 54.602C107.454 46.707 108.615 44.299 107.183 43.7616Z" fill="#FFD008"/>
<path d="M110.249 63.6525C110.204 63.6525 110.164 63.6444 110.123 63.6242C109.966 63.5475 109.832 63.4545 109.719 63.3778C109.383 63.1475 109.331 63.1111 109.08 63.406C109.019 63.4747 108.926 63.5111 108.841 63.503C108.748 63.4949 108.667 63.4424 108.623 63.3616C108.587 63.297 108.554 63.2364 108.522 63.1838C108.38 62.9252 108.336 62.8485 108.077 62.7353C107.337 62.4162 106.819 62.0323 106.508 61.1111C106.221 60.2545 105.881 59.3818 105.525 58.4566C104.991 57.0788 104.437 55.6566 104.077 54.2949C103.645 52.6788 103.467 51.5151 103.24 50.0485C103.192 49.7333 103.139 49.402 103.087 49.0545C102.901 47.8949 102.715 45.6202 103.184 44.4283C103.362 43.9757 103.863 43.3454 104.696 43.0707C105.266 42.8808 106.184 42.8081 107.325 43.5111C108.251 43.8747 108.271 44.8121 108.316 46.8364C108.352 48.4727 108.405 50.9495 108.955 54.5656C109.181 56.0444 109.521 57.5313 109.848 58.9697L109.929 59.3212C110.083 59.9919 110.237 60.6626 110.382 61.3333C110.532 62.0364 110.592 62.7677 110.548 63.3939C110.54 63.4869 110.487 63.5717 110.406 63.6202C110.362 63.6444 110.313 63.6566 110.265 63.6566L110.249 63.6525ZM109.363 62.6263C109.598 62.6263 109.8 62.7515 109.974 62.8687C109.966 62.4162 109.909 61.9192 109.808 61.4465C109.666 60.7757 109.513 60.1091 109.359 59.4424L109.278 59.0909C108.946 57.6404 108.603 56.1454 108.376 54.6424C107.822 50.9899 107.77 48.4929 107.733 46.8404C107.693 44.8687 107.652 44.2343 107.082 44.0242C107.066 44.0161 107.046 44.0081 107.034 44C106.269 43.5232 105.521 43.3858 104.862 43.604C104.259 43.802 103.843 44.2626 103.697 44.6303C103.305 45.6323 103.447 47.7697 103.633 48.9616C103.689 49.3131 103.738 49.6444 103.786 49.9596C104.009 51.4141 104.187 52.5616 104.611 54.1495C104.967 55.4788 105.513 56.8889 106.043 58.2505C106.387 59.1394 106.747 60.0566 107.038 60.9293C107.284 61.6646 107.652 61.9394 108.295 62.2141C108.663 62.3717 108.805 62.5454 108.934 62.7717C109.088 62.6667 109.23 62.6263 109.363 62.6263Z" fill="#484FA1"/>
<path d="M90.6068 155.56L90.9424 155.608C91.3994 155.673 91.82 155.353 91.8806 154.901L104.005 65.0181C104.069 64.5615 103.75 64.1413 103.297 64.0807L102.961 64.0322C102.504 63.9676 102.084 64.2868 102.023 64.7393L89.899 154.622C89.8343 155.079 90.1538 155.499 90.6068 155.56Z" fill="#FFD008"/>
<path d="M91.0597 155.899C91.0071 155.899 90.9545 155.899 90.902 155.887L90.5663 155.838C90.2711 155.798 90.0082 155.644 89.8303 155.406C89.6523 155.168 89.5755 154.877 89.616 154.582L101.736 64.6989C101.821 64.0888 102.387 63.6686 102.994 63.7494L103.329 63.7979C103.625 63.8383 103.887 63.9919 104.065 64.2303C104.243 64.4686 104.32 64.7595 104.28 65.0545L92.1556 154.937C92.1152 155.232 91.9615 155.495 91.7229 155.673C91.5288 155.818 91.2942 155.899 91.0556 155.899H91.0597ZM90.6431 155.281L90.9788 155.329C91.1244 155.349 91.27 155.313 91.3872 155.224C91.5045 155.135 91.5814 155.006 91.6016 154.861L103.726 64.9777C103.746 64.8323 103.709 64.6868 103.62 64.5696C103.532 64.4525 103.402 64.3757 103.257 64.3555L102.921 64.307C102.618 64.2626 102.343 64.4767 102.302 64.7757L90.1821 154.659C90.1619 154.804 90.1983 154.949 90.2873 155.067C90.3762 155.184 90.5056 155.261 90.6512 155.281H90.6431Z" fill="#484FA1"/>
<path d="M105.324 51.3382L105.268 51.3299C104.391 51.2004 103.574 51.8058 103.445 52.6821L102.671 57.9101C102.541 58.7865 103.147 59.602 104.024 59.7315L104.08 59.7398C104.958 59.8694 105.774 59.264 105.903 58.3876L106.677 53.1596C106.807 52.2832 106.201 51.4678 105.324 51.3382Z" fill="#484FA1"/>
<path d="M104.316 60.0363C104.223 60.0363 104.134 60.0283 104.041 60.0161L103.988 60.0081C102.957 59.8545 102.241 58.8929 102.395 57.8666L103.168 52.6384C103.24 52.1414 103.503 51.701 103.908 51.398C104.312 51.099 104.809 50.9737 105.311 51.0464L105.367 51.0545C105.865 51.1272 106.306 51.3899 106.609 51.7939C106.908 52.198 107.034 52.6949 106.961 53.1959L106.188 58.4242C106.051 59.3616 105.242 60.0363 104.32 60.0363H104.316ZM105.032 51.5919C104.749 51.5919 104.478 51.6808 104.247 51.8545C103.964 52.0646 103.778 52.3717 103.726 52.7232L102.953 57.9515C102.848 58.6707 103.345 59.3454 104.069 59.4505L104.122 59.4586C104.842 59.5636 105.517 59.0666 105.622 58.3434L106.395 53.1151C106.447 52.7677 106.358 52.4161 106.148 52.1333C105.938 51.8505 105.63 51.6646 105.279 51.6121L105.222 51.604C105.157 51.5959 105.092 51.5879 105.028 51.5879L105.032 51.5919Z" fill="#484FA1"/>
<path d="M95.0188 58.7878C94.5254 58.7878 94.032 58.6181 93.5387 58.2302C92.7582 57.6121 92.4468 56.9292 92.6166 56.206C93.2192 53.6484 99.7422 51.7171 100.919 51.4666C101.04 51.4424 101.218 51.3898 101.433 51.3333C102.86 50.9373 104.316 50.5979 105.008 51.1191C105.242 51.2969 105.367 51.5595 105.372 51.8787C105.372 51.9636 105.335 52.0484 105.266 52.101C105.198 52.1535 105.109 52.1777 105.024 52.1575C103.155 51.7252 101.336 53.6727 99.5764 55.5555C98.0842 57.1515 96.5555 58.7878 95.0147 58.7919L95.0188 58.7878ZM104.001 51.4141C103.256 51.4141 102.185 51.709 101.586 51.8747C101.356 51.9393 101.166 51.9919 101.036 52.0161C99.0507 52.4363 93.6236 54.3999 93.1707 56.3313C93.0534 56.8323 93.2879 57.305 93.8905 57.7818C95.5162 59.0666 97.2066 57.2606 99.1639 55.1636C100.879 53.3292 102.634 51.4343 104.607 51.5272C104.462 51.4464 104.247 51.4141 103.997 51.4141H104.001Z" fill="#484FA1"/>
<path d="M105.234 54.5494C105.117 54.5494 104.995 54.5413 104.87 54.5251C104.207 54.4363 103.657 54.1373 103.37 53.7009C103.309 53.608 103.333 53.4827 103.426 53.4221C103.519 53.3575 103.645 53.3857 103.705 53.4787C103.928 53.814 104.381 54.0565 104.923 54.1251C105.42 54.1938 105.901 54.0969 106.148 53.8827C106.233 53.81 106.358 53.8181 106.435 53.8989C106.512 53.9797 106.5 54.109 106.419 54.1857C106.152 54.4201 105.719 54.5534 105.238 54.5534L105.234 54.5494Z" fill="white"/>
<path d="M105.076 55.9757C104.959 55.9757 104.838 55.9676 104.712 55.9515C104.049 55.8626 103.499 55.5636 103.212 55.1272C103.151 55.0343 103.176 54.909 103.269 54.8484C103.362 54.7878 103.487 54.8121 103.548 54.905C103.77 55.2403 104.223 55.4828 104.765 55.5515C105.266 55.6161 105.744 55.5232 105.99 55.309C106.075 55.2363 106.201 55.2444 106.277 55.3252C106.35 55.41 106.342 55.5353 106.261 55.6121C105.994 55.8464 105.562 55.9797 105.08 55.9797L105.076 55.9757Z" fill="white"/>
<path d="M104.919 57.402C104.801 57.402 104.68 57.3939 104.555 57.3777C103.891 57.2888 103.341 56.9899 103.054 56.5535C102.994 56.4606 103.018 56.3353 103.111 56.2747C103.204 56.2141 103.329 56.2383 103.39 56.3313C103.612 56.6666 104.065 56.909 104.607 56.9777C105.105 57.0464 105.586 56.9494 105.833 56.7353C105.917 56.6626 106.043 56.6707 106.12 56.7515C106.192 56.8363 106.184 56.9616 106.104 57.0383C105.837 57.2727 105.404 57.406 104.923 57.406L104.919 57.402Z" fill="white"/>
<path d="M89.713 154.824C88.8152 154.743 88.6818 155.483 88.7182 155.725C88.7869 156.174 89.4987 156.683 90.6027 156.828C91.4358 156.941 92.649 156.759 92.7824 156.404C92.8916 156.113 93.1019 155.487 92.3416 155.244C91.7633 155.058 91.5005 155.794 89.713 154.824Z" fill="#484FA1"/>
<path d="M91.1284 157.147C90.9222 157.147 90.7281 157.135 90.5663 157.115C89.4097 156.962 88.5362 156.408 88.4391 155.774C88.4027 155.531 88.4755 155.147 88.7303 154.877C88.8961 154.703 89.2035 154.505 89.7373 154.549C89.7737 154.549 89.8141 154.566 89.8465 154.582C90.9586 155.188 91.3953 155.083 91.7472 154.998C91.9494 154.949 92.1637 154.897 92.4266 154.982C92.746 155.083 92.9685 155.256 93.0857 155.499C93.2758 155.891 93.114 156.323 93.0453 156.509C92.8674 156.978 91.9049 157.151 91.1244 157.151L91.1284 157.147ZM89.5795 155.103C89.3854 155.103 89.2398 155.155 89.1428 155.261C89.0053 155.406 88.9891 155.624 88.9972 155.685C89.0377 155.951 89.5876 156.412 90.6391 156.553C91.4843 156.667 92.4063 156.452 92.5196 156.299C92.556 156.194 92.6611 155.919 92.5762 155.745C92.5277 155.648 92.4225 155.572 92.2527 155.519C92.1435 155.483 92.0545 155.503 91.8766 155.547C91.46 155.648 90.8939 155.782 89.6281 155.111C89.6119 155.111 89.5957 155.111 89.5755 155.111L89.5795 155.103Z" fill="#484FA1"/>
<path d="M90.8349 155.878L90.8148 155.876C90.5669 155.842 90.3388 156.016 90.3053 156.264L89.9103 159.182C89.8768 159.43 90.0505 159.658 90.2984 159.691L90.3185 159.694C90.5664 159.728 90.7945 159.554 90.828 159.306L91.223 156.387C91.2565 156.14 91.0827 155.912 90.8349 155.878Z" fill="#484FA1"/>
<path d="M90.3722 159.984C90.3398 159.984 90.3075 159.984 90.2751 159.976H90.259C89.8545 159.919 89.5715 159.547 89.624 159.143L90.0204 156.226C90.0729 155.822 90.4531 155.539 90.8494 155.596C91.27 155.653 91.553 156.024 91.4964 156.428L91.1001 159.345C91.0758 159.539 90.9747 159.713 90.817 159.834C90.6876 159.931 90.5299 159.984 90.3722 159.984ZM90.7604 156.162C90.6674 156.162 90.5946 156.222 90.5825 156.307L90.1862 159.224C90.174 159.317 90.2387 159.406 90.3317 159.418L90.3075 159.701L90.3439 159.422C90.3884 159.422 90.4328 159.418 90.4692 159.39C90.5056 159.362 90.5299 159.321 90.5339 159.277L90.9303 156.36C90.9343 156.315 90.9262 156.271 90.8979 156.234C90.8696 156.198 90.8292 156.174 90.7847 156.17C90.7725 156.17 90.7645 156.17 90.7564 156.17L90.7604 156.162Z" fill="#484FA1"/>
<path d="M108.498 62.602C106.888 62.0808 106.908 60.2384 106.128 58.9899C105.756 58.3919 104.712 58.0929 104.033 58.1495C103.155 58.2222 102.108 58.4081 101.408 58.9697C100.818 59.4424 100.498 60.2626 101.186 60.7879C99.9849 61.6687 100.551 62.6747 101.081 62.9656C99.9565 63.903 101.057 65.6646 101.615 66.1252C102.237 66.6343 104.239 66.7879 104.069 65.5798C103.972 64.9091 103.115 64.598 102.533 64.4848C102.872 64.5293 104.065 64.8808 104.094 65.6525C104.106 65.9959 103.916 66.2384 104.057 66.5818C104.272 67.1111 104.874 67.5434 105.388 67.6768C106.099 67.8626 106.33 68.1252 106.977 67.6202C107.608 67.1232 108.793 64.8606 108.91 64.1091C109.027 63.3576 109.254 63.1515 108.498 62.602Z" fill="white"/>
<path d="M106.302 68.1778C106.095 68.1778 105.905 68.1131 105.695 68.0444C105.586 68.0081 105.465 67.9677 105.323 67.9313C104.769 67.7858 104.073 67.3091 103.815 66.6788C103.802 66.6505 103.794 66.6222 103.786 66.598C103.107 66.9333 101.954 66.7394 101.453 66.3273C100.988 65.9475 100.337 64.9374 100.333 64.0363C100.333 63.6363 100.45 63.2848 100.684 62.9939C100.442 62.7677 100.24 62.4242 100.215 62.0283C100.195 61.701 100.284 61.2363 100.794 60.7717C100.628 60.5697 100.543 60.3313 100.539 60.0727C100.535 59.6161 100.798 59.1273 101.251 58.7636C101.857 58.2747 102.763 57.9879 104.017 57.8868C104.813 57.8222 105.934 58.1737 106.358 58.8485C106.625 59.2767 106.803 59.7656 106.973 60.2384C107.305 61.1636 107.62 62.0404 108.587 62.3515C108.615 62.3596 108.639 62.3717 108.659 62.3879C109.383 62.9172 109.355 63.2565 109.242 63.8141C109.221 63.9151 109.197 64.0242 109.177 64.1495C109.048 64.9858 107.83 67.2848 107.147 67.8262C106.811 68.0889 106.548 68.1778 106.31 68.1778H106.302ZM103.871 64.7677C104.142 64.9818 104.344 65.2687 104.361 65.6363C104.369 65.806 104.336 65.9434 104.308 66.0687C104.267 66.2464 104.251 66.3475 104.304 66.4727C104.494 66.9374 105.04 67.305 105.46 67.4141C105.614 67.4545 105.748 67.499 105.865 67.5353C106.277 67.6727 106.419 67.7172 106.819 67.402C107.394 66.9495 108.546 64.7636 108.655 64.0565C108.676 63.9192 108.7 63.802 108.724 63.6929C108.817 63.2485 108.833 63.1596 108.38 62.8242C107.203 62.4242 106.831 61.398 106.476 60.404C106.314 59.9596 106.148 59.4949 105.909 59.1151C105.614 58.6424 104.692 58.3434 104.057 58.3959C102.909 58.4889 102.1 58.7394 101.574 59.1596C101.255 59.4182 101.057 59.7576 101.061 60.0525C101.061 60.2505 101.158 60.4242 101.344 60.5656C101.408 60.6141 101.449 60.6949 101.449 60.7757C101.449 60.8606 101.408 60.9374 101.34 60.9858C100.923 61.2929 100.717 61.6363 100.737 61.9798C100.757 62.3232 100.996 62.602 101.206 62.7192C101.283 62.7596 101.332 62.8363 101.34 62.9252C101.348 63.0101 101.311 63.0949 101.247 63.1515C100.98 63.3737 100.85 63.6565 100.854 64.0202C100.854 64.7757 101.449 65.6363 101.78 65.907C102.144 66.206 103.119 66.3555 103.584 66.0929C103.77 65.9879 103.839 65.8343 103.806 65.6C103.778 65.3899 103.625 65.2121 103.41 65.0747C103.301 65.006 103.184 64.9454 103.066 64.8969C102.88 64.8202 102.674 64.7636 102.476 64.7232C102.338 64.6949 102.245 64.5616 102.266 64.4242C102.29 64.2828 102.415 64.1818 102.561 64.206C102.702 64.2262 102.99 64.2909 103.293 64.4202C103.491 64.501 103.693 64.6101 103.863 64.7515L103.871 64.7677Z" fill="#484FA1"/>
<path d="M101.073 60.8243C101.772 60.2909 103.301 59.9636 103.859 59.9919L101.073 60.8243Z" fill="white"/>
<path d="M101.073 61.0869C100.992 61.0869 100.915 61.0505 100.862 60.9819C100.773 60.8647 100.798 60.7031 100.911 60.6142C101.687 60.0202 103.289 59.7051 103.871 59.7293C104.017 59.7374 104.126 59.8627 104.122 60.0041C104.114 60.1495 103.984 60.2505 103.847 60.2546C103.329 60.2223 101.882 60.5374 101.234 61.0303C101.186 61.0667 101.129 61.0829 101.077 61.0829L101.073 61.0869Z" fill="#484FA1"/>
<path d="M101.085 62.8969C101.89 62.2989 102.961 62.1414 103.904 62.2464L101.085 62.8969Z" fill="white"/>
<path d="M101.085 63.1595C101.004 63.1595 100.927 63.1232 100.875 63.0545C100.79 62.9373 100.814 62.7717 100.927 62.6868C101.7 62.1131 102.795 61.8585 103.932 61.9878C104.077 62.004 104.179 62.1333 104.162 62.2787C104.146 62.4242 104.013 62.5252 103.871 62.509C102.864 62.3959 101.902 62.6141 101.239 63.107C101.19 63.1434 101.137 63.1595 101.081 63.1595H101.085Z" fill="#484FA1"/>
<path d="M97.7081 43.3939C97.6595 43.4464 97.611 43.4949 97.5625 43.5434C96.7496 44.3232 95.5809 44.9333 94.4769 44.7878C92.7905 44.5656 92.1071 43.8666 91.5247 42.8605C91.0597 42.0525 91.2133 42.1373 90.6634 41.3737C90.2306 40.7717 89.6281 40.2383 89.1549 39.6646C87.1289 37.1959 87.4969 33.5191 88.6373 30.7151C90.4369 26.2868 98.2014 28.6181 99.4753 31.4504C99.997 32.61 99.3378 34.0646 99.4955 35.2969C100.102 34.4323 101.332 33.9353 102.217 34.7636C103.095 35.5878 102.399 37.3171 101.805 38.0767C101.344 38.6666 100.717 38.9292 100.046 39.2929C99.4955 39.5878 98.7757 39.5595 98.533 40.2222C98.3147 40.8161 98.5856 41.4626 98.4319 42.0727C98.3066 42.5696 98.0518 43.0222 97.704 43.3979L97.7081 43.3939Z" fill="white"/>
<path d="M94.8085 45.0909C94.6831 45.0909 94.5618 45.0828 94.4405 45.0667C92.6692 44.8323 91.917 44.101 91.2821 42.998C91.0961 42.6747 91.0071 42.4929 90.9343 42.3394C90.8251 42.1172 90.7604 41.9798 90.4369 41.5353C90.1983 41.204 89.8909 40.8808 89.5957 40.5656C89.3733 40.3313 89.1428 40.0889 88.9406 39.8384C86.2634 36.5778 87.8366 31.9434 88.3785 30.602C89.0538 28.9374 90.6108 27.9959 92.7622 27.9555C95.6618 27.8949 98.9092 29.4788 99.7382 31.3252C100.082 32.0848 99.9687 32.9293 99.8595 33.7454C99.8231 34.0363 99.7827 34.3192 99.7665 34.5899C100.13 34.2949 100.563 34.101 100.988 34.0566C101.522 34 102.015 34.1697 102.411 34.5454C103.495 35.5596 102.601 37.5071 102.031 38.2384C101.602 38.7879 101.065 39.0667 100.49 39.3656C100.389 39.4182 100.288 39.4707 100.183 39.5273C99.9889 39.6323 99.7867 39.697 99.5926 39.7616C99.1639 39.899 98.9132 39.9959 98.8 40.3071C98.7029 40.5697 98.7231 40.8646 98.7474 41.1798C98.7676 41.4869 98.7919 41.806 98.711 42.1333C98.5816 42.6586 98.3066 43.1596 97.9184 43.5798C97.8698 43.6364 97.8173 43.6889 97.7606 43.7414C96.8669 44.602 95.7912 45.0869 94.8125 45.0869L94.8085 45.0909ZM92.9038 28.5252C92.8593 28.5252 92.8148 28.5252 92.7743 28.5252C91.4236 28.5495 89.6564 28.9697 88.9042 30.8161C87.8406 33.4303 87.4079 37.0828 89.3773 39.4828C89.5674 39.7172 89.7818 39.9394 90.0082 40.1778C90.3156 40.505 90.635 40.8404 90.8979 41.204C91.2497 41.6889 91.3306 41.8586 91.4439 42.0929C91.5126 42.2343 91.5975 42.4081 91.7755 42.7151C92.3416 43.6929 92.9685 44.299 94.5173 44.505C95.5809 44.6465 96.6849 43.9959 97.3684 43.3374C97.4129 43.2929 97.4573 43.2485 97.5018 43.2C97.8254 42.8485 98.0559 42.4323 98.161 41.9959C98.2217 41.7576 98.2014 41.4949 98.1853 41.2202C98.161 40.8606 98.1367 40.4929 98.2742 40.1172C98.4886 39.5313 98.986 39.3697 99.4228 39.2283C99.6007 39.1717 99.7705 39.1151 99.9161 39.0343C100.021 38.9778 100.126 38.9212 100.232 38.8687C100.769 38.5858 101.234 38.3434 101.586 37.8949C102.128 37.2 102.739 35.6283 102.027 34.9616C101.748 34.699 101.421 34.5858 101.048 34.6222C100.563 34.6707 100.058 34.9899 99.7341 35.4545C99.6654 35.5515 99.5481 35.5959 99.4349 35.5677C99.3217 35.5394 99.2367 35.4424 99.2205 35.3293C99.1518 34.7919 99.2286 34.2262 99.3014 33.6768C99.4025 32.905 99.4996 32.1778 99.2246 31.5636C98.5007 29.9515 95.5122 28.5252 92.9038 28.5252Z" fill="#484FA1"/>
<path d="M90.8898 36.0242C90.4976 36.0242 90.0851 35.8989 89.7898 35.6686C89.4623 35.4141 89.3167 35.0666 89.3774 34.6909C89.438 34.303 89.5715 34.0404 89.7858 33.8909C90.081 33.6848 90.4329 33.7575 90.7159 33.8141C91.0314 33.8787 91.1527 33.8828 91.2214 33.7939C91.3185 33.5919 91.4762 32.0969 91.4317 31.709C91.3508 31.0101 90.6957 30.7959 89.6604 30.6787C88.7991 30.5777 88.3502 30.6626 87.5171 30.9454C87.3675 30.9979 87.2098 30.9171 87.1572 30.7676C87.1046 30.6181 87.1855 30.4606 87.3351 30.408C88.2167 30.109 88.7424 29.9999 89.7251 30.1131C90.4652 30.1979 91.8442 30.3595 91.9938 31.6404C92.0343 31.9959 91.9089 33.8343 91.6663 34.1414C91.3711 34.5171 90.9262 34.4282 90.6027 34.3636C90.4086 34.3232 90.2064 34.2828 90.1093 34.3515C90.0325 34.404 89.9718 34.5535 89.9354 34.7717C89.9071 34.9414 89.9759 35.0909 90.1376 35.2161C90.4369 35.4464 90.9505 35.5191 91.2821 35.3818C91.4236 35.3212 91.5935 35.3858 91.6541 35.5313C91.7148 35.6767 91.6501 35.8424 91.5045 35.903C91.3185 35.9838 91.1082 36.0202 90.8898 36.0202V36.0242Z" fill="#484FA1"/>
<path d="M95.3585 31.9111C95.3059 31.9111 95.2533 31.8949 95.2048 31.8666C94.7195 31.5515 94.4243 31.4222 93.8218 31.5596C93.6721 31.5959 93.5185 31.4989 93.4821 31.3495C93.4457 31.1959 93.5427 31.0464 93.6923 31.0101C94.5295 30.8161 94.9905 31.0585 95.5122 31.3939C95.6456 31.4787 95.682 31.6525 95.5971 31.7858C95.5445 31.8707 95.4515 31.9151 95.3585 31.9151V31.9111Z" fill="#484FA1"/>
<path d="M93.7894 34.2504C94.0284 34.2504 94.2221 34.0568 94.2221 33.8181C94.2221 33.5793 94.0284 33.3857 93.7894 33.3857C93.5504 33.3857 93.3567 33.5793 93.3567 33.8181C93.3567 34.0568 93.5504 34.2504 93.7894 34.2504Z" fill="#484FA1"/>
<path d="M93.7894 34.5333C93.7651 34.5333 93.7409 34.5333 93.7166 34.5333C93.3243 34.4929 93.0372 34.1414 93.0777 33.7494C93.1181 33.3575 93.4699 33.0747 93.8622 33.1111C94.2545 33.1515 94.5416 33.503 94.5012 33.8949C94.4648 34.2626 94.1534 34.5373 93.7894 34.5373V34.5333ZM93.6398 33.802C93.6317 33.8828 93.6923 33.9595 93.7732 33.9676C93.8662 33.9757 93.9309 33.9151 93.939 33.8343C93.9471 33.7535 93.8865 33.6767 93.8056 33.6686C93.7126 33.6686 93.6479 33.7212 93.6398 33.802Z" fill="#484FA1"/>
<path d="M89.4704 33.7212C89.7295 33.7212 89.9395 33.5114 89.9395 33.2525C89.9395 32.9937 89.7295 32.7838 89.4704 32.7838C89.2113 32.7838 89.0013 32.9937 89.0013 33.2525C89.0013 33.5114 89.2113 33.7212 89.4704 33.7212Z" fill="#484FA1"/>
<path d="M89.4744 34.008C89.4502 34.008 89.4218 34.008 89.3976 34.008C89.1954 33.9878 89.0174 33.8909 88.8921 33.7333C88.7667 33.5757 88.706 33.3818 88.7263 33.1838C88.7465 32.9858 88.8435 32.804 88.9972 32.6788C89.1509 32.5535 89.3491 32.4929 89.5513 32.5131C89.9637 32.5535 90.2671 32.9252 90.2226 33.3373C90.2023 33.5394 90.1053 33.7171 89.9476 33.8464C89.8141 33.9555 89.6443 34.0161 89.4744 34.0161V34.008ZM89.4704 33.0666C89.4259 33.0666 89.3854 33.0828 89.3531 33.107C89.3127 33.1394 89.2924 33.1838 89.2843 33.2323C89.2803 33.2808 89.2924 33.3293 89.3248 33.3697C89.3571 33.4101 89.4016 33.4343 89.4502 33.4384C89.4987 33.4424 89.5472 33.4303 89.5876 33.3979C89.6281 33.3656 89.6524 33.3212 89.6564 33.2727C89.6685 33.1717 89.5917 33.0788 89.4906 33.0666C89.4825 33.0666 89.4785 33.0666 89.4704 33.0666Z" fill="#484FA1"/>
<path d="M90.9909 38.3191C90.6876 38.3191 90.3762 38.2706 90.0729 38.1656C89.9233 38.1171 89.8465 37.9555 89.895 37.806C89.9435 37.6565 90.1053 37.5757 90.2549 37.6282C91.2659 37.9716 92.3457 37.5757 92.7703 36.7151C92.8391 36.5737 93.0089 36.5171 93.1504 36.5858C93.292 36.6545 93.3486 36.8242 93.2799 36.9656C92.8633 37.8181 91.9615 38.3191 90.9909 38.3191Z" fill="#484FA1"/>
<path d="M93.5468 37.1313C93.4052 37.1313 93.2799 37.0222 93.2637 36.8768C93.2354 36.5939 92.835 36.6141 92.7541 36.6222C92.6045 36.6343 92.463 36.5212 92.4508 36.3636C92.4387 36.2101 92.5519 36.0727 92.7096 36.0606C93.2273 36.0202 93.7651 36.2384 93.8299 36.8202C93.846 36.9737 93.7328 37.1151 93.5791 37.1313C93.571 37.1313 93.5589 37.1313 93.5508 37.1313H93.5468Z" fill="#484FA1"/>
<path d="M89.8222 28.9738C87.5009 27.6324 90.627 25.0667 91.9696 24.4324C94.6993 23.1394 97.8294 23.0546 100.458 24.7152C101.764 25.5394 102.464 26.493 103.151 27.8182C104.041 29.5314 103.754 31.794 104.15 33.6203C104.878 36.9819 104.401 38.7394 105.19 40.6304C106.257 43.192 106.104 43.6647 105.08 44.7031C103.993 45.8061 102.027 44.5657 101.505 43.3011C101.202 44.7516 100.26 45.4465 98.8 44.7677C97.3401 44.0889 98.2621 43.0182 98.3592 41.7374C98.5048 39.8263 98.5048 39.9314 100.596 38.8849C101.744 38.3071 102.577 37.2081 102.484 35.8021C102.318 33.2566 100.26 33.8182 99.265 35.6162C98.99 34.497 99.2569 33.2728 99.083 32.097C98.8606 30.594 98.8404 30.0768 97.3603 29.8102C95.5283 29.4788 92.2041 29.0546 89.8141 28.9697L89.8222 28.9738Z" fill="#484FA1"/>
<path d="M104.053 45.4142C103.916 45.4142 103.774 45.398 103.633 45.3697C102.872 45.2202 102.088 44.6788 101.594 44.0081C101.376 44.5374 101.053 44.9212 100.632 45.1313C100.09 45.402 99.4187 45.3657 98.6867 45.0222C97.4088 44.4283 97.6636 43.5031 97.886 42.6829C97.9709 42.3677 98.0599 42.0445 98.0842 41.7132C98.2298 39.802 98.2864 39.7212 100.151 38.7919L100.474 38.6303C101.635 38.0485 102.282 36.998 102.205 35.8182C102.152 34.9859 101.882 34.4728 101.441 34.3758C100.85 34.2465 100.021 34.8364 99.5158 35.7495C99.4592 35.8505 99.35 35.9111 99.2286 35.8909C99.1114 35.8748 99.0184 35.7899 98.99 35.6768C98.8323 35.0263 98.8445 34.3435 98.8566 33.6849C98.8687 33.1717 98.8768 32.6384 98.804 32.1334L98.7798 31.9717C98.5775 30.5899 98.5371 30.3031 97.3077 30.0808C95.4192 29.7374 92.1475 29.3293 89.802 29.2445C89.7575 29.2445 89.709 29.2283 89.6685 29.2081C88.8314 28.7233 88.6777 28.1091 88.6939 27.6768C88.7546 26.2384 90.8009 24.6586 91.8321 24.1697C94.8449 22.7435 98.0357 22.8525 100.596 24.4727C101.987 25.3495 102.719 26.3919 103.39 27.6849C103.976 28.8162 104.073 30.1495 104.166 31.4384C104.219 32.1899 104.272 32.901 104.413 33.5556C104.757 35.1515 104.834 36.3677 104.902 37.4424C104.975 38.6222 105.036 39.5556 105.436 40.5172C106.548 43.1839 106.387 43.7616 105.27 44.897C104.935 45.2364 104.514 45.4101 104.037 45.4101L104.053 45.4142ZM101.509 43.0182C101.623 43.0182 101.728 43.0869 101.772 43.1919C102.084 43.9475 102.949 44.6586 103.742 44.8121C104.211 44.9051 104.591 44.796 104.886 44.501C105.788 43.5879 105.982 43.2445 104.935 40.7354C104.498 39.6889 104.433 38.6627 104.356 37.4788C104.292 36.4243 104.215 35.2283 103.879 33.6768C103.73 32.9818 103.673 32.2182 103.62 31.4829C103.532 30.2505 103.438 28.9738 102.905 27.9475C102.258 26.7031 101.598 25.7657 100.308 24.9536C97.9184 23.4424 94.9217 23.3455 92.0909 24.6869C91.1325 25.1394 89.3207 26.5778 89.2763 27.7051C89.2601 28.097 89.4663 28.4202 89.9071 28.6909C92.2729 28.7839 95.5324 29.1919 97.421 29.5313C99.0507 29.8263 99.1518 30.5172 99.35 31.899L99.3742 32.0566C99.4551 32.6061 99.443 33.1637 99.4349 33.701C99.4268 34.101 99.4187 34.4849 99.447 34.8566C100.074 34.0849 100.887 33.6728 101.574 33.8263C101.983 33.9192 102.682 34.295 102.779 35.7859C102.872 37.196 102.108 38.4525 100.737 39.1394L100.41 39.301C99.3203 39.8424 98.7353 40.6626 98.6544 41.7616C98.6261 42.1495 98.525 42.5132 98.436 42.8364C98.1934 43.7253 98.1206 44.1334 98.9294 44.5132C99.5077 44.7839 99.997 44.8202 100.381 44.6303C100.794 44.4243 101.089 43.9435 101.239 43.2445C101.263 43.1233 101.364 43.0303 101.489 43.0222C101.497 43.0222 101.505 43.0222 101.514 43.0222L101.509 43.0182Z" fill="#484FA1"/>
<path d="M104.627 30.0081C104.425 31.6202 103.726 31.5475 101.586 31.297C100.139 31.1273 96.6971 30.5859 95.2655 30.3273C91.9008 29.7212 91.0759 29.5233 87.9458 28.7354C86.7851 28.4445 84.9249 27.5839 84.0797 26.7435C82.5106 25.1798 84.4315 24.2748 85.8793 24.1293C89.0538 23.8182 92.7744 24.497 95.8519 25.2808C97.789 25.7738 105.008 27.8263 104.627 30.0081Z" fill="#FFD008"/>
<path d="M103.151 31.7132C102.707 31.7132 102.177 31.6485 101.554 31.5758C100.041 31.394 96.5838 30.8526 95.2129 30.6061C91.8442 30 90.9828 29.7899 87.873 29.0101C86.6395 28.699 84.7591 27.8223 83.8775 26.9414C83.1414 26.2101 83.1455 25.6162 83.2789 25.2485C83.5741 24.4243 84.7833 23.9515 85.8509 23.8465C88.4836 23.5839 91.8725 23.9758 95.9206 25.0061C98.1367 25.5677 105.323 27.592 104.906 30.0485C104.737 31.3738 104.179 31.7132 103.151 31.7132ZM87.5252 24.3354C86.955 24.3354 86.4171 24.3596 85.9076 24.4122C85.0179 24.501 84.0149 24.8808 83.8127 25.4425C83.7036 25.7536 83.8572 26.1253 84.2778 26.5455C85.0664 27.3293 86.8458 28.1697 88.0105 28.4647C91.1648 29.2566 91.9494 29.4465 95.31 30.0526C96.8184 30.3233 100.211 30.8526 101.615 31.0182C103.806 31.2768 104.174 31.2849 104.34 29.9758C104.34 29.9717 104.34 29.9677 104.34 29.9637C104.595 28.497 100.082 26.6546 95.775 25.5596C92.5802 24.7475 89.8141 24.3394 87.5171 24.3394L87.5252 24.3354Z" fill="#484FA1"/>
<path d="M104.595 30.1253C105.19 28.295 105.206 26.2707 104.51 24.9535C102.618 21.3697 97.6798 19.701 93.9026 21.3333C92.2325 22.0566 91.0839 24.3798 90.5218 25.9394C90.4935 26.7839 93.6924 27.9313 96.2846 28.6667C99.0305 29.4465 102.351 30.2222 104.599 30.1253H104.595Z" fill="#FFD008"/>
<path d="M104.199 30.4161C102.347 30.4161 99.6613 29.9192 96.2037 28.9373C92.2163 27.806 90.2104 26.7919 90.2387 25.9272C90.2387 25.899 90.2468 25.8666 90.2549 25.8424C90.6714 24.6868 91.8523 21.9111 93.7894 21.0707C97.6838 19.3858 102.812 21.1394 104.757 24.8202C105.465 26.1616 105.505 28.2262 104.862 30.2101C104.826 30.3232 104.724 30.4 104.603 30.404C104.474 30.4081 104.336 30.4121 104.195 30.4121L104.199 30.4161ZM90.8089 25.9798C90.8898 26.3394 92.4185 27.2727 96.3614 28.3919C99.8919 29.3939 102.601 29.8828 104.385 29.8464C104.911 28.0848 104.866 26.2343 104.259 25.0828C102.444 21.6485 97.6555 20.0161 94.0159 21.5879C92.3093 22.3232 91.2174 24.8606 90.8089 25.9757V25.9798Z" fill="#484FA1"/>
<path d="M104.757 27.8707C104.53 27.6929 103.544 27.697 103.256 27.7737C102.613 27.9475 102.371 28.6222 102.258 29.1556C102.209 29.3859 102.043 29.7172 102.298 29.8707C102.472 29.9758 103.022 29.9677 103.224 29.9758C103.596 29.9879 104.397 30.0687 104.619 29.7455C104.822 29.4546 104.737 28.9576 104.781 28.6263C104.809 28.4202 104.906 28.1535 104.757 27.8707Z" fill="#484FA1"/>
<path d="M103.754 30.2748C103.616 30.2748 103.483 30.2667 103.362 30.2627L103.119 30.2546C102.723 30.2465 102.351 30.2303 102.152 30.1132C101.76 29.8788 101.886 29.4344 101.946 29.2202C101.958 29.1758 101.97 29.1354 101.979 29.099C102.165 28.2061 102.569 27.6687 103.18 27.5031C103.459 27.4263 104.583 27.3818 104.931 27.6485C104.963 27.6728 104.987 27.7051 105.008 27.7374C105.177 28.0566 105.121 28.3556 105.084 28.5536C105.076 28.5899 105.068 28.6303 105.064 28.6627C105.052 28.7556 105.052 28.8606 105.052 28.9738C105.052 29.2808 105.044 29.6324 104.858 29.9031C104.64 30.2142 104.174 30.2748 103.754 30.2748ZM103.831 28.0041C103.624 28.0041 103.434 28.0162 103.333 28.0445C102.941 28.1495 102.682 28.5334 102.537 29.2122C102.525 29.2606 102.512 29.3172 102.496 29.3738C102.476 29.4505 102.436 29.5919 102.448 29.6324C102.516 29.6606 102.747 29.6808 103.131 29.6889L103.39 29.697C103.608 29.7091 104.284 29.7374 104.393 29.5798C104.482 29.4505 104.486 29.1919 104.486 28.9657C104.486 28.8283 104.486 28.699 104.506 28.5859C104.51 28.5414 104.522 28.493 104.53 28.4445C104.555 28.3111 104.579 28.1899 104.542 28.0687C104.405 28.0243 104.106 28 103.831 28V28.0041Z" fill="#484FA1"/>
<path d="M99.6209 37.996C99.4915 37.996 99.3742 37.9071 99.3459 37.7738C99.3095 37.6202 99.4066 37.4707 99.5602 37.4344C100.397 37.2445 100.846 36.6222 100.725 35.8101C100.701 35.6566 100.81 35.5111 100.964 35.4909C101.113 35.4667 101.263 35.5758 101.283 35.7293C101.445 36.8445 100.818 37.7293 99.6816 37.9879C99.6613 37.9919 99.6411 37.996 99.6169 37.996H99.6209Z" fill="#484FA1"/>
<path d="M89.1549 29.2524C88.0226 30.7555 87.6586 33.705 86.7568 36.9898C86.4414 38.1373 86.2068 39.5514 85.7337 40.6464C85.3535 41.5232 84.3627 41.8989 84.5447 42.9171C84.844 44.6019 86.8337 44.7353 87.9336 43.7575C88.2531 45.1797 90.0487 45.3979 90.8777 44.2423C91.8887 42.8363 90.9586 41.8464 90.0648 40.7676C89.3491 39.907 88.3623 38.9454 88.0266 37.8423C87.6263 36.509 87.598 34.3595 87.9255 32.9898C88.2288 31.7171 88.7465 30.105 89.5027 29.41C89.1347 29.2242 89.9233 29.2161 89.1549 29.2484V29.2524Z" fill="#484FA1"/>
<path d="M89.4623 45.2686C89.3329 45.2686 89.2035 45.2565 89.0741 45.2282C88.4917 45.1111 88.0347 44.7434 87.7961 44.2181C87.1248 44.6464 86.2715 44.7717 85.5638 44.5252C84.8683 44.2828 84.4072 43.7292 84.2697 42.9656C84.1322 42.1979 84.5569 41.7212 84.9289 41.2969C85.1352 41.0626 85.3495 40.8202 85.4749 40.5333C85.7943 39.802 86.0006 38.9131 86.2028 38.0565C86.2958 37.6606 86.3888 37.2727 86.4859 36.9131C86.7487 35.9515 86.9631 35.0343 87.1693 34.1454C87.6627 32.0242 88.0914 30.1899 88.9285 29.0787C88.981 29.0101 89.0579 28.9696 89.1428 28.9656L89.3693 28.9535C89.5068 28.9454 89.7332 28.9373 89.7858 29.1757C89.7979 29.2282 89.7858 29.2848 89.7696 29.3333C89.7696 29.3454 89.7737 29.3535 89.7777 29.3656C89.7899 29.4585 89.7656 29.5555 89.7009 29.6161C89.1428 30.1292 88.609 31.3494 88.2046 33.0505C87.8851 34.404 87.9296 36.5131 88.3016 37.7575C88.5524 38.5898 89.2399 39.3777 89.8424 40.0686C89.9961 40.2424 90.1457 40.4161 90.2832 40.5818L90.4005 40.7232C91.2457 41.7333 92.2041 42.8808 91.1082 44.404C90.7159 44.9494 90.0972 45.2606 89.4582 45.2606L89.4623 45.2686ZM87.9377 43.4747C87.966 43.4747 87.9943 43.4787 88.0226 43.4868C88.1197 43.5191 88.1884 43.5959 88.2127 43.6929C88.33 44.2101 88.6858 44.5696 89.1873 44.6707C89.7373 44.7838 90.3115 44.5494 90.6512 44.0767C91.4479 42.9656 90.9101 42.2181 89.9678 41.0909L89.8465 40.9454C89.709 40.7797 89.5634 40.6141 89.4138 40.4404C88.7708 39.705 88.0428 38.8686 87.7557 37.9191C87.5575 37.2646 87.4443 36.404 87.42 35.5272C87.2987 36.0242 87.1693 36.5373 87.0278 37.0585C86.9307 37.4141 86.8417 37.7939 86.7487 38.1818C86.5425 39.0626 86.3282 39.9757 85.9885 40.7515C85.8267 41.1232 85.5719 41.4141 85.3454 41.6686C85.0017 42.0565 84.7308 42.3636 84.8197 42.8606C84.9451 43.5717 85.3899 43.8666 85.7418 43.9878C86.3767 44.206 87.1976 44.0242 87.7436 43.5393C87.7961 43.4909 87.8649 43.4666 87.9296 43.4666L87.9377 43.4747Z" fill="#484FA1"/>
<path d="M29.9947 29.0303C29.3112 28.7879 28.5954 28.5818 27.8068 28.3515C23.969 27.2243 20.3456 25.3293 17.9879 22.0445C13.7053 16.0808 15.699 8.37174 21.4941 4.24649C27.8756 -0.294928 34.896 -0.868666 42.3007 2.09295C47.7116 4.25861 51.7314 10.1051 51.2784 15.8909C50.9873 19.6283 49.4627 21.2849 47.4851 23.5111C46.5631 24.5495 45.4065 25.3051 44.169 25.9152C43.2955 26.3475 40.9783 26.8283 40.4728 27.6202C39.8864 28.5334 40.9742 30.1051 41.5323 30.7313C42.3411 31.6323 43.3723 32.3435 44.4197 32.9334C45.1962 33.3738 46.1546 33.7172 47.0079 34.0283C47.7682 34.3031 48.67 34.4526 49.3616 34.8404C50.3847 35.4142 49.6082 35.798 48.9895 35.9192C48.112 36.093 46.8017 36.0041 45.8958 36.0041C43.5705 36.0041 41.2411 35.0869 39.1301 34.194C36.8978 33.2485 34.9446 31.802 32.9387 30.4728C31.9237 29.802 30.9854 29.3778 29.9906 29.0303H29.9947Z" fill="#E7E7F0"/>
<path d="M47.477 36.291C47.1859 36.291 46.8907 36.2869 46.6116 36.2788C46.3609 36.2748 46.1344 36.2586 45.8999 36.2667H45.8958C43.5624 36.2667 41.225 35.3617 39.0331 34.4324C37.193 33.6566 35.5269 32.5293 33.9174 31.4384C33.5453 31.1879 33.1733 30.9334 32.7972 30.6869C31.9075 30.097 31.0138 29.6606 29.9057 29.2728C29.2789 29.0505 28.6116 28.8566 27.9079 28.6505L27.734 28.598C23.2249 27.2728 19.8765 25.1192 17.7776 22.194C15.8324 19.4869 15.056 16.2182 15.5938 12.9899C16.1762 9.48287 18.275 6.21822 21.3444 4.03236C27.6734 -0.472687 34.7585 -1.20804 42.3977 1.85055C48.0594 4.11721 51.9902 10.1617 51.5413 15.9112C51.2461 19.6728 49.7174 21.394 47.7803 23.5758L47.6833 23.6849C46.8421 24.6303 45.7341 25.4384 44.2863 26.1495C43.9911 26.295 43.5462 26.4445 43.0731 26.6021C42.1955 26.897 40.9904 27.3011 40.6952 27.7617C40.2463 28.4606 41.0672 29.8182 41.7305 30.5576C42.4099 31.3172 43.3319 32.0202 44.5532 32.7071C45.3094 33.1354 46.2598 33.4788 47.0969 33.7819C47.3638 33.8788 47.6428 33.9596 47.9381 34.0404C48.4719 34.194 49.0219 34.3475 49.491 34.6142C49.6649 34.7112 50.1906 35.0061 50.1178 35.4546C50.041 35.9314 49.3413 36.1213 49.0421 36.1778C48.5851 36.2667 48.0311 36.291 47.473 36.291H47.477ZM45.9039 35.7455C46.1223 35.7455 46.369 35.7495 46.6237 35.7576C47.4123 35.7738 48.3061 35.794 48.945 35.6687C49.3697 35.5839 49.584 35.4344 49.6042 35.3778C49.6042 35.3778 49.5759 35.2687 49.2402 35.0788C48.8237 34.8445 48.302 34.695 47.8006 34.5536C47.5094 34.4728 47.2101 34.3839 46.9271 34.2829C46.0657 33.9718 45.0951 33.6162 44.2984 33.1677C43.0246 32.4485 42.058 31.7132 41.3422 30.9091C40.6305 30.1132 39.6033 28.497 40.2544 27.4788C40.6507 26.8647 41.8477 26.4606 42.9073 26.1051C43.3602 25.9516 43.7889 25.8101 44.0558 25.6768C45.4388 24.994 46.4984 24.2263 47.291 23.3334L47.3881 23.2243C49.3333 21.0384 50.7365 19.4546 51.0156 15.8707C51.4483 10.3394 47.659 4.52125 42.1996 2.33943C34.7383 -0.650465 27.823 0.0646867 21.6478 4.46065C18.6875 6.5657 16.6695 9.70913 16.1115 13.0788C15.5898 16.2142 16.3137 19.2606 18.2022 21.891C20.2606 24.7556 23.4271 26.7879 27.8796 28.097L28.0535 28.1495C28.7653 28.3596 29.4366 28.5576 30.0796 28.7798C31.2321 29.1839 32.1582 29.6364 33.0883 30.2505C33.4644 30.5011 33.8365 30.7516 34.2126 31.0061C35.8019 32.0808 37.4478 33.192 39.2393 33.9516C41.3827 34.8566 43.6635 35.7415 45.8958 35.7415C45.8958 35.7415 45.9039 35.7415 45.908 35.7415L45.9039 35.7455Z" fill="#484FA1"/>
<path d="M28.8664 15.8707H25.8252V21.3172H28.8664V15.8707Z" fill="#EE235E"/>
<path d="M28.8664 21.6H25.8252C25.6675 21.6 25.5422 21.4748 25.5422 21.3172V15.8707C25.5422 15.7131 25.6675 15.5879 25.8252 15.5879H28.8664C29.0241 15.5879 29.1494 15.7131 29.1494 15.8707V21.3172C29.1494 21.4748 29.0241 21.6 28.8664 21.6ZM26.1083 21.0344H28.5833V16.1535H26.1083V21.0344Z" fill="#484FA1"/>
<path d="M33.3188 13.1354H30.2777V21.3172H33.3188V13.1354Z" fill="#EE235E"/>
<path d="M33.3148 21.6H30.2737C30.116 21.6 29.9906 21.4748 29.9906 21.3172V13.1354C29.9906 12.9778 30.116 12.8525 30.2737 12.8525H33.3148C33.4725 12.8525 33.5979 12.9778 33.5979 13.1354V21.3172C33.5979 21.4748 33.4725 21.6 33.3148 21.6ZM30.5608 21.0344H33.0358V13.4182H30.5608V21.0344Z" fill="#484FA1"/>
<path d="M37.7673 9.68481H34.7262V21.3252H37.7673V9.68481Z" fill="#EE235E"/>
<path d="M37.7673 21.608H34.7262C34.5685 21.608 34.4431 21.4828 34.4431 21.3252V9.68481C34.4431 9.52723 34.5685 9.40198 34.7262 9.40198H37.7673C37.925 9.40198 38.0504 9.52723 38.0504 9.68481V21.3252C38.0504 21.4828 37.925 21.608 37.7673 21.608ZM35.0093 21.0424H37.4842V9.96763H35.0093V21.0424Z" fill="#484FA1"/>
<path d="M42.2198 6.48083H39.1787V21.3253H42.2198V6.48083Z" fill="#EE235E"/>
<path d="M42.2157 21.6081H39.1746C39.0169 21.6081 38.8915 21.4828 38.8915 21.3253V6.48083C38.8915 6.32325 39.0169 6.198 39.1746 6.198H42.2157C42.3735 6.198 42.4988 6.32325 42.4988 6.48083V21.3253C42.4988 21.4828 42.3735 21.6081 42.2157 21.6081ZM39.4618 21.0424H41.9367V6.76365H39.4618V21.0424Z" fill="#484FA1"/>
<path d="M55.5546 38.2123C56.3668 37.8299 56.9033 37.2614 56.7529 36.9424C56.6025 36.6235 55.8221 36.6749 55.0099 37.0573C54.1977 37.4397 53.6612 38.0082 53.8116 38.3271C53.9621 38.6461 54.7424 38.5946 55.5546 38.2123Z" fill="#484FA1"/>
<path d="M54.3236 38.8163C53.9677 38.8163 53.6846 38.7072 53.5593 38.4446C53.4865 38.291 53.4258 37.9637 53.8464 37.5193C54.0971 37.2526 54.4692 36.9981 54.8898 36.8001C55.7188 36.4082 56.7379 36.2466 57.0088 36.8203C57.0816 36.9738 57.1423 37.3011 56.7217 37.7456C56.471 38.0122 56.0989 38.2668 55.6783 38.4648C55.2335 38.6749 54.7361 38.8163 54.3276 38.8163H54.3236ZM54.0688 38.2021C54.1537 38.2749 54.6754 38.3072 55.4317 37.9516C56.2 37.588 56.5074 37.1557 56.4912 37.0547C56.4265 36.99 55.8967 36.9496 55.1284 37.3092C54.3721 37.6648 54.0648 38.089 54.0688 38.2021Z" fill="#484FA1"/>
<path d="M55.8199 39.1757C55.7067 39.0666 55.6864 38.8767 55.7956 38.7636C55.9008 38.6505 56.0666 38.6303 56.1798 38.7353L55.9897 38.9414L56.1919 38.7434L56.0221 38.9696L55.828 39.1757H55.8199Z" fill="#484FA1"/>
<path d="M52.7141 46.202H52.6291C52.4714 46.202 52.3461 46.0686 52.3501 45.9151C52.3501 45.7616 52.4795 45.6363 52.6332 45.6363H52.7181C52.8758 45.6363 53.0012 45.7656 53.0012 45.9191C53.0012 46.0727 52.8758 46.202 52.7181 46.202H52.7141ZM53.5391 46.1656C53.3935 46.1656 53.2721 46.0565 53.256 45.911C53.2398 45.7575 53.353 45.6161 53.5107 45.5999L53.5876 45.5919C53.7372 45.5757 53.8828 45.6848 53.903 45.8383C53.9192 45.9919 53.81 46.1333 53.6563 46.1535L53.5674 46.1616C53.5674 46.1616 53.5471 46.1616 53.5391 46.1616V46.1656ZM54.4368 45.9999C54.3115 45.9999 54.1982 45.9191 54.1659 45.7939C54.1214 45.6444 54.2104 45.4868 54.36 45.4424L54.4368 45.4222C54.5865 45.3777 54.7442 45.4626 54.7887 45.6121C54.8331 45.7616 54.7482 45.9191 54.5986 45.9636L54.5177 45.9878C54.4934 45.9959 54.4651 45.9999 54.4409 45.9999H54.4368ZM55.2982 45.709C55.189 45.709 55.0839 45.6444 55.0353 45.5353C54.9747 45.3898 55.0434 45.2242 55.189 45.1636L55.2618 45.1312C55.4034 45.0666 55.5732 45.1312 55.6339 45.2767C55.6945 45.4181 55.6339 45.5878 55.4883 45.6484L55.4074 45.6848C55.371 45.7009 55.3346 45.705 55.2982 45.705V45.709ZM56.0827 45.2525C56.0019 45.2525 55.925 45.2201 55.8684 45.1555C55.7673 45.0383 55.7794 44.8605 55.8967 44.7555L55.9493 44.707C56.0625 44.5979 56.2405 44.606 56.3497 44.7191C56.4548 44.8323 56.4508 45.01 56.3375 45.1191L56.2688 45.1838C56.2162 45.2323 56.1475 45.2525 56.0827 45.2525ZM56.5519 44.4888C56.5519 44.4888 56.5114 44.4888 56.4952 44.4848C56.3416 44.4525 56.2445 44.303 56.2769 44.1494C56.2809 44.1292 56.285 44.109 56.285 44.0888C56.3052 43.9353 56.4467 43.8222 56.6004 43.8424C56.7541 43.8626 56.8633 44.004 56.8471 44.1575C56.843 44.1939 56.8349 44.2262 56.8309 44.2626C56.8026 44.3959 56.6853 44.4888 56.5559 44.4888H56.5519ZM56.3052 43.6686C56.2405 43.6686 56.1798 43.6484 56.1272 43.604C56.1111 43.5919 56.0949 43.5797 56.0787 43.5676C55.9493 43.4787 55.9169 43.3009 56.0059 43.1757C56.0949 43.0464 56.2688 43.0141 56.3982 43.103C56.4265 43.1232 56.4548 43.1434 56.4831 43.1676C56.6044 43.2646 56.6206 43.4464 56.5236 43.5676C56.4669 43.6363 56.3861 43.6727 56.3052 43.6727V43.6686ZM54.4732 43.3535C54.3195 43.3535 54.1942 43.2323 54.1901 43.0787C54.1861 42.9212 54.3074 42.7919 54.4651 42.7878H54.5379C54.6916 42.7878 54.8291 42.8969 54.8372 43.0504C54.8453 43.204 54.728 43.3414 54.5703 43.3494H54.4773C54.4773 43.3494 54.4732 43.3494 54.4692 43.3494L54.4732 43.3535ZM55.4681 43.3373C55.4681 43.3373 55.4397 43.3373 55.4276 43.3373L55.3548 43.3292C55.2012 43.3131 55.0839 43.1757 55.1001 43.0181C55.1162 42.8605 55.2537 42.7434 55.4114 42.7636L55.5045 42.7757C55.6581 42.7959 55.7673 42.9414 55.7431 43.0949C55.7228 43.2363 55.6015 43.3373 55.464 43.3373H55.4681ZM53.6563 43.2525C53.628 43.2525 53.5957 43.2484 53.5674 43.2363C53.535 43.2242 53.5067 43.2161 53.4743 43.204C53.3288 43.1474 53.26 42.9818 53.3166 42.8363C53.3773 42.6908 53.5391 42.6222 53.6846 42.6787L53.7453 42.703C53.8949 42.7515 53.9718 42.9131 53.9232 43.0626C53.8828 43.1797 53.7736 43.2565 53.6563 43.2565V43.2525ZM52.9365 42.7232C52.8354 42.7232 52.7383 42.6706 52.6858 42.5737C52.6655 42.5373 52.6494 42.5009 52.6372 42.4646C52.5806 42.3191 52.6575 42.1535 52.803 42.1009C52.9486 42.0484 53.1144 42.1212 53.167 42.2666C53.171 42.2787 53.1791 42.2949 53.1872 42.307C53.26 42.4444 53.2115 42.6141 53.074 42.6908C53.0295 42.7151 52.985 42.7232 52.9405 42.7232H52.9365ZM53.1266 41.8949C53.0578 41.8949 52.9931 41.8706 52.9405 41.8222C52.8233 41.7171 52.8111 41.5393 52.9163 41.4222L52.981 41.3535C53.0902 41.2403 53.2681 41.2363 53.3813 41.3454C53.4946 41.4545 53.4986 41.6323 53.3894 41.7454L53.3409 41.7979C53.2843 41.8626 53.2074 41.8949 53.1306 41.8949H53.1266ZM53.8383 41.3252C53.7453 41.3252 53.6523 41.2767 53.5997 41.1919C53.5148 41.0585 53.5552 40.8848 53.6887 40.7999L53.7615 40.7555C53.8949 40.6747 54.0688 40.7151 54.1497 40.8484C54.2306 40.9818 54.1901 41.1555 54.0567 41.2363L53.992 41.2767C53.9435 41.305 53.8909 41.3211 53.8424 41.3211L53.8383 41.3252ZM54.6431 40.8969C54.5339 40.8969 54.4287 40.8323 54.3843 40.7272C54.3195 40.5858 54.3843 40.4161 54.5298 40.3555L54.6107 40.3232C54.7563 40.2626 54.9221 40.3272 54.9828 40.4727C55.0434 40.6181 54.9787 40.7838 54.8331 40.8444L54.7604 40.8767C54.724 40.8929 54.6835 40.9009 54.6471 40.9009L54.6431 40.8969ZM55.4883 40.5575C55.3791 40.5575 55.2739 40.4929 55.2295 40.3878C55.1688 40.2464 55.2295 40.0767 55.375 40.0161L55.4478 39.9838C55.5894 39.9191 55.7592 39.9838 55.8239 40.1252C55.8886 40.2666 55.8239 40.4363 55.6824 40.5009L55.6015 40.5373C55.5651 40.5535 55.5247 40.5616 55.4883 40.5616V40.5575ZM56.2364 40.0525C56.1839 40.0525 56.1272 40.0363 56.0827 40.004C55.9533 39.9191 55.9169 39.7414 56.0019 39.6121C56.01 39.5999 56.018 39.5878 56.0221 39.5757C56.0868 39.4343 56.2566 39.3737 56.3982 39.4383C56.5397 39.503 56.6004 39.6727 56.5357 39.8141C56.5195 39.8504 56.4993 39.8868 56.475 39.9232C56.4224 40.004 56.3294 40.0484 56.2405 40.0484L56.2364 40.0525Z" fill="#484FA1"/>
<path d="M51.792 46.1575C51.792 46.1575 51.7759 46.1575 51.7678 46.1575H51.7435C51.5898 46.1413 51.4645 46.0039 51.4806 45.8464C51.4968 45.6928 51.6222 45.5757 51.7759 45.5918H51.8163C51.97 45.608 52.0872 45.7454 52.0751 45.9029C52.063 46.0484 51.9376 46.1615 51.792 46.1615V46.1575Z" fill="#484FA1"/>
<path d="M54.7644 37.3333C53.7008 36.6505 51.7718 35.1636 52.0023 33.608C52.1156 32.8444 53.2277 32.2747 54.0082 32.4767C54.9019 32.707 55.1769 33.9474 55.3063 34.707C55.4559 35.5757 55.5692 36.8282 55.2052 37.5838C55.0475 37.4343 54.5258 37.1596 54.7644 37.3373V37.3333Z" fill="#FFD008"/>
<path d="M55.2012 37.8666C55.1284 37.8666 55.0596 37.8383 55.003 37.7858C54.9585 37.7414 54.8412 37.6686 54.7482 37.6121C54.6957 37.6 54.6512 37.6 54.6067 37.5717C53.4177 36.808 51.4645 35.2767 51.7152 33.5676C51.7718 33.1757 52.0306 32.808 52.4431 32.5373C52.9446 32.202 53.5674 32.0767 54.0729 32.206C55.2052 32.4969 55.4802 34.0686 55.5813 34.6626C55.7431 35.6 55.8523 36.8888 55.4559 37.709C55.4155 37.7899 55.3387 37.8464 55.2497 37.8626C55.2335 37.8626 55.2173 37.8666 55.2012 37.8666ZM54.7887 37.0141C54.8776 37.0383 54.9747 37.0828 55.0637 37.1393C55.2092 36.5818 55.1971 35.7535 55.0273 34.7595C54.8938 33.9838 54.635 32.9333 53.9354 32.7555C53.5876 32.6666 53.1266 32.7676 52.7586 33.0101C52.4876 33.1919 52.3097 33.4262 52.2773 33.6525C52.0751 35.0343 53.8707 36.4121 54.7846 37.0181L54.7887 37.0141Z" fill="#484FA1"/>
<path d="M53.6192 34.7484C53.9499 34.7117 54.1865 34.3978 54.1475 34.0474C54.1085 33.697 53.8088 33.4427 53.4781 33.4794C53.1473 33.5161 52.9108 33.83 52.9497 34.1804C52.9887 34.5308 53.2884 34.7851 53.6192 34.7484Z" fill="#484FA1"/>
<path d="M53.5552 35.0343C53.3611 35.0343 53.171 34.9657 53.0133 34.8404C52.8192 34.6869 52.6979 34.4606 52.6696 34.2101C52.613 33.7051 52.9607 33.2525 53.4501 33.196C53.9394 33.1434 54.3762 33.5071 54.4328 34.0121C54.4894 34.5172 54.1376 34.9697 53.6523 35.0263C53.6199 35.0263 53.5876 35.0303 53.5552 35.0303V35.0343ZM53.5431 33.7576C53.5431 33.7576 53.5229 33.7576 53.5107 33.7576C53.3368 33.7778 53.2115 33.9515 53.2317 34.1455C53.2438 34.2465 53.2924 34.3354 53.3652 34.396C53.4299 34.4485 53.5107 34.4727 53.5876 34.4646C53.7655 34.4444 53.8909 34.2707 53.8666 34.0768C53.8464 33.8949 53.7049 33.7576 53.539 33.7576H53.5431Z" fill="#484FA1"/>
<path d="M1.25365 6.4122C4.67087 5.26472 5.03483 3.00614 6.39767 0.783915C6.5473 0.54149 6.91127 0.577854 7.00832 0.844521C7.74838 2.90513 7.96272 5.38593 11.3274 5.94351C11.5376 5.97987 11.5619 6.29099 11.4244 6.4526C9.53181 8.75967 7.96272 9.38594 6.40576 16.2506C6.32892 16.5819 5.85982 16.5981 5.75063 16.2789C5.24108 14.7758 4.90542 11.5354 4.03191 10.0728C3.17457 8.6425 2.15547 7.76977 1.17277 6.98189C0.97057 6.82028 1.00697 6.48493 1.24961 6.40412L1.25365 6.4122Z" fill="#FFD008"/>
<path d="M6.07819 16.8C5.80724 16.8 5.57269 16.6344 5.48372 16.3758C5.2896 15.798 5.11975 14.9859 4.94182 14.1213C4.6466 12.7031 4.31499 11.099 3.79331 10.2223C2.96833 8.84448 2.0018 8.01216 0.998877 7.20812C0.816895 7.06267 0.73197 6.83236 0.772411 6.60206C0.812851 6.38388 0.958437 6.21418 1.16468 6.14145C3.72456 5.28489 4.47675 3.81418 5.35027 2.10913C5.59695 1.62832 5.85173 1.13135 6.15907 0.630343C6.28444 0.424282 6.51495 0.311151 6.75759 0.335393C6.99619 0.359636 7.19839 0.517211 7.27927 0.743474C7.38846 1.05458 7.48956 1.37378 7.59066 1.69297C8.15279 3.50307 8.6866 5.21216 11.3799 5.65661C11.5579 5.68489 11.6954 5.80206 11.7601 5.9758C11.841 6.18994 11.7965 6.44852 11.6509 6.6263C11.3152 7.03438 10.9917 7.3859 10.6803 7.72933C9.22041 9.32933 7.95867 10.7112 6.68884 16.3071C6.62818 16.5778 6.39767 16.7718 6.11863 16.7839C6.1065 16.7839 6.09437 16.7839 6.08224 16.7839L6.07819 16.8ZM1.34262 6.68287C1.34262 6.68287 1.33049 6.68287 1.33049 6.70307C1.33049 6.72327 1.33049 6.75155 1.35475 6.77176C2.35767 7.5758 3.40913 8.48085 4.28264 9.93539C4.85689 10.893 5.19659 12.5455 5.49989 14.0081C5.67379 14.8526 5.83959 15.6526 6.02562 16.194C6.03371 16.2223 6.04988 16.2344 6.08628 16.2344C6.12672 16.2344 6.13076 16.2061 6.13481 16.198C7.43699 10.4566 8.74322 9.02226 10.2597 7.36166C10.5671 7.0263 10.8866 6.67479 11.2101 6.27883C11.2222 6.26267 11.2263 6.23842 11.2303 6.21822C8.24176 5.69701 7.60684 3.66469 7.04876 1.87075C6.95171 1.5556 6.85465 1.24448 6.74546 0.941454C6.74546 0.933373 6.73333 0.90913 6.69693 0.90509C6.67267 0.90509 6.65245 0.913171 6.64031 0.933373C6.3451 1.41418 6.09437 1.89903 5.85173 2.37176C4.96204 4.10913 4.12088 5.74954 1.34262 6.68287Z" fill="#484FA1"/>
<path d="M14.0571 18.7314C16.0912 18.4606 16.7019 17.1435 17.1791 15.8303C17.2155 15.7253 17.3651 15.7132 17.4177 15.8142C18.1133 17.1273 18.6107 18.7314 20.1595 19.0425C20.2647 19.0627 20.3051 19.2 20.2202 19.2687C19.3548 20.0041 18.5096 20.4243 18.0081 21.6C17.6563 22.4243 17.4783 23.2404 17.1103 24.0526C17.0658 24.1495 16.9122 24.1617 16.8717 24.0606C16.0629 21.996 16.0306 20.3354 14.0247 18.9617C13.9398 18.9051 13.956 18.7516 14.0571 18.7354V18.7314Z" fill="#FFD008"/>
<path d="M16.985 24.4081H16.9728C16.8111 24.4081 16.6695 24.3071 16.6089 24.1576C16.4107 23.6566 16.2651 23.1839 16.1195 22.7273C15.6707 21.3011 15.3148 20.1778 13.867 19.1879C13.7255 19.091 13.6608 18.9132 13.7012 18.7435C13.7376 18.5859 13.863 18.4687 14.0207 18.4485C15.8729 18.2021 16.4269 17.0708 16.9122 15.7293C16.9688 15.5758 17.1103 15.4708 17.2721 15.4586C17.4339 15.4546 17.5875 15.5354 17.6644 15.6768C17.7816 15.899 17.8949 16.1293 18.0081 16.3637C18.55 17.4788 19.0596 18.5293 20.2081 18.7597C20.3658 18.792 20.4871 18.9091 20.5275 19.0627C20.568 19.2162 20.5154 19.3778 20.3941 19.4788C20.1919 19.6485 19.9937 19.8021 19.7996 19.9556C19.1647 20.4445 18.6188 20.8647 18.2629 21.7051C18.1011 22.0809 17.9758 22.4687 17.8544 22.8405C17.7129 23.2728 17.5673 23.7172 17.3651 24.1617C17.2964 24.3112 17.1467 24.4081 16.9809 24.4081H16.985ZM14.4898 18.9455C15.8486 19.996 16.2247 21.192 16.6614 22.5617C16.7666 22.893 16.8758 23.2364 17.0011 23.5879C17.1184 23.2889 17.2195 22.9859 17.3206 22.6708C17.446 22.2869 17.5794 21.8869 17.7493 21.491C18.1658 20.5172 18.7927 20.0324 19.4599 19.5152C19.5732 19.4263 19.6904 19.3374 19.8037 19.2445C18.5905 18.8607 18.0364 17.7213 17.4986 16.6182C17.4379 16.497 17.3813 16.3758 17.3206 16.2546C16.8556 17.4506 16.1883 18.5819 14.4857 18.9455H14.4898Z" fill="#484FA1"/>
</g>
<defs>
<clipPath id="clip0_5825_49681">
<rect width="167.019" height="160" fill="white"/>
</clipPath>
</defs>
</svg>
